# MagicaVoxel @ ephtracy

# material
mtllib trunk.mtl
usemtl palette

# normals
vn -1 0 0
vn 1 0 0
vn 0 0 1
vn 0 0 -1
vn 0 -1 0
vn 0 1 0

# texcoords
vt 0.310547 0.5
vt 0.630859 0.5

# verts
v -2.5 1 0.5
v -2.5 1 -0.5
v -2.5 2 0.5
v -2.5 2 -0.5
v -2.5 2 -1.5
v -2.5 3 -0.5
v -2.5 3 -1.5
v -1.5 0 0.5
v -1.5 0 -0.5
v -1.5 1 1.5
v -1.5 1 0.5
v -1.5 1 -0.5
v -1.5 1 -1.5
v -1.5 2 0.5
v -1.5 2 -0.5
v -1.5 2 -1.5
v -1.5 2 -2.5
v -1.5 3 1.5
v -1.5 3 0.5
v -1.5 3 -0.5
v -1.5 3 -1.5
v -1.5 3 -2.5
v -1.5 4 0.5
v -1.5 4 -1.5
v -0.5 0 1.5
v -0.5 0 0.5
v -0.5 0 -0.5
v -0.5 0 -1.5
v -0.5 1 2.5
v -0.5 1 1.5
v -0.5 1 0.5
v -0.5 1 -0.5
v -0.5 1 -1.5
v -0.5 2 2.5
v -0.5 2 1.5
v 0.5 0 1.5
v 0.5 0 0.5
v 0.5 0 -0.5
v 0.5 0 -1.5
v 0.5 1 1.5
v 0.5 1 0.5
v 0.5 1 -0.5
v 0.5 1 -1.5
v 0.5 2 -1.5
v 0.5 2 -2.5
v 0.5 3 0.5
v 0.5 3 -1.5
v 0.5 3 -2.5
v 0.5 4 0.5
v 0.5 4 -1.5
v 1.5 0 0.5
v 1.5 0 -0.5
v 1.5 1 2.5
v 1.5 1 0.5
v 1.5 1 -0.5
v 1.5 1 -1.5
v 1.5 2 2.5
v 1.5 2 1.5
v 1.5 2 0.5
v 1.5 2 -0.5
v 1.5 3 1.5
v 1.5 3 -1.5
v 2.5 1 0.5
v 2.5 1 -0.5
v 2.5 2 0.5
v 2.5 2 -0.5
v -0.5 1 2.5
v -0.5 2 2.5
v 1.5 1 2.5
v 1.5 2 2.5
v -1.5 1 1.5
v -1.5 3 1.5
v -0.5 0 1.5
v -0.5 1 1.5
v -0.5 2 1.5
v 0.5 0 1.5
v 0.5 1 1.5
v 1.5 2 1.5
v 1.5 3 1.5
v -2.5 1 0.5
v -2.5 2 0.5
v -1.5 0 0.5
v -1.5 1 0.5
v -1.5 2 0.5
v -1.5 3 0.5
v -1.5 4 0.5
v -0.5 0 0.5
v -0.5 1 0.5
v 0.5 0 0.5
v 0.5 1 0.5
v 0.5 3 0.5
v 0.5 4 0.5
v 1.5 0 0.5
v 1.5 1 0.5
v 1.5 2 0.5
v 2.5 1 0.5
v 2.5 2 0.5
v -2.5 2 -0.5
v -2.5 3 -0.5
v -1.5 2 -0.5
v -1.5 3 -0.5
v -2.5 1 -0.5
v -2.5 2 -0.5
v -1.5 0 -0.5
v -1.5 1 -0.5
v -1.5 2 -0.5
v -0.5 0 -0.5
v -0.5 1 -0.5
v 0.5 0 -0.5
v 0.5 1 -0.5
v 1.5 0 -0.5
v 1.5 1 -0.5
v 1.5 2 -0.5
v 2.5 1 -0.5
v 2.5 2 -0.5
v -2.5 2 -1.5
v -2.5 3 -1.5
v -1.5 1 -1.5
v -1.5 2 -1.5
v -1.5 3 -1.5
v -1.5 4 -1.5
v -0.5 0 -1.5
v -0.5 1 -1.5
v 0.5 0 -1.5
v 0.5 1 -1.5
v 0.5 2 -1.5
v 0.5 3 -1.5
v 0.5 4 -1.5
v 1.5 1 -1.5
v 1.5 3 -1.5
v -1.5 2 -2.5
v -1.5 3 -2.5
v 0.5 2 -2.5
v 0.5 3 -2.5
v -0.5 0 1.5
v 0.5 0 1.5
v -1.5 0 0.5
v -0.5 0 0.5
v 0.5 0 0.5
v 1.5 0 0.5
v -1.5 0 -0.5
v -0.5 0 -0.5
v 0.5 0 -0.5
v 1.5 0 -0.5
v -0.5 0 -1.5
v 0.5 0 -1.5
v -0.5 1 2.5
v 1.5 1 2.5
v -1.5 1 1.5
v -0.5 1 1.5
v 0.5 1 1.5
v -2.5 1 0.5
v -1.5 1 0.5
v -0.5 1 0.5
v 0.5 1 0.5
v 1.5 1 0.5
v 2.5 1 0.5
v -2.5 1 -0.5
v -1.5 1 -0.5
v -0.5 1 -0.5
v 0.5 1 -0.5
v 1.5 1 -0.5
v 2.5 1 -0.5
v -1.5 1 -1.5
v -0.5 1 -1.5
v 0.5 1 -1.5
v 1.5 1 -1.5
v -2.5 2 -0.5
v -1.5 2 -0.5
v -2.5 2 -1.5
v -1.5 2 -1.5
v 0.5 2 -1.5
v -1.5 2 -2.5
v 0.5 2 -2.5
v -0.5 2 2.5
v 1.5 2 2.5
v -0.5 2 1.5
v 1.5 2 1.5
v -2.5 2 0.5
v -1.5 2 0.5
v 1.5 2 0.5
v 2.5 2 0.5
v -2.5 2 -0.5
v -1.5 2 -0.5
v 1.5 2 -0.5
v 2.5 2 -0.5
v -1.5 3 1.5
v 1.5 3 1.5
v -1.5 3 0.5
v 0.5 3 0.5
v -2.5 3 -0.5
v -1.5 3 -0.5
v -2.5 3 -1.5
v -1.5 3 -1.5
v 0.5 3 -1.5
v 1.5 3 -1.5
v -1.5 3 -2.5
v 0.5 3 -2.5
v -1.5 4 0.5
v 0.5 4 0.5
v -1.5 4 -1.5
v 0.5 4 -1.5

# faces
f 3/2/1 2/2/1 1/2/1
f 4/2/1 2/2/1 3/2/1
f 6/2/1 5/2/1 4/2/1
f 7/2/1 5/2/1 6/2/1
f 11/2/1 9/2/1 8/2/1
f 12/2/1 9/2/1 11/2/1
f 14/2/1 11/2/1 10/2/1
f 15/2/1 13/2/1 12/2/1
f 16/2/1 13/2/1 15/2/1
f 18/2/1 14/2/1 10/2/1
f 18/2/1 15/2/1 14/2/1
f 19/2/1 15/2/1 18/2/1
f 20/2/1 15/2/1 19/2/1
f 21/2/1 17/2/1 16/2/1
f 22/2/1 17/2/1 21/2/1
f 23/2/1 20/2/1 19/2/1
f 23/2/1 21/2/1 20/2/1
f 24/2/1 21/2/1 23/2/1
f 30/2/1 26/2/1 25/2/1
f 31/2/1 26/2/1 30/2/1
f 32/2/1 28/2/1 27/2/1
f 33/2/1 28/2/1 32/2/1
f 34/2/1 30/2/1 29/2/1
f 35/2/1 30/2/1 34/2/1
f 36/2/2 37/2/2 40/2/2
f 40/2/2 37/2/2 41/2/2
f 38/2/2 39/2/2 42/2/2
f 42/2/2 39/2/2 43/2/2
f 44/2/2 45/2/2 47/2/2
f 47/2/2 45/2/2 48/2/2
f 46/2/2 47/2/2 49/2/2
f 49/2/2 47/2/2 50/2/2
f 51/2/2 52/2/2 54/2/2
f 54/2/2 52/2/2 55/2/2
f 53/2/2 54/2/2 57/2/2
f 57/2/2 54/2/2 58/2/2
f 58/2/2 54/2/2 59/2/2
f 55/2/2 56/2/2 60/2/2
f 58/2/2 59/2/2 61/2/2
f 59/2/2 60/2/2 61/2/2
f 60/2/2 56/2/2 62/2/2
f 61/2/2 60/2/2 62/2/2
f 63/2/2 64/2/2 65/2/2
f 65/2/2 64/2/2 66/2/2
f 69/2/3 68/2/3 67/2/3
f 70/2/3 68/2/3 69/2/3
f 74/2/3 72/2/3 71/2/3
f 75/2/3 72/2/3 74/2/3
f 76/2/3 74/2/3 73/2/3
f 77/2/3 74/2/3 76/2/3
f 78/2/3 72/2/3 75/2/3
f 79/2/3 72/2/3 78/2/3
f 83/2/3 81/2/3 80/2/3
f 84/2/3 81/2/3 83/2/3
f 87/2/3 83/2/3 82/2/3
f 88/2/3 83/2/3 87/2/3
f 91/2/3 86/2/3 85/2/3
f 92/2/3 86/2/3 91/2/3
f 93/2/3 90/2/3 89/2/3
f 94/2/3 90/2/3 93/2/3
f 96/2/3 95/2/3 94/2/3
f 97/2/3 95/2/3 96/2/3
f 100/2/3 99/2/3 98/2/3
f 101/2/3 99/2/3 100/2/3
f 102/2/4 103/2/4 105/2/4
f 105/2/4 103/2/4 106/2/4
f 104/2/4 105/2/4 107/2/4
f 107/2/4 105/2/4 108/2/4
f 109/2/4 110/2/4 111/2/4
f 111/2/4 110/2/4 112/2/4
f 112/2/4 113/2/4 114/2/4
f 114/2/4 113/2/4 115/2/4
f 116/2/4 117/2/4 119/2/4
f 119/2/4 117/2/4 120/2/4
f 118/2/4 119/2/4 123/2/4
f 122/2/4 123/2/4 124/2/4
f 123/2/4 119/2/4 125/2/4
f 124/2/4 123/2/4 125/2/4
f 125/2/4 119/2/4 126/2/4
f 120/2/4 121/2/4 127/2/4
f 127/2/4 121/2/4 128/2/4
f 125/2/4 126/2/4 129/2/4
f 126/2/4 127/2/4 129/2/4
f 129/2/4 127/2/4 130/2/4
f 131/2/4 132/2/4 133/2/4
f 133/2/4 132/2/4 134/2/4
f 138/2/5 136/2/5 135/2/5
f 139/2/5 136/2/5 138/2/5
f 141/2/5 138/2/5 137/2/5
f 142/1/5 139/1/5 138/1/5
f 142/2/5 138/2/5 141/2/5
f 143/2/5 140/2/5 139/2/5
f 143/1/5 139/1/5 142/1/5
f 144/2/5 140/2/5 143/2/5
f 145/2/5 143/2/5 142/2/5
f 146/2/5 143/2/5 145/2/5
f 150/2/5 148/2/5 147/2/5
f 151/2/5 148/2/5 150/2/5
f 153/2/5 150/2/5 149/2/5
f 154/2/5 150/2/5 153/2/5
f 155/2/5 148/2/5 151/2/5
f 156/2/5 148/2/5 155/2/5
f 158/2/5 153/2/5 152/2/5
f 159/2/5 153/2/5 158/2/5
f 162/2/5 157/2/5 156/2/5
f 163/2/5 157/2/5 162/2/5
f 164/2/5 160/2/5 159/2/5
f 165/2/5 160/2/5 164/2/5
f 166/2/5 162/2/5 161/2/5
f 167/2/5 162/2/5 166/2/5
f 170/2/5 169/2/5 168/2/5
f 171/2/5 169/2/5 170/2/5
f 173/2/5 172/2/5 171/2/5
f 174/2/5 172/2/5 173/2/5
f 175/2/6 176/2/6 177/2/6
f 177/2/6 176/2/6 178/2/6
f 179/2/6 180/2/6 183/2/6
f 183/2/6 180/2/6 184/2/6
f 181/2/6 182/2/6 185/2/6
f 185/2/6 182/2/6 186/2/6
f 187/2/6 188/2/6 189/2/6
f 189/2/6 188/2/6 190/2/6
f 191/2/6 192/2/6 193/2/6
f 193/2/6 192/2/6 194/2/6
f 190/2/6 188/2/6 195/2/6
f 195/2/6 188/2/6 196/2/6
f 194/2/6 195/2/6 197/2/6
f 197/2/6 195/2/6 198/2/6
f 199/2/6 200/2/6 201/2/6
f 201/2/6 200/2/6 202/2/6
