# Blender v2.78 (sub 0) OBJ File: ''
# www.blender.org
mtllib untitled.mtl
o Mesh1_Trunk_Model
v 0.418059 0.000000 -0.411503
v 0.316098 0.230000 0.290226
v 0.418059 -0.000000 0.392187
v 0.316098 0.230000 -0.309542
v -0.283670 0.230000 -0.309542
v -0.385631 0.000000 -0.411503
v -0.385631 -0.000000 0.392187
v -0.283670 0.230000 0.290226
v 0.254217 0.830000 0.228346
v -0.221790 0.830000 0.228346
v 0.254217 0.830000 -0.247661
v -0.221790 0.830000 -0.247661
vt 31.6413 -12.8233
vt 4.0142 -2.9183
vt 0.0000 -12.8233
vt 27.6271 -2.9183
vt -31.6413 -12.8233
vt -4.0142 -2.9183
vt -27.6271 -2.9183
vt 0.0000 -12.8233
vt -31.6413 31.6413
vt 0.0000 0.0000
vt 0.0000 31.6413
vt -31.6413 0.0000
vt 27.6271 9.9050
vt 31.6413 -0.0000
vt 4.0142 9.9050
vt 25.1909 33.1665
vt 4.0142 9.4192
vt 27.6271 9.4192
vt 6.4504 33.1665
vt 6.4504 29.9204
vt 27.6271 6.1731
vt 25.1909 29.9204
vt 4.0142 6.1731
vt -27.6271 6.1731
vt -6.4504 29.9204
vt -25.1909 29.9204
vt -4.0142 6.1731
vt -27.6271 9.4192
vt -6.4504 33.1665
vt -25.1909 33.1665
vt -4.0142 9.4192
vt -31.6413 0.0000
vt -4.0142 9.9050
vt -27.6271 9.9050
vt 25.1909 6.4504
vt 6.4504 25.1909
vt 6.4504 6.4504
vt 25.1909 25.1909
vn 0.9142 0.4053 0.0000
vn 0.9664 0.2571 0.0000
vn 0.0000 0.4053 -0.9142
vn -0.0000 0.2571 -0.9664
vn 0.0000 -1.0000 -0.0000
vn 0.0000 0.2571 0.9664
vn 0.0000 0.4053 0.9142
vn 0.0000 0.1026 0.9947
vn 0.9947 0.1026 0.0000
vn 0.0000 0.1026 -0.9947
vn -0.9664 0.2571 -0.0000
vn -0.9947 0.1026 0.0000
vn -0.9142 0.4053 0.0000
vn 0.0000 1.0000 0.0000
usemtl Wood.053
s 1
f 1/1/1 2/2/2 3/3/1
f 2/2/2 1/1/1 4/4/2
f 1/5/3 5/6/4 4/7/4
f 5/6/4 1/5/3 6/8/3
f 1/9/5 7/10/5 6/11/5
f 7/10/5 1/9/5 3/12/5
f 2/13/6 7/10/7 3/14/7
f 7/10/7 2/13/6 8/15/6
f 9/16/8 8/17/6 2/18/6
f 8/17/6 9/16/8 10/19/8
f 9/20/9 4/21/2 11/22/9
f 4/21/2 9/20/9 2/23/2
f 4/24/4 12/25/10 11/26/10
f 12/25/10 4/24/4 5/27/4
f 5/28/11 10/29/12 12/30/12
f 10/29/12 5/28/11 8/31/11
f 6/32/13 8/33/11 5/34/11
f 8/33/11 6/32/13 7/10/13
usemtl Light_Wood.003
f 9/35/14 12/36/14 10/37/14
f 12/36/14 9/35/14 11/38/14
