# Blender v2.78 (sub 0) OBJ File: ''
# www.blender.org
mtllib naturePack_003.mtl
o Mesh1_Plate_Grass_Model
v 3.000000 0.300000 0.000000
v 0.000000 0.000000 0.000000
v 3.000000 0.000000 0.000000
v 0.000000 0.300000 0.000000
v 1.500000 0.140000 -1.500000
v 3.000000 0.300000 -3.000000
v 0.000000 0.300000 -3.000000
v 3.000000 0.000000 -3.000000
v 0.000000 0.000000 -3.000000
vt -118.1100 1.2527
vt -59.0551 -58.1374
vt 0.0000 1.2527
vt -118.1100 118.6970
vt -59.0551 59.3066
vt 0.0000 118.6970
vt 118.1100 118.6970
vt 0.0000 118.6970
vt 59.0551 59.3066
vt 59.0551 -58.1374
vt 118.1100 1.2527
vt 118.1100 11.8110
vt 0.0000 0.0000
vt 118.1100 0.0000
vt 0.0000 11.8110
vt -118.1100 0.0000
vt 0.0000 11.8110
vt -118.1100 11.8110
vt 0.0000 0.0000
vt -118.1100 118.1100
vt 0.0000 118.1100
vt -118.1100 0.0000
vt 118.1100 0.0000
vt 0.0000 11.8110
vt 0.0000 0.0000
vt 118.1100 11.8110
vt -118.1100 11.8110
vt -118.1100 0.0000
vn 0.0000 0.9944 -0.1061
vn -0.1061 0.9944 0.0000
vn 0.0000 0.9944 0.1061
vn 0.1061 0.9944 0.0000
vn 0.0000 -0.0000 1.0000
vn 0.0000 0.0000 -1.0000
vn 0.0000 -1.0000 -0.0000
vn 1.0000 0.0000 0.0000
vn -1.0000 0.0000 0.0000
usemtl Leafs.002
s 1
f 1/1/1 5/2/1 4/3/1
f 6/4/2 5/5/2 1/6/2
f 6/7/3 7/8/3 5/9/3
f 5/10/4 7/11/4 4/3/4
usemtl Wood.002
f 1/12/5 2/13/5 3/14/5
f 2/13/5 1/12/5 4/15/5
f 8/16/6 7/17/6 6/18/6
f 7/17/6 8/16/6 9/19/6
f 8/20/7 2/13/7 9/21/7
f 2/13/7 8/20/7 3/22/7
f 8/23/8 1/24/8 3/25/8
f 1/24/8 8/23/8 6/26/8
f 2/13/9 7/27/9 9/28/9
f 7/27/9 2/13/9 4/15/9
