# Blender v2.78 (sub 0) OBJ File: ''
# www.blender.org
mtllib naturePack_108.mtl
o Mesh1_Trunk_Model.001
v 0.803690 0.000000 -0.803690
v 0.701729 0.230000 -0.101961
v 0.803690 0.000000 0.000000
v 0.701729 0.230000 -0.701729
v 0.101961 0.230000 -0.701729
v 0.000000 0.000000 -0.803690
v 0.000000 0.000000 0.000000
v 0.101961 0.230000 -0.101961
v 0.639848 0.830000 -0.163841
v 0.163841 0.830000 -0.163841
v 0.262660 0.830000 -0.262660
v 0.163841 0.830000 -0.639848
v 0.262660 0.830000 -0.541029
v 0.639848 0.830000 -0.639848
v 0.541029 0.830000 -0.541029
v 0.262660 0.230000 -0.541029
v 0.541029 0.230000 -0.541029
v 0.541029 0.230000 -0.262660
v 0.262660 0.230000 -0.262660
v 0.541029 0.830000 -0.262660
vt 31.6413 -12.8233
vt 4.0142 -2.9183
vt 0.0000 -12.8233
vt 27.6271 -2.9183
vt -31.6413 -12.8233
vt -4.0142 -2.9183
vt -27.6271 -2.9183
vt 0.0000 -12.8233
vt -31.6413 31.6413
vt 0.0000 0.0000
vt 0.0000 31.6413
vt -31.6413 0.0000
vt 27.6271 9.9050
vt 31.6413 -0.0000
vt 4.0142 9.9050
vt 25.1909 33.1665
vt 4.0142 9.4192
vt 27.6271 9.4192
vt 6.4504 33.1665
vt 10.3410 9.0551
vt 21.3004 32.6772
vt 10.3410 32.6772
vt 21.3004 9.0551
vt 10.3410 21.3004
vt 21.3004 10.3410
vt 21.3004 21.3004
vt 10.3410 10.3410
vt 21.3004 9.0551
vt 10.3410 32.6772
vt 10.3410 9.0551
vt 21.3004 32.6772
vt -10.3410 32.6772
vt -21.3004 9.0551
vt -10.3410 9.0551
vt -21.3004 32.6772
vt 6.4504 29.9204
vt 27.6271 6.1731
vt 25.1909 29.9204
vt 4.0142 6.1731
vt -27.6271 6.1731
vt -6.4504 29.9204
vt -25.1909 29.9204
vt -4.0142 6.1731
vt -27.6271 9.4192
vt -6.4504 33.1665
vt -25.1909 33.1665
vt -4.0142 9.4192
vt -31.6413 0.0000
vt -4.0142 9.9050
vt -27.6271 9.9050
vt -21.3004 32.6772
vt -10.3410 9.0551
vt -10.3410 32.6772
vt -21.3004 9.0551
vt 10.3410 10.3410
vt 6.4504 6.4504
vt 25.1909 6.4504
vt 6.4504 25.1909
vt 10.3410 21.3004
vt 25.1909 25.1909
vt 21.3004 21.3004
vt 21.3004 10.3410
vn 0.9142 0.4053 0.0000
vn 0.9664 0.2571 0.0000
vn 0.0000 0.4053 -0.9142
vn -0.0000 0.2571 -0.9664
vn 0.0000 -1.0000 -0.0000
vn 0.0000 0.2571 0.9664
vn 0.0000 0.4053 0.9142
vn 0.0000 0.1026 0.9947
vn 0.0000 -0.0000 1.0000
vn 0.0000 1.0000 0.0000
vn 1.0000 -0.0000 0.0000
vn 0.0000 0.0000 -1.0000
vn 0.9947 0.1026 0.0000
vn 0.0000 0.1026 -0.9947
vn -0.9664 0.2571 -0.0000
vn -0.9947 0.1026 0.0000
vn -0.9142 0.4053 0.0000
vn -1.0000 -0.0000 0.0000
usemtl Wood.061
s 1
f 1/1/1 2/2/2 3/3/1
f 2/2/2 1/1/1 4/4/2
f 1/5/3 5/6/4 4/7/4
f 5/6/4 1/5/3 6/8/3
f 1/9/5 7/10/5 6/11/5
f 7/10/5 1/9/5 3/12/5
f 2/13/6 7/10/7 3/14/7
f 7/10/7 2/13/6 8/15/6
f 9/16/8 8/17/6 2/18/6
f 8/17/6 9/16/8 10/19/8
f 16/20/9 15/21/9 13/22/9
f 15/21/9 16/20/9 17/23/9
f 16/24/10 18/25/10 17/26/10
f 18/25/10 16/24/10 19/27/10
f 16/28/11 11/29/11 19/30/11
f 11/29/11 16/28/11 13/31/11
f 11/32/12 18/33/12 19/34/12
f 18/33/12 11/32/12 20/35/12
f 9/36/13 4/37/2 14/38/13
f 4/37/2 9/36/13 2/39/2
f 4/40/4 12/41/14 14/42/14
f 12/41/14 4/40/4 5/43/4
f 5/44/15 10/45/16 12/46/16
f 10/45/16 5/44/15 8/47/15
f 6/48/17 8/49/15 5/50/15
f 8/49/15 6/48/17 7/10/17
f 15/51/18 18/52/18 20/53/18
f 18/52/18 15/51/18 17/54/18
usemtl Light_Wood.005
f 11/55/10 10/56/10 9/57/10
f 10/56/10 11/55/10 12/58/10
f 13/59/10 12/58/10 11/55/10
f 12/58/10 13/59/10 14/60/10
f 14/60/10 13/59/10 15/61/10
f 11/55/10 9/57/10 20/62/10
f 20/62/10 9/57/10 15/61/10
f 14/60/10 15/61/10 9/57/10
