# Blender v2.78 (sub 0) OBJ File: ''
# www.blender.org
mtllib naturePack_166.mtl
o Mesh1_Group1_Model.082
v 0.926394 4.134120 -0.677633
v 0.642890 0.000000 -0.590170
v 1.013860 0.000000 -0.590170
v 0.730354 4.134120 -0.677633
v 0.918320 4.134120 -0.677633
v 1.424860 4.134120 0.000001
v 0.294067 4.134120 0.000001
v 0.730354 4.134120 -0.873673
v 0.226254 4.134120 -1.567799
v 0.117292 4.134120 -0.176774
v 0.117292 4.134120 -1.414579
v 0.331462 4.836250 -0.214169
v 0.331462 4.836250 -1.213629
v 0.170441 4.836250 -1.327849
v 0.122500 4.836250 -0.099945
v 0.000000 4.836250 -0.222445
v 0.000000 4.836250 -1.189449
v 0.401424 5.705770 -0.284131
v 0.401424 5.705770 -1.143669
v 0.303191 5.705770 -0.312309
v 0.429602 5.705770 -0.185899
v 1.260960 5.705770 -0.284131
v 1.369460 4.836250 -0.099945
v 1.330920 4.836250 -0.214169
v 1.545090 4.134120 -0.120232
v 1.545090 4.134120 -1.445189
v 1.422480 4.134120 -1.567799
v 0.926394 4.134120 -0.873673
v 0.738427 4.134120 -0.873673
v 1.330920 4.836250 -1.213629
v 1.369460 4.836250 -1.327849
v 1.260960 5.705770 -1.143669
v 0.451025 5.705770 -1.241899
v 0.303191 5.705770 -1.130559
v 0.560906 7.738420 -0.684595
v 0.560906 7.738420 -0.744303
v 0.570130 7.738420 -0.675370
v 0.571693 7.738420 -0.752428
v 1.369460 5.705770 -1.241899
v 0.638712 7.738420 -0.752428
v 0.631977 7.738420 -0.675370
v 1.277170 5.705770 -0.185899
v 1.445150 4.836250 -1.189449
v 1.445150 4.836250 -0.175632
v 1.499190 5.705770 -0.312309
v 1.499190 5.705770 -1.112169
v 0.648179 7.738420 -0.742961
v 0.648179 7.738420 -0.684595
v 1.013860 0.000000 -0.961138
v 0.642890 0.000000 -0.961138
v 0.828374 4.134120 -0.775653
vt -56.0968 0.0000
vt -36.1543 26.6785
vt -36.4722 26.6785
vt -28.7541 26.6785
vt -11.5774 0.0000
vt -28.7541 34.3966
vt -8.9076 61.7244
vt -4.6178 6.9597
vt -4.6178 55.6923
vt -8.4319 185.9270
vt -55.6923 157.0270
vt -6.9597 157.0270
vt -47.7807 185.9270
vt -13.0497 8.4319
vt -6.7103 52.2777
vt -13.0497 47.7807
vt -4.8228 3.9349
vt 0.0000 8.7577
vt 0.0000 46.8286
vt -11.1863 210.5760
vt -46.8286 172.8710
vt -8.7577 172.8710
vt -45.0263 210.5760
vt -15.8041 11.1863
vt -11.9367 12.2957
vt -15.8041 45.0263
vt -16.9134 7.3189
vt -49.6441 11.1863
vt 4.8228 187.0860
vt 49.6441 222.0780
vt 15.8041 222.0780
vt 53.9157 187.0860
vt -53.9157 3.9349
vt -52.3985 8.4319
vt 11.5774 155.6790
vt 52.3985 184.5800
vt 13.0497 184.5800
vt 56.0968 155.6790
vt 43.0136 172.6370
vt 39.6664 143.6940
vt 46.3607 143.6940
vt -60.8304 56.8972
vt -60.8304 4.7336
vt -56.0032 61.7244
vt -36.4722 34.3966
vt -29.0719 34.3966
vt -13.0497 148.4810
vt -56.0032 117.5210
vt -8.9076 117.5210
vt -52.3985 148.4810
vt -53.9157 52.2777
vt -52.3985 47.7807
vt -15.8041 210.4300
vt -53.9157 175.4370
vt -6.7103 175.4370
vt -49.6441 210.4300
vt -17.7569 48.8937
vt -49.6441 45.0263
vt -11.9367 44.5101
vt -26.9526 305.0200
vt -44.5101 224.3540
vt -12.2957 224.3540
vt -29.3033 305.0200
vt -43.5992 212.7040
vt -35.2688 294.7850
vt -35.8005 294.7850
vt -36.3128 212.7040
vt -22.5076 289.2610
vt -53.9157 206.9470
vt -17.7569 206.9470
vt -25.1462 289.2610
vt 16.9134 220.1070
vt 24.8810 302.4210
vt 22.4461 302.4210
vt 50.2821 220.1070
vt -50.2821 7.3189
vt -53.9157 48.8937
vt 11.1863 209.4730
vt 46.8286 174.4800
vt 45.0263 209.4730
vt 6.9147 174.4800
vt 43.0136 212.2350
vt 40.9065 177.0460
vt 45.1206 177.0460
vt -56.8955 46.8286
vt -56.8955 6.9147
vt 8.4319 166.8320
vt 56.8972 137.9320
vt 47.7807 166.8320
vt 4.7336 137.9320
vt 4.0455 114.3960
vt -3.2653 144.6960
vt -2.7812 114.3960
vt 19.9994 171.3450
vt 15.6866 206.3330
vt 13.7888 171.3450
vt -59.0233 12.2957
vt -59.0233 43.7861
vt 3.1657 265.3100
vt -10.7743 178.3730
vt -3.5511 178.3730
vt 2.6386 265.3100
vt 47.3174 204.5610
vt 35.5119 289.7870
vt 34.7779 289.7870
vt 57.3761 204.5610
vt 43.7861 184.4150
vt 26.9526 271.1710
vt 12.2957 184.4150
vt 29.2505 271.1710
vt -2.9298 305.0220
vt -0.2539 223.0970
vt 6.7844 223.0970
vt -3.4434 305.0220
vt -40.6522 205.3290
vt -38.1640 169.2600
vt -29.5199 169.2600
vt -55.4638 139.4420
vt -48.0618 139.4420
vt -46.5012 169.3650
vt -32.6131 30.5376
vt 3.2653 188.3030
vt -1.6560 159.7870
vt 8.1865 159.7870
vt 3.2653 216.9490
vt -6.1926 180.3690
vt 0.6279 180.3690
vt -22.0829 29.3033
vt -22.4461 26.5894
vt -22.0829 26.9526
vt -22.5076 29.6232
vt -24.8810 26.5894
vt -25.1462 29.6232
vt -25.5189 26.9526
vt -25.5189 29.2505
vt 36.4722 163.2890
vt 25.3106 0.4915
vt 39.9157 0.4915
vt 28.7541 163.2890
vt 36.1543 163.2890
vt -36.4722 161.9970
vt -28.7541 161.9970
vt -29.0719 161.9970
vt -39.9157 -0.8004
vt -25.3106 -0.8004
vt -39.9157 37.8401
vt -25.3106 23.2350
vt -25.3106 37.8401
vt -39.9157 23.2350
vt 37.8401 -0.8443
vt 26.6785 161.9530
vt 23.2350 -0.8443
vt 34.3966 161.9530
vt -37.8401 0.5354
vt -26.6785 163.3330
vt -34.3966 163.3330
vt -23.2350 0.5354
vn -0.0000 -1.0000 -0.0000
vn -0.9565 0.2918 0.0000
vn -0.9079 0.4192 0.0000
vn 0.0000 0.2072 0.9783
vn 0.0000 0.2918 0.9565
vn 0.6754 0.2964 0.6753
vn 0.0000 -1.0000 -0.0001
vn 0.0000 0.4504 -0.8928
vn 0.0000 0.2072 -0.9783
vn -0.9921 0.1258 0.0000
vn -0.5865 0.2224 -0.7788
vn -0.5866 0.2224 -0.7788
vn 0.0000 0.2341 -0.9722
vn 0.0000 0.2341 0.9722
vn 0.9783 0.2072 0.0000
vn 0.6879 0.2315 0.6879
vn 0.9565 0.2918 0.0000
vn 0.6451 0.4095 -0.6451
vn 0.8584 0.2066 -0.4695
vn 0.6509 0.3907 -0.6509
vn 0.4646 0.3440 0.8160
vn 0.9224 0.3862 0.0000
vn -0.6907 0.2141 0.6907
vn -0.5983 0.3150 -0.7368
vn -0.7528 0.3829 -0.5354
vn -0.6855 0.2456 0.6855
vn -0.6617 0.3524 0.6617
vn 0.0000 0.0212 0.9998
vn -0.0000 0.0211 0.9998
vn 0.0000 0.0211 -0.9998
vn 0.0000 0.0212 -0.9998
vn 0.9998 0.0212 0.0000
vn -0.9998 0.0212 0.0000
usemtl Leafs.061
s 1
f 6/1/1 5/2/1 1/3/1
f 6/1/1 4/4/1 5/2/1
f 7/5/1 4/4/1 6/1/1
f 4/4/1 7/5/1 8/6/1
f 7/5/1 9/7/1 8/6/1
f 10/8/1 9/7/1 7/5/1
f 9/7/1 10/8/1 11/9/1
f 12/10/2 11/11/2 10/12/2
f 11/11/2 12/10/2 13/13/2
f 12/14/1 14/15/1 13/16/1
f 15/17/1 14/15/1 12/14/1
f 16/18/1 14/15/1 15/17/1
f 14/15/1 16/18/1 17/19/1
f 18/20/3 17/21/3 16/22/3
f 17/21/3 18/20/3 19/23/3
f 18/24/1 20/25/1 19/26/1
f 20/25/1 18/24/1 21/27/1
f 21/27/1 18/24/1 22/28/1
f 15/29/4 22/30/4 18/31/4
f 22/30/4 15/29/4 23/32/4
f 15/17/1 12/14/1 23/33/1
f 23/33/1 12/14/1 24/34/1
f 7/35/5 24/36/5 12/37/5
f 24/36/5 7/35/5 6/38/5
f 24/39/6 6/40/6 25/41/6
f 6/1/1 26/42/1 25/43/1
f 6/1/1 27/44/1 26/42/1
f 6/1/1 1/3/1 27/44/1
f 28/45/1 27/44/1 1/3/1
f 29/46/7 27/44/1 28/45/1
f 8/6/1 27/44/1 29/46/7
f 8/6/1 9/7/1 27/44/1
f 13/47/8 27/48/8 9/49/8
f 27/48/8 13/47/8 30/50/8
f 13/16/1 31/51/1 30/52/1
f 31/51/1 13/16/1 14/15/1
f 19/53/9 31/54/9 14/55/9
f 31/54/9 19/53/9 32/56/9
f 19/26/1 33/57/1 32/58/1
f 19/26/1 34/59/1 33/57/1
f 34/59/1 19/26/1 20/25/1
f 35/60/10 34/61/10 20/62/10
f 34/61/10 35/60/10 36/63/10
f 33/64/11 36/65/12 38/66/12
f 36/65/12 33/64/11 34/67/11
f 38/68/13 39/69/13 33/70/13
f 39/69/13 38/68/13 40/71/13
f 21/72/14 41/73/14 37/74/14
f 41/73/14 21/72/14 42/75/14
f 21/27/1 22/28/1 42/76/1
f 22/28/1 39/77/1 42/76/1
f 32/58/1 39/77/1 22/28/1
f 32/58/1 33/57/1 39/77/1
f 22/78/15 43/79/15 32/80/15
f 43/79/15 22/78/15 44/81/15
f 22/82/16 23/83/16 44/84/16
f 23/33/1 43/85/1 44/86/1
f 23/33/1 31/51/1 43/85/1
f 23/33/1 24/34/1 31/51/1
f 30/52/1 31/51/1 24/34/1
f 24/87/17 26/88/17 30/89/17
f 26/88/17 24/87/17 25/90/17
f 27/91/18 30/92/18 26/93/18
f 31/94/19 32/95/19 43/96/19
f 42/76/1 39/77/1 45/97/1
f 45/97/1 39/77/1 46/98/1
f 40/99/20 46/100/20 39/101/20
f 46/100/20 40/99/20 47/102/20
f 42/103/21 48/104/21 41/105/21
f 48/104/21 42/103/21 45/106/21
f 46/107/22 48/108/22 45/109/22
f 48/108/22 46/107/22 47/110/22
f 37/111/23 20/112/23 21/113/23
f 20/112/23 37/111/23 35/114/23
f 19/115/24 14/116/24 17/117/24
f 9/118/25 11/119/25 13/120/25
f 51/121/1 28/45/1 1/3/1
f 28/45/1 51/121/1 29/46/1
f 51/121/1 8/6/1 29/46/1
f 51/121/1 4/4/1 8/6/1
f 4/4/1 51/121/1 5/2/1
f 1/3/1 5/2/1 51/121/1
f 12/122/26 10/123/26 7/124/26
f 18/125/27 16/126/27 15/127/27
usemtl FrontColor.007
f 36/128/1 37/129/1 35/130/1
f 37/129/1 36/128/1 38/131/1
f 41/132/1 38/131/1 40/133/1
f 37/129/1 38/131/1 41/132/1
f 48/134/1 40/133/1 47/135/1
f 41/132/1 40/133/1 48/134/1
usemtl Wood.102
f 1/136/28 2/137/28 3/138/28
f 2/137/28 1/136/28 4/139/28
f 4/139/29 1/136/29 5/140/29
f 28/141/30 8/142/30 29/143/30
f 49/144/31 8/142/31 28/141/31
f 8/142/31 49/144/31 50/145/31
f 49/146/1 2/147/1 50/148/1
f 2/147/1 49/146/1 3/149/1
f 49/150/32 1/151/32 3/152/32
f 1/151/32 49/150/32 28/153/32
f 50/154/33 4/155/33 8/156/33
f 4/155/33 50/154/33 2/157/33
