# Blender v2.78 (sub 0) OBJ File: ''
# www.blender.org
mtllib naturePack_095.mtl
o Mesh1_Tent_Poles_Model
v 0.196596 0.000000 -2.800000
v 1.350000 2.195330 -0.200000
v 0.196596 0.000000 -0.200000
v 1.350000 2.195330 -0.300000
v 1.500000 2.480840 -0.300000
v 1.350000 2.195330 -2.700000
v 1.350000 2.195330 -2.799999
v 0.750000 0.000000 -2.800000
v 1.350000 1.604020 -2.800000
v 0.750000 0.000000 -3.000000
v 1.350000 1.604020 -3.000000
v 1.350000 2.569520 -3.000000
v 0.000000 0.000000 -3.000000
v 0.000000 0.000000 0.000000
v 1.350000 0.000000 0.000000
v 1.350000 0.000000 -0.200000
v 1.350000 0.000000 -0.300000
v 1.650000 0.000000 -0.300000
v 1.650000 2.195330 -0.300000
v 1.500000 2.480840 -2.700000
v 1.650000 2.195330 -2.700000
v 2.803400 0.000000 -2.800000
v 2.803400 0.000000 -0.200000
v 1.650000 2.195330 -0.200000
v 1.650000 0.000000 -0.200000
v 1.650000 0.000000 0.000000
v 3.000000 0.000000 0.000000
v 3.000000 0.000000 -3.000000
v 2.250000 0.000000 -2.800000
v 2.250000 0.000000 -3.000000
v 1.650000 1.604020 -2.800000
v 1.650000 1.604020 -3.000000
v 1.650000 0.000000 -3.000000
v 1.650000 0.000000 -2.700000
v 1.350000 0.000000 -2.700000
v 1.350000 0.000000 -3.000000
v 1.500000 2.005030 -3.000000
v 1.650000 2.569520 -3.000000
v 1.650000 2.855031 -3.000000
v 1.350000 2.855031 -3.000000
v 1.350000 2.569520 -2.700000
v 1.350000 2.855031 -2.700000
v 1.500000 2.855031 -2.700000
v 0.895448 1.704350 -2.252200
v 0.678948 1.292280 -2.099160
v 0.750130 1.427760 -1.633670
v 0.917397 1.746130 -0.802826
v 1.350000 2.569520 -0.300000
v 1.350000 2.569520 0.000000
v 1.650000 2.569520 0.000000
v 1.650000 2.569520 -0.300000
v 1.500000 2.855030 -0.300000
v 1.650000 2.569520 -2.700000
v 1.650000 2.855031 -2.700000
v 1.173820 2.234190 -0.704621
v 1.222760 2.327340 -1.295320
v 0.966335 1.839280 -1.393530
v 0.966629 1.839840 -1.786720
v 1.350000 2.855030 -0.300000
v 1.350000 2.855030 0.000000
v 1.650000 2.855030 0.000000
v 1.650000 2.855030 -0.300000
v 1.650000 2.195330 -2.799999
vt -82.6441 57.4716
vt -70.3433 81.8232
vt -88.6695 75.7978
vt -64.3179 63.4969
vt -31.6073 77.6557
vt -50.9970 103.5040
vt -54.8633 81.7983
vt -27.7410 99.3613
vt -11.8110 86.4305
vt -7.8740 0.0000
vt -7.8740 86.4305
vt -11.8110 0.0000
vt -53.1496 86.4305
vt -64.9606 0.0000
vt -53.1496 0.0000
vt -64.9606 86.4305
vt -59.0551 97.6707
vt 110.2360 63.1505
vt 118.1100 0.0000
vt 118.1100 63.1505
vt 106.2990 86.4305
vt 106.2990 0.0000
vt 64.9606 86.4305
vt 53.1496 0.0000
vt 64.9606 0.0000
vt 53.1496 86.4305
vt 59.0551 97.6707
vt -110.2360 86.4305
vt -106.2990 0.0000
vt -106.2990 86.4305
vt -110.2360 63.1505
vt -118.1100 0.0000
vt -118.1100 63.1505
vt -53.1496 63.1505
vt -64.9606 -0.0000
vt -53.1496 -0.0000
vt -64.9606 63.1505
vt -59.0551 78.9381
vt -53.1496 101.1620
vt -64.9606 112.4030
vt -64.9606 101.1620
vt -53.1496 112.4030
vt -106.2990 101.1620
vt -118.1100 112.4030
vt -118.1100 101.1620
vt -106.2990 112.4030
vt 53.1496 112.4030
vt 53.1496 101.1620
vt 59.0551 112.4030
vt 53.1496 0.0000
vt 64.9606 101.1620
vt 53.1496 101.1620
vt 64.9606 0.0000
vt -53.1496 0.0000
vt -64.9606 11.8110
vt -64.9606 0.0000
vt -53.1496 7.8740
vt -53.1496 11.8110
vt -64.9606 7.8740
vt 11.8110 0.0000
vt 7.8740 86.4305
vt 7.8740 0.0000
vt 11.8110 86.4305
vt 118.1100 101.1620
vt 106.2990 112.4030
vt 106.2990 101.1620
vt 118.1100 112.4030
vt 64.9606 118.1100
vt 59.0551 106.2990
vt 64.9606 106.2990
vt 53.1496 118.1100
vt 53.1496 106.2990
vt 64.9606 101.1620
vt 64.9606 112.4030
vt -59.0551 112.4030
vt -53.1496 101.1620
vt -53.1496 112.4030
vt 0.0000 101.1620
vt -11.8110 112.4030
vt -11.8110 101.1620
vt 0.0000 112.4030
vt 53.1496 112.4030
vt 64.9606 112.4030
vt 11.8110 101.1620
vt 0.0000 112.4030
vt 0.0000 101.1620
vt 11.8110 112.4030
vt -64.9606 112.4030
vt -64.9606 101.1620
vt 59.0551 11.8110
vt 64.9606 0.0000
vt 64.9606 11.8110
vt 53.1496 11.8110
vt 53.1496 0.0000
vt -64.9606 118.1100
vt -53.1496 106.2990
vt -53.1496 118.1100
vt -64.9606 106.2990
vt 110.2360 86.4305
vt 110.2360 3.5999
vt 7.8740 101.2330
vt 7.8740 3.5999
vt 11.8110 101.2330
vt 11.8110 113.9300
vt 106.2990 101.2330
vt 110.2360 101.2330
vt 29.5276 -0.0000
vt 53.1496 86.4305
vt 7.7400 -0.0000
vt 53.1496 63.1505
vt 118.1100 10.3450
vt 110.2360 77.7689
vt 110.2360 10.3450
vt 118.1100 77.7689
vt -29.5276 0.0000
vt -0.0000 0.0000
vt -7.7400 110.2360
vt -0.0000 118.1100
vt -29.5276 118.1100
vt -0.0000 0.0000
vt -7.7400 7.8740
vt -53.1496 86.4305
vt -53.1496 0.0000
vt -7.7400 0.0000
vt -106.2990 58.9969
vt -11.8110 46.2997
vt -11.8110 58.9969
vt -106.2990 46.2997
vt -110.2360 -51.3336
vt -7.8740 -51.3336
vt -7.8740 46.2997
vt -64.9606 86.4305
vt -110.3700 0.0000
vt -64.9606 0.0000
vt -110.3700 7.8740
vt -118.1100 0.0000
vt -118.1100 118.1100
vt -110.3700 110.2360
vt -88.5827 110.2360
vt -88.5827 118.1100
vt -110.2360 36.3889
vt -118.1100 -31.0350
vt -110.2360 -31.0350
vt -118.1100 36.3889
vt 106.2990 113.9300
vt -106.2990 114.2750
vt -106.2990 126.9720
vt -118.1100 0.0000
vt -11.8110 114.2750
vt 0.0000 114.2750
vt 118.1100 0.0000
vt 118.1100 -54.9335
vt 0.0000 59.3412
vt 0.0000 -54.9335
vt 11.8110 59.3412
vt 11.8110 72.0384
vt 106.2990 59.3412
vt 118.1100 59.3412
vt -118.1100 0.0000
vt -88.5827 0.0000
vt 106.2990 72.0384
vt -11.8110 126.9720
vt -118.1100 114.2750
vt 88.5827 0.0000
vt 64.9606 86.4305
vt 64.9606 63.1505
vt 110.3700 0.0000
vt -110.2360 46.2997
vt -29.5276 110.2360
vn -0.8853 0.4651 -0.0000
vn -1.0000 0.0000 0.0000
vn 0.0000 0.0000 -1.0000
vn 1.0000 -0.0000 0.0000
vn 0.0000 -0.0000 1.0000
vn 0.0000 -1.0000 -0.0000
vn 0.0000 1.0000 0.0000
vn 0.8853 -0.4651 0.0000
vn 0.9366 -0.3504 0.0000
vn -0.8853 -0.4651 -0.0000
vn -0.9366 -0.3504 0.0000
vn 0.8853 0.4651 -0.0000
usemtl Leafs.031
s 1
f 45/1/1 58/2/1 44/3/1
f 58/2/1 45/1/1 46/4/1
f 47/5/1 56/6/1 57/7/1
f 56/6/1 47/5/1 55/8/1
usemtl Wood.060
f 4/9/2 16/10/2 2/11/2
f 16/10/2 4/9/2 17/12/2
f 4/13/3 18/14/3 17/15/3
f 18/14/3 4/13/3 19/16/3
f 19/16/3 4/13/3 5/17/3
f 31/18/4 33/19/4 32/20/4
f 21/21/4 33/19/4 31/18/4
f 33/19/4 21/21/4 34/22/4
f 21/23/5 35/24/5 34/25/5
f 35/24/5 21/23/5 6/26/5
f 6/26/5 21/23/5 20/27/5
f 7/28/2 35/29/2 6/30/2
f 35/29/2 7/28/2 9/31/2
f 35/29/2 9/31/2 36/32/2
f 36/32/2 9/31/2 11/33/2
f 11/34/3 33/35/3 36/36/3
f 33/35/3 11/34/3 32/37/3
f 32/37/3 11/34/3 37/38/3
f 12/39/3 39/40/3 38/41/3
f 39/40/3 12/39/3 40/42/3
f 41/43/2 40/44/2 12/45/2
f 40/44/2 41/43/2 42/46/2
f 42/47/5 41/48/5 43/49/5
f 15/50/5 50/51/5 49/52/5
f 50/51/5 15/50/5 26/53/5
f 15/54/6 18/55/6 26/56/6
f 16/57/6 18/55/6 15/54/6
f 18/55/6 16/57/6 17/58/6
f 26/56/6 18/55/6 25/59/6
f 18/60/4 24/61/4 25/62/4
f 24/61/4 18/60/4 19/63/4
f 38/64/4 54/65/4 53/66/4
f 54/65/4 38/64/4 39/67/4
f 39/68/7 43/69/7 54/70/7
f 40/71/7 43/69/7 39/68/7
f 43/69/7 40/71/7 42/72/7
f 43/49/5 53/73/5 54/74/5
f 52/75/3 48/76/3 59/77/3
f 49/78/2 59/79/2 48/80/2
f 59/79/2 49/78/2 60/81/2
f 49/52/5 50/51/5 60/82/5
f 60/82/5 50/51/5 61/83/5
f 51/84/4 61/85/4 50/86/4
f 61/85/4 51/84/4 62/87/4
f 52/75/3 62/88/3 51/89/3
f 52/90/7 61/91/7 62/92/7
f 59/93/7 61/91/7 52/90/7
f 61/91/7 59/93/7 60/94/7
f 33/95/6 35/96/6 36/97/6
f 35/96/6 33/95/6 34/98/6
f 21/21/4 31/18/4 63/99/4
usemtl Green_Roof.002
f 1/100/8 2/101/8 3/102/8
f 2/101/8 1/100/8 4/103/8
f 4/103/8 1/100/8 5/104/8
f 5/104/8 1/100/8 6/105/8
f 6/105/8 1/100/8 7/106/8
f 8/107/5 7/108/5 1/109/5
f 7/108/5 8/107/5 9/110/5
f 10/111/9 9/112/9 8/113/9
f 9/112/9 10/111/9 11/114/9
f 10/115/3 12/39/3 11/34/3
f 12/39/3 10/115/3 13/116/3
f 1/117/6 13/118/6 10/119/6
f 13/118/6 1/117/6 14/120/6
f 3/121/6 14/120/6 1/117/6
f 14/120/6 3/121/6 15/54/6
f 15/54/6 3/121/6 16/57/6
f 2/122/3 16/123/3 3/124/3
f 20/125/10 19/126/10 5/127/10
f 21/128/10 19/126/10 20/125/10
f 22/129/10 19/126/10 21/128/10
f 23/130/10 19/126/10 22/129/10
f 19/126/10 23/130/10 24/131/10
f 24/132/3 23/133/3 25/134/3
f 23/135/6 26/56/6 25/59/6
f 26/56/6 23/135/6 27/136/6
f 27/136/6 23/135/6 28/137/6
f 22/138/6 28/137/6 23/135/6
f 29/139/6 28/137/6 22/138/6
f 28/137/6 29/139/6 30/140/6
f 31/141/11 30/142/11 29/143/11
f 30/142/11 31/141/11 32/144/11
f 20/145/8 5/104/8 6/105/8
f 11/34/3 12/39/3 37/38/3
f 37/38/3 12/39/3 38/41/3
f 41/146/1 44/3/1 43/147/1
f 13/148/1 44/3/1 41/146/1
f 13/148/1 45/1/1 44/3/1
f 13/148/1 46/4/1 45/1/1
f 13/148/1 47/5/1 46/4/1
f 14/120/1 47/5/1 13/148/1
f 14/120/1 48/149/1 47/5/1
f 48/149/1 14/120/1 49/150/1
f 49/52/5 14/120/5 15/50/5
f 50/51/5 26/53/5 27/151/5
f 28/152/12 50/153/12 27/154/12
f 50/153/12 28/152/12 51/155/12
f 51/155/12 28/152/12 52/156/12
f 52/156/12 28/152/12 53/157/12
f 53/157/12 28/152/12 38/158/12
f 28/159/3 32/37/3 38/41/3
f 32/37/3 28/159/3 30/160/3
f 38/41/3 32/37/3 37/38/3
f 43/161/12 52/156/12 53/157/12
f 43/147/1 48/149/1 52/162/1
f 48/149/1 43/147/1 55/8/1
f 55/8/1 43/147/1 56/6/1
f 56/6/1 43/147/1 57/7/1
f 57/7/1 43/147/1 58/2/1
f 58/2/1 43/147/1 44/3/1
f 57/7/1 58/2/1 46/4/1
f 46/4/1 47/5/1 57/7/1
f 47/5/1 48/149/1 55/8/1
f 13/148/1 41/146/1 12/163/1
f 29/164/5 63/165/5 31/166/5
f 63/165/5 29/164/5 22/167/5
f 22/129/10 21/128/10 63/168/10
f 1/117/6 10/119/6 8/169/6
