# Blender v2.78 (sub 0) OBJ File: ''
# www.blender.org
mtllib naturePack_134.mtl
o Mesh1_Rock_4_Model
v 0.354523 0.530000 -0.277547
v 0.000000 0.000000 -0.500000
v 0.146715 0.000000 0.000000
v 0.312675 0.530000 -0.420165
v 0.529638 0.530000 -0.637128
v 0.607476 0.530000 -0.277547
v 0.816846 0.000000 0.000000
v 0.500000 0.000000 -1.000000
v 1.000000 0.000000 -0.641226
v 0.679474 0.530000 -0.529614
vt -6.5551 26.1253
vt -18.8887 2.5712
vt 1.6263 2.5712
vt -12.4067 26.1253
vt 13.9576 10.9270
vt 20.8519 25.0838
vt 12.3100 16.5419
vt 23.9164 10.9270
vt 5.7762 -0.0000
vt 23.9164 23.5541
vt 13.9576 23.5541
vt 32.1593 -0.0000
vt -5.7762 0.0000
vt -19.6850 39.3701
vt -32.1593 0.0000
vt 0.0000 19.6850
vt -20.4014 17.0967
vt -41.7583 -6.4574
vt -13.9194 -6.4574
vt -32.4814 17.0967
vt -2.3181 3.3909
vt -17.2696 -20.1633
vt 6.9588 -20.1633
vt -9.5786 3.3909
vt 26.7509 20.8509
vt 17.0754 9.2087
vt 35.0872 -14.3454
vt 27.3962 9.2087
vt 8.8324 -14.3454
vt -39.3701 25.2451
vn -0.8500 0.4639 0.2494
vn -0.0000 1.0000 0.0000
vn 0.0000 0.4639 0.8859
vn 0.0000 -1.0000 -0.0000
vn -0.6264 0.4639 -0.6264
vn 0.5165 0.4639 -0.7198
vn 0.8518 0.4639 0.2433
usemtl Stone.037
s 1
f 1/1/1 2/2/1 3/3/1
f 2/2/1 1/1/1 4/4/1
f 1/5/2 5/6/2 4/7/2
f 5/6/2 1/5/2 6/8/2
f 3/9/3 6/10/3 1/11/3
f 6/10/3 3/9/3 7/12/3
f 3/13/4 8/14/4 7/15/4
f 8/14/4 3/13/4 2/16/4
f 4/17/5 8/18/5 2/19/5
f 8/18/5 4/17/5 5/20/5
f 5/21/6 9/22/6 8/23/6
f 9/22/6 5/21/6 10/24/6
f 5/6/2 6/8/2 10/25/2
f 6/26/7 9/27/7 10/28/7
f 9/27/7 6/26/7 7/29/7
f 7/15/4 8/14/4 9/30/4
