# Blender v2.78 (sub 0) OBJ File: ''
# www.blender.org
mtllib naturePack_098.mtl
o Mesh1_Grey_Cliff_Corner_Green_Top_Model
v 0.780000 0.000000 0.000000
v 0.000000 0.000000 0.000000
v 0.780000 0.000000 -0.780000
v 0.780000 2.200000 0.000000
v 0.000000 2.200000 0.000000
v 0.780000 2.200000 -0.780000
vt 30.7087 30.7087
vt 0.0000 0.0000
vt 30.7087 0.0000
vt -30.7087 0.0000
vt 0.0000 0.0000
vt -30.7087 30.7087
vt 30.7087 86.6142
vt 30.7087 0.0000
vt 0.0000 86.6142
vt -43.4286 86.6142
vt -43.4286 0.0000
vt 0.0000 86.6142
vt 30.7087 0.0000
vt 30.7087 86.6142
vt 0.0000 0.0000
vn 0.0000 1.0000 0.0000
vn 0.0000 -1.0000 -0.0000
vn 0.0000 -0.0000 1.0000
vn -0.7071 0.0000 -0.7071
vn 1.0000 0.0000 0.0000
usemtl Leafs.034
s 1
f 6/1/1 5/2/1 4/3/1
usemtl Stone.026
f 1/4/2 2/5/2 3/6/2
f 4/7/3 2/5/3 1/8/3
f 2/5/3 4/7/3 5/9/3
f 6/10/4 2/5/4 5/9/4
f 2/5/4 6/10/4 3/11/4
f 4/12/5 3/13/5 6/14/5
f 3/13/5 4/12/5 1/15/5
