# Blender v2.78 (sub 0) OBJ File: ''
# www.blender.org
mtllib naturePack_009.mtl
o Mesh1_Group1_Model.002
v 2.035390 0.480000 0.000000
v 0.850807 0.890000 -0.767791
v 0.484176 0.480000 -0.392080
v 1.828070 0.890000 -0.520780
v 2.074410 0.890000 -0.799133
v 2.426400 0.480000 -0.441830
v 2.426400 0.290000 -0.441830
v 2.035390 0.290000 0.000000
v 0.484176 0.290000 -0.392080
v 0.000000 0.480000 -1.232600
v 0.000000 0.290000 -1.232600
v 0.225550 0.480000 -2.350060
v 0.225550 0.290000 -2.350060
v 1.484620 0.290000 -2.808700
v 1.484620 0.480000 -2.808700
v 0.687872 0.890000 -2.001320
v 1.481080 0.890000 -2.290260
v 0.545775 0.890000 -1.297320
v 1.904830 0.890000 -2.294250
v 1.904830 0.890000 -1.260350
v 2.157230 0.480000 -1.173920
v 2.157230 0.290000 -1.173920
v 2.236130 0.000000 -0.634967
v 2.020800 0.000000 -1.220630
v 1.923330 0.000000 -0.281503
v 2.020800 0.000000 -2.533530
v 1.482710 0.000000 -2.528470
v 0.682355 0.000000 -0.595167
v 0.475454 0.000000 -2.161550
v 0.295014 0.000000 -1.267580
v 2.157230 0.290000 -2.815030
v 2.157230 0.480000 -2.815030
v 2.154600 0.890000 -2.102300
v 2.677250 0.685000 -2.058020
v 2.154600 0.890000 -1.585350
v 2.950140 0.480000 -2.205690
v 2.950140 0.290000 -2.205690
v 2.655120 0.000000 -2.046050
vt 27.0816 78.7922
vt 33.4963 30.2280
vt 58.3104 90.1679
vt 21.4872 51.0755
vt 71.9714 20.5032
vt 74.9933 90.3247
vt 74.9933 49.6199
vt 81.6696 31.4619
vt 81.0246 -88.2780
vt 82.7679 -66.1749
vt 62.4155 -66.1749
vt 84.8266 62.4155
vt 84.8266 82.7679
vt 77.6903 27.2392
vt 25.0677 51.3260
vt 14.6982 27.2392
vt 64.7527 51.3260
vt 53.1063 -34.4406
vt 77.6850 -8.9719
vt 63.0511 -8.9719
vt 76.3347 -34.4406
vt 53.1063 18.8976
vt 76.3347 11.4173
vt 76.3347 18.8976
vt 53.1063 11.4173
vt 77.6903 18.8976
vt 14.6982 11.4173
vt 77.6903 11.4173
vt 14.6982 18.8976
vt -42.0499 18.8976
vt -3.8609 11.4173
vt -3.8609 18.8976
vt -42.0499 11.4173
vt -92.4502 18.8976
vt -47.5683 11.4173
vt -47.5683 18.8976
vt -92.4502 11.4173
vt -40.0110 18.8976
vt -92.7669 11.4173
vt -40.0110 11.4173
vt -92.7669 18.8976
vt -52.4140 -26.9023
vt -92.7669 -51.9330
vt -40.0110 -51.9330
vt -85.6502 -26.9023
vt -92.4502 4.1187
vt -54.3171 30.2568
vt -82.5927 30.2568
vt -47.5683 4.1187
vt -3.8609 30.7165
vt -33.5323 56.3330
vt -42.0499 30.7165
vt -9.4733 56.3330
vt 1.3460 -8.1737
vt 14.0695 -26.2573
vt 20.6925 -8.1737
vt -16.6391 -26.2573
vt -16.6391 18.8976
vt 14.0695 11.4173
vt 14.0695 18.8976
vt -16.6391 11.4173
vt -6.9174 32.8586
vt 14.0695 45.0968
vt -16.6391 45.0968
vt 17.6495 32.8586
vt -75.7216 11.0828
vt -79.5590 48.0565
vt -88.0367 24.9987
vt -79.5590 99.7451
vt -58.3743 99.5459
vt -26.8644 23.4318
vt -18.7186 85.1006
vt -11.6147 49.9048
vt -3.8609 -8.2944
vt -37.4458 -23.9774
vt -6.8946 -23.9774
vt -42.0499 -8.2944
vt -92.4502 14.8784
vt -51.2163 -1.0542
vt -47.5683 14.8784
vt -87.1218 -1.0542
vt -40.0110 64.7812
vt -88.9200 49.3770
vt -46.7153 49.3770
vt -92.7669 64.7812
vt -59.4865 84.6624
vt -80.4932 68.7862
vt -59.3076 68.7862
vt -85.9685 84.6624
vt -59.4865 18.8976
vt -85.9685 11.4173
vt -59.4865 11.4173
vt -85.9685 18.8976
vt -59.4865 -74.5726
vt -75.8392 -48.5520
vt -85.9685 -74.5726
vt -59.1555 -48.5520
vt -16.8256 -74.5118
vt 0.1903 -102.0510
vt -4.4240 -74.5118
vt -34.2035 -88.2812
vt 85.0406 14.4863
vt 139.6280 -4.4771
vt 101.1780 14.4863
vt 88.3976 -4.4771
vt 88.3976 18.8976
vt 139.6280 11.4173
vt 139.6280 18.8976
vt 88.3976 11.4173
vt 86.5830 14.4071
vt 139.6280 27.0284
vt 88.3976 27.0284
vt 127.5670 14.4071
vt -104.5320 80.5532
vt 0.1903 109.2480
vt -33.8000 92.6405
vt -2.3039 92.6405
vt -39.1798 109.2480
vt 0.1903 18.8976
vt -39.1798 11.4173
vt 0.1903 11.4173
vt -39.1798 18.8976
vt -39.1798 -102.0510
vt 128.4720 5.0046
vt 20.3033 -18.9297
vt 77.6903 -3.9717
vt 14.6982 -3.9717
vt 70.6970 -18.9297
vt 77.0646 33.6671
vt 53.1063 49.2797
vt 58.4819 33.6671
vt 76.3347 49.2797
vn 0.0000 1.0000 0.0000
vn 0.3651 0.9309 0.0000
vn -0.1642 0.7422 0.6497
vn 0.4746 0.7735 0.4200
vn 0.7489 -0.0000 0.6627
vn -0.2451 -0.0000 0.9695
vn -0.8665 -0.0000 0.4992
vn -0.9802 0.0000 -0.1979
vn -0.3423 0.0000 -0.9396
vn -0.2207 0.7643 -0.6059
vn -0.6053 0.7865 -0.1222
vn -0.5460 0.7765 0.3145
vn 0.8378 0.4508 -0.3080
vn 0.9386 0.0000 -0.3451
vn 0.8756 -0.3601 -0.3219
vn -0.0000 -1.0000 -0.0000
vn -0.6308 -0.6856 0.3634
vn -0.7024 -0.6975 -0.1418
vn -0.2537 -0.6713 -0.6964
vn -0.0068 -0.6949 -0.7191
vn -0.0094 0.0000 -1.0000
vn -0.0058 0.7843 -0.6203
vn 0.3572 0.8102 -0.4648
vn 0.6749 0.5248 0.5187
vn 0.7929 0.0000 0.6093
vn 0.7173 -0.4262 0.5512
vn 0.7173 -0.4263 0.5512
vn 0.4189 -0.7262 -0.5451
vn 0.6093 0.0000 -0.7929
vn -0.1870 -0.6461 0.7400
vn 0.5476 -0.6821 0.4846
usemtl Green_leafs.002
s 1
f 16/1/1 2/2/1 17/3/1
f 2/2/1 16/1/1 18/4/1
f 17/3/1 2/2/1 4/5/1
f 17/3/1 4/5/1 19/6/1
f 19/6/1 4/5/1 20/7/1
f 5/8/1 20/7/1 4/5/1
f 34/9/2 33/10/2 35/11/2
f 19/6/1 35/12/1 33/13/1
f 19/6/1 20/7/1 35/12/1
usemtl Wood.006
f 1/14/3 2/15/3 3/16/3
f 2/15/3 1/14/3 4/17/3
f 1/18/4 5/19/4 4/20/4
f 5/19/4 1/18/4 6/21/4
f 1/22/5 7/23/5 6/24/5
f 7/23/5 1/22/5 8/25/5
f 1/26/6 9/27/6 8/28/6
f 9/27/6 1/26/6 3/29/6
f 10/30/7 9/31/7 3/32/7
f 9/31/7 10/30/7 11/33/7
f 12/34/8 11/35/8 10/36/8
f 11/35/8 12/34/8 13/37/8
f 12/38/9 14/39/9 13/40/9
f 14/39/9 12/38/9 15/41/9
f 16/42/10 15/43/10 12/44/10
f 15/43/10 16/42/10 17/45/10
f 12/46/11 18/47/11 16/48/11
f 18/47/11 12/46/11 10/49/11
f 3/50/12 18/51/12 10/52/12
f 18/51/12 3/50/12 2/53/12
f 5/54/13 21/55/13 20/56/13
f 21/55/13 5/54/13 6/57/13
f 6/58/14 22/59/14 21/60/14
f 22/59/14 6/58/14 7/61/14
f 23/62/15 22/63/15 7/64/15
f 22/63/15 23/62/15 24/65/15
f 25/66/16 24/67/16 23/68/16
f 25/66/16 26/69/16 24/67/16
f 25/66/16 27/70/16 26/69/16
f 28/71/16 27/70/16 25/66/16
f 28/71/16 29/72/16 27/70/16
f 29/72/16 28/71/16 30/73/16
f 9/74/17 30/75/17 28/76/17
f 30/75/17 9/74/17 11/77/17
f 13/78/18 30/79/18 11/80/18
f 30/79/18 13/78/18 29/81/18
f 13/82/19 27/83/19 29/84/19
f 27/83/19 13/82/19 14/85/19
f 14/86/20 26/87/20 27/88/20
f 26/87/20 14/86/20 31/89/20
f 15/90/21 31/91/21 14/92/21
f 31/91/21 15/90/21 32/93/21
f 15/94/22 19/95/22 32/96/22
f 19/95/22 15/94/22 17/97/22
f 33/98/23 32/99/23 19/100/23
f 32/99/23 33/98/23 34/101/23
f 20/102/24 36/103/24 35/104/24
f 36/103/24 20/102/24 21/105/24
f 21/106/25 37/107/25 36/108/25
f 37/107/25 21/106/25 22/109/25
f 24/110/26 37/111/26 22/112/26
f 37/111/26 24/110/26 38/113/27
f 38/114/16 24/67/16 26/69/16
f 31/115/28 38/116/28 26/117/28
f 38/116/28 31/115/28 37/118/28
f 32/119/29 37/120/29 31/121/29
f 37/120/29 32/119/29 36/122/29
f 32/99/23 34/101/23 36/123/23
f 35/104/24 36/103/24 34/124/24
f 28/125/30 8/126/30 9/127/30
f 8/126/30 28/125/30 25/128/30
f 23/129/31 8/130/31 25/131/31
f 8/130/31 23/129/31 7/132/31
