# Blender v2.78 (sub 0) OBJ File: ''
# www.blender.org
mtllib naturePack_093.mtl
o Mesh1_Plate_River_Model
v 3.000000 0.000000 0.000000
v 2.241300 0.150000 0.000000
v 0.000000 0.000000 0.000000
v 3.000000 0.300000 0.000000
v 3.000000 0.000000 -3.000000
v 3.000000 0.300000 -3.000000
v 2.241300 0.150000 -3.000000
v 0.758698 0.150000 -3.000000
v 0.000000 0.000000 -3.000000
v 0.000000 0.300000 -3.000000
v 0.000000 0.300000 0.000000
v 0.758698 0.150000 0.000000
v 0.877648 0.150000 -0.371864
v 1.121360 0.150000 -1.274920
v 0.904869 0.150000 -2.387190
v 0.904869 0.300000 -2.387190
v 0.758698 0.300000 -3.000000
v 0.758698 0.300000 0.000000
v 0.877648 0.300000 -0.371864
v 0.758698 0.150000 -0.701031
v 0.758698 0.300000 -0.701031
v 1.121360 0.300000 -1.274920
v 0.758698 0.150000 -1.924320
v 0.758698 0.300000 -1.924320
v 2.241300 0.150000 -0.701031
v 2.360250 0.150000 -0.371864
v 2.241300 0.300000 -0.701031
v 2.360250 0.300000 -0.371864
v 2.241300 0.300000 0.000000
v 2.603960 0.300000 -1.274920
v 2.387470 0.300000 -2.387190
v 2.241300 0.300000 -3.000000
v 2.387470 0.150000 -2.387190
v 2.241300 0.150000 -1.924320
v 2.241300 0.300000 -1.924320
v 2.603960 0.150000 -1.274920
vt 0.0000 118.1100
vt 29.8700 0.0000
vt 29.8700 118.1100
vt 0.0000 0.0000
vt 29.8700 75.7604
vt 35.6247 93.9839
vt 29.8700 27.5996
vt 34.5531 14.6403
vt 44.1479 50.1936
vt 118.1100 0.0000
vt 92.9233 14.6403
vt 88.2402 0.0000
vt 102.5180 50.1936
vt 118.1100 118.1100
vt 93.9950 93.9839
vt 88.2402 118.1100
vt 88.2402 27.5996
vt 88.2402 75.7604
vt 88.2402 0.0000
vt 34.5531 14.6403
vt 29.8700 0.0000
vt 44.1479 50.1936
vt 88.2402 118.1100
vt 35.6247 93.9839
vt 29.8700 118.1100
vt 29.8700 75.7604
vt 29.8700 27.5996
vt 88.2402 27.5996
vt 92.9233 14.6403
vt 102.5180 50.1936
vt 88.2402 75.7604
vt 93.9950 93.9839
vt 118.1100 0.0000
vt 88.2402 5.9055
vt 0.0000 0.0000
vt 118.1100 11.8110
vt 118.1100 0.0000
vt 0.0000 11.8110
vt 0.0000 0.0000
vt 118.1100 11.8110
vt -118.1100 -0.0000
vt -88.2402 5.9055
vt -118.1100 11.8110
vt -29.8700 5.9055
vt -0.0000 -0.0000
vt -0.0000 11.8110
vt -118.1100 11.8110
vt -118.1100 0.0000
vt 0.0000 11.8110
vt 29.8700 5.9055
vt 107.9570 5.9055
vt 83.1537 11.8110
vt 83.1537 5.9055
vt 107.9570 11.8110
vt -29.8700 11.8110
vt 29.8700 11.8110
vt 24.4715 5.9055
vt 9.1004 11.8110
vt 9.1004 5.9055
vt 24.4715 11.8110
vt 15.8053 5.9055
vt 2.0258 11.8110
vt 2.0258 5.9055
vt 15.8053 11.8110
vt 66.0155 5.9055
vt 39.2882 11.8110
vt 39.2882 5.9055
vt 66.0155 11.8110
vt 51.5811 5.9055
vt 22.2976 11.8110
vt 22.2976 5.9055
vt 51.5811 11.8110
vt 100.3490 5.9055
vt 81.2386 11.8110
vt 81.2386 5.9055
vt 100.3490 11.8110
vt 17.8118 5.9055
vt 4.0323 11.8110
vt 4.0323 5.9055
vt 17.8118 11.8110
vt -26.8840 5.9055
vt -42.2550 11.8110
vt -42.2550 5.9055
vt -26.8840 11.8110
vt 88.2402 11.8110
vt -88.2402 11.8110
vt -69.6108 5.9055
vt -94.4140 11.8110
vt -94.4140 5.9055
vt -69.6108 11.8110
vt -98.8157 5.9055
vt -117.9260 11.8110
vt -117.9260 5.9055
vt -98.8157 11.8110
vt 6.1623 5.9055
vt -23.1211 11.8110
vt -23.1211 5.9055
vt 6.1623 11.8110
vt -70.4701 5.9055
vt -97.1973 11.8110
vt -97.1973 5.9055
vt -70.4701 11.8110
vt -118.1100 118.1100
vt 0.0000 118.1100
vt -118.1100 0.0000
vn 0.0000 1.0000 0.0000
vn -0.2670 0.9637 0.0000
vn -0.4444 -0.4164 -0.7932
vn 0.0173 0.9999 0.0000
vn 0.0000 -0.0000 1.0000
vn 1.0000 0.0000 0.0000
vn -0.0000 0.0000 -1.0000
vn -1.0000 0.0000 0.0000
vn 0.9727 0.0000 -0.2320
vn 0.9525 0.0000 0.3047
vn 0.9405 0.0000 -0.3399
vn 0.8454 -0.0000 0.5342
vn 0.8731 0.0000 -0.4876
vn 0.9536 0.0000 0.3011
vn -0.9405 -0.0000 0.3399
vn -0.9525 0.0000 -0.3047
vn -0.9727 0.0000 0.2320
vn -0.9536 0.0000 -0.3011
vn -0.8731 0.0000 0.4876
vn -0.8454 -0.0000 -0.5342
vn 0.0000 -1.0000 -0.0000
usemtl Leafs.030
s 1
f 10/1/1 18/2/1 17/3/1
f 18/2/1 10/1/1 11/4/1
f 17/3/1 24/5/2 16/6/1
f 17/3/1 21/7/3 24/5/2
f 17/3/1 18/2/1 21/7/3
f 19/8/1 21/7/3 18/2/1
f 22/9/1 24/5/2 21/7/3
f 4/10/1 28/11/1 29/12/1
f 28/11/1 4/10/1 30/13/1
f 6/14/1 30/13/1 4/10/1
f 6/14/1 31/15/1 30/13/1
f 31/15/1 6/14/1 32/16/1
f 30/13/1 27/17/1 28/11/1
f 30/13/1 31/15/1 35/18/1
usemtl Water.005
f 2/19/1 13/20/1 12/21/1
f 13/20/1 2/19/1 14/22/1
f 7/23/1 14/22/1 2/19/1
f 7/23/1 15/24/1 14/22/1
f 15/24/1 7/23/1 8/25/1
f 14/22/1 15/24/1 23/26/1
f 14/22/1 20/27/1 13/20/1
f 7/23/1 2/19/1 25/28/3
f 26/29/1 25/28/3 2/19/1
f 36/30/1 34/31/4 25/28/3
f 7/23/1 25/28/3 34/31/4
f 7/23/1 34/31/4 33/32/1
usemtl Stone.023
f 1/33/5 2/34/5 3/35/5
f 2/34/5 1/33/5 4/36/5
f 5/37/6 4/38/6 1/39/6
f 4/38/6 5/37/6 6/40/6
f 5/41/7 7/42/7 6/43/7
f 7/42/7 5/41/7 8/44/7
f 9/45/7 8/44/7 5/41/7
f 8/44/7 9/45/7 10/46/7
f 3/35/8 10/47/8 9/48/8
f 10/47/8 3/35/8 11/49/8
f 3/35/5 12/50/5 11/49/5
f 12/50/5 3/35/5 2/34/5
f 8/51/9 16/52/9 15/53/9
f 16/52/9 8/51/9 17/54/9
f 8/44/7 10/46/7 17/55/7
f 11/49/5 12/50/5 18/56/5
f 13/57/10 18/58/10 12/59/10
f 18/58/10 13/57/10 19/60/10
f 20/61/11 19/62/11 13/63/11
f 19/62/11 20/61/11 21/64/11
f 14/65/12 21/66/12 20/67/12
f 21/66/12 14/65/12 22/68/12
f 23/69/13 22/70/13 14/71/13
f 22/70/13 23/69/13 24/72/13
f 15/73/14 24/74/14 23/75/14
f 24/74/14 15/73/14 16/76/14
f 26/77/15 27/78/15 25/79/15
f 27/78/15 26/77/15 28/80/15
f 2/81/16 28/82/16 26/83/16
f 28/82/16 2/81/16 29/84/16
f 2/34/5 4/36/5 29/85/5
f 6/43/7 7/42/7 32/86/7
f 33/87/17 32/88/17 7/89/17
f 32/88/17 33/87/17 31/90/17
f 34/91/18 31/92/18 33/93/18
f 31/92/18 34/91/18 35/94/18
f 36/95/19 35/96/19 34/97/19
f 35/96/19 36/95/19 30/98/19
f 25/99/20 30/100/20 36/101/20
f 30/100/20 25/99/20 27/102/20
f 5/103/21 3/35/21 9/104/21
f 3/35/21 5/103/21 1/105/21
