# Blender v2.78 (sub 0) OBJ File: ''
# www.blender.org
mtllib naturePack_007.mtl
o Mesh1_Group1_Model
v 2.884380 0.292500 -1.798380
v 2.545730 0.000000 -1.446610
v 2.545730 0.000000 -1.948960
v 3.036190 0.585000 -1.856560
v 2.358890 0.000000 -1.153030
v 2.569090 0.585000 -1.122590
v 2.165720 1.327500 -1.181000
v 2.309630 1.327500 -1.407130
v 2.744870 0.956250 -1.744910
v 2.415960 0.585000 -2.549530
v 2.274780 1.327500 -1.833000
v 2.071360 1.327500 -2.060280
v 1.628580 1.327500 -1.920560
v 1.697390 0.585000 -2.322790
v 2.236390 0.000000 -2.294580
v 1.661530 0.000000 -2.113180
v 2.132730 0.000000 -0.545774
v 1.285240 0.000000 -0.254953
v 1.116490 0.000000 -2.025830
v 0.437533 0.000000 -1.531960
v 0.303619 0.000000 -1.125450
v 0.000000 0.585000 -1.088120
v 1.227020 0.585000 0.000000
v 2.286390 0.585000 -0.363526
v 1.991520 1.327500 -0.713260
v 1.338740 1.327500 -0.489255
v 1.208760 1.327500 -1.853270
v 0.685792 1.327500 -1.472870
v 0.582646 1.327500 -1.159760
v 0.334784 0.585000 -2.104400
v 0.453115 0.292500 -2.021440
v 0.561862 0.956250 -1.945200
vt 81.5496 81.1133
vt 78.4061 28.0811
vt 85.2645 46.4959
vt 64.1173 75.6125
vt 52.7062 19.2620
vt 47.5890 72.9635
vt 26.9997 57.9871
vt 22.9388 45.6598
vt -81.4043 9.0216
vt -62.9370 -14.0939
vt -55.9444 9.0216
vt 89.5584 72.1653
vt 90.9304 55.3989
vt 70.8024 93.4675
vt 56.9533 75.8500
vt 76.7306 75.8500
vt 125.8430 41.2250
vt 101.8600 16.9641
vt 120.7020 29.0946
vt 88.1591 16.9641
vt 91.5913 41.2250
vt 125.8430 -6.9776
vt 85.0048 25.7122
vt 91.5913 -6.9776
vt 95.5578 25.7122
vt 115.9770 9.3673
vt 11.3578 -67.0024
vt -20.8824 -48.4183
vt -25.2563 -67.0024
vt -5.9555 -29.8342
vt 6.0531 -29.8342
vt -120.9130 -8.7707
vt -83.8989 23.7660
vt -102.1780 23.7660
vt -91.2479 -8.7707
vt -111.1500 18.3485
vt -91.2479 42.5533
vt -120.9130 42.5533
vt -87.4183 18.3485
vt -83.9656 21.4872
vt -65.4147 83.1963
vt -88.0468 90.3378
vt -50.5999 10.0375
vt -43.9563 79.7571
vt -17.2257 60.3135
vt -11.9535 44.3092
vt 31.1983 -14.9967
vt -28.4237 9.7419
vt -20.4553 -14.9967
vt 36.1433 9.7419
vt 51.1183 2.4610
vt 89.7870 27.0987
vt 45.6926 27.0987
vt 86.3939 2.4610
vt 49.4413 23.8076
vt 76.7185 48.2464
vt 44.8287 48.2464
vt 74.9531 23.8076
vt -92.8697 45.3947
vt -100.2260 76.7306
vt 11.3578 83.9615
vt -9.6679 58.0088
vt 8.5935 58.0088
vt -25.2563 83.9615
vt -22.9771 70.9852
vt -100.2260 56.9533
vt 76.7185 -17.2260
vt 53.6802 15.9482
vt 44.8287 -17.2260
vt 73.3307 15.9482
vt -82.8147 10.9373
vt -50.5444 46.8752
vt -63.5234 46.8752
vt -40.6887 10.9373
vt -82.8147 26.5511
vt -45.8245 1.0733
vt -40.6887 26.5511
vt -62.6749 1.0733
vt -81.1700 13.8122
vt -80.4563 47.7164
vt -30.2087 35.5380
vt -26.1256 47.7164
vt -77.7564 23.3596
vt -56.0241 23.3596
vt -82.4628 30.8180
vt -49.4087 30.8180
vt -61.2404 49.9061
vt -33.9611 0.1154
vt -80.4563 -16.3603
vt -26.1256 -16.3603
vt -75.2752 16.5911
vt -58.5359 16.5911
vt -79.6585 28.9062
vt 36.1433 36.1567
vt -13.1324 70.1397
vt -28.4237 36.1567
vt 26.6538 70.1397
vt 45.6926 12.1612
vt 83.2757 45.8730
vt 56.1046 45.8730
vt 89.7870 12.1612
vt 59.6547 -64.6727
vt 64.6205 -41.3592
vt 47.7980 -41.3592
vn -0.0000 1.0000 0.0000
vn -0.3719 0.7747 -0.5113
vn 0.6537 -0.7568 -0.0000
vn 0.8009 -0.3143 0.5097
vn 0.7544 0.4476 0.4801
vn 0.5860 0.6176 -0.5245
vn -0.2704 0.4391 -0.8568
vn -0.2863 -0.3076 -0.9074
vn -0.0000 -1.0000 -0.0000
vn -0.6177 -0.3650 0.6966
vn 0.3034 -0.3552 0.8842
vn 0.8832 -0.3344 0.3289
vn 0.6613 -0.4609 -0.5919
vn 0.6613 -0.4609 -0.5918
vn 0.8258 0.4728 0.3075
vn -0.7726 0.5817 -0.2545
vn -0.8586 -0.4276 -0.2828
vn -0.1496 -0.3254 -0.9337
vn -0.1496 -0.3253 -0.9337
vn -0.3549 -0.7975 -0.4879
vn -0.1404 0.4615 -0.8760
vn -0.1404 0.4615 -0.8759
vn -0.5707 0.5100 0.6436
vn 0.2814 0.4981 0.8202
vn 0.6248 0.7791 -0.0511
usemtl Green_leafs
s 1
f 12/1/1 25/2/1 7/3/1
f 13/4/1 25/2/1 12/1/1
f 13/4/1 26/5/1 25/2/1
f 27/6/1 26/5/1 13/4/1
f 28/7/1 26/5/1 27/6/1
f 26/5/1 28/7/1 29/8/1
f 27/9/2 32/10/2 28/11/2
f 12/1/1 7/3/1 11/12/1
f 11/12/1 7/3/1 8/13/1
usemtl Wood.004
f 1/14/3 2/15/3 3/16/3
f 4/17/4 2/18/4 1/19/4
f 4/17/4 5/20/4 2/18/4
f 5/20/4 4/17/4 6/21/4
f 4/22/5 7/23/5 6/24/5
f 7/23/5 4/22/5 8/25/5
f 8/25/5 4/22/5 9/26/5
f 10/27/6 9/28/6 4/29/6
f 10/27/6 11/30/6 9/28/6
f 11/30/6 10/27/6 12/31/6
f 10/32/7 13/33/7 12/34/7
f 13/33/7 10/32/7 14/35/7
f 15/36/8 14/37/8 10/38/8
f 14/37/8 15/36/8 16/39/8
f 17/40/9 16/41/9 15/42/9
f 18/43/9 16/41/9 17/40/9
f 18/43/9 19/44/9 16/41/9
f 18/43/9 20/45/9 19/44/9
f 20/45/9 18/43/9 21/46/9
f 18/47/10 22/48/10 21/49/10
f 22/48/10 18/47/10 23/50/10
f 18/51/11 24/52/11 23/53/11
f 24/52/11 18/51/11 17/54/11
f 17/55/12 6/56/12 24/57/12
f 6/56/12 17/55/12 5/58/12
f 17/40/9 15/42/9 5/59/9
f 5/59/9 15/42/9 3/60/9
f 10/61/13 3/62/14 15/63/13
f 4/64/14 3/62/14 10/61/13
f 3/62/14 4/64/14 1/65/14
f 5/59/9 3/60/9 2/66/9
f 6/67/15 25/68/15 24/69/15
f 25/68/15 6/67/15 7/70/15
f 30/71/16 29/72/16 28/73/16
f 29/72/16 30/71/16 22/74/16
f 30/75/17 21/76/17 22/77/17
f 21/76/17 30/75/17 20/78/17
f 20/78/17 30/75/17 31/79/17
f 14/80/18 31/81/18 30/82/18
f 16/83/18 31/81/18 14/80/18
f 31/81/18 16/83/18 19/84/19
f 19/85/20 20/86/20 31/87/20
f 32/88/21 14/89/21 30/90/21
f 14/89/21 32/88/21 13/91/21
f 13/91/21 32/88/21 27/92/22
f 30/71/16 28/73/16 32/93/16
f 23/94/23 29/95/23 22/96/23
f 29/95/23 23/94/23 26/97/23
f 23/98/24 25/99/24 26/100/24
f 25/99/24 23/98/24 24/101/24
f 9/102/25 11/103/25 8/104/25
