# Blender v2.78 (sub 0) OBJ File: ''
# www.blender.org
mtllib naturePack_043.mtl
o Mesh1_Group1_Model.032
v 0.154458 0.180000 -0.164002
v 0.564822 0.180000 -1.248430
v 0.000000 0.180000 -0.626677
v 0.377393 0.180000 -0.108538
v 0.154458 0.000000 -0.164002
v 0.377393 0.000000 -0.108538
v 0.564822 0.000000 -1.248430
v 0.000000 0.000000 -0.626677
v 1.389560 0.000000 -1.043240
v 1.389560 0.180000 -1.043240
v 1.158700 0.180000 0.000000
v 0.545792 0.180000 -0.216436
v 0.545792 0.000000 -0.216436
v 1.158700 0.000000 0.000000
v 1.629640 0.000000 -0.504299
v 1.629640 0.180000 -0.504299
vt 6.0810 6.4568
vt 22.2371 49.1507
vt -0.0000 24.6723
vt 14.8580 4.2731
vt 4.3423 0.0000
vt 13.3868 7.0866
vt 4.3423 7.0866
vt 13.3868 0.0000
vt -6.0810 6.4568
vt -22.2371 49.1507
vt -14.8580 4.2731
vt 0.0000 24.6723
vt -4.1989 0.0000
vt -23.4027 7.0866
vt -23.4027 0.0000
vt -4.1989 7.0866
vt -51.3328 7.0866
vt -18.2620 0.0000
vt -18.2620 7.0866
vt -51.3328 0.0000
vt -9.7129 7.0866
vt -43.1726 0.0000
vt -9.7129 0.0000
vt -43.1726 7.0866
vt 45.6181 -0.0000
vt 54.7071 41.0726
vt 21.4879 8.5211
vt 14.8157 0.0000
vt 22.6897 7.0866
vt 14.8157 7.0866
vt 22.6897 0.0000
vt -21.4879 8.5211
vt -45.6181 -0.0000
vt -54.7071 41.0726
vt -64.1590 19.8543
vt 15.2574 0.0000
vt -7.9709 7.0866
vt -7.9709 0.0000
vt 15.2574 7.0866
vt 64.1590 19.8543
vt 31.1352 7.0866
vt 58.3006 0.0000
vt 58.3006 7.0866
vt 31.1352 0.0000
vt 17.4243 7.0866
vt 43.0149 0.0000
vt 43.0149 7.0866
vt 17.4243 0.0000
vn 0.0000 1.0000 0.0000
vn -0.2414 -0.0000 0.9704
vn 0.0000 -1.0000 -0.0000
vn -0.9485 -0.0000 0.3167
vn -0.7402 0.0000 -0.6724
vn 0.2414 0.0000 -0.9704
vn 0.5395 -0.0000 0.8420
vn 0.9135 0.0000 -0.4069
vn 0.7309 0.0000 0.6825
vn -0.3330 -0.0000 0.9429
usemtl Stone.014
s 1
f 1/1/1 2/2/1 3/3/1
f 2/2/1 1/1/1 4/4/1
f 5/5/2 4/6/2 1/7/2
f 4/6/2 5/5/2 6/8/2
f 5/9/3 7/10/3 6/11/3
f 7/10/3 5/9/3 8/12/3
f 5/13/4 3/14/4 8/15/4
f 3/14/4 5/13/4 1/16/4
f 2/17/5 8/18/5 3/19/5
f 8/18/5 2/17/5 7/20/5
f 2/21/6 9/22/6 7/23/6
f 9/22/6 2/21/6 10/24/6
f 2/2/1 11/25/1 10/26/1
f 2/2/1 12/27/1 11/25/1
f 2/2/1 4/4/1 12/27/1
f 6/28/7 12/29/7 4/30/7
f 12/29/7 6/28/7 13/31/7
f 6/11/3 7/10/3 13/32/3
f 13/32/3 7/10/3 14/33/3
f 14/33/3 7/10/3 9/34/3
f 14/33/3 9/34/3 15/35/3
f 9/36/8 16/37/8 15/38/8
f 16/37/8 9/36/8 10/39/8
f 10/26/1 11/25/1 16/40/1
f 11/41/9 15/42/9 16/43/9
f 15/42/9 11/41/9 14/44/9
f 12/45/10 14/46/10 11/47/10
f 14/46/10 12/45/10 13/48/10
