# Blender v2.78 (sub 0) OBJ File: ''
# www.blender.org
mtllib naturePack_059.mtl
o Mesh1_Group1_Model.046
v 0.922635 1.690500 -1.490880
v 0.587570 1.254400 -0.984256
v 0.630135 1.690500 -0.984256
v 0.617817 1.254400 -1.036640
v 0.639379 0.890147 -1.135570
v 0.883576 0.890147 -1.558530
v 1.161280 0.890147 -1.558530
v 1.507640 1.690500 -1.490880
v 1.405710 0.688500 -1.575580
v 1.556530 0.688500 -1.575580
v 1.692910 0.688500 -1.339360
v 1.917190 0.000000 -1.067300
v 1.800140 1.690500 -0.984256
v 1.965140 0.000000 -0.984256
v 1.949510 0.000000 -0.957199
v 1.873760 0.480000 -0.907133
v 1.810270 0.480000 -0.797176
v 1.757330 1.020000 -0.796756
v 1.507640 1.690500 -0.477631
v 1.540360 1.020000 -0.420955
v 0.922635 1.690500 -0.477631
v 1.471230 1.020000 -0.420955
v 0.864048 0.490000 -0.376156
v 0.899156 0.490000 -0.376156
v 1.326040 0.480000 -0.375310
v 1.438380 0.480000 -0.375310
v 1.433700 0.480000 -0.132985
v 1.489870 0.480000 -0.259408
v 1.825700 0.480000 -0.132985
v 1.384700 0.000000 -0.022696
v 1.874700 0.000000 -0.022696
v 1.916300 0.000000 -2.068830
v 1.256980 0.000000 -2.134250
v 1.246070 0.000000 -0.334737
v 1.185300 0.000000 -1.940000
v 1.160780 0.000000 -0.334737
v 1.124480 0.000000 -2.045350
v 1.114790 0.000000 -0.097869
v 0.749538 0.000000 0.000000
v 0.445978 0.000000 -2.045350
v 0.254877 0.000000 -0.385094
v 0.199382 0.000000 -0.592205
v 0.177733 0.000000 -1.334770
v 0.106728 0.000000 -1.457750
v 0.315660 0.545352 -1.355070
v 0.350988 0.890147 -1.457750
v 0.452283 0.890147 -1.282300
v 0.409184 1.254400 -1.205430
v 0.528408 0.890147 -1.282300
v 0.490166 1.254400 -1.205430
v 0.659335 1.254400 -0.734873
v 0.264719 1.254400 -0.909070
v 0.264719 1.254400 -0.848874
v 0.000000 0.000000 -0.970154
v 0.000000 0.000000 -0.649804
v 0.465173 0.490000 -0.623055
v 0.636501 0.490000 -0.573560
v 0.487586 0.490000 -0.539411
v 0.808234 0.490000 -0.289785
v 0.886457 0.490000 -0.310745
v 0.750077 0.490000 -0.573560
v 0.731551 1.254400 -0.734873
v 0.568108 0.890147 -1.833810
v 1.002350 0.890147 -1.833810
v 1.270000 0.408245 -1.599270
v 1.480230 0.688500 -1.777530
v 1.634120 0.688500 -1.762260
v 1.707430 0.688500 -1.363250
v 2.057790 0.000000 -1.298720
v 2.119700 0.000000 -0.574142
v 2.021700 0.480000 -0.574142
v 1.909370 0.480000 -0.574142
v 1.856230 1.020000 -0.574142
v 1.742970 1.020000 -0.319207
v 1.516440 1.020000 -0.319207
v 1.769530 0.480000 -0.259408
v 0.924102 1.690500 -0.904696
v 1.092730 1.690500 -0.612631
v 1.429970 1.690500 -0.612631
v 1.598600 1.690500 -0.904696
v 1.429970 1.690500 -1.196760
v 1.092730 1.690500 -1.196760
v 1.138250 2.449500 -1.117900
v 1.015160 2.449500 -0.904696
v 1.138250 2.449500 -0.691488
v 1.384450 2.449500 -0.691488
v 1.507540 2.449500 -0.904696
v 1.384450 2.449500 -1.117900
vt 56.4449 5.2356
vt 56.6289 14.7760
vt 52.2063 14.7760
vt 58.6563 10.2129
vt 71.8780 5.2356
vt 16.1096 47.4580
vt 25.9581 28.9320
vt 19.2979 47.4580
vt 10.4220 35.7902
vt 10.4220 33.4202
vt 19.1963 21.2366
vt 25.0591 22.5811
vt 18.3139 24.5297
vt 31.8203 11.4089
vt 34.0176 14.8093
vt 34.8999 12.2341
vt 35.3998 14.8093
vt 29.5306 22.5811
vt 23.1327 38.7502
vt 28.8012 28.9320
vt 24.3235 40.8128
vt 22.3664 72.1974
vt 20.8035 50.4844
vt 25.1724 44.7075
vt 17.8064 50.4844
vt 13.8184 57.3918
vt 39.4625 72.1974
vt 34.7865 61.3596
vt 45.7198 61.3596
vt 61.2809 62.0306
vt 58.2769 69.9814
vt 55.3430 62.0306
vt 64.3354 69.3803
vt 66.6502 52.7307
vt 67.2215 53.6712
vt 73.7700 35.7139
vt 75.1719 22.6040
vt 79.5945 22.6040
vt 71.2707 31.3849
vt 69.1860 31.3683
vt 68.6207 12.5672
vt 73.0799 22.6040
vt 60.6440 16.5730
vt 59.7022 12.5672
vt 57.9225 16.5730
vt 69.6667 10.2129
vt 36.3242 18.8044
vt 36.3242 58.6961
vt 24.8085 38.7502
vt 36.3820 35.6179
vt 43.0207 24.1193
vt 59.3557 18.8044
vt 56.2982 24.1193
vt 62.9369 35.6179
vt 70.8715 38.7502
vt 59.3557 58.6961
vt 56.2982 47.1166
vt 43.0207 47.1166
vt 44.8132 44.0119
vt 54.5057 27.2239
vt 54.5057 44.0119
vt 44.8132 27.2239
vt 39.9669 35.6179
vt 59.3520 35.6179
vt -68.9944 66.4963
vt -45.1250 49.2658
vt -45.9629 66.4963
vt -47.5067 49.2658
vt -51.3040 34.8740
vt -70.5322 34.8740
vt -36.3242 61.3748
vt -45.7198 29.7525
vt -34.7865 29.7525
vt -59.3557 61.3748
vt -55.3430 21.7853
vt -61.2809 21.7853
vt 21.1545 59.5171
vt 12.3411 19.9276
vt 23.0796 19.9276
vt -1.3499 -7.2753
vt -1.8770 59.5171
vt -5.1251 -7.2753
vt 68.9944 62.7810
vt 71.0124 -4.0115
vt 72.2424 -4.0115
vt 67.8141 14.9535
vt 62.8154 14.9535
vt 61.7588 36.2892
vt 45.9629 62.7810
vt 44.6747 36.2892
vt 36.3242 67.9025
vt 60.6440 41.4107
vt 59.3557 67.9025
vt 57.9225 41.4107
vt 34.0176 20.4701
vt 35.3998 20.4701
vt 52.2063 20.0750
vt 56.6289 20.0750
vt 54.5158 0.2001
vt 71.8780 19.5902
vt 56.4449 19.5902
vt 73.8071 0.2001
vt -54.5158 0.8935
vt -75.4450 81.4501
vt -73.8071 0.8935
vt -49.4876 84.0256
vt -49.0577 13.1786
vt -46.6655 76.3778
vt -45.6999 13.1786
vt -44.2708 80.5256
vt -43.8894 3.8531
vt -29.5094 -0.0000
vt -17.5582 80.5256
vt -10.0345 15.1612
vt -7.8497 23.3151
vt -6.9974 52.5499
vt -4.2019 57.3918
vt -39.9879 29.5444
vt -47.6018 7.4759
vt -42.0109 7.4759
vt -42.7936 43.4970
vt -34.8176 43.4970
vt -16.1096 38.5222
vt -17.8064 23.8657
vt -12.4276 9.9921
vt -20.8035 23.8657
vt -19.2979 38.5222
vt -38.1950 0.0000
vt -33.4202 50.4735
vt -35.7902 50.4735
vt -25.5828 0.0000
vt 0.0000 25.5828
vt 0.0000 38.1950
vt 10.7864 24.7912
vt -7.1003 5.0749
vt 1.0704 5.0749
vt 0.7371 55.5485
vt 16.9085 55.5485
vt 17.8074 24.7912
vt -1.3954 8.6163
vt 18.1002 30.5428
vt 2.1017 30.5428
vt 23.2851 8.6163
vt 28.5039 -3.6303
vt 36.8771 18.2963
vt 33.6888 18.2963
vt 43.3911 -3.6303
vt 21.6469 -20.1298
vt 18.6613 1.7967
vt 12.1473 -20.1298
vt 21.2846 1.7967
vt 45.6999 1.1100
vt 49.0577 1.1100
vt 7.8748 9.2043
vt 18.1330 28.4281
vt 7.6934 28.4281
vt 21.3178 9.2043
vt 28.8012 54.2956
vt 25.0591 23.5383
vt 29.5306 23.5383
vt 25.9581 54.2956
vt 20.4744 24.5759
vt 26.2118 39.2324
vt 17.8801 39.2324
vt 27.7174 24.5759
vt -73.7080 30.2279
vt -51.8037 -5.7932
vt -56.6120 30.2279
vt -78.5163 -5.7932
vt -22.3664 17.4034
vt -44.2708 -18.6177
vt -17.5582 -18.6177
vt -39.4625 17.4034
vt 29.5278 -1.6528
vt 42.7936 17.8481
vt 30.2791 17.8481
vt 42.8123 -18.1731
vt -76.3793 25.4016
vt -85.8289 37.6576
vt -87.8100 7.5484
vt -77.3540 37.6576
vt -50.0000 10.7123
vt 79.6721 11.5244
vt 85.7635 -18.5849
vt 80.7725 11.5244
vt 75.1026 -18.5849
vt -81.0154 51.1308
vt -75.4800 42.0196
vt -76.7525 37.6850
vt -77.3675 38.7502
vt -83.4528 22.6040
vt 3.2761 -15.6714
vt -11.6598 3.5523
vt -13.2263 -15.6714
vt 2.6857 3.5523
vt -0.2556 11.8470
vt -9.0147 33.1926
vt -9.8641 11.8470
vt 0.5757 33.1926
vt 9.4891 23.9940
vt 12.7554 45.3396
vt 8.3721 45.3396
vt 14.4823 23.9940
vt 58.6563 19.9069
vt 68.6207 41.2967
vt 59.7022 41.2967
vt 69.6667 19.9069
vt 33.9684 6.9190
vt 54.5404 -12.3048
vt 52.9738 6.9190
vt 30.7836 -12.3048
vt 51.1782 13.4909
vt 39.3460 34.8366
vt 37.6191 13.4909
vt 50.3288 34.8366
vt 66.4766 -38.7109
vt 40.6408 -8.6017
vt 35.6498 -38.7109
vt 56.6129 -8.6017
vt -67.0344 -38.5282
vt -51.0826 -8.4189
vt -57.1708 -8.4189
vt -40.9495 -38.5282
vt -95.9619 7.5484
vt 47.6018 -18.1731
vt -10.6553 52.5296
vt -21.1545 69.7601
vt -21.9924 52.5296
vt 1.8770 69.7601
vt -4.7905 22.3278
vt 4.1836 22.3278
vt -49.0370 67.6144
vt -60.5220 97.6572
vt -62.3145 67.6144
vt -50.8295 97.6572
vt -12.6550 71.2952
vt -1.1700 101.3380
vt -10.8626 101.3380
vt 0.6224 71.2952
vt 43.0207 68.6913
vt 54.5057 98.7340
vt 44.8132 98.7340
vt 56.2982 68.6913
vt 62.3145 62.4066
vt 50.8295 92.4493
vt 49.0370 62.4066
vt 60.5220 92.4493
vt 12.6550 58.7258
vt 1.1700 88.7686
vt -0.6224 58.7258
vt 10.8626 88.7686
vt -56.2982 61.3297
vt -44.8132 91.3725
vt -54.5057 91.3725
vt -43.0207 61.3297
vt -15.5446 28.3988
vt -20.4891 6.4722
vt -12.0475 6.4722
vt -18.9539 28.3988
vt -34.3332 -3.4557
vt -49.7184 47.0178
vt -50.3027 -3.4557
vt -36.7381 47.0178
vt -53.4005 18.4877
vn 0.0000 1.0000 0.0000
vn -0.8629 0.0842 -0.4982
vn 0.0000 0.0842 -0.9964
vn 0.8629 0.0842 -0.4982
vn 0.8629 0.0842 -0.4983
vn 0.8630 0.0842 -0.4982
vn 0.8629 0.0842 0.4982
vn 0.8628 0.0842 0.4984
vn 0.8630 0.0842 0.4982
vn 0.8629 0.0842 0.4983
vn -0.0000 0.0842 0.9964
vn 0.0000 0.2239 0.9746
vn 0.0000 -1.0000 -0.0000
vn -0.8426 0.2312 0.4865
vn -0.8426 0.2312 0.4864
vn 0.0000 0.2065 -0.9784
vn -0.9784 0.2065 0.0000
vn -0.2716 0.2065 0.9400
vn -0.1371 0.2085 0.9684
vn -0.5405 0.4753 0.6942
vn 0.2277 0.4753 0.8498
vn 0.8637 0.4753 0.1677
vn -0.8984 0.1834 0.3991
vn 0.0000 0.2065 0.9784
vn 0.0000 0.2065 0.9785
vn 0.7804 0.2065 -0.5902
vn -0.8426 0.2312 -0.4865
vn 0.0000 0.2312 -0.9729
vn 0.8426 0.2312 -0.4865
vn 0.8426 0.2312 -0.4864
vn -0.8446 0.4353 -0.3117
vn 0.7693 0.4353 0.4676
vn 0.7694 0.4353 0.4675
vn 0.7694 0.4353 0.4674
vn 0.8984 0.1834 -0.3991
vn 0.9102 0.0896 -0.4044
vn 0.9102 0.0895 -0.4044
vn -0.9102 0.0896 0.4044
vn 0.0000 0.1101 0.9939
vn 0.8984 0.1834 0.3991
vn 0.9102 0.0896 0.4044
vn 0.8854 0.4353 -0.1627
vn 0.0889 0.4353 -0.8959
vn -0.8629 0.0842 0.4982
vn -0.8614 0.1033 -0.4973
vn -0.8614 0.1033 0.4973
vn 0.0000 0.1033 0.9946
vn 0.8614 0.1033 0.4973
vn 0.8614 0.1033 -0.4973
vn 0.0000 0.1033 -0.9946
vn -0.8498 0.4753 0.2277
vn -0.8795 0.2065 -0.4287
usemtl Green_leafs.026
s 1
f 27/1/1 26/2/1 25/3/1
f 26/2/1 27/1/1 28/4/1
f 28/4/1 27/1/1 29/5/1
f 48/6/1 51/7/1 50/8/1
f 52/9/1 51/7/1 48/6/1
f 51/7/1 52/9/1 53/10/1
f 58/11/1 57/12/1 56/13/1
f 57/12/1 58/11/1 59/14/1
f 23/15/1 60/16/1 24/17/1
f 23/15/1 59/14/1 60/16/1
f 61/18/1 59/14/1 23/15/1
f 57/12/1 59/14/1 61/18/1
f 2/19/1 51/7/1 62/20/1
f 50/8/1 51/7/1 2/19/1
f 4/21/1 50/8/1 2/19/1
f 63/22/1 49/23/1 5/24/1
f 63/22/1 47/25/1 49/23/1
f 47/25/1 63/22/1 46/26/1
f 63/22/1 5/24/1 64/27/1
f 64/27/1 5/24/1 6/28/1
f 64/27/1 6/28/1 7/29/1
f 10/30/1 66/31/1 9/32/1
f 66/31/1 10/30/1 67/33/1
f 67/33/1 10/30/1 11/34/1
f 67/33/1 11/34/1 68/35/1
f 16/36/1 72/37/1 71/38/1
f 72/37/1 16/36/1 17/39/1
f 18/40/1 74/41/1 73/42/1
f 20/43/1 74/41/1 18/40/1
f 20/43/1 75/44/1 74/41/1
f 75/44/1 20/43/1 22/45/1
f 28/4/1 29/5/1 76/46/1
f 76/46/1 29/5/1 72/37/1
f 72/37/1 29/5/1 71/38/1
f 21/47/1 1/48/1 3/49/1
f 1/48/1 21/47/1 77/50/1
f 77/50/1 21/47/1 78/51/1
f 78/51/1 21/47/1 19/52/1
f 78/51/1 19/52/1 79/53/1
f 79/53/1 19/52/1 80/54/1
f 80/54/1 19/52/1 13/55/1
f 8/56/1 80/54/1 13/55/1
f 8/56/1 81/57/1 80/54/1
f 8/56/1 82/58/1 81/57/1
f 1/48/1 82/58/1 8/56/1
f 82/58/1 1/48/1 77/50/1
f 83/59/1 86/60/1 88/61/1
f 83/59/1 85/62/1 86/60/1
f 85/62/1 83/59/1 84/63/1
f 88/61/1 86/60/1 87/64/1
usemtl Wood.033
f 1/65/2 2/66/2 3/67/2
f 2/66/2 1/65/2 4/68/2
f 4/68/2 1/65/2 5/69/2
f 5/69/2 1/65/2 6/70/2
f 1/71/3 7/72/3 6/73/3
f 8/74/3 7/72/3 1/71/3
f 8/74/3 9/75/3 7/72/3
f 9/75/3 8/74/3 10/76/3
f 8/77/4 11/78/5 10/79/6
f 8/77/4 12/80/5 11/78/5
f 13/81/4 12/80/5 8/77/4
f 12/80/5 13/81/4 14/82/5
f 13/83/7 15/84/8 14/85/8
f 13/83/7 16/86/9 15/84/8
f 13/83/7 17/87/10 16/86/9
f 13/83/7 18/88/9 17/87/10
f 19/89/7 18/88/9 13/83/7
f 18/88/9 19/89/7 20/90/7
f 21/91/11 20/92/11 19/93/11
f 21/91/11 22/94/11 20/92/11
f 23/95/11 22/94/11 21/91/11
f 24/96/11 22/94/11 23/95/11
f 25/97/11 22/94/11 24/96/11
f 22/94/11 25/97/11 26/98/11
f 30/99/12 29/100/12 27/101/12
f 29/100/12 30/99/12 31/102/12
f 30/103/13 32/104/13 31/105/13
f 30/103/13 33/106/13 32/104/13
f 34/107/13 33/106/13 30/103/13
f 34/107/13 35/108/13 33/106/13
f 36/109/13 35/108/13 34/107/13
f 36/109/13 37/110/13 35/108/13
f 38/111/13 37/110/13 36/109/13
f 39/112/13 37/110/13 38/111/13
f 39/112/13 40/113/13 37/110/13
f 41/114/13 40/113/13 39/112/13
f 42/115/13 40/113/13 41/114/13
f 43/116/13 40/113/13 42/115/13
f 40/113/13 43/116/13 44/117/13
f 45/118/14 44/119/14 43/120/14
f 44/119/14 45/118/14 46/121/14
f 46/121/14 45/118/14 47/122/15
f 48/123/16 47/124/16 45/125/16
f 47/124/16 48/123/16 49/126/16
f 49/126/16 48/123/16 50/127/16
f 54/128/17 53/129/17 52/130/17
f 53/129/17 54/128/17 55/131/17
f 43/116/13 55/132/13 54/133/13
f 55/132/13 43/116/13 42/115/13
f 56/134/18 55/135/18 42/136/18
f 55/135/18 56/134/18 53/137/18
f 53/137/18 56/134/18 51/138/19
f 51/138/19 56/134/18 57/139/19
f 41/140/20 59/141/20 58/142/20
f 59/141/20 41/140/20 39/143/20
f 39/144/21 60/145/21 59/146/21
f 60/145/21 39/144/21 38/147/21
f 36/148/22 60/149/22 38/150/22
f 60/149/22 36/148/22 24/151/22
f 36/152/11 25/97/11 24/96/11
f 25/97/11 36/152/11 34/153/11
f 34/154/23 27/155/23 25/156/23
f 27/155/23 34/154/23 30/157/23
f 62/158/24 57/159/19 61/160/25
f 57/159/19 62/158/24 51/161/19
f 5/162/26 50/163/26 4/164/26
f 50/163/26 5/162/26 49/165/26
f 63/166/27 44/167/27 46/168/27
f 44/167/27 63/166/27 40/169/27
f 63/170/28 37/171/28 40/172/28
f 37/171/28 63/170/28 64/173/28
f 65/174/29 64/175/30 7/176/30
f 64/175/30 65/174/29 35/177/30
f 65/178/31 66/179/31 35/180/31
f 66/179/31 65/178/31 9/181/31
f 7/72/3 9/75/3 65/182/3
f 11/183/32 69/184/33 68/185/32
f 69/184/33 11/183/32 12/186/34
f 69/187/13 12/188/13 32/104/13
f 31/105/13 32/104/13 12/188/13
f 31/105/13 12/188/13 15/189/13
f 14/190/13 15/189/13 12/188/13
f 31/105/13 15/189/13 70/191/13
f 15/192/35 71/193/35 70/194/35
f 71/193/35 15/192/35 16/195/35
f 17/196/36 73/197/36 72/198/36
f 73/197/36 17/196/36 18/199/37
f 26/200/38 75/201/38 22/202/38
f 75/201/38 26/200/38 28/203/38
f 28/204/39 74/205/39 75/206/39
f 74/205/39 28/204/39 76/207/39
f 29/208/40 70/209/40 71/210/40
f 70/209/40 29/208/40 31/211/40
f 72/212/41 74/213/41 76/214/41
f 74/213/41 72/212/41 73/215/41
f 32/216/42 68/217/42 69/218/42
f 68/217/42 32/216/42 67/219/42
f 32/220/43 66/221/43 67/222/43
f 66/221/43 32/220/43 33/223/43
f 35/180/31 66/179/31 33/224/31
f 64/175/30 35/177/30 37/225/30
f 62/226/44 3/227/44 2/228/44
f 62/226/44 21/229/44 3/227/44
f 61/230/44 21/229/44 62/226/44
f 21/229/44 61/230/44 23/231/44
f 77/232/45 83/233/45 82/234/45
f 83/233/45 77/232/45 84/235/45
f 77/236/46 85/237/46 84/238/46
f 85/237/46 77/236/46 78/239/46
f 78/240/47 86/241/47 85/242/47
f 86/241/47 78/240/47 79/243/47
f 80/244/48 86/245/48 79/246/48
f 86/245/48 80/244/48 87/247/48
f 81/248/49 87/249/49 80/250/49
f 87/249/49 81/248/49 88/251/49
f 81/252/50 83/253/50 88/254/50
f 83/253/50 81/252/50 82/255/50
f 58/256/51 42/257/51 41/258/51
f 42/257/51 58/256/51 56/259/51
f 54/260/52 48/261/52 43/262/52
f 48/261/52 54/260/52 52/263/52
f 43/262/52 48/261/52 45/264/52
