# Blender v2.78 (sub 0) OBJ File: ''
# www.blender.org
mtllib naturePack_087.mtl
o Mesh1_Group1_Model.061
v 0.363467 0.944267 -1.454250
v 0.960769 0.204457 -2.218800
v 0.000000 0.204457 -1.664100
v 0.960769 0.954915 -1.793060
v 0.443683 1.107540 -1.407940
v 0.960769 1.107540 -1.706480
v 1.477850 1.107540 -1.407940
v 1.558070 0.944267 -1.454250
v 1.477850 1.107540 -0.810860
v 1.568810 0.922397 -0.758344
v 0.960769 1.107540 -0.512321
v 0.960769 0.911165 -0.400916
v 0.352722 0.922397 -0.758344
v 0.443683 1.107540 -0.810860
v 0.000000 0.204457 -0.554700
v 0.960769 0.204457 0.000000
v 0.480384 0.000000 -1.941450
v 1.921540 0.204457 -1.664100
v 0.960769 0.963343 -2.061250
v 0.172938 0.949056 -1.606620
v 0.172938 0.920481 -0.697365
v 0.960769 0.906194 -0.242735
v 0.480384 0.000000 -0.277350
v 1.921540 0.204457 -0.554700
v 1.748600 0.949056 -1.606620
v 1.419560 1.679440 -1.393600
v 0.960769 1.702770 -1.650010
v 0.501980 1.679440 -1.393600
v 0.566853 0.771870 -1.839730
v 0.487704 1.630590 -0.856869
v 0.172938 0.750439 -1.157790
v 0.960769 1.605010 -0.575777
v 0.566853 0.729008 -0.475843
v 1.748600 0.920481 -0.697365
v 1.433830 1.630590 -0.856869
v 1.384780 1.741260 -0.881726
v 1.384780 1.756640 -1.371090
v 0.960769 1.764330 -1.615770
v 0.536758 1.756640 -1.371090
v 0.960769 1.717250 -1.809040
v 0.369896 1.686330 -1.469300
v 0.536758 1.741260 -0.881726
v 0.960769 1.733570 -0.637045
v 0.960769 1.593570 -0.450089
v 0.369896 1.624490 -0.789826
v 0.369896 1.517660 -1.142100
v 0.623075 2.202270 -0.884021
v 0.630892 2.254630 -1.266270
v 0.642761 2.247190 -0.891345
v 0.642761 2.280470 -1.257040
v 0.960769 2.279910 -1.450830
v 0.960769 2.297110 -1.439880
v 1.278780 2.280470 -1.257040
v 1.290640 2.254630 -1.266270
v 1.278780 2.247190 -0.891345
v 1.298460 2.202270 -0.884021
v 0.960769 2.230550 -0.708499
v 0.960769 2.175140 -0.686022
v 0.960769 2.160910 -0.582121
v 0.505797 2.196560 -0.842369
v 0.505797 2.267860 -1.362860
v 0.702737 2.867290 -0.865256
v 0.707039 2.921700 -1.156030
v 0.715903 2.912130 -0.866786
v 0.715903 2.950500 -1.146919
v 0.960769 2.948240 -1.297809
v 0.960769 2.969690 -1.286980
v 1.205630 2.950500 -1.146919
v 1.214500 2.921700 -1.156030
v 1.205630 2.912130 -0.866786
v 1.218800 2.867290 -0.865256
v 0.960769 2.892940 -0.726721
v 0.960769 2.839380 -0.716141
v 0.733283 2.020460 -0.733926
v 1.415740 2.196560 -0.842369
v 1.415740 2.267860 -1.362860
v 0.960769 2.303510 -1.623110
v 0.733283 2.127410 -1.514670
v 1.188250 2.127410 -1.514670
v 1.551640 1.624490 -0.789826
v 0.665332 1.471290 -0.632493
v 1.256200 1.471290 -0.632493
v 1.551640 1.686330 -1.469300
v 0.665332 1.564040 -1.651700
v 1.551640 1.517660 -1.142100
v 1.256200 1.564040 -1.651700
v 1.188250 2.020460 -0.733926
v 1.415740 2.073930 -1.124300
v 0.980769 2.966750 -1.396710
v 0.657738 2.932440 -1.213390
v 0.657738 2.863820 -0.846754
v 0.980769 2.829520 -0.663436
v 1.303800 2.863820 -0.846754
v 1.303800 2.932440 -1.213390
v 1.036400 3.760170 -0.901423
v 0.980769 3.766080 -0.932995
v 0.925135 3.760170 -0.901423
v 0.819254 2.838100 -1.325920
v 0.925135 3.748360 -0.838279
v 0.980769 3.742450 -0.806707
v 0.813286 2.739930 -0.778575
v 0.825688 2.738940 -0.771477
v 0.819254 2.735180 -0.775960
v 1.036400 3.748360 -0.838279
v 1.303800 2.786640 -1.050940
v 1.142280 2.735180 -0.775960
v 0.657738 2.786640 -1.050940
v 1.142280 2.838100 -1.325920
v 0.505797 2.073930 -1.124300
v 1.354680 0.729008 -0.475843
v 1.748600 0.750439 -1.157790
v 1.354680 0.771870 -1.839730
v 1.921540 0.000000 -1.109400
v 1.441150 0.000000 -0.277350
v 1.441150 0.000000 -1.941450
v 0.000000 0.000000 -1.109400
vt -41.0196 14.6574
vt -76.4350 -17.7943
vt -32.7579 -17.7943
vt -68.0544 15.1244
vt -42.8429 21.8194
vt -66.3500 21.8194
vt -22.6728 5.1400
vt 2.5387 -1.5549
vt 0.8342 5.1400
vt -24.4962 -2.0220
vt 31.9236 13.4797
vt 57.2540 6.3177
vt 55.4307 13.4797
vt 29.8561 5.3584
vt 42.8429 38.4987
vt 68.4175 30.3774
vt 66.3500 38.4987
vt 40.6499 29.8847
vt 22.6728 55.1780
vt -2.9018 47.0567
vt 24.8658 46.5640
vt -0.8342 55.1780
vt -31.9236 46.8384
vt -57.2540 39.6764
vt -29.8561 38.7171
vt -55.4307 46.8384
vt -65.5157 7.2247
vt -21.8386 7.2247
vt -0.0000 65.5157
vt -37.8255 0.0000
vt -0.0000 21.8386
vt -37.8255 87.3543
vt -76.4350 8.0495
vt -54.5965 -0.0000
vt -32.7579 8.0495
vt -75.6511 65.5157
vt -32.7579 -34.4737
vt 10.9193 -34.4737
vt -37.8255 71.7391
vt -37.8255 82.3030
vt -61.3413 58.3935
vt -14.3097 58.3935
vt -6.8086 64.3954
vt -13.8867 30.9820
vt -6.8086 28.5801
vt -37.8255 10.6724
vt -37.8255 16.9031
vt -10.9193 15.5643
vt 32.7579 15.5643
vt -10.9193 8.0495
vt 10.9193 -0.0000
vt 32.7579 8.0495
vt 32.7579 -1.1150
vt 76.4350 -1.1150
vt -75.6511 21.8386
vt 65.5157 -26.1340
vt 21.8386 -26.1340
vt -68.8425 64.3954
vt -61.7644 30.9820
vt 8.4706 -4.3477
vt -20.4144 26.9199
vt -27.3392 -4.9715
vt 0.2728 27.9388
vt -73.7078 12.2167
vt -44.8227 43.4843
vt -65.5099 44.5031
vt -37.8979 11.5928
vt -73.3447 36.5160
vt -55.5534 28.9749
vt -37.5339 35.9533
vt -63.1512 37.2562
vt -33.4623 66.6401
vt -54.5837 68.7461
vt -27.3571 36.0242
vt -63.2529 37.3644
vt -45.5822 29.5448
vt -27.4553 36.2394
vt -7.6484 43.9036
vt 21.6823 73.0752
vt 0.0219 74.1654
vt 28.1617 43.2948
vt -7.8370 35.4866
vt 9.9543 27.9455
vt 27.9738 34.9239
vt 73.4169 29.5941
vt 44.0862 58.7657
vt 37.6068 28.9852
vt 65.7466 59.8558
vt 64.2124 6.4234
vt 34.5235 35.8073
vt 28.4183 5.1914
vt 55.6449 37.9133
vt 35.4750 40.5786
vt 54.7394 41.2416
vt -19.6825 30.2907
vt -0.4096 30.6264
vt -45.5546 46.8550
vt -64.8275 47.1908
vt -19.7630 60.6331
vt -37.8255 77.0562
vt -37.8255 70.7693
vt -14.5628 63.6255
vt -19.2010 39.4145
vt -34.4138 71.4114
vt -53.6782 72.0744
vt 20.4903 78.5538
vt 1.2173 78.8815
vt -37.8255 23.3333
vt -37.8255 28.3021
vt -14.5628 36.7641
vt -57.8464 66.3909
vt -44.9645 59.7505
vt -31.0955 63.9563
vt -33.7833 89.7571
vt -57.2101 67.5288
vt -30.4810 64.8646
vt -48.8077 92.0130
vt -34.0401 91.6925
vt -48.4257 93.1264
vt -47.3393 64.9527
vt -62.0009 64.9275
vt -47.1290 63.7945
vt -61.7769 65.6984
vt -17.2935 46.1680
vt -2.6319 46.1429
vt -2.8559 46.9138
vt -17.5038 45.0098
vt 37.0999 60.9936
vt 51.8676 61.3140
vt 51.4855 62.4274
vt 36.8432 59.0581
vt 46.6035 84.7924
vt 61.5819 83.6109
vt 61.0436 85.4876
vt 46.1748 82.4778
vt 19.5782 97.0498
vt 4.5998 95.8682
vt 20.0069 94.7351
vt 5.1381 97.7449
vt -37.8255 34.2521
vt -24.5305 46.2490
vt -37.8255 38.3809
vt -19.9133 44.5938
vt -19.9133 65.2771
vt -32.9203 116.4840
vt -52.8083 91.8809
vt -32.3330 88.9545
vt -44.3518 118.7180
vt -32.9596 118.3250
vt -43.9794 119.9000
vt -47.6030 97.2795
vt -58.9267 97.1825
vt -47.4925 96.0452
vt -58.7044 98.1019
vt -16.9362 81.6744
vt -5.6125 81.5774
vt -5.8349 82.4968
vt -17.0468 80.4401
vt 36.0142 96.9530
vt 47.4064 97.3460
vt 47.0339 98.5280
vt 35.9749 95.1125
vt 46.9652 113.3590
vt 58.4941 112.3340
vt 58.0705 114.1260
vt 46.7626 111.2190
vt 19.1384 119.6170
vt 7.6094 118.5920
vt 19.3409 117.4770
vt 8.0330 120.3830
vt 1.2726 91.7947
vt 21.9068 90.3704
vt 0.5073 81.3332
vt 10.3950 74.3517
vt 21.1423 79.9199
vt 64.8310 85.5374
vt 44.1967 84.1131
vt 55.8629 70.5092
vt 35.3876 67.5828
vt 1.0693 53.9427
vt -19.5575 52.4147
vt -65.6085 69.5478
vt -44.9817 68.0198
vt -24.8383 61.4387
vt -37.8255 75.6188
vt -64.8553 85.8100
vt -54.9676 78.8285
vt -44.2204 84.3967
vt -37.8255 68.7729
vt -50.8128 61.4387
vt -55.7378 65.2771
vt -0.5073 81.3332
vt -21.1423 79.9199
vt -10.3950 74.3517
vt -51.1205 46.2490
vt -55.7378 44.5938
vt 68.5054 59.4737
vt 41.6750 58.1820
vt -2.3237 71.7310
vt 24.5067 70.4394
vt -2.9971 61.0742
vt 10.1722 55.0238
vt 23.8366 59.8532
vt 68.4451 64.0523
vt 41.6115 62.8313
vt 55.2758 58.0020
vt -56.4501 39.4145
vt -61.0882 36.7641
vt 45.2782 64.2442
vt 64.5512 64.5719
vt -61.0882 63.6255
vt -55.8881 60.6331
vt 4.6970 20.9262
vt -22.1287 19.5405
vt -69.3298 39.7108
vt -42.5041 38.3252
vt -68.4451 64.0523
vt -55.2758 58.0020
vt -41.6115 62.8313
vt 60.2699 36.8298
vt 33.5409 34.1657
vt 57.8464 66.3909
vt 31.0955 63.9563
vt 44.9645 59.7505
vt 2.9971 61.0742
vt -23.8366 59.8532
vt -10.1722 55.0238
vt 64.8553 85.8100
vt 44.2204 84.3967
vt 54.9676 78.8285
vt 53.6561 89.2858
vt 33.1641 86.4788
vt 44.2637 81.6510
vt -27.8362 65.8957
vt -38.6129 75.5360
vt -37.8255 71.5744
vt -25.8952 68.1934
vt -27.6668 54.2493
vt -25.8952 53.5082
vt -38.6129 46.1657
vt -37.8255 48.2767
vt -47.9843 54.2493
vt -51.3307 53.5082
vt -51.3307 68.1934
vt -47.8149 65.8957
vt -3.4018 75.2655
vt -15.6392 110.0660
vt -18.0097 73.7608
vt -13.1234 110.3250
vt -61.9645 93.3909
vt -49.7272 128.1910
vt -52.2430 128.4500
vt -47.3567 91.8862
vt -61.1443 110.8710
vt -54.2497 105.7410
vt -46.5230 109.5030
vt -31.8237 115.9560
vt -33.3791 152.8120
vt -46.2353 118.7770
vt -30.8970 152.3270
vt 6.5976 117.3770
vt 18.4978 152.2930
vt 15.9796 152.5280
vt 21.2193 116.0130
vt 12.0842 99.6998
vt 20.0656 103.2720
vt 5.4444 104.6400
vt 12.6468 99.6601
vt 12.3390 99.5103
vt 61.0452 112.3020
vt 49.1450 147.2190
vt 46.4235 110.9390
vt 51.6632 147.4540
vt 36.1779 93.7140
vt 37.7333 130.5700
vt 35.2513 130.0840
vt 50.5895 96.5353
vt 47.7714 115.4500
vt 33.3368 112.7490
vt 41.3755 109.7100
vt 38.6129 63.3799
vt 40.8032 59.5862
vt 40.8032 62.1154
vt 38.6129 58.3217
vt 36.4226 62.1154
vt 36.4226 59.5862
vt 61.1443 110.8710
vt 46.5230 109.5030
vt 54.2497 105.7410
vt -47.7714 115.4500
vt -41.3755 109.7100
vt -33.3368 112.7490
vt -5.4444 104.6400
vt -20.0656 103.2720
vt -12.3390 99.5103
vt -53.6561 89.2858
vt -44.2637 81.6510
vt -33.1641 86.4788
vt -68.8425 28.5801
vt 73.3447 36.5160
vt 37.5339 35.9533
vt 55.5534 28.9749
vt 63.2529 37.3644
vt 27.4553 36.2394
vt 45.5822 29.5448
vt 7.8370 35.4866
vt -27.9738 34.9239
vt -9.9543 27.9455
vt 65.5157 8.0495
vt 21.8386 8.0495
vt 43.6772 0.0000
vt 54.5965 0.0000
vt 76.4350 8.0495
vt -32.7579 8.0495
vt -10.9193 -0.0000
vt 10.9193 8.0495
vt -65.5157 8.0495
vt -43.6772 -0.0000
vt -21.8386 8.0495
vn -0.4488 0.4410 -0.7773
vn -0.4488 0.4409 -0.7773
vn 0.4488 0.4409 -0.7773
vn 0.4488 0.4410 -0.7773
vn 0.8975 0.4410 0.0000
vn 0.4488 0.4410 0.7773
vn -0.4488 0.4410 0.7773
vn -0.8975 0.4410 -0.0000
vn 0.0000 -1.0000 -0.0000
vn -0.5000 0.0000 -0.8660
vn -0.0000 -0.9995 -0.0314
vn -0.5000 0.0000 0.8660
vn 0.4565 0.4324 -0.7775
vn -0.4565 0.4324 -0.7775
vn -0.5000 0.0272 -0.8656
vn -0.9131 0.4076 0.0128
vn -1.0000 0.0000 0.0000
vn -0.4565 0.3828 0.8032
vn -0.5000 -0.0272 0.8656
vn 0.4565 0.3828 0.8032
vn 0.9131 0.4076 0.0128
vn 0.4565 0.4324 -0.7776
vn 0.4565 0.4325 -0.7775
vn -0.4565 0.4325 -0.7775
vn -0.4566 0.4324 -0.7776
vn -0.0000 -0.9959 -0.0906
vn -0.0000 -0.9959 -0.0907
vn -0.9131 0.4061 0.0370
vn -0.9131 0.4062 0.0370
vn -0.9130 0.4062 0.0370
vn -0.4565 0.4778 -0.7505
vn 0.4565 0.4778 -0.7505
vn 0.4566 0.4777 -0.7506
vn 0.9130 0.4062 0.0370
vn 0.9131 0.4061 0.0369
vn 0.4565 0.3344 0.8245
vn -0.4565 0.3344 0.8245
vn -0.4565 0.3345 0.8244
vn 0.0000 -0.9907 -0.1357
vn 0.0000 -0.9908 -0.1357
vn -0.9584 0.2827 0.0387
vn -0.4792 0.3954 -0.7836
vn -0.4792 0.3953 -0.7836
vn 0.4792 0.3953 -0.7836
vn 0.4792 0.3954 -0.7836
vn 0.9584 0.2829 0.0387
vn 0.9584 0.2828 0.0387
vn 0.4792 0.1701 0.8611
vn -0.4792 0.1701 0.8611
vn -0.5000 -0.1175 0.8580
vn 0.9584 0.2827 0.0387
vn -0.5000 0.1176 -0.8580
vn 0.5000 0.1175 -0.8580
vn 0.4565 0.3345 0.8244
vn -0.4565 0.3345 0.8245
vn -0.5000 -0.0785 0.8625
vn 0.5000 -0.0785 0.8625
vn 0.4565 0.3827 0.8032
vn -0.5000 0.0785 -0.8625
vn 0.9131 0.4061 0.0370
vn 1.0000 0.0000 0.0000
vn 0.5000 0.0784 -0.8625
vn 0.5000 -0.1175 0.8580
vn -0.0001 -0.9829 -0.1840
vn -0.0000 -0.9829 -0.1840
vn -0.0002 -0.9830 -0.1839
vn 0.0001 -0.9829 -0.1840
vn 0.0000 -0.9829 -0.1839
vn 0.4780 0.4408 -0.7598
vn -0.4780 0.4408 -0.7598
vn -0.5000 0.1593 -0.8512
vn -0.9560 0.2885 0.0540
vn -0.4780 0.1362 0.8677
vn -0.4780 0.1362 0.8678
vn -0.5000 -0.1594 0.8513
vn -0.5000 -0.1593 0.8513
vn -0.5001 -0.1591 0.8512
vn -0.4999 -0.1595 0.8513
vn 0.4780 0.1362 0.8677
vn 0.9560 0.2885 0.0540
vn -0.0000 0.9829 0.1839
vn 0.0001 0.9830 0.1838
vn 0.5000 -0.1593 0.8512
vn 0.5000 0.1593 -0.8512
vn 0.5000 -0.0272 0.8656
vn 0.5000 0.0272 -0.8656
vn 0.5000 -0.0000 0.8660
vn 0.5000 -0.0000 -0.8660
usemtl Leafs.024
s 1
f 1/1/1 2/2/1 3/3/1
f 2/2/1 1/1/1 4/4/1
f 5/5/2 4/4/2 1/1/2
f 4/4/2 5/5/2 6/6/2
f 7/7/3 4/8/3 6/9/3
f 4/8/4 7/7/4 8/10/4
f 9/11/5 8/12/5 7/13/5
f 8/12/5 9/11/5 10/14/5
f 11/15/6 10/16/6 9/17/6
f 10/16/6 11/15/6 12/18/6
f 11/19/7 13/20/7 12/21/7
f 13/20/7 11/19/7 14/22/7
f 14/23/8 1/24/8 13/25/8
f 1/24/8 14/23/8 5/26/8
f 3/27/8 13/25/8 1/24/8
f 13/25/8 3/27/8 15/28/8
f 3/29/9 16/30/9 15/31/9
f 16/30/9 3/29/9 2/32/9
f 2/33/10 17/34/10 3/35/10
f 16/30/9 2/32/9 18/36/9
f 4/8/4 18/37/4 2/38/4
f 18/37/4 4/8/4 8/10/4
f 4/39/11 19/40/11 8/41/11
f 1/42/11 19/40/11 4/39/11
f 1/42/11 20/43/11 19/40/11
f 20/43/11 1/42/11 13/44/11
f 13/44/11 21/45/11 20/43/11
f 21/45/11 13/44/11 22/46/11
f 22/46/11 13/44/11 12/47/11
f 15/48/7 12/21/7 13/20/7
f 12/21/7 15/48/7 16/49/7
f 15/50/12 23/51/12 16/52/12
f 16/53/6 10/16/6 12/18/6
f 10/16/6 16/53/6 24/54/6
f 16/30/9 18/36/9 24/55/9
f 18/56/5 10/14/5 24/57/5
f 10/14/5 18/56/5 8/12/5
f 8/41/11 25/58/11 10/59/11
f 8/41/11 19/40/11 25/58/11
f 19/60/13 26/61/13 25/62/13
f 26/61/13 19/60/13 27/63/13
f 19/64/14 28/65/14 27/66/14
f 28/65/14 19/64/14 20/67/14
f 19/68/15 29/69/15 20/70/15
f 20/71/16 30/72/16 28/73/16
f 30/72/16 20/71/16 21/74/16
f 20/75/17 31/76/17 21/77/17
f 21/78/18 32/79/18 30/80/18
f 32/79/18 21/78/18 22/81/18
f 21/82/19 33/83/19 22/84/19
f 34/85/20 32/86/20 22/87/20
f 32/86/20 34/85/20 35/88/20
f 25/89/21 35/90/21 34/91/21
f 35/90/21 25/89/21 26/92/21
f 26/92/21 36/93/21 35/90/21
f 36/93/21 26/92/21 37/94/21
f 27/63/22 37/95/22 26/61/22
f 37/95/23 27/63/23 38/96/23
f 27/66/24 39/97/25 38/98/24
f 39/97/25 27/66/24 28/65/25
f 28/99/26 40/100/27 27/101/27
f 28/99/26 41/102/26 40/100/27
f 41/102/26 28/99/26 30/103/26
f 42/104/16 28/73/16 30/72/16
f 28/73/16 42/104/16 39/105/16
f 30/80/18 43/106/18 42/107/18
f 43/106/18 30/80/18 32/79/18
f 44/108/26 30/103/26 32/109/26
f 45/110/26 30/103/26 44/108/26
f 30/103/26 45/110/26 41/102/26
f 41/111/17 46/112/17 45/113/17
f 47/114/28 41/115/28 45/116/28
f 41/115/28 47/114/28 48/117/28
f 49/118/29 48/117/30 47/114/29
f 48/117/30 49/118/29 50/119/30
f 50/120/31 51/121/31 48/122/31
f 51/121/31 50/120/31 52/123/31
f 53/124/32 51/125/32 52/126/32
f 51/125/33 53/124/33 54/127/33
f 55/128/34 54/129/34 53/130/34
f 54/129/35 55/128/35 56/131/35
f 57/132/36 56/133/36 55/134/36
f 56/133/36 57/132/36 58/135/36
f 57/136/37 47/137/38 58/138/37
f 47/137/38 57/136/37 49/139/38
f 59/140/39 47/141/39 58/142/40
f 60/143/39 47/141/39 59/140/39
f 47/141/39 60/143/39 61/144/39
f 62/145/41 61/146/41 60/147/41
f 61/146/41 62/145/41 63/148/41
f 64/149/41 63/148/41 62/145/41
f 63/148/41 64/149/41 65/150/41
f 65/151/42 66/152/43 63/153/42
f 66/152/43 65/151/42 67/154/43
f 68/155/44 66/156/44 67/157/44
f 66/156/45 68/155/45 69/158/45
f 70/159/46 69/160/46 68/161/46
f 69/160/47 70/159/47 71/162/47
f 72/163/48 71/164/48 70/165/48
f 71/164/48 72/163/48 73/166/48
f 72/167/49 62/168/49 73/169/49
f 62/168/49 72/167/49 64/170/49
f 60/171/49 73/169/49 62/168/49
f 73/169/49 60/171/49 59/172/49
f 60/173/50 74/174/50 59/175/50
f 75/176/48 73/166/48 59/177/48
f 73/166/48 75/176/48 71/164/48
f 76/178/51 71/162/51 75/179/51
f 71/162/51 76/178/51 69/160/51
f 77/180/45 69/158/45 76/181/45
f 69/158/45 77/180/45 66/156/45
f 77/182/42 63/153/42 66/152/42
f 63/153/42 77/182/42 61/183/42
f 48/184/39 61/144/39 77/185/39
f 61/144/39 48/184/39 47/141/39
f 77/186/52 78/187/52 61/188/52
f 48/184/39 77/185/39 51/189/39
f 51/189/39 77/185/39 54/190/39
f 54/190/39 77/185/39 76/191/39
f 77/192/53 76/193/53 79/194/53
f 54/190/39 76/191/39 56/195/39
f 75/196/39 56/195/39 76/191/39
f 59/140/39 56/195/39 75/196/39
f 59/140/39 58/142/40 56/195/39
f 58/135/54 80/197/54 56/133/54
f 80/197/54 58/135/54 44/198/54
f 58/138/38 45/199/38 44/200/38
f 45/199/38 58/138/38 47/137/55
f 45/201/56 81/202/56 44/203/56
f 80/204/57 44/205/57 82/206/57
f 44/108/26 35/207/26 80/208/26
f 44/108/26 32/109/26 35/207/26
f 35/88/20 43/209/20 32/86/20
f 43/209/58 35/88/58 36/210/58
f 80/208/26 35/207/26 83/211/26
f 26/212/26 83/211/26 35/207/26
f 26/212/26 40/100/27 83/211/26
f 27/101/27 40/100/27 26/212/26
f 40/213/32 54/127/32 83/214/32
f 54/127/32 40/213/32 51/125/32
f 40/215/31 48/122/31 51/121/31
f 48/122/31 40/215/31 41/216/31
f 40/217/59 84/218/59 41/219/59
f 56/131/60 83/220/60 54/129/60
f 83/220/60 56/131/60 80/221/60
f 83/222/61 80/223/61 85/224/61
f 40/225/62 83/226/62 86/227/62
f 75/228/63 59/229/63 87/230/63
f 76/231/61 75/232/61 88/233/61
f 63/234/64 89/235/65 66/236/65
f 63/234/64 90/237/65 89/235/65
f 90/237/65 63/234/64 62/238/66
f 62/238/66 91/239/67 90/237/65
f 91/239/67 62/238/66 92/240/68
f 92/240/68 62/238/66 73/241/68
f 92/240/68 73/241/68 71/242/64
f 92/240/68 71/242/64 93/243/64
f 93/243/64 71/242/64 94/244/65
f 69/245/65 94/244/65 71/242/64
f 69/245/65 89/235/65 94/244/65
f 66/236/65 89/235/65 69/245/65
f 89/246/69 95/247/69 94/248/69
f 95/247/69 89/246/69 96/249/69
f 89/250/70 97/251/70 96/252/70
f 97/251/70 89/250/70 90/253/70
f 89/254/71 98/255/71 90/256/71
f 91/257/72 97/258/72 90/259/72
f 97/258/72 91/257/72 99/260/72
f 91/261/73 100/262/74 99/263/74
f 100/262/74 91/261/73 92/264/73
f 101/265/75 92/266/76 91/267/76
f 92/266/76 101/265/75 102/268/77
f 101/265/75 103/269/78 102/268/77
f 93/270/79 100/271/79 92/272/79
f 100/271/79 93/270/79 104/273/79
f 93/274/80 95/275/80 104/276/80
f 95/275/80 93/274/80 94/277/80
f 94/278/61 93/279/61 105/280/61
f 96/281/81 104/282/81 95/283/82
f 96/281/81 100/284/81 104/282/81
f 97/285/81 100/284/81 96/281/81
f 100/284/81 97/285/81 99/286/82
f 93/287/83 92/288/83 106/289/83
f 90/290/17 107/291/17 91/292/17
f 89/293/84 94/294/84 108/295/84
f 61/296/17 109/297/17 60/298/17
f 34/299/11 10/59/11 25/58/11
f 34/299/11 12/47/11 10/59/11
f 22/46/11 12/47/11 34/299/11
f 34/300/85 22/301/85 110/302/85
f 25/303/61 34/304/61 111/305/61
f 19/306/86 25/307/86 112/308/86
f 18/309/61 24/310/61 113/311/61
f 16/52/87 114/312/87 24/313/87
f 18/314/88 115/315/88 2/316/88
f 3/317/17 116/318/17 15/319/17
