# Blender v2.78 (sub 0) OBJ File: ''
# www.blender.org
mtllib naturePack_053.mtl
o Mesh1_Group1_Model.042
v 1.159100 4.247250 -1.176449
v 1.091710 4.257170 -1.293019
v 1.091710 4.253220 -1.215169
v 1.159100 4.255140 -1.332149
v 1.226490 4.245220 -1.215579
v 1.075250 2.813490 -0.769358
v 1.556820 2.799000 -1.048980
v 1.486520 2.804810 -1.080999
v 1.067500 2.818280 -0.854779
v 0.680144 2.854070 -1.106490
v 0.593672 2.856150 -1.046080
v 0.593672 2.884340 -1.602430
v 1.075250 2.869850 -1.882050
v 1.226490 4.249170 -1.293429
v 1.556820 2.827190 -1.605319
v 1.463250 2.830240 -1.555619
v 1.054630 2.864920 -1.760409
v 0.687702 2.875510 -1.538520
v 0.514564 1.668390 -1.631210
v 0.514564 1.724090 -0.854104
v 0.585892 1.725500 -0.949900
v 1.184810 1.829300 -0.471096
v 1.148900 1.809950 -0.682862
v 0.209482 0.873652 -0.815862
v 1.078750 0.784007 -0.317095
v 0.423937 0.862892 -0.889760
v 0.209482 0.931573 -1.820390
v 0.545492 1.673200 -1.614130
v 1.184810 1.717890 -2.025310
v 1.137620 1.719800 -1.922300
v 1.657280 1.805940 -1.561530
v 1.855060 1.823090 -1.642300
v 1.410260 2.966450 -1.543900
v 1.049530 2.909830 -1.750040
v 0.688804 2.883190 -1.537930
v 0.688804 2.913170 -1.119689
v 1.049530 2.969790 -0.913559
v 1.855060 1.878800 -0.865194
v 1.410260 2.996430 -1.125659
v 1.636470 1.844980 -0.983228
v 1.948030 0.752283 -0.822860
v 1.117170 0.788835 -0.447508
v 0.000000 0.000000 -0.645000
v 1.117170 0.000000 0.000000
v 0.000000 0.000000 -1.935000
v 1.117170 0.000000 -2.580000
v 0.445517 0.906817 -1.677780
v 1.117170 0.882914 -2.079120
v 1.078750 0.899849 -2.326160
v 0.515910 1.050100 -0.942861
v 0.515910 1.050100 -1.637140
v 1.117170 1.050100 -1.984280
v 1.718440 1.050100 -1.637140
v 1.835900 0.810998 -1.704960
v 1.718440 1.050100 -0.942861
v 1.860670 0.760585 -0.860741
v 1.117170 1.050100 -0.595722
v 2.234350 0.000000 -0.645000
v 2.234350 0.000000 -1.935000
v 1.948030 0.810204 -1.827390
v 0.687749 1.987180 -1.526810
v 1.155590 1.970110 -1.799010
v 1.623430 1.921860 -1.530580
v 1.623430 1.890690 -0.989937
v 1.155590 1.907760 -0.717735
v 0.687749 1.956010 -0.986171
vt 64.8496 8.3260
vt 66.6237 13.3367
vt 64.2902 11.3434
vt 69.5166 12.3124
vt 67.7425 7.3017
vt 51.8451 109.2680
vt 65.8835 166.9250
vt 62.8156 167.0060
vt 73.7687 108.6850
vt -50.5071 -3.9250
vt -70.3464 -8.3110
vt -71.1809 -11.2448
vt -52.8698 -1.5051
vt -50.5273 16.5858
vt -46.5093 17.6389
vt 17.8259 177.8410
vt 0.7547 121.0090
vt 22.6167 119.2660
vt 14.7667 178.0850
vt -47.0526 172.4200
vt -62.6526 115.1660
vt -40.7529 113.9880
vt -50.1171 172.5850
vt -65.5767 148.7470
vt -51.4706 91.1070
vt -62.5090 148.8330
vt -73.3935 90.4981
vt -14.8777 139.6900
vt 2.2312 82.8686
vt -11.8187 139.9360
vt -19.6296 81.1110
vt 48.4160 152.2050
vt 63.9107 94.9223
vt 51.4808 152.3640
vt 42.0089 93.7839
vt -87.8569 2.9994
vt -83.9787 4.5404
vt -83.8591 24.5633
vt -79.6868 22.0690
vt -63.6700 27.4199
vt -63.1853 31.8831
vt -64.4269 67.8087
vt -43.8373 114.9720
vt -60.8484 115.8250
vt -33.8338 70.0245
vt 43.9392 9.1425
vt 39.2546 8.7324
vt 65.2812 -7.4992
vt 40.2983 39.3879
vt 46.6475 33.7509
vt -7.8364 43.0544
vt 27.2625 82.0699
vt 2.7569 78.5508
vt 31.6013 39.3189
vt -30.0404 17.0974
vt -37.6527 12.4087
vt -36.6309 -21.9648
vt -60.5740 42.3359
vt -36.7924 71.8272
vt -71.4334 37.6053
vt -31.8979 35.1087
vt -62.9756 69.5729
vt 65.3494 -6.0971
vt 92.3515 6.9248
vt 87.9249 7.4811
vt 86.5968 32.5821
vt 93.3952 37.5803
vt -4.4939 89.1399
vt -34.5502 46.7878
vt -4.1765 42.5111
vt -22.4851 87.7300
vt -20.8534 93.2672
vt -4.5063 90.9655
vt -54.3808 106.8640
vt -70.8804 108.2290
vt -71.2626 106.4440
vt -54.4061 107.1700
vt -44.3604 117.3230
vt -60.8256 116.1300
vt -0.2256 121.7540
vt 16.1363 126.4690
vt -0.2100 124.1620
vt 17.9580 120.2950
vt 29.8489 79.9943
vt -0.5233 75.7073
vt 80.3902 66.6781
vt 53.0746 106.4710
vt 49.7887 64.5815
vt 71.8209 105.9010
vt 62.5836 39.5772
vt 40.9010 81.0810
vt 32.0009 41.9321
vt 59.6051 82.1560
vt 42.7427 89.1820
vt 59.2023 87.9145
vt 70.0477 114.0170
vt 53.5780 112.8890
vt 67.3686 53.8118
vt 66.7978 43.9576
vt 42.8953 26.9189
vt 75.1613 70.2039
vt 52.6188 68.7749
vt 82.4884 25.6247
vt -41.5562 -19.8607
vt -73.7549 -35.7883
vt -12.6969 9.6973
vt 29.2813 44.2995
vt -3.0606 47.5480
vt 38.0906 9.6973
vt -0.0000 76.1811
vt -43.9832 0.0000
vt 0.0000 25.3937
vt -43.9832 101.5750
vt -48.2173 10.6856
vt -88.8780 -29.0919
vt -38.0906 -29.0919
vt -79.0181 9.6371
vt -62.1452 31.5489
vt -97.6980 28.5124
vt -91.1504 21.1331
vt -37.1205 46.0624
vt -66.0543 39.7775
vt -35.0299 37.8507
vt -64.4543 46.0624
vt -77.1511 16.9706
vt -49.8174 16.9706
vt -26.3637 -2.4240
vt 2.8370 -9.7575
vt 0.9700 -2.4240
vt -29.0338 -12.9121
vt 37.1205 7.2733
vt 67.1244 -3.2148
vt 64.4543 7.2733
vt 33.8874 -5.4261
vt 77.1511 36.3652
vt 46.8998 24.9049
vt 80.3842 23.6657
vt 49.8174 36.3652
vt 26.3637 55.7597
vt -0.9700 55.7597
vt -72.7205 -32.1704
vt 38.0906 -9.6973
vt 88.8780 -9.6973
vt -87.9664 76.1811
vt -87.9664 25.3937
vt -38.0906 -48.4864
vt 12.6969 -48.4864
vt -104.2880 -10.5497
vt -97.7615 -10.2038
vt 12.1602 -2.5541
vt -23.0603 35.6174
vt -27.2735 -6.3307
vt 1.8124 31.9885
vt -42.3192 8.6499
vt -76.1357 42.8667
vt -81.9095 7.2727
vt -49.8692 40.8439
vt -53.0657 54.4740
vt -74.3731 53.7328
vt -1.3465 42.5336
vt -22.5698 40.5011
vt 40.0282 54.0580
vt 62.5507 50.5861
vt 61.3102 55.3350
vt 39.7726 52.1853
vt 53.5458 72.7655
vt 74.8548 72.0689
vt 5.6235 88.1562
vt 26.8488 86.1458
vt -38.1168 81.7634
vt -59.3948 83.1071
vt 73.2061 9.7957
vt 33.6631 7.4230
vt 76.1811 -38.7891
vt 25.3937 -38.7891
vt -76.1811 -0.0000
vt -25.3937 -0.0000
vt -81.0234 60.8468
vt -50.4133 58.8791
vt 70.0760 9.2949
vn 0.0593 0.9970 0.0505
vn 0.0593 0.9970 0.0506
vn 0.4956 0.2103 0.8427
vn -0.0593 -0.9970 -0.0505
vn -0.0594 -0.9970 -0.0505
vn -0.4622 0.2671 0.8456
vn -0.9411 0.3376 0.0171
vn -0.4622 0.3512 -0.8143
vn 0.4956 0.2944 -0.8171
vn 0.4956 0.2944 -0.8172
vn 0.9745 0.2239 0.0114
vn 0.9745 0.2239 0.0113
vn -0.9897 0.1427 -0.0102
vn 0.1150 -0.9908 0.0710
vn 0.1149 -0.9908 0.0710
vn -0.4446 0.3276 0.8337
vn -0.0698 -0.9959 -0.0574
vn -0.9131 0.4072 0.0235
vn 0.4507 0.2491 -0.8572
vn -0.5096 0.1382 -0.8492
vn -0.5096 0.1384 -0.8492
vn -0.9897 0.1428 -0.0102
vn -0.5096 0.2580 0.8208
vn 0.4507 0.3688 0.8129
vn 0.9309 0.3644 -0.0261
vn 0.4924 0.2622 0.8299
vn -0.0697 -0.9959 -0.0574
vn -0.4488 0.4410 0.7773
vn 0.0000 -1.0000 -0.0000
vn -0.4488 0.4410 -0.7773
vn -0.8975 0.4409 -0.0000
vn -0.4488 0.4409 -0.7773
vn 0.4488 0.4409 -0.7773
vn 0.8975 0.4409 0.0000
vn 0.4488 0.4409 0.7773
vn 0.4488 0.4410 0.7773
vn -0.4488 0.4409 0.7773
vn 0.4488 0.4410 -0.7773
vn 0.4924 0.3559 -0.7943
vn -0.4446 0.4213 -0.7905
vn 0.9609 0.2763 0.0159
vn 0.9610 0.2761 0.0160
vn 0.4924 0.2623 0.8299
vn 0.8975 0.4410 -0.0000
vn -0.8975 0.4410 0.0000
vn -0.5096 0.1383 -0.8492
usemtl Leafs.008
s 1
f 1/1/1 2/2/1 3/3/2
f 2/2/1 1/1/1 4/4/1
f 4/4/1 1/1/1 5/5/1
f 6/6/3 5/7/3 1/8/3
f 5/7/3 6/6/3 7/9/3
f 6/10/4 8/11/5 7/12/5
f 6/10/4 9/13/4 8/11/5
f 6/10/4 10/14/4 9/13/4
f 10/14/4 6/10/4 11/15/4
f 1/16/6 11/17/6 6/18/6
f 11/17/6 1/16/6 3/19/6
f 3/20/7 12/21/7 11/22/7
f 12/21/7 3/20/7 2/23/7
f 4/24/8 12/25/8 2/26/8
f 12/25/8 4/24/8 13/27/8
f 14/28/9 13/29/9 4/30/10
f 13/29/9 14/28/9 15/31/9
f 5/32/11 15/33/12 14/34/11
f 15/33/12 5/32/11 7/35/12
f 7/12/5 8/11/5 15/36/4
f 16/37/4 15/36/4 8/11/5
f 16/37/4 13/38/4 15/36/4
f 17/39/4 13/38/4 16/37/4
f 18/40/4 13/38/4 17/39/4
f 18/40/4 12/41/4 13/38/4
f 12/41/4 18/40/4 11/15/4
f 11/15/4 18/40/4 10/14/4
f 19/42/13 10/43/13 18/44/13
f 10/43/13 19/42/13 20/45/13
f 21/46/14 20/47/14 19/48/15
f 20/47/14 21/46/14 22/49/15
f 22/49/15 21/46/14 23/50/15
f 24/51/16 23/52/16 21/53/16
f 23/52/16 24/51/16 25/54/16
f 24/55/17 26/56/17 25/57/17
f 26/56/17 24/55/17 27/58/17
f 21/59/18 27/60/18 24/61/18
f 27/60/18 21/59/18 28/62/18
f 21/46/14 19/48/15 28/63/15
f 29/64/15 28/63/15 19/48/15
f 28/63/15 29/64/15 30/65/15
f 30/65/15 29/64/15 31/66/15
f 31/66/15 29/64/15 32/67/15
f 17/68/19 32/69/19 29/70/19
f 32/69/19 17/68/19 16/71/19
f 17/68/19 33/72/19 16/71/19
f 33/72/19 17/68/19 34/73/19
f 18/74/20 34/75/20 17/76/20
f 34/75/21 18/74/21 35/77/21
f 18/44/22 36/78/13 35/79/22
f 36/78/13 18/44/22 10/43/13
f 10/80/23 37/81/23 36/82/23
f 37/81/23 10/80/23 9/83/23
f 10/80/23 22/84/23 9/83/23
f 22/84/23 10/80/23 20/85/23
f 38/86/24 9/87/24 22/88/24
f 9/87/24 38/86/24 8/89/24
f 32/90/25 8/91/25 38/92/25
f 8/91/25 32/90/25 16/93/25
f 16/93/25 39/94/25 8/91/25
f 39/94/25 16/93/25 33/95/25
f 39/96/24 9/87/24 8/89/24
f 9/87/24 39/96/24 37/97/24
f 38/98/15 31/66/15 32/67/15
f 38/98/15 40/99/15 31/66/15
f 22/49/15 40/99/15 38/98/15
f 22/49/15 23/50/15 40/99/15
f 25/100/26 40/101/26 23/102/26
f 40/101/26 25/100/26 41/103/26
f 25/57/17 42/104/17 41/105/27
f 25/57/17 26/56/17 42/104/17
f 43/106/28 42/107/28 26/108/28
f 42/107/28 43/106/28 44/109/28
f 45/110/29 44/111/29 43/112/29
f 44/111/29 45/110/29 46/113/29
f 47/114/30 46/115/30 45/116/30
f 46/115/30 47/114/30 48/117/30
f 47/118/17 49/119/17 48/120/17
f 47/118/17 27/58/17 49/119/17
f 27/58/17 47/118/17 26/56/17
f 50/121/31 47/122/31 26/123/31
f 47/122/31 50/121/31 51/124/31
f 52/125/32 47/114/32 51/126/32
f 47/114/32 52/125/32 48/117/32
f 53/127/33 48/128/33 52/129/33
f 48/128/33 53/127/33 54/130/33
f 55/131/34 54/132/34 53/133/34
f 54/132/34 55/131/34 56/134/34
f 55/135/35 42/136/35 56/137/35
f 42/136/35 55/135/35 57/138/36
f 57/139/37 26/108/37 42/107/37
f 26/108/37 57/139/37 50/140/37
f 41/105/27 42/104/17 56/141/27
f 44/142/36 56/137/36 42/136/36
f 56/137/36 44/142/36 58/143/36
f 44/111/29 59/144/29 58/145/29
f 44/111/29 46/113/29 59/144/29
f 48/128/38 59/146/38 46/147/38
f 59/146/38 48/128/38 54/130/38
f 48/120/17 60/148/17 54/149/17
f 48/120/17 49/119/17 60/148/17
f 49/150/39 31/151/39 60/152/39
f 31/151/39 49/150/39 30/153/39
f 27/154/40 30/155/40 49/156/40
f 30/155/40 27/154/40 28/157/40
f 61/158/40 30/155/40 28/157/40
f 30/155/40 61/158/40 62/159/40
f 62/160/39 31/151/39 30/153/39
f 31/151/39 62/160/39 63/161/39
f 64/162/41 31/163/41 63/164/41
f 31/163/42 64/162/42 40/165/42
f 65/166/43 40/101/43 64/167/43
f 40/101/26 65/166/26 23/102/26
f 66/168/16 23/52/16 65/169/16
f 23/52/16 66/168/16 21/53/16
f 66/170/18 28/62/18 21/59/18
f 28/62/18 66/170/18 61/171/18
f 40/165/41 60/172/41 31/163/41
f 60/172/41 40/165/41 41/173/41
f 41/105/27 56/141/27 60/148/17
f 54/149/17 60/148/17 56/141/27
f 56/134/44 59/174/44 54/132/44
f 59/174/44 56/134/44 58/175/44
f 45/176/45 26/123/45 47/122/45
f 26/123/45 45/176/45 43/177/45
f 29/178/46 18/74/46 17/76/46
f 18/74/46 29/178/46 19/179/46
f 4/4/1 5/5/1 14/180/2
