# Blender v2.78 (sub 0) OBJ File: ''
# www.blender.org
mtllib naturePack_flat_007.mtl
o Mesh1_Hanging_Moss_Model
v 0.000000 1.430000 -0.630000
v 0.000000 1.169170 -0.173333
v 0.000000 1.430000 -0.173333
v 0.000000 1.011040 -0.235744
v 0.000000 0.221043 -0.235744
v 0.000000 0.502914 -0.388156
v 0.000000 0.910641 -0.509078
v 0.000000 0.958367 -0.630000
v 0.000000 0.550641 -0.509078
v 0.000000 0.062914 -0.298156
v 0.000000 0.062914 -0.388156
vt -6.8241 56.2992
vt -6.8241 46.0304
vt -24.8031 56.2992
vt -9.2813 39.8049
vt -9.2813 8.7025
vt -15.2817 19.7998
vt -24.8031 37.7310
vt -20.0424 35.8520
vt -20.0424 21.6788
vt -11.7384 2.4769
vt -15.2817 2.4769
vn 1.0000 0.0000 0.0000
vn -1.0000 0.0000 0.0000
usemtl BackColor
s 1
f 3/1/1 2/2/1 1/3/1
f 4/4/1 1/3/1 2/2/1
f 5/5/1 1/3/1 4/4/1
f 6/6/1 1/3/1 5/5/1
f 8/7/1 1/3/1 7/8/1
f 7/8/1 6/6/1 9/9/1
f 6/6/1 10/10/1 11/11/1
usemtl Green_leafs.054
f 6/6/2 1/3/2 7/8/2
f 5/5/2 6/6/2 10/10/2
