# Blender v2.78 (sub 0) OBJ File: ''
# www.blender.org
mtllib naturePack_063.mtl
o Mesh1_Group1_Model.048
v 1.766370 2.837300 -1.596110
v 1.282160 2.770100 -1.233500
v 1.157860 2.837300 -1.244789
v 1.282870 2.744800 -1.202640
v 1.284650 2.691040 -1.137240
v 1.766370 2.691040 -1.415349
v 2.446960 2.837300 -1.203169
v 2.290420 2.691040 -1.112790
v 2.290420 2.691040 -0.507663
v 2.446960 2.837300 -0.417287
v 1.766370 2.837300 -0.024346
v 1.280280 2.837300 -1.244789
v 1.280280 2.837300 -0.952863
v 1.085770 2.837300 -0.417287
v 1.085770 2.837300 -0.952863
v 1.085770 3.170430 -1.027449
v 1.085770 3.170430 -0.417286
v 1.766370 3.170430 -0.024346
v 1.242310 2.691040 -0.507663
v 1.766370 2.691040 -0.205099
v 1.284650 2.691040 -0.937932
v 1.242310 2.691040 -0.937932
v 1.184770 2.744800 -0.932153
v 0.985773 2.744800 -0.932153
v 1.018450 3.914000 -1.193929
v 1.270970 3.170430 -1.027449
v 1.282870 2.744800 -0.932153
v 0.971935 2.327960 -0.976965
v 0.985773 2.744800 -1.229249
v 0.971935 2.327960 -1.301740
v 1.056610 2.327960 -1.301740
v 1.282870 2.744800 -1.229249
v 1.216960 2.152890 -1.332180
v 1.216960 1.811100 -1.391620
v 1.335060 1.172700 -1.502640
v 1.143370 1.718280 -1.407760
v 1.035380 1.661040 -1.417710
v 0.949794 1.661040 -1.417710
v 0.933581 1.172700 -1.502640
v 1.395020 0.000000 -1.562600
v 0.873620 0.000000 -1.562600
v 0.873620 0.000000 -1.041200
v 1.395020 0.000000 -1.041200
v 1.335060 1.172700 -1.101160
v 1.018450 3.914000 -1.425669
v 0.260894 3.914000 -0.805526
v 1.134320 3.914000 -0.301253
v 1.250190 3.914000 -1.193929
v 1.266880 3.316890 -1.060239
v 1.296760 3.341060 -0.539097
v 1.270970 3.170430 -1.300750
v 1.766370 3.170430 -1.596110
v 1.254790 3.170430 -1.300750
v 1.270810 3.176220 -1.301720
v 1.266880 3.316890 -1.098609
v 1.296760 3.341060 -1.081359
v 1.766370 3.341060 -0.267969
v 1.766370 3.341060 -1.352479
v 2.235970 3.341060 -0.539097
v 2.446960 3.170430 -0.417286
v 2.446960 3.170430 -1.203169
v 2.235970 3.341060 -1.081359
v 1.250190 3.914000 -1.425669
v 1.134320 3.914001 -2.318349
v 0.260894 3.914000 -1.814069
v 0.000000 4.157760 -0.654899
v 0.000000 4.157761 -1.964699
v 0.000000 4.712980 -1.964699
v 0.000000 4.712980 -0.654899
v 1.134320 4.712980 0.000001
v 1.134320 4.157760 0.000001
v 2.268640 4.157760 -0.654899
v 2.007750 3.914000 -0.805526
v 2.007750 3.914000 -1.814069
v 2.268640 4.157761 -1.964699
v 1.134320 4.157761 -2.619599
v 1.134320 4.712980 -2.619599
v 0.351639 4.997360 -0.857918
v 0.351639 4.997361 -1.761679
v 1.134320 4.997360 -0.406037
v 1.134320 4.997361 -2.213559
v 1.917000 4.997360 -0.857918
v 2.268640 4.712980 -0.654899
v 2.268640 4.712980 -1.964699
v 1.917000 4.997361 -1.761679
v 1.216960 1.811100 -1.032530
v 0.933581 1.172700 -1.101160
v 1.097990 1.661040 -1.048660
v 1.097990 1.661040 -0.921667
v 1.216960 1.811100 -0.852981
v 1.216960 2.152890 -0.852981
v 1.216960 2.152890 -0.995786
v 0.966123 2.152890 -0.995786
v 0.954775 1.811100 -1.032530
v 0.966123 2.152890 -1.332180
v 0.954775 1.811100 -1.391620
v 1.056610 2.327960 -0.976965
v 1.056610 2.327960 -0.945558
v 0.699707 2.327960 -0.739500
v 0.699707 2.152890 -0.554347
v 0.342805 2.327960 -0.945558
v 0.182457 2.152890 -0.852981
v 0.182457 2.152890 -1.450250
v 0.342805 2.327960 -1.357670
v 0.699707 2.327960 -1.563730
v 1.056610 2.327960 -1.357670
v 1.216960 2.152890 -1.450250
v 1.216960 1.811100 -1.450250
v 0.699707 1.811100 -1.748880
v 0.699707 1.811100 -0.554347
v 0.182457 1.811100 -0.852981
v 0.182457 1.811100 -1.450250
v 0.301425 1.661040 -0.921667
v 0.301425 1.661040 -1.381560
v 0.699707 1.661040 -1.611510
v 0.699707 2.152890 -1.748880
v 0.699707 1.661040 -0.691719
v 0.949794 1.661040 -1.048660
vt -91.6445 90.6183
vt -67.9973 86.7429
vt -63.9815 90.6183
vt -67.4140 85.2842
vt -66.1874 82.1842
vt -88.0864 82.1842
vt -59.7458 141.4330
vt -32.3638 132.9980
vt -28.8057 141.4330
vt -56.1877 132.9980
vt 47.3688 146.6540
vt 19.9867 138.2200
vt 43.8107 138.2200
vt 16.4286 146.6540
vt -69.5419 0.9585
vt -96.3369 47.3688
vt -96.3369 16.4286
vt -69.5419 62.8389
vt -50.4048 49.0073
vt -50.4048 37.5143
vt -42.7470 16.4286
vt -42.7470 37.5143
vt -16.4286 111.7050
vt -40.4508 124.8200
vt -37.5143 111.7050
vt -16.4286 124.8200
vt 28.8057 111.7050
vt 59.7458 124.8200
vt 28.8057 124.8200
vt 59.7458 111.7050
vt 32.3638 41.8129
vt 59.7458 50.2471
vt 28.8057 50.2471
vt 56.1877 41.8129
vt -48.9098 19.9867
vt -50.5768 36.9265
vt -69.5419 8.0748
vt -48.9098 36.9265
vt -19.9867 36.5915
vt -36.6989 39.6915
vt -36.9265 36.5915
vt -16.4286 45.0256
vt -37.5143 45.0256
vt -40.0966 47.0053
vt -10.2714 31.7137
vt -40.0966 56.1286
vt -44.6583 11.8604
vt -49.2199 47.0053
vt -40.4508 111.7280
vt -21.2243 122.4110
vt -41.7419 120.8980
vt -16.4286 111.7280
vt 69.5419 0.9585
vt 42.7470 40.4508
vt 42.7470 16.4286
vt 50.0382 40.4508
vt 50.0382 51.2107
vt 69.5419 62.8389
vt 49.4013 51.2107
vt -91.6445 111.7050
vt -68.3881 124.8200
vt -91.6445 124.8200
vt -63.9815 111.7050
vt -45.5850 49.0073
vt -43.2522 120.8980
vt -42.5730 122.4110
vt 69.5419 10.5500
vt 51.0534 42.5730
vt 51.0534 21.2243
vt 69.5419 53.2474
vt 88.0305 21.2243
vt 65.5001 62.7825
vt 91.6445 52.0996
vt 86.8488 62.7825
vt 60.7044 52.0996
vt 33.6014 116.8550
vt 59.7458 106.1720
vt 54.9501 116.8550
vt 28.8057 106.1720
vt 96.3369 16.4286
vt 60.7044 111.7050
vt 91.6445 124.8200
vt 60.7044 124.8200
vt 91.6445 111.7050
vt 64.2625 92.6271
vt 91.6445 101.0610
vt 60.7044 101.0610
vt 88.0864 92.6271
vt -90.1741 43.8107
vt -90.1741 19.9867
vt -69.5419 55.7226
vt -50.5768 44.7731
vt 47.3688 111.7050
vt 16.4286 124.8200
vt 16.4286 111.7050
vt 47.3688 124.8200
vt -59.7458 111.7050
vt -28.8057 124.8200
vt -59.7458 124.8200
vt -28.8057 111.7050
vt 96.3369 47.3688
vt 42.5730 14.2667
vt 16.4286 3.5838
vt 47.3688 3.5838
vt 21.2243 14.2667
vt 88.0305 42.5730
vt -54.9501 19.8230
vt -28.8057 9.1401
vt -33.6014 19.8230
vt -59.7458 9.1401
vt -91.6445 63.2121
vt -65.5001 73.8950
vt -86.8488 73.8950
vt -68.9533 63.5749
vt -68.3881 63.2121
vt -44.6583 91.2735
vt -49.2199 56.1286
vt -10.2714 71.4202
vt -25.7835 111.7520
vt -71.4202 97.6951
vt -31.7137 97.6951
vt -77.3504 111.7520
vt -25.7835 163.6910
vt -77.3504 185.5500
vt -77.3504 163.6910
vt -25.7835 185.5500
vt -12.8917 163.6910
vt 38.6752 185.5500
vt -12.8917 185.5500
vt 38.6752 163.6910
vt -6.9615 81.3792
vt 38.6752 95.4362
vt -12.8917 95.4362
vt 32.7450 81.3792
vt 44.6054 114.0110
vt 90.2421 128.0680
vt 38.6752 128.0680
vt 84.3119 114.0110
vt -79.0451 31.7137
vt -79.0451 71.4202
vt 6.9615 179.2740
vt -38.6752 193.3310
vt -32.7450 179.2740
vt 12.8917 193.3310
vt -44.6054 146.6430
vt -90.2421 160.7000
vt -84.3119 146.6430
vt -38.6752 160.7000
vt -38.6752 185.5500
vt -90.2421 163.6910
vt -38.6752 163.6910
vt -90.2421 185.5500
vt 0.0000 77.3504
vt 44.6583 0.0000
vt 44.6583 103.1340
vt 0.0000 25.7835
vt -33.7763 134.4840
vt -77.3504 116.6790
vt -25.7835 116.6790
vt -69.3575 134.4840
vt 44.6583 15.9857
vt 13.8441 69.3575
vt 13.8441 33.7763
vt 44.6583 87.1481
vt 75.4725 33.7763
vt 46.6681 117.1220
vt 90.2421 99.3170
vt 82.2493 117.1220
vt 38.6752 99.3170
vt -4.8989 151.8460
vt 38.6752 134.0410
vt 30.6823 151.8460
vt -12.8917 134.0410
vt 89.3165 25.7835
vt 90.2421 185.5500
vt 90.2421 163.6910
vt -44.6583 0.0000
vt -89.3165 77.3504
vt -89.3165 25.7835
vt -44.6583 103.1340
vt 0.0000 25.7835
vt 0.0000 77.3504
vt 12.8917 185.5500
vt -38.6752 163.6910
vt 12.8917 163.6910
vt -38.6752 185.5500
vt 89.3165 77.3504
vt 25.7835 185.5500
vt 77.3504 163.6910
vt 77.3504 185.5500
vt 25.7835 163.6910
vt 31.7137 162.9590
vt 77.3504 177.0150
vt 25.7835 177.0150
vt 71.4202 162.9590
vt 69.3575 65.0361
vt 25.7835 47.2312
vt 77.3504 47.2312
vt 33.7763 65.0361
vt 75.4725 69.3575
vt -30.6823 47.6741
vt 12.8917 29.8693
vt 4.8989 47.6741
vt -38.6752 29.8693
vt -90.2421 64.5932
vt -46.6681 82.3980
vt -82.2493 82.3980
vt -38.6752 64.5932
vt -64.8209 72.3821
vt 40.6508 85.6391
vt 36.2861 78.1000
vt 41.2859 78.1000
vt 33.5819 85.6391
vt 40.6508 71.3032
vt 33.5819 84.7596
vt 33.5819 71.3032
vt 39.2042 84.7596
vt 37.2267 39.4895
vt 39.2042 30.1430
vt 38.4632 39.4895
vt 33.5819 30.1430
vt 38.4140 75.3133
vt 58.2837 65.9668
vt 54.6390 75.3133
vt 34.7692 65.9668
vt -6.9253 93.9197
vt 12.9445 84.5732
vt 9.2998 93.9197
vt -10.5700 84.5732
vt -37.2267 76.7023
vt -57.0965 67.3558
vt -33.5819 67.3558
vt -53.4517 76.7023
vt 27.5475 29.1142
vt 13.4963 53.4517
vt 13.4963 37.2267
vt 27.5475 61.5642
vt 38.2651 38.4632
vt 41.5988 37.2267
vt 41.5988 38.4632
vt 38.2651 51.2495
vt 41.5988 53.4517
vt 41.5988 51.2495
vt 52.4481 30.1430
vt 53.4517 39.4895
vt 51.2495 39.4895
vt 57.0965 30.1430
vt 54.7882 71.3032
vt 57.0965 84.7596
vt 52.4481 84.7596
vt 57.0965 71.3032
vt 57.0965 85.6391
vt 54.7882 85.6391
vt 55.4237 80.9755
vt -37.5896 54.7882
vt -47.9117 57.0965
vt -47.9117 54.7882
vt -27.5475 68.8537
vt -27.5475 21.8247
vt -7.1834 33.5819
vt -7.1834 57.0965
vt -57.0965 51.4109
vt -36.2861 43.8717
vt -33.5819 51.4109
vt -54.3923 43.8717
vt -34.7692 84.3616
vt -55.5796 76.8224
vt -37.4734 76.8224
vt -58.2837 84.3616
vt -34.7692 84.7596
vt -58.2837 71.3032
vt -34.7692 71.3032
vt -58.2837 84.7596
vt -38.4140 40.8784
vt -58.2837 31.5319
vt -34.7692 31.5319
vt -54.6390 40.8784
vt -9.2998 22.2720
vt 10.5700 12.9255
vt 6.9253 22.2720
vt -12.9445 12.9255
vt -12.9445 71.3032
vt 10.5700 84.7596
vt -12.9445 84.7596
vt 10.5700 71.3032
vt -11.2718 96.8121
vt 10.5700 101.4760
vt -12.9445 101.4760
vt -7.3938 93.9365
vt 7.8658 93.9365
vt -37.3934 55.8155
vt -27.5475 63.4454
vt -40.7628 55.8155
vt -27.5475 27.2330
vt -11.8671 36.2861
vt -11.8671 54.3923
vt 12.9445 35.5743
vt -7.8658 28.0351
vt 10.2404 28.0351
vt -10.5700 35.5743
vt 12.9445 84.7596
vt -10.5700 71.3032
vt 12.9445 71.3032
vt -10.5700 84.7596
vt -57.0965 84.7596
vt -33.5819 71.3032
vt -33.5819 84.7596
vt -57.0965 71.3032
vt 34.7692 71.3032
vt 58.2837 84.7596
vt 34.7692 84.7596
vt 58.2837 71.3032
vt 37.4734 45.1493
vt 58.2837 52.6884
vt 34.7692 52.6884
vt 55.5796 45.1493
vt -37.3934 41.2859
vt -43.2279 36.2861
vt -43.2279 41.2859
vt -47.9117 33.5819
vt -37.5896 40.6508
vt -47.9117 40.6508
vt 42.7470 117.2020
vt 38.8100 113.4700
vt 46.6446 113.4700
vt 40.0966 160.6420
vt 42.7470 130.6420
vt 50.0382 130.6420
vt 50.4048 117.2020
vt 50.5066 113.4700
vt 46.6446 103.5210
vt 50.5768 101.3930
vt 50.5066 103.5210
vt 48.9098 101.3930
vt 38.8100 103.5210
vt 38.2651 87.0156
vt -48.3955 109.2910
vt -38.4632 92.8712
vt -36.6989 109.2910
vt -51.2495 92.8712
vt -38.8100 98.1735
vt -41.5988 81.5161
vt -38.2651 81.5161
vt -50.5066 98.1735
vt -47.9117 74.5204
vt -47.9117 60.8619
vt -52.5614 35.3508
vt -45.0144 57.1526
vt -40.7628 54.8655
vt -37.3934 54.8655
vt -36.7552 35.3508
vt -54.9221 -3.1414
vt -36.7552 43.0882
vt -52.5614 43.0882
vt -34.3945 -3.1414
vt -54.9221 61.5197
vt -34.3945 40.9921
vt -34.3945 61.5197
vt -54.9221 40.9921
vt 61.5197 -2.8045
vt 43.3528 43.4251
vt 40.9921 -2.8045
vt 59.1590 43.4251
vt 44.7731 104.2100
vt 43.3528 44.3998
vt 59.1590 44.3998
vt 36.9265 104.2100
vt 47.3481 106.3280
vt 36.6989 106.3280
vt 47.3481 106.6100
vt 37.5143 110.2530
vt 36.6989 106.6100
vt 49.0073 110.2530
vt 48.5628 107.6060
vt 48.3955 106.6100
vt 48.3955 106.3280
vt -50.5066 114.5870
vt -45.5850 118.2800
vt -50.4787 115.5970
vt -38.8100 114.5870
vt -40.0966 161.2640
vt -48.3955 109.1050
vt -47.0053 155.1550
vt -56.1286 155.1550
vt -36.6989 109.1050
vt 49.8770 136.5510
vt 49.2199 160.6420
vt -50.4048 118.2800
vt -49.4013 131.5790
vt -50.0382 131.5790
vt -50.0318 131.8110
vt 43.2522 129.1420
vt 51.2107 123.3730
vt 51.2490 123.6020
vt 41.7419 129.1420
vt 40.4508 123.3730
vt -49.2199 161.2640
vt 47.0053 152.6590
vt 56.1286 152.6590
vt 47.9117 66.5496
vt 52.5614 41.2709
vt 36.7552 41.2709
vt 43.2279 60.6078
vt 38.0363 80.0836
vt 47.9117 80.0836
vt 37.5896 66.5496
vt -52.4481 85.9750
vt -40.6508 72.5111
vt -39.2042 85.9750
vt -54.7882 72.5111
vt -38.0363 74.5204
vt -37.5896 60.8619
vt 41.5988 87.0156
vt 37.3934 60.6078
vt -55.8155 66.6002
vt -43.3528 47.3634
vt -41.2859 66.6002
vt -59.1590 47.3634
vt -61.5197 1.7563
vt -43.3528 47.9859
vt -59.1590 47.9859
vt -40.9921 1.7563
vt 34.3945 2.0932
vt 52.5614 48.3228
vt 36.7552 48.3228
vt 54.9221 2.0932
vn -0.3413 -0.7307 -0.5912
vn -0.3414 -0.7307 -0.5913
vn -0.3414 -0.7306 -0.5913
vn 0.3414 -0.7307 -0.5912
vn 0.6827 -0.7307 0.0000
vn -0.0000 -1.0000 -0.0000
vn -1.0000 0.0000 0.0000
vn -0.5000 0.0000 0.8660
vn -0.3414 -0.7307 0.5912
vn -0.3414 -0.7307 0.5913
vn -0.6827 -0.7307 0.0000
vn -0.6288 0.7776 -0.0000
vn -0.6289 0.7775 -0.0000
vn 0.0000 1.0000 0.0000
vn -0.5000 0.0000 -0.8660
vn 0.3144 0.7776 0.5446
vn 0.3144 0.7775 0.5446
vn -0.3144 0.7775 0.5446
vn 0.5000 -0.0000 0.8660
vn 0.3414 -0.7307 0.5912
vn 1.0000 0.0000 0.0000
vn 0.5000 0.0000 -0.8660
vn 0.6288 0.7776 0.0000
vn 0.3144 0.7776 -0.5446
vn 0.3144 0.7775 -0.5446
vn -0.3144 0.7776 -0.5446
vn -0.3145 0.7775 -0.5446
vn -0.3143 0.7778 -0.5443
vn -0.3144 0.7775 -0.5446
vn -0.3414 -0.7307 -0.5912
vn -0.6288 0.7775 0.0000
vn 0.6288 0.7775 0.0000
vn -0.3141 0.7777 -0.5446
vn 0.7836 -0.6213 0.0000
vn 0.7374 0.6754 0.0000
vn 0.3687 0.6754 0.6386
vn -0.3687 0.6754 0.6386
vn -0.7374 0.6754 0.0000
vn -0.7836 -0.6212 0.0000
vn -0.7836 -0.6213 0.0000
vn -0.3918 -0.6213 -0.6786
vn -0.3918 -0.6212 -0.6786
vn -0.3687 0.6754 -0.6386
vn 0.3687 0.6754 -0.6386
vn 0.3918 -0.6213 -0.6786
vn 0.3918 -0.6212 -0.6786
vn -0.3918 -0.6212 0.6786
vn -0.3918 -0.6213 0.6786
vn 0.3918 -0.6212 0.6786
vn 0.3918 -0.6213 0.6786
vn -0.0000 0.2185 0.9758
vn 0.0000 -0.1069 0.9943
vn -0.9996 0.0274 0.0000
vn -0.9994 0.0332 0.0000
vn -0.9996 0.0281 -0.0000
vn 0.0000 0.1713 -0.9852
vn -0.0001 0.1713 -0.9852
vn 0.0000 0.0511 -0.9987
vn 0.9987 0.0511 0.0000
vn 0.9994 0.0332 0.0000
vn 0.9995 0.0314 0.0000
vn 0.9995 0.0331 0.0000
vn 0.9995 0.0306 0.0000
vn 0.9996 0.0280 0.0000
vn 0.9996 0.0280 -0.0001
vn 0.9996 0.0295 -0.0001
vn 0.0000 -0.1657 -0.9862
vn -0.9996 0.0279 0.0000
vn 0.0000 -0.1656 -0.9862
vn 0.9996 0.0279 0.0000
vn 0.9996 0.0276 0.0002
vn 0.0001 -0.1657 -0.9862
vn 0.0001 -0.1656 -0.9862
vn -0.9987 0.0511 0.0000
vn 0.0000 0.0511 0.9987
usemtl Leafs.012
s 1
f 1/1/1 2/2/1 3/3/1
f 2/2/1 1/1/1 4/4/2
f 4/4/2 1/1/1 5/5/3
f 5/5/3 1/1/1 6/6/1
f 7/7/4 6/8/4 1/9/4
f 6/8/4 7/7/4 8/10/4
f 7/11/5 9/12/5 8/13/5
f 9/12/5 7/11/5 10/14/5
f 11/15/6 7/16/6 10/17/6
f 11/15/6 1/18/6 7/16/6
f 11/15/6 12/19/6 1/18/6
f 11/15/6 13/20/6 12/19/6
f 14/21/6 13/20/6 11/15/6
f 13/20/6 14/21/6 15/22/6
f 14/23/7 16/24/7 15/25/7
f 16/24/7 14/23/7 17/26/7
f 14/27/8 18/28/8 17/29/8
f 18/28/8 14/27/8 11/30/8
f 19/31/9 11/32/9 14/33/9
f 11/32/9 19/31/9 20/34/10
f 19/35/6 21/36/6 20/37/6
f 21/36/6 19/35/6 22/38/6
f 19/39/11 23/40/11 22/41/11
f 14/42/11 23/40/11 19/39/11
f 23/40/11 14/42/11 15/43/11
f 25/44/6 46/45/6 45/46/6
f 46/45/6 25/44/6 47/47/6
f 47/47/6 25/44/6 48/48/6
f 16/49/12 50/50/12 49/51/13
f 50/50/12 16/49/12 17/52/12
f 18/53/14 16/54/14 17/55/14
f 16/54/14 18/53/14 26/56/14
f 26/56/14 18/53/14 51/57/14
f 52/58/14 51/57/14 18/53/14
f 51/57/14 52/58/14 53/59/14
f 1/60/15 53/61/15 52/62/15
f 53/61/15 1/60/15 3/63/15
f 1/18/6 12/19/6 3/64/6
f 49/51/13 50/50/12 55/65/13
f 55/65/13 50/50/12 56/66/13
f 57/67/14 56/68/14 50/69/14
f 56/68/14 57/67/14 58/70/14
f 58/70/14 57/67/14 59/71/14
f 57/72/16 60/73/16 59/74/16
f 60/73/17 57/72/17 18/75/17
f 50/76/18 18/77/18 57/78/18
f 18/77/18 50/76/18 17/79/18
f 52/58/14 18/53/14 60/80/14
f 11/81/19 60/82/19 18/83/19
f 60/82/19 11/81/19 10/84/19
f 20/85/20 10/86/20 11/87/20
f 10/86/20 20/85/20 9/88/20
f 20/37/6 8/89/6 9/90/6
f 20/37/6 6/91/6 8/89/6
f 20/37/6 5/92/6 6/91/6
f 20/37/6 21/36/6 5/92/6
f 7/93/21 60/94/21 10/95/21
f 60/94/21 7/93/21 61/96/21
f 7/97/22 52/98/22 61/99/22
f 52/98/22 7/97/22 1/100/22
f 52/58/14 60/80/14 61/101/14
f 62/102/23 60/103/23 61/104/23
f 60/103/23 62/102/23 59/105/23
f 58/70/14 59/71/14 62/106/14
f 62/107/24 52/108/24 58/109/24
f 52/108/25 62/107/25 61/110/25
f 52/111/26 56/112/27 58/113/26
f 52/111/26 54/114/28 56/112/27
f 54/114/28 52/111/26 53/115/29
f 45/46/6 64/116/6 63/117/6
f 46/45/6 64/116/6 45/46/6
f 64/116/6 46/45/6 65/118/6
f 66/119/11 65/120/11 46/121/11
f 65/120/11 66/119/11 67/122/11
f 66/123/7 68/124/7 67/125/7
f 68/124/7 66/123/7 69/126/7
f 66/127/8 70/128/8 69/129/8
f 70/128/8 66/127/8 71/130/8
f 46/131/9 71/132/9 66/133/9
f 71/132/9 46/131/9 47/134/9
f 47/135/20 72/136/20 71/137/20
f 72/136/20 47/135/20 73/138/20
f 47/47/6 48/48/6 73/139/6
f 73/139/6 48/48/6 74/140/6
f 63/117/6 74/140/6 48/48/6
f 63/117/6 64/116/6 74/140/6
f 64/141/4 75/142/4 74/143/4
f 75/142/4 64/141/4 76/144/4
f 65/145/30 76/146/30 64/147/30
f 76/146/30 65/145/30 67/148/30
f 68/149/15 76/150/15 67/151/15
f 76/150/15 68/149/15 77/152/15
f 68/153/14 70/154/14 77/155/14
f 70/154/14 68/153/14 69/156/14
f 78/157/31 68/158/31 69/159/31
f 68/158/31 78/157/31 79/160/31
f 80/161/14 79/162/14 78/163/14
f 79/162/14 80/161/14 81/164/14
f 81/164/14 80/161/14 82/165/14
f 80/166/17 83/167/17 82/168/17
f 83/167/17 80/166/17 70/169/17
f 78/170/18 70/171/18 80/172/18
f 70/171/18 78/170/18 69/173/18
f 77/155/14 70/154/14 83/174/14
f 71/130/19 83/175/19 70/128/19
f 83/175/19 71/130/19 72/176/19
f 71/177/6 75/178/6 72/179/6
f 71/177/6 76/180/6 75/178/6
f 66/181/6 76/180/6 71/177/6
f 76/180/6 66/181/6 67/182/6
f 77/183/22 75/184/22 76/185/22
f 75/184/22 77/183/22 84/186/22
f 77/155/14 83/174/14 84/187/14
f 83/188/21 75/189/21 84/190/21
f 75/189/21 83/188/21 72/191/21
f 73/192/5 75/193/5 72/194/5
f 75/193/5 73/192/5 74/195/5
f 85/196/32 83/197/32 84/198/32
f 83/197/32 85/196/32 82/199/32
f 81/164/14 82/165/14 85/200/14
f 85/201/25 77/202/25 81/203/25
f 77/202/25 85/201/25 84/204/25
f 77/205/29 79/206/29 81/207/29
f 79/206/29 77/205/29 68/208/29
f 56/112/27 54/114/28 55/209/33
f 25/44/6 63/117/6 48/48/6
f 63/117/6 25/44/6 45/46/6
f 86/210/34 89/211/34 88/212/34
f 89/211/34 86/210/34 90/213/34
f 86/214/21 91/215/21 90/216/21
f 91/215/21 86/214/21 92/217/21
f 98/218/35 92/219/35 97/220/35
f 92/219/35 98/218/35 91/221/35
f 99/222/36 91/223/36 98/224/36
f 91/223/36 99/222/36 100/225/36
f 101/226/37 100/227/37 99/228/37
f 100/227/37 101/226/37 102/229/37
f 101/230/38 103/231/38 102/232/38
f 103/231/38 101/230/38 104/233/38
f 99/234/14 104/235/14 101/236/14
f 104/235/14 99/234/14 105/237/14
f 105/237/14 99/234/14 28/238/14
f 28/238/14 99/234/14 98/239/14
f 28/238/14 98/239/14 97/240/14
f 30/241/14 105/237/14 28/238/14
f 105/237/14 30/241/14 106/242/14
f 106/242/14 30/241/14 31/243/14
f 33/244/35 106/245/35 31/246/35
f 106/245/35 33/244/35 107/247/35
f 34/248/21 107/249/21 33/250/21
f 107/249/21 34/248/21 108/251/21
f 108/252/34 34/253/34 36/254/34
f 96/255/6 108/256/6 34/257/6
f 96/255/6 109/258/6 108/256/6
f 110/259/6 109/258/6 96/255/6
f 111/260/6 109/258/6 110/259/6
f 109/258/6 111/260/6 112/261/6
f 112/262/39 113/263/39 111/264/39
f 113/263/40 112/262/40 114/265/40
f 112/266/41 115/267/42 114/268/41
f 115/267/42 112/266/41 109/269/42
f 103/270/15 109/271/15 112/272/15
f 109/271/15 103/270/15 116/273/15
f 104/274/43 116/275/43 103/276/43
f 116/275/43 104/274/43 105/277/43
f 106/278/44 116/279/44 105/280/44
f 116/279/44 106/278/44 107/281/44
f 108/282/22 116/283/22 107/284/22
f 116/283/22 108/282/22 109/285/22
f 36/286/45 109/287/45 108/288/45
f 37/289/46 109/287/45 36/286/45
f 109/287/46 37/289/46 115/290/46
f 38/291/6 115/292/6 37/293/6
f 117/294/6 115/292/6 38/291/6
f 113/295/6 115/292/6 117/294/6
f 115/292/6 113/295/6 114/296/6
f 110/297/47 113/298/47 117/299/47
f 113/298/47 110/297/47 111/300/48
f 100/301/8 111/302/8 110/303/8
f 111/302/8 100/301/8 102/304/8
f 103/305/7 111/306/7 102/307/7
f 111/306/7 103/305/7 112/308/7
f 110/309/19 91/310/19 100/311/19
f 91/310/19 110/309/19 90/312/19
f 117/313/49 90/314/50 110/315/49
f 90/314/50 117/313/49 89/316/50
f 118/317/6 89/318/6 117/294/6
f 89/318/6 118/317/6 88/319/6
f 117/294/6 38/291/6 118/317/6
f 90/320/6 94/321/6 86/322/6
f 94/321/6 90/320/6 110/259/6
f 110/259/6 96/255/6 94/321/6
usemtl Wood.036
f 15/323/51 24/324/51 23/325/51
f 24/324/51 15/323/51 25/326/51
f 25/326/51 15/323/51 16/327/51
f 15/323/51 26/328/51 16/327/51
f 26/328/51 15/323/51 13/329/51
f 23/325/51 13/329/51 15/323/51
f 13/329/51 23/325/51 27/330/51
f 23/331/52 21/332/52 27/333/52
f 21/332/52 23/331/52 22/334/52
f 24/335/52 22/334/52 23/331/52
f 22/334/52 24/335/52 28/336/52
f 29/337/53 28/338/54 24/339/55
f 28/338/54 29/337/54 30/340/54
f 29/341/56 31/342/56 30/343/56
f 32/344/56 31/342/56 29/341/56
f 32/344/56 33/345/57 31/342/56
f 32/344/56 34/346/56 33/345/57
f 35/347/56 34/346/56 32/344/56
f 35/347/56 36/348/56 34/346/56
f 35/347/56 37/349/56 36/348/56
f 35/347/56 38/350/56 37/349/56
f 38/350/56 35/347/56 39/351/56
f 40/352/58 39/353/58 35/354/58
f 39/353/58 40/352/58 41/355/58
f 40/356/6 42/357/6 41/358/6
f 42/357/6 40/356/6 43/359/6
f 40/360/59 44/361/59 43/362/59
f 44/361/59 40/360/59 35/363/59
f 5/364/60 44/365/60 35/366/60
f 44/365/60 5/364/60 21/367/60
f 4/368/61 21/367/62 5/364/62
f 21/367/62 4/368/61 27/369/63
f 4/370/61 13/371/64 27/372/63
f 13/371/64 4/370/64 12/373/64
f 12/373/64 4/370/64 2/374/65
f 2/374/64 4/370/66 32/375/63
f 4/368/66 35/366/60 32/376/63
f 5/364/60 35/366/60 4/368/66
f 32/377/67 3/378/67 2/379/67
f 29/380/67 3/378/67 32/377/67
f 3/378/67 29/380/67 45/381/67
f 29/382/53 25/383/68 45/384/68
f 25/383/68 29/382/53 24/385/55
f 25/326/51 49/386/51 48/387/51
f 25/326/51 16/327/51 49/386/51
f 12/388/67 2/379/67 3/378/67
f 53/389/67 12/388/67 3/378/67
f 12/388/67 53/389/67 51/390/67
f 54/391/69 51/390/69 53/389/69
f 55/392/70 51/393/70 54/394/71
f 49/395/70 51/393/70 55/392/70
f 51/393/70 49/395/70 26/396/70
f 49/386/51 16/327/51 26/328/51
f 26/396/70 12/373/70 51/393/70
f 12/373/70 26/396/70 13/371/70
f 53/389/72 45/381/67 54/391/73
f 3/378/67 45/381/67 53/389/72
f 54/391/73 45/381/67 63/397/67
f 48/398/70 54/394/70 63/399/70
f 48/398/70 55/392/70 54/394/70
f 55/392/70 48/398/70 49/395/70
f 86/400/52 44/401/52 21/332/52
f 44/401/52 86/400/52 87/402/52
f 87/402/52 86/400/52 88/403/52
f 93/404/52 86/400/52 92/405/52
f 86/400/52 93/404/52 94/406/52
f 95/407/54 94/408/54 93/409/54
f 94/408/54 95/407/54 96/410/54
f 95/411/56 34/346/56 96/412/56
f 34/346/56 95/411/56 33/345/56
f 95/411/56 31/342/56 33/345/56
f 31/342/56 95/411/56 30/343/56
f 93/409/54 30/340/54 95/407/54
f 30/340/54 93/409/54 28/338/54
f 93/404/52 97/413/52 28/336/52
f 93/404/52 92/405/52 97/413/52
f 97/413/52 21/332/52 28/336/52
f 92/405/52 21/332/52 97/413/52
f 86/400/52 21/332/52 92/405/52
f 28/336/52 21/332/52 22/334/52
f 118/414/52 87/402/52 88/403/52
f 38/415/54 87/416/54 118/417/54
f 87/416/54 38/415/54 39/418/54
f 41/419/74 87/420/74 39/421/74
f 87/420/74 41/419/74 42/422/74
f 42/423/75 44/424/75 87/425/75
f 44/424/75 42/423/75 43/426/75
f 118/417/54 96/410/54 38/415/54
f 96/410/54 118/417/54 94/408/54
f 118/414/52 86/400/52 94/406/52
f 86/400/52 118/414/52 88/403/52
f 96/412/56 37/349/56 38/350/56
f 37/349/56 96/412/56 36/348/56
f 36/348/56 96/412/56 34/346/56
