# Blender v2.78 (sub 0) OBJ File: ''
# www.blender.org
mtllib naturePack_061.mtl
o Mesh1_Group2_Group1_Model
v 1.390780 0.834556 -1.536940
v 1.852220 0.156104 -1.844320
v 1.330820 0.156104 -1.844320
v 1.792260 0.834556 -1.536940
v 1.762560 2.029350 -1.510970
v 2.059660 2.029350 -1.510970
v 1.475650 2.917940 -1.707389
v 1.707390 2.917940 -1.707389
v 1.707390 2.917940 -1.475649
v 1.475650 2.917940 -1.475649
v 1.762560 2.029350 -1.213870
v 1.390780 0.834556 -1.135460
v 1.330820 0.156104 -1.322920
v 1.367320 0.000000 -1.359420
v 1.367320 0.000000 -1.807820
v 1.815720 0.000000 -1.807820
v 1.815720 0.000000 -1.359420
v 1.852220 0.156104 -1.322920
v 1.792260 0.834556 -1.135460
v 2.059660 2.029350 -1.213870
vt -2.9882 46.5012
vt -25.9843 -0.5505
vt -0.0000 -0.5505
vt -22.9961 46.5012
vt -21.5160 132.8080
vt -22.9961 54.4510
vt -2.9882 54.4510
vt -36.3219 132.8080
vt -7.2179 192.7690
vt -36.3219 133.6850
vt -21.5160 133.6850
vt -18.7664 192.7690
vt 7.2179 24.5945
vt 18.7664 13.0460
vt 18.7664 24.5945
vt 7.2179 13.0460
vt -14.8058 124.1090
vt -13.0460 184.1050
vt -24.5945 184.1050
vt 0.0000 124.1090
vt -16.1000 53.9432
vt -0.0000 134.4510
vt -14.8058 134.4510
vt 3.9079 53.9432
vt -16.1000 54.8016
vt -5.4344 10.2132
vt 3.9079 54.8016
vt -31.4187 10.2132
vt -31.4187 10.0783
vt -7.2533 -0.3182
vt -5.4344 10.0783
vt -29.5998 -0.3182
vt -0.0000 15.5751
vt -24.1654 5.1785
vt -1.8189 5.1785
vt -25.9843 15.5751
vt 31.4187 14.6243
vt 7.2533 4.2278
vt 29.5998 4.2278
vt 5.4344 14.6243
vt 16.1000 53.0602
vt 5.4344 8.4718
vt 31.4187 8.4718
vt -3.9079 53.0602
vt 16.1000 57.8056
vt -0.0000 137.2770
vt -3.9079 57.8056
vt 14.8058 137.2770
vt 14.8058 116.9350
vt 13.0460 177.7900
vt -0.0000 116.9350
vt 24.5945 177.7900
vt 18.7664 189.5660
vt 21.5160 129.8560
vt 36.3219 129.8560
vt 7.2179 189.5660
vt 2.9882 54.4618
vt 36.3219 132.9060
vt 21.5160 132.9060
vt 22.9961 54.4618
vt -0.0000 8.9009
vt 22.9961 54.3594
vt 2.9882 54.3594
vt 25.9843 8.9009
vt 1.8189 -1.2690
vt 25.9843 9.1276
vt 0.0000 9.1276
vt 24.1654 -1.2690
vt -1.8189 7.2533
vt -24.1654 29.5998
vt -24.1654 7.2533
vt -1.8189 29.5998
vn -0.0000 0.2531 -0.9674
vn -0.0000 0.0126 -0.9999
vn -0.0000 -0.1267 -0.9919
vn 0.0000 1.0000 0.0000
vn -0.9831 -0.1833 0.0000
vn -0.9842 0.1769 0.0000
vn -0.9987 0.0510 0.0000
vn -0.9910 -0.1338 -0.0000
vn -0.0000 -0.1338 -0.9910
vn 0.9910 -0.1338 -0.0000
vn 0.9987 0.0510 0.0000
vn 0.9917 -0.1282 -0.0000
vn 0.9748 0.2232 0.0000
vn 0.0000 0.1678 0.9858
vn 0.0000 0.0379 0.9993
vn 0.0000 -0.1576 0.9875
vn -0.0000 -0.1338 0.9910
vn 0.0000 -1.0000 -0.0000
usemtl Wood.034
s 1
f 1/1/1 2/2/1 3/3/1
f 2/2/1 1/1/1 4/4/1
f 5/5/2 4/6/2 1/7/2
f 4/6/2 5/5/2 6/8/2
f 7/9/3 6/10/3 5/11/3
f 6/10/3 7/9/3 8/12/3
f 7/13/4 9/14/4 8/15/4
f 9/14/4 7/13/4 10/16/4
f 5/17/5 10/18/5 7/19/5
f 10/18/5 5/17/5 11/20/5
f 1/21/6 11/22/6 5/23/6
f 11/22/6 1/21/6 12/24/6
f 1/25/7 13/26/7 12/27/7
f 13/26/7 1/25/7 3/28/7
f 3/29/8 14/30/8 13/31/8
f 14/30/8 3/29/8 15/32/8
f 3/33/9 16/34/9 15/35/9
f 16/34/9 3/33/9 2/36/9
f 2/37/10 17/38/10 16/39/10
f 17/38/10 2/37/10 18/40/10
f 4/41/11 18/42/11 2/43/11
f 18/42/11 4/41/11 19/44/11
f 4/45/12 20/46/12 19/47/12
f 20/46/12 4/45/12 6/48/12
f 6/49/13 9/50/13 20/51/13
f 9/50/13 6/49/13 8/52/13
f 9/53/14 11/54/14 20/55/14
f 11/54/14 9/53/14 10/56/14
f 12/57/15 20/58/15 11/59/15
f 20/58/15 12/57/15 19/60/15
f 13/61/16 19/62/16 12/63/16
f 19/62/16 13/61/16 18/64/16
f 14/65/17 18/66/17 13/67/17
f 18/66/17 14/65/17 17/68/17
f 14/69/18 16/70/18 17/71/18
f 16/70/18 14/69/18 15/72/18
o Mesh2_Group3_Group1_Model
v 1.460580 3.170190 -1.460580
v 1.404470 3.084190 -1.778570
v 1.404470 3.084190 -1.404469
v 1.460580 3.170190 -1.722460
v 1.722460 3.170190 -1.460580
v 1.722460 3.170190 -1.722460
v 1.778570 3.084190 -1.778570
v 1.778570 3.084190 -1.404469
v 1.996420 3.250440 -1.342120
v 1.996420 3.250440 -1.840919
v 2.432110 3.250440 -1.840919
v 2.432110 3.250440 -1.342120
v 1.996420 3.009670 -1.342120
v 2.432110 3.009670 -1.342120
v 2.432110 3.009670 -1.840919
v 1.996420 3.009670 -1.840919
v 1.778570 2.917940 -1.404469
v 1.778570 2.917940 -1.778570
v 1.707390 2.917940 -1.475649
v 1.475650 2.917940 -1.475649
v 1.404470 2.917940 -1.404469
v 1.475650 2.917940 -1.707389
v 1.404470 2.917940 -1.778570
v 1.840920 3.009670 -1.996420
v 1.342120 3.009670 -1.996420
v 1.342120 3.250440 -1.996420
v 1.186620 3.009670 -1.840919
v 1.186620 3.250440 -1.840919
v 0.750933 3.250440 -1.840919
v 0.750933 3.009670 -1.840919
v 0.750933 3.009670 -1.342120
v 1.186620 3.009670 -1.342120
v 1.186620 3.250440 -1.342120
v 0.750933 3.250440 -1.342120
v 0.309511 3.021130 -1.342120
v 0.309511 3.021130 -1.840919
v 0.309511 2.866350 -1.840919
v 0.309511 2.866350 -1.342120
v -0.000000 2.728760 -1.411770
v -0.000000 2.654240 -1.411770
v -0.000000 2.728760 -1.711050
v -0.000000 2.654240 -1.711050
v 1.342120 3.009670 -1.186620
v 1.342120 3.250440 -1.186620
v 1.342120 3.009670 -0.750933
v 1.342120 3.250440 -0.750932
v 1.342120 2.866350 -0.309511
v 1.342120 3.021130 -0.309510
v 1.471990 2.654240 0.000000
v 1.471990 2.728760 0.000000
v 1.771270 2.728760 0.000000
v 1.771270 2.654240 0.000000
v 1.840920 2.866350 -0.309511
v 1.840920 3.009670 -0.750933
v 1.840920 3.009670 -1.186620
v 1.840920 3.250440 -1.186620
v 1.840920 3.250440 -0.750932
v 1.840920 3.021130 -0.309510
v 1.840920 3.250440 -1.996420
v 2.873530 3.021130 -1.840919
v 2.873530 2.866350 -1.840919
v 3.183040 2.728760 -1.771270
v 3.183040 2.654240 -1.771270
v 3.183040 2.728760 -1.471990
v 3.183040 2.654240 -1.471990
v 2.873530 2.866350 -1.342120
v 2.873530 3.021130 -1.342120
v 1.840920 3.009670 -2.432110
v 1.840920 3.250440 -2.432110
v 1.840920 2.866350 -2.873529
v 1.840920 3.021131 -2.873529
v 1.711050 2.654240 -3.183039
v 1.711050 2.728760 -3.183039
v 1.411770 2.728760 -3.183039
v 1.411770 2.654240 -3.183039
v 1.342120 2.866350 -2.873529
v 1.342120 3.009670 -2.432110
v 1.342120 3.250440 -2.432110
v 1.342120 3.021131 -2.873529
v 1.707390 2.917940 -1.707389
vt -100.3060 84.4915
vt -122.1450 77.4398
vt -96.4527 77.4398
vt -118.2910 84.4915
vt 118.2910 100.3060
vt 100.3060 118.2910
vt 100.3060 100.3060
vt 118.2910 118.2910
vt 100.3060 -34.9727
vt 122.1450 -42.0244
vt 118.2910 -34.9727
vt 96.4527 -42.0244
vt 118.2910 84.4915
vt 96.4527 77.4398
vt 122.1450 77.4398
vt 100.3060 84.4915
vt 122.1450 96.4527
vt 96.4527 122.1450
vt 96.4527 96.4527
vt 122.1450 122.1450
vt -92.1707 133.8320
vt -122.1450 115.0130
vt -96.4527 115.0130
vt -126.4270 133.8320
vt 137.1050 92.1707
vt 167.0270 126.4270
vt 137.1050 126.4270
vt 167.0270 92.1707
vt 137.1050 24.4094
vt 167.0270 40.9449
vt 137.1050 40.9449
vt 167.0270 24.4094
vt -137.1050 92.1707
vt -167.0270 126.4270
vt -167.0270 92.1707
vt -137.1050 126.4270
vt 96.4527 119.6010
vt 126.4270 135.8330
vt 92.1707 135.8330
vt 122.1450 119.6010
vt -122.1450 96.4527
vt -117.2560 101.3410
vt -122.1450 122.1450
vt -101.3410 101.3410
vt -96.4527 96.4527
vt -101.3410 117.2560
vt -96.4527 122.1450
vt -96.4527 119.6010
vt -126.4270 135.8330
vt -122.1450 119.6010
vt -92.1707 135.8330
vt -90.8887 18.1102
vt -106.4500 40.9449
vt -106.4500 24.4094
vt -90.8887 29.5276
vt -43.5576 24.4094
vt -59.1189 29.5276
vt -59.1189 18.1102
vt -43.5576 40.9449
vt -81.4921 24.4094
vt -51.5708 40.9449
vt -81.4921 40.9449
vt -51.5708 24.4094
vt -81.4921 126.4270
vt -51.5708 92.1707
vt -51.5708 126.4270
vt -81.4921 92.1707
vt -122.1450 -81.8664
vt -92.1707 -65.6337
vt -126.4270 -65.6337
vt -96.4527 -81.8664
vt 119.2700 29.5276
vt 103.7090 24.4094
vt 119.2700 18.1102
vt 103.7090 40.9449
vt 122.1450 -58.7616
vt 92.1707 -39.9420
vt 96.4527 -58.7616
vt 126.4270 -39.9420
vt 81.4921 126.4270
vt 51.5708 92.1707
vt 81.4921 92.1707
vt 51.5708 126.4270
vt -126.4270 64.6394
vt -92.1707 30.4780
vt -92.1707 64.6394
vt -126.4270 30.4780
vt -21.2558 25.1969
vt -21.2558 14.5669
vt 126.4270 56.5881
vt 92.1707 24.7153
vt 126.4270 24.7153
vt 92.1707 56.5881
vt 51.5708 24.4094
vt 21.2558 25.1969
vt 21.2558 14.5669
vt 51.5708 40.9449
vt 81.4921 40.9449
vt 81.4921 24.4094
vt -21.2856 5.1181
vt 0.5018 14.5669
vt 0.5018 25.1969
vt -21.2856 0.0000
vt -117.5080 5.1181
vt -96.9540 0.0000
vt -96.9540 5.1181
vt -117.5080 0.0000
vt -45.4665 5.1181
vt -68.5177 14.5669
vt -45.4665 0.0000
vt -68.5177 25.1969
vt -96.9540 3.5146
vt -126.4270 32.7544
vt -117.5080 3.5146
vt -92.1707 32.7544
vt 126.4270 25.7683
vt 96.9540 0.0000
vt 117.5080 0.0000
vt 92.1707 25.7683
vt -103.7090 24.4094
vt -119.2700 29.5276
vt -119.2700 18.1102
vt -103.7090 40.9449
vt -51.5708 24.4094
vt -81.4921 40.9449
vt -81.4921 24.4094
vt -51.5708 40.9449
vt -21.2558 14.5669
vt -21.2558 25.1969
vt 39.1141 -0.0000
vt 16.0628 25.1969
vt 16.0628 14.5669
vt 39.1141 5.1181
vt 101.0900 0.0000
vt 121.6430 5.1181
vt 101.0900 5.1181
vt 121.6430 0.0000
vt -101.0900 -0.0000
vt -126.4270 25.7683
vt -121.6430 -0.0000
vt -92.1707 25.7683
vt -92.1707 24.7153
vt -126.4270 56.5881
vt -126.4270 24.7153
vt -92.1707 56.5881
vt -92.1707 51.5708
vt -126.4270 81.4921
vt -126.4270 51.5708
vt -92.1707 81.4921
vt 96.4527 -81.8664
vt 126.4270 -65.6337
vt 92.1707 -65.6337
vt 122.1450 -81.8664
vt 59.1189 18.1102
vt 43.5576 40.9449
vt 43.5576 24.4094
vt 59.1189 29.5276
vt 106.4500 24.4094
vt 90.8887 29.5276
vt 90.8887 18.1102
vt 106.4500 40.9449
vt -96.4527 -58.7616
vt -126.4270 -39.9420
vt -122.1450 -58.7616
vt -92.1707 -39.9420
vt 92.1707 51.5708
vt 126.4270 81.4921
vt 92.1707 81.4921
vt 126.4270 51.5708
vt 92.1707 30.4780
vt 126.4270 64.6394
vt 92.1707 64.6394
vt 126.4270 30.4780
vt 101.0900 3.5146
vt 126.4270 32.7544
vt 92.1707 32.7544
vt 121.6430 3.5146
vt 26.7060 5.1181
vt 48.4934 14.5669
vt 48.4934 25.1969
vt 26.7060 0.0000
vt 51.5708 24.4094
vt 21.2558 25.1969
vt 21.2558 14.5669
vt 51.5708 40.9449
vt 81.4921 24.4094
vt 81.4921 40.9449
vt 96.4527 115.0130
vt 126.4270 133.8320
vt 92.1707 133.8320
vt 122.1450 115.0130
vt -100.3060 -34.9727
vt -122.1450 -42.0244
vt -96.4527 -42.0244
vt -118.2910 -34.9727
vt 151.0400 29.5276
vt 166.6010 24.4094
vt 166.6010 40.9449
vt 151.0400 18.1102
vt -151.0400 29.5276
vt -166.6010 24.4094
vt -151.0400 18.1102
vt -166.6010 40.9449
vt -137.1050 40.9449
vt -167.0270 24.4094
vt -137.1050 24.4094
vt -167.0270 40.9449
vt -197.3410 25.1969
vt -197.3410 14.5669
vt -186.5580 5.1181
vt -164.7710 14.5669
vt -164.7710 25.1969
vt -186.5580 0.0000
vt 101.0900 5.1181
vt 121.6430 0.0000
vt 121.6430 5.1181
vt 101.0900 0.0000
vt 240.6850 5.1181
vt 217.6340 14.5669
vt 240.6850 -0.0000
vt 217.6340 25.1969
vt 121.6430 -155.3940
vt 92.1707 -126.1550
vt 101.0900 -155.3940
vt 126.4270 -126.1550
vt 126.4270 -163.5060
vt 92.1707 -129.3450
vt 92.1707 -163.5060
vt 126.4270 -129.3450
vt 197.3410 25.1969
vt 197.3410 14.5669
vt -92.1707 -151.3250
vt -126.4270 -183.1980
vt -92.1707 -183.1980
vt -126.4270 -151.3250
vt -121.6430 -180.3170
vt -92.1707 -154.5490
vt -126.4270 -154.5490
vt -101.0900 -180.3170
vt 167.0270 24.4094
vt 137.1050 40.9449
vt 137.1050 24.4094
vt 167.0270 40.9449
vt 197.3410 14.5669
vt 197.3410 25.1969
vt 156.1050 0.0000
vt 133.0530 25.1969
vt 133.0530 14.5669
vt 156.1050 5.1181
vt -117.5080 0.0000
vt -96.9540 5.1181
vt -117.5080 5.1181
vt -96.9540 0.0000
vt 126.4270 -154.5490
vt 96.9540 -180.3170
vt 117.5080 -180.3170
vt 92.1707 -154.5490
vt 126.4270 -183.1980
vt 92.1707 -151.3250
vt 92.1707 -183.1980
vt 126.4270 -151.3250
vt -126.4270 167.0270
vt -92.1707 137.1050
vt -92.1707 167.0270
vt -126.4270 137.1050
vt -137.1050 24.4094
vt -167.0270 40.9449
vt -167.0270 24.4094
vt -137.1050 40.9449
vt 92.1707 137.1050
vt 126.4270 167.0270
vt 92.1707 167.0270
vt 126.4270 137.1050
vt -126.4270 -163.5060
vt -92.1707 -129.3450
vt -126.4270 -129.3450
vt -92.1707 -163.5060
vt -126.4270 -126.1550
vt -96.9540 -155.3940
vt -92.1707 -126.1550
vt -117.5080 -155.3940
vt -234.5500 5.1181
vt -212.7620 14.5669
vt -212.7620 25.1969
vt -234.5500 0.0000
vt -197.3410 25.1969
vt -197.3410 14.5669
vt -117.2560 117.2560
vn -0.8375 0.5464 0.0000
vn 0.0000 1.0000 0.0000
vn 0.8375 0.5464 0.0000
vn 0.0000 0.5464 0.8375
vn -0.6067 0.7950 0.0000
vn 0.0000 0.0000 1.0000
vn 0.0000 -1.0000 0.0000
vn 0.3881 -0.9216 0.0000
vn 0.0000 -0.9216 -0.3881
vn -0.9614 0.0000 0.2752
vn 0.2752 0.0000 -0.9614
vn 0.0000 0.0000 -1.0000
vn -0.3881 -0.9216 0.0000
vn 0.2752 0.0000 0.9614
vn 0.6067 0.7950 0.0000
vn -0.4610 0.8874 0.0000
vn 0.3088 -0.9511 0.0000
vn -0.2195 0.0000 0.9756
vn -1.0000 0.0000 0.0000
vn -0.3869 0.0000 -0.9221
vn -0.6867 0.7269 0.0000
vn 0.5653 -0.8249 0.0000
vn -0.9614 0.0000 -0.2752
vn -0.9221 -0.0000 0.3869
vn 0.0000 -0.8249 -0.5653
vn 0.0000 -0.9511 -0.3088
vn 0.0000 -0.9216 0.3881
vn 0.9614 0.0000 -0.2752
vn -0.2752 0.0000 0.9614
vn 0.0000 0.7950 -0.6067
vn 0.0000 0.8874 0.4610
vn 0.0000 0.7269 0.6867
vn 0.0000 0.7270 0.6867
vn 0.9756 0.0000 0.2195
vn 1.0000 -0.0000 0.0000
vn 0.0000 0.7950 0.6067
vn 0.0000 0.5464 -0.8375
vn 0.9614 0.0000 0.2752
vn -0.2752 0.0000 -0.9614
vn 0.2195 0.0000 -0.9756
vn 0.3869 0.0000 0.9221
vn 0.6867 0.7269 0.0000
vn 0.4610 0.8874 0.0000
vn -0.3088 -0.9511 0.0000
vn -0.5653 -0.8249 0.0000
vn 0.9221 0.0000 -0.3869
vn 0.0000 -0.8249 0.5653
vn 0.0000 -0.9511 0.3088
vn 0.0000 0.8874 -0.4610
vn 0.0000 0.7269 -0.6867
vn -0.9756 0.0000 -0.2195
usemtl Green_leafs.027
s 1
f 21/73/19 22/74/19 23/75/19
f 22/74/19 21/73/19 24/76/19
f 25/77/20 24/78/20 21/79/20
f 24/78/20 25/77/20 26/80/20
f 25/81/21 27/82/21 26/83/21
f 27/82/21 25/81/21 28/84/21
f 25/85/22 23/86/22 28/87/22
f 23/86/22 25/85/22 21/88/22
f 28/89/20 22/90/20 23/91/20
f 22/90/20 28/89/20 27/92/20
f 29/93/23 27/94/23 28/95/23
f 27/94/23 29/93/23 30/96/23
f 29/97/20 31/98/20 30/99/20
f 31/98/20 29/97/20 32/100/20
f 33/101/24 32/102/24 29/103/24
f 32/102/24 33/101/24 34/104/24
f 33/105/25 35/106/25 34/107/25
f 35/106/25 33/105/25 36/108/25
f 37/109/26 36/110/26 33/111/26
f 36/110/26 37/109/26 38/112/26
f 37/113/25 39/114/25 38/115/25
f 37/113/25 40/116/25 39/114/25
f 41/117/25 40/116/25 37/113/25
f 40/116/25 41/117/25 42/118/25
f 43/119/25 42/118/25 41/117/25
f 42/118/25 43/119/25 38/115/25
f 43/120/27 44/121/27 38/122/27
f 44/121/27 43/120/27 45/123/27
f 43/124/28 46/125/28 45/126/28
f 46/125/28 43/124/28 22/127/28
f 47/128/29 22/129/29 43/130/29
f 22/129/29 47/128/29 48/131/29
f 47/132/30 49/133/30 48/134/30
f 49/133/30 47/132/30 50/135/30
f 47/136/25 51/137/25 50/138/25
f 51/137/25 47/136/25 52/139/25
f 43/140/31 52/141/31 47/142/31
f 52/141/31 43/140/31 41/143/31
f 23/144/32 52/145/32 41/146/32
f 52/145/32 23/144/32 53/147/32
f 22/148/33 53/149/33 23/150/33
f 53/149/33 22/148/33 48/151/33
f 48/152/20 54/153/20 53/154/20
f 54/153/20 48/152/20 49/155/20
f 49/156/34 55/157/34 54/158/34
f 55/157/34 49/156/34 56/159/34
f 50/135/30 56/160/30 49/133/30
f 56/160/30 50/135/30 57/161/30
f 50/162/35 58/163/35 57/164/35
f 58/163/35 50/162/35 51/165/35
f 51/166/24 55/167/24 58/168/24
f 55/167/24 51/166/24 54/169/24
f 51/166/24 53/170/24 54/169/24
f 53/170/24 51/166/24 52/171/24
f 59/172/36 58/173/36 55/174/36
f 58/173/36 59/172/36 60/175/36
f 61/176/37 60/177/37 59/178/37
f 60/177/37 61/176/37 62/179/37
f 61/180/38 57/181/38 62/182/38
f 57/181/38 61/180/38 56/183/38
f 59/184/39 56/185/39 61/186/39
f 56/185/39 59/184/39 55/187/39
f 57/188/40 60/189/40 62/190/40
f 60/189/40 57/188/40 58/191/40
f 63/192/41 23/193/41 41/194/41
f 23/193/41 63/192/41 64/195/41
f 65/196/37 64/197/37 63/198/37
f 64/197/37 65/196/37 66/199/37
f 67/200/37 66/199/37 65/196/37
f 66/199/37 67/200/37 68/201/37
f 69/202/42 68/203/42 67/204/42
f 68/203/42 69/202/42 70/205/42
f 69/206/24 71/207/24 70/208/24
f 71/207/24 69/206/24 72/209/24
f 69/210/43 73/211/43 72/212/43
f 73/211/43 69/210/43 67/213/43
f 67/214/44 74/215/44 73/216/44
f 74/215/44 67/214/44 65/217/44
f 65/218/25 75/219/25 74/220/25
f 75/219/25 65/218/25 63/221/25
f 41/222/45 75/223/45 63/224/45
f 75/223/45 41/222/45 37/225/45
f 37/226/46 76/227/46 75/228/46
f 76/227/46 37/226/46 28/229/46
f 33/230/47 28/231/47 37/232/47
f 28/231/47 33/230/47 29/233/47
f 23/234/48 76/235/48 28/236/48
f 76/235/48 23/234/48 64/237/48
f 66/238/20 76/239/20 64/240/20
f 76/239/20 66/238/20 77/241/20
f 68/242/49 77/243/49 66/244/49
f 77/243/49 68/242/49 78/245/49
f 70/246/50 78/247/50 68/248/51
f 78/247/50 70/246/50 71/249/50
f 71/250/52 73/251/52 78/252/52
f 73/251/52 71/250/52 72/253/52
f 74/254/53 78/255/53 73/256/53
f 78/255/53 74/254/53 77/257/53
f 75/258/53 77/257/53 74/254/53
f 77/257/53 75/258/53 76/259/53
f 22/260/54 79/261/54 46/262/54
f 79/261/54 22/260/54 27/263/54
f 24/264/55 27/265/55 22/266/55
f 27/265/55 24/264/55 26/267/55
f 27/268/56 44/269/56 79/270/56
f 44/269/56 27/268/56 38/271/56
f 27/272/57 36/273/57 38/274/57
f 36/273/57 27/272/57 30/275/57
f 30/276/30 35/277/30 36/278/30
f 35/277/30 30/276/30 31/279/30
f 80/280/30 35/277/30 31/279/30
f 35/277/30 80/280/30 81/281/30
f 82/282/58 81/283/58 80/284/58
f 81/283/58 82/282/58 83/285/58
f 84/286/53 83/287/53 82/288/53
f 83/287/53 84/286/53 85/289/53
f 84/290/59 86/291/59 85/292/59
f 86/291/59 84/290/59 87/293/59
f 82/294/60 87/295/60 84/296/60
f 87/295/60 82/294/60 80/297/60
f 80/298/61 32/299/61 87/300/61
f 32/299/61 80/298/61 31/301/61
f 34/104/24 87/302/24 32/102/24
f 87/302/24 34/104/24 86/303/24
f 34/304/62 81/305/62 86/306/62
f 81/305/62 34/304/62 35/307/62
f 83/308/63 86/309/63 81/310/63
f 86/309/63 83/308/63 85/311/63
f 88/312/53 79/313/53 44/314/53
f 79/313/53 88/312/53 89/315/53
f 90/316/53 89/315/53 88/312/53
f 89/315/53 90/316/53 91/317/53
f 92/318/64 91/319/64 90/320/64
f 91/319/64 92/318/64 93/321/64
f 92/322/30 94/323/30 93/324/30
f 94/323/30 92/322/30 95/325/30
f 90/326/65 95/327/65 92/328/65
f 95/327/65 90/326/65 96/329/65
f 90/330/66 97/331/66 96/332/66
f 97/331/66 90/330/66 88/333/66
f 88/334/25 45/335/25 97/336/25
f 45/335/25 88/334/25 44/337/25
f 45/338/37 98/339/37 97/340/37
f 98/339/37 45/338/37 46/341/37
f 46/342/20 89/343/20 98/344/20
f 89/343/20 46/342/20 79/345/20
f 91/346/67 98/347/67 89/348/67
f 98/347/67 91/346/67 99/349/67
f 91/350/68 94/351/68 99/352/68
f 94/351/68 91/350/68 93/353/68
f 94/354/69 96/355/69 99/356/69
f 96/355/69 94/354/69 95/357/69
f 97/340/37 99/358/37 96/359/37
f 99/358/37 97/340/37 98/339/37
f 42/118/25 38/115/25 100/360/25
f 100/360/25 38/115/25 39/114/25
f 40/116/25 100/360/25 39/114/25
f 100/360/25 40/116/25 42/118/25
