# Blender v2.78 (sub 0) OBJ File: ''
# www.blender.org
mtllib naturePack_076.mtl
o Mesh1_Group1_Model.054
v 1.732250 1.828710 -3.220000
v 2.827420 0.000001 -3.220000
v 2.520000 0.000001 -3.220000
v 1.732250 1.861200 -3.220000
v 1.680000 1.950001 -3.220000
v 1.732250 2.747130 -3.220000
v 2.520000 1.950001 -3.220000
v 3.360000 0.000001 -3.220000
v 2.747940 0.000001 -3.415050
v 1.627750 1.828710 -3.220000
v 1.732250 0.000001 -3.220000
v 1.627750 0.000001 -3.220000
v 1.627750 0.000001 -3.115500
v 1.732250 0.000001 -3.115500
v 1.732250 2.747130 -3.115499
v 1.680000 2.800000 -0.104500
v 1.732250 2.747130 -0.104500
v 1.732250 2.747130 0.000000
v 2.520000 1.950000 0.000000
v 1.732250 0.000000 0.000000
v 3.360000 0.000000 0.000000
v 3.185860 0.404243 -0.494903
v 3.185860 0.404243 -0.634903
v 3.130480 0.532821 -0.634903
v 3.060890 0.694356 -1.170540
v 3.060890 0.694356 -1.350540
v 2.989680 0.859670 -1.350540
v 2.989680 0.859670 -1.170540
v 2.879300 1.115910 -1.038880
v 2.879300 1.115910 -0.798876
v 3.130480 0.532821 -0.494903
v 2.974250 0.895487 -0.798876
v 2.974250 0.895487 -1.038880
v 1.732250 0.000000 -0.104500
v 1.627750 2.747130 -0.104500
v 1.627750 0.000000 -0.104500
v 1.627750 0.000000 0.000000
v 1.627750 2.747130 0.000000
v 1.680000 2.800000 0.000000
v 1.627750 2.884000 0.000000
v 1.732250 2.884000 0.000000
v 1.732250 2.884000 -0.104500
v 1.627750 2.884000 -0.104500
v 1.680000 2.800000 -3.115499
v 1.189030 2.303180 -1.630350
v 1.338960 2.454900 -2.158479
v 1.338960 2.454901 -2.408479
v 1.163240 2.277081 -2.408479
v 1.135390 2.248910 -2.641010
v 1.135390 2.248910 -2.831010
v 1.001840 2.113760 -2.831010
v 1.627750 2.747130 -3.115499
v 0.840000 1.950001 -3.220000
v 1.001840 2.113760 -2.641010
v 0.957069 2.068460 -1.960350
v 0.957069 2.068460 -1.630350
v 0.840000 1.950000 0.000000
v 0.000000 0.000000 0.000000
v 0.000000 0.000001 -3.220000
v 0.532575 0.000001 -3.220000
v 1.627750 1.861200 -3.220000
v 1.627750 2.747130 -3.220000
v 1.680000 2.800000 -3.220000
v 1.627750 2.884001 -3.115499
v 1.732250 2.884001 -3.115499
v 0.612065 0.000001 -3.415050
v 0.840000 0.000001 -3.220000
v 1.627750 2.884001 -3.220000
v 1.732250 2.884001 -3.220000
v 1.189030 2.303180 -1.960350
v 1.163240 2.277080 -2.158479
vt 24.9962 -35.0056
vt 19.4844 -29.4938
vt 19.4844 -35.0056
vt 24.9962 -29.4938
vt 53.1709 -22.5692
vt 46.0842 -15.4826
vt 46.0842 -22.5692
vt 53.1709 -15.4826
vt 31.4518 -4.4984
vt 40.9006 -13.9472
vt 40.9006 -4.4984
vt 31.4518 -13.9472
vt -77.1790 97.4011
vt -64.1869 84.4089
vt -64.1869 97.4011
vt -77.1790 84.4089
vt -84.9797 95.9564
vt -94.8222 105.7990
vt -94.8222 95.9564
vt -84.9797 105.7990
vt -111.4570 94.3967
vt -103.9770 86.9164
vt -103.9770 94.3967
vt -111.4570 86.9164
vt -68.1988 71.9963
vt -64.0846 71.9963
vt -66.1417 76.7717
vt -68.1988 0.0000
vt -64.0846 0.0000
vt -68.1988 126.7720
vt -64.0846 122.6570
vt -64.0846 126.7720
vt -68.1988 122.6570
vt 126.7720 0.0000
vt 122.6570 108.1550
vt 122.6570 0.0000
vt 126.7720 108.1550
vt 126.7720 71.9963
vt 126.7720 73.2757
vt 4.1142 0.0000
vt 0.0000 108.1550
vt 0.0000 0.0000
vt 4.1142 108.1550
vt -68.1988 0.0000
vt -64.0846 108.1550
vt -68.1988 108.1550
vt -64.0846 0.0000
vt -68.1988 4.1142
vt -64.0846 0.0000
vt -64.0846 4.1142
vt -68.1988 0.0000
vt -66.1417 110.2360
vt 66.1417 110.2360
vt 64.0846 113.5430
vt 64.0846 108.1550
vt 68.1988 113.5430
vt 68.1988 108.1550
vt 0.0000 113.5430
vt 4.1142 113.5430
vt -68.1988 113.5430
vt -64.0846 113.5430
vt 66.1417 110.2360
vt 64.0846 113.5430
vt 64.0846 108.1550
vt 68.1988 113.5430
vt 68.1988 108.1550
vt -126.7720 71.9963
vt -126.7720 108.1550
vt -126.7720 73.2757
vt -126.7720 0.0000
vt -122.6570 0.0000
vt -122.6570 108.1550
vt 64.0846 0.0000
vt 68.1988 0.0000
vt -126.7720 113.5430
vt -122.6570 113.5430
vt 68.1988 122.6570
vt 64.0846 126.7720
vt 64.0846 122.6570
vt 68.1988 126.7720
vt 122.6570 113.5430
vt 126.7720 113.5430
vt -66.1417 110.2360
vt -68.1988 113.5430
vt -68.1988 108.1550
vt -64.0846 113.5430
vt -64.0846 108.1550
vt -4.1142 108.1550
vt 0.0000 0.0000
vt 0.0000 108.1550
vt -4.1142 0.0000
vt -4.1142 113.5430
vt 0.0000 113.5430
vt 68.1988 0.0000
vt 64.0846 4.1142
vt 64.0846 0.0000
vt 68.1988 4.1142
vt -111.3160 0.0000
vt -99.2126 0.0000
vt -68.1988 73.2757
vt -99.2126 76.7717
vt -132.2830 0.0000
vt 83.6799 -72.2163
vt 91.6596 11.2321
vt 75.3875 -72.2163
vt 92.4359 15.2134
vt -169.6150 8.5800
vt -134.2400 83.3467
vt -132.6770 88.3059
vt -157.8040 8.5800
vt -111.3160 126.7720
vt -99.2126 126.7720
vt -108.1860 134.4510
vt 122.6570 28.9904
vt 126.7720 -15.1316
vt 126.7720 28.9904
vt 4.1142 31.9169
vt 4.1142 28.9904
vt 0.0000 28.9904
vt 0.0000 -15.1316
vt 68.1988 0.0000
vt 99.2126 76.7717
vt 132.2830 0.0000
vt 0.0000 -52.3345
vt 0.0000 31.2572
vt 126.7720 -52.3345
vt 126.7720 31.2572
vt 64.0846 0.0000
vt 0.0000 31.9169
vt -0.0000 121.9740
vt -4.1142 124.9000
vt -4.1142 121.9740
vt -0.0000 124.9000
vt -122.6570 124.9000
vt -122.6570 121.9740
vt -126.7720 77.8519
vt -0.0000 77.8519
vt 33.0709 76.7717
vt 0.0000 0.0000
vt -126.7720 83.5917
vt -0.0000 83.5917
vt -126.7720 0.0000
vt -33.0709 76.7717
vt -20.9675 0.0000
vt -0.0000 0.0000
vt -64.0846 73.2757
vt -126.7720 121.9740
vt -126.7720 124.9000
vt 122.6570 31.9169
vt 126.7720 31.9169
vt 33.7335 106.5430
vt 69.1082 31.7760
vt 32.1705 111.5020
vt 57.2972 31.7760
vt -33.0709 0.0000
vt -33.0709 126.7720
vt -20.9675 126.7720
vt -24.0970 134.4510
vt -141.5820 69.8472
vt -133.6030 -13.6012
vt -125.3100 -13.6012
vt -142.3590 73.8284
vn 0.9184 0.3956 0.0000
vn 0.9184 0.3956 0.0001
vn -0.7113 0.7029 0.0000
vn 0.0000 0.0000 -1.0000
vn 0.0000 -1.0000 -0.0000
vn 1.0000 -0.0000 0.0000
vn -0.0000 -0.0000 1.0000
vn -1.0000 -0.0000 0.0000
vn 0.0000 1.0000 0.0000
vn 0.8132 0.4785 -0.3314
vn 0.8132 0.4785 -0.3312
vn 0.8131 0.4785 -0.3315
vn -0.6261 -0.2697 -0.7316
vn 0.7113 0.7029 0.0000
vn -0.9184 0.3956 0.0000
vn 0.6261 -0.2697 -0.7316
vn -0.8132 0.4785 -0.3312
vn -0.8132 0.4785 -0.3314
vn -0.8131 0.4785 -0.3317
usemtl Leafs.020
s 1
f 23/1/1 31/2/2 22/3/1
f 31/2/2 23/1/1 24/4/1
f 26/5/1 28/6/1 25/7/1
f 28/6/1 26/5/1 27/8/1
f 30/9/1 33/10/1 29/11/1
f 33/10/1 30/9/1 32/12/1
f 70/13/3 56/14/3 45/15/3
f 56/14/3 70/13/3 55/16/3
f 71/17/3 47/18/3 48/19/3
f 47/18/3 71/17/3 46/20/3
f 50/21/3 54/22/3 49/23/3
f 54/22/3 50/21/3 51/24/3
usemtl Wood.048
f 1/25/4 10/26/4 5/27/4
f 11/28/4 10/26/4 1/25/4
f 10/26/4 11/28/4 12/29/4
f 11/30/5 13/31/5 12/32/5
f 13/31/5 11/30/5 14/33/5
f 11/34/6 15/35/6 14/36/6
f 15/35/6 11/34/6 6/37/6
f 6/37/6 11/34/6 1/38/6
f 6/37/6 1/38/6 4/39/6
f 34/40/6 18/41/6 20/42/6
f 18/41/6 34/40/6 17/43/6
f 34/44/4 35/45/4 17/46/4
f 35/45/4 34/44/4 36/47/4
f 34/48/5 37/49/5 36/50/5
f 37/49/5 34/48/5 20/51/5
f 17/46/4 35/45/4 16/52/4
f 39/53/7 40/54/7 38/55/7
f 40/54/7 39/53/7 41/56/7
f 41/56/7 39/53/7 18/57/7
f 17/43/6 41/58/6 18/41/6
f 41/58/6 17/43/6 42/59/6
f 16/52/4 42/60/4 17/46/4
f 42/60/4 16/52/4 43/61/4
f 43/61/4 16/52/4 35/45/4
f 44/62/7 64/63/7 52/64/7
f 64/63/7 44/62/7 65/65/7
f 65/65/7 44/62/7 15/66/7
f 10/67/8 62/68/8 61/69/8
f 12/70/8 62/68/8 10/67/8
f 13/71/8 62/68/8 12/70/8
f 62/68/8 13/71/8 52/72/8
f 13/73/7 15/66/7 52/64/7
f 15/66/7 13/73/7 14/74/7
f 52/64/7 15/66/7 44/62/7
f 52/72/8 68/75/8 62/68/8
f 68/75/8 52/72/8 64/76/8
f 65/77/9 68/78/9 64/79/9
f 68/78/9 65/77/9 69/80/9
f 65/81/6 6/37/6 69/82/6
f 6/37/6 65/81/6 15/35/6
f 63/83/4 69/84/4 6/85/4
f 69/84/4 63/83/4 68/86/4
f 68/86/4 63/83/4 62/87/4
f 35/88/8 37/89/8 38/90/8
f 37/89/8 35/88/8 36/91/8
f 38/90/8 43/92/8 35/88/8
f 43/92/8 38/90/8 40/93/8
f 41/94/9 43/95/9 40/96/9
f 43/95/9 41/94/9 42/97/9
usemtl Green_Roof.001
f 1/25/4 2/98/4 3/99/4
f 2/98/4 1/25/4 4/100/4
f 5/27/4 4/100/4 1/25/4
f 6/85/4 4/100/4 5/27/4
f 7/101/4 4/100/4 6/85/4
f 8/102/4 4/100/4 7/101/4
f 4/100/4 8/102/4 2/98/4
f 9/103/10 4/104/11 2/105/10
f 4/104/11 9/103/10 5/106/12
f 9/107/13 1/108/13 5/109/13
f 1/108/13 9/107/13 3/110/13
f 2/111/5 3/112/5 9/113/5
f 15/114/14 7/115/14 6/116/14
f 16/117/14 7/115/14 15/114/14
f 17/118/14 7/115/14 16/117/14
f 18/119/14 7/115/14 17/118/14
f 7/115/14 18/119/14 19/120/14
f 20/121/7 19/122/7 18/57/7
f 19/122/7 20/121/7 21/123/7
f 21/124/1 22/3/1 19/125/1
f 22/3/1 21/124/1 8/126/1
f 22/3/1 8/126/1 23/1/1
f 23/1/1 8/126/1 24/4/1
f 24/4/1 8/126/1 25/7/1
f 25/7/1 8/126/1 26/5/1
f 26/5/1 8/126/1 27/8/1
f 7/127/1 27/8/1 8/126/1
f 7/127/1 28/6/1 27/8/1
f 7/127/1 29/11/1 28/6/1
f 7/127/1 30/9/1 29/11/1
f 19/125/1 30/9/1 7/127/1
f 30/9/1 19/125/1 31/2/2
f 31/2/2 19/125/1 22/3/1
f 30/9/1 31/2/2 24/4/1
f 30/9/1 24/4/1 32/12/1
f 24/4/1 25/7/1 32/12/1
f 32/12/1 25/7/1 33/10/1
f 33/10/1 25/7/1 29/11/1
f 28/6/1 29/11/1 25/7/1
f 18/57/7 37/128/7 20/121/7
f 37/128/7 18/57/7 38/55/7
f 38/55/7 18/57/7 39/53/7
f 17/118/14 39/129/14 18/119/14
f 39/129/14 17/118/14 16/117/14
f 38/130/3 16/131/3 35/132/3
f 16/131/3 38/130/3 39/133/3
f 44/134/3 35/132/3 16/131/3
f 35/132/3 44/134/3 45/15/3
f 45/15/3 44/134/3 46/20/3
f 46/20/3 44/134/3 47/18/3
f 47/18/3 44/134/3 48/19/3
f 48/19/3 44/134/3 49/23/3
f 49/23/3 44/134/3 50/21/3
f 50/21/3 44/134/3 51/24/3
f 52/135/3 51/24/3 44/134/3
f 53/136/3 51/24/3 52/135/3
f 53/136/3 54/22/3 51/24/3
f 53/136/3 55/16/3 54/22/3
f 53/136/3 56/14/3 55/16/3
f 57/137/3 56/14/3 53/136/3
f 57/137/3 35/132/3 56/14/3
f 35/132/3 57/137/3 38/130/3
f 57/138/7 37/128/7 38/55/7
f 37/128/7 57/138/7 58/139/7
f 53/140/15 58/139/15 57/141/15
f 58/139/15 53/140/15 59/142/15
f 53/143/4 60/144/4 59/145/4
f 60/144/4 53/143/4 61/146/4
f 61/146/4 53/143/4 62/87/4
f 53/136/3 52/135/3 62/147/3
f 52/135/3 63/148/3 62/147/3
f 63/148/3 52/135/3 44/134/3
f 44/149/14 16/117/14 15/114/14
f 6/116/14 44/149/14 15/114/14
f 44/149/14 6/116/14 63/150/14
f 6/85/4 62/87/4 63/83/4
f 5/27/4 62/87/4 6/85/4
f 62/87/4 5/27/4 61/146/4
f 5/27/4 10/26/4 61/146/4
f 10/151/16 66/152/16 5/153/16
f 66/152/16 10/151/16 67/154/16
f 67/155/4 61/146/4 10/26/4
f 61/146/4 67/155/4 60/144/4
f 67/156/5 60/157/5 66/158/5
f 61/159/17 66/160/18 60/161/18
f 66/160/18 61/159/17 5/162/19
f 56/14/3 35/132/3 45/15/3
f 70/13/3 46/20/3 55/16/3
f 45/15/3 46/20/3 70/13/3
f 71/17/3 55/16/3 46/20/3
f 54/22/3 55/16/3 71/17/3
f 54/22/3 71/17/3 48/19/3
f 54/22/3 48/19/3 49/23/3
