# Blender v2.78 (sub 0) OBJ File: ''
# www.blender.org
mtllib naturePack_144.mtl
o Mesh1_Plate_River_Dirt_Model.003
v 3.000000 0.000000 0.000000
v 2.241300 0.150000 0.000000
v 0.000000 0.000000 0.000000
v 3.000000 0.300000 0.000000
v 3.000000 0.000000 -3.000000
v 3.000000 0.300000 -3.000000
v 0.000000 0.300000 -3.000000
v 0.000000 0.000000 -3.000000
v 0.000000 0.300000 0.000000
v 0.758698 0.150000 0.000000
v 0.877648 0.150000 -0.371864
v 1.121360 0.150000 -1.274920
v 1.573090 0.150000 -2.693600
v 2.241300 0.150000 -0.701031
v 2.360250 0.150000 -0.371864
v 2.241300 0.300000 -0.701031
v 2.360250 0.300000 -0.371864
v 2.241300 0.300000 0.000000
v 2.603960 0.300000 -1.274920
v 2.387470 0.300000 -2.387190
v 1.573090 0.300000 -2.693600
v 0.904869 0.300000 -2.387190
v 0.758698 0.300000 -1.924320
v 0.758698 0.300000 -0.701031
v 0.758698 0.300000 0.000000
v 0.877648 0.300000 -0.371864
v 0.758698 0.150000 -0.701031
v 1.121360 0.300000 -1.274920
v 0.758698 0.150000 -1.924320
v 0.904869 0.150000 -2.387190
v 2.387470 0.150000 -2.387190
v 2.241300 0.150000 -1.924320
v 2.603960 0.150000 -1.274920
v 2.241300 0.300000 -1.924320
vt 118.1100 0.0000
vt 92.9233 14.6403
vt 88.2402 -0.0000
vt 102.5180 50.1936
vt 118.1100 118.1100
vt 93.9950 93.9839
vt 61.9325 106.0470
vt 0.0000 118.1100
vt 35.6247 93.9839
vt 29.8700 75.7604
vt 29.8700 27.5996
vt 29.8700 0.0000
vt 0.0000 0.0000
vt 88.2402 27.5996
vt 88.2402 75.7604
vt 44.1479 50.1936
vt 34.5531 14.6403
vt 88.2402 -0.0000
vt 34.5531 14.6403
vt 29.8700 0.0000
vt 44.1479 50.1936
vt 61.9325 106.0470
vt 88.2402 27.5996
vt 92.9233 14.6403
vt 35.6247 93.9839
vt 29.8700 75.7604
vt 88.2402 75.7604
vt 93.9950 93.9839
vt 102.5180 50.1936
vt 29.8700 27.5996
vt 118.1100 0.0000
vt 88.2402 5.9055
vt 0.0000 0.0000
vt 118.1100 11.8110
vt 118.1100 0.0000
vt 0.0000 11.8110
vt 0.0000 0.0000
vt 118.1100 11.8110
vt -118.1100 -0.0000
vt -0.0000 11.8110
vt -118.1100 11.8110
vt -0.0000 -0.0000
vt -118.1100 118.1100
vt 0.0000 118.1100
vt -118.1100 0.0000
vt -118.1100 11.8110
vt -118.1100 0.0000
vt 0.0000 11.8110
vt 29.8700 5.9055
vt 17.8118 5.9055
vt 4.0323 11.8110
vt 4.0323 5.9055
vt 17.8118 11.8110
vt -26.8840 5.9055
vt -42.2550 11.8110
vt -42.2550 5.9055
vt -26.8840 11.8110
vt 88.2402 11.8110
vt 29.8700 11.8110
vt 24.4715 5.9055
vt 9.1004 11.8110
vt 9.1004 5.9055
vt 24.4715 11.8110
vt 15.8053 5.9055
vt 2.0258 11.8110
vt 2.0258 5.9055
vt 15.8053 11.8110
vt 66.0155 5.9055
vt 39.2882 11.8110
vt 39.2882 5.9055
vt 66.0155 11.8110
vt 51.5811 5.9055
vt 22.2976 11.8110
vt 22.2976 5.9055
vt 51.5811 11.8110
vt 100.3490 5.9055
vt 81.2386 11.8110
vt 81.2386 5.9055
vt 100.3490 11.8110
vt 71.5561 5.9055
vt 100.4980 11.8110
vt 71.5561 11.8110
vt 100.4980 5.9055
vt 20.6222 5.9055
vt 54.8789 11.8110
vt 20.6222 11.8110
vt 54.8789 5.9055
vt 6.1623 5.9055
vt -23.1211 11.8110
vt -23.1211 5.9055
vt 6.1623 11.8110
vt -70.4701 5.9055
vt -97.1973 11.8110
vt -97.1973 5.9055
vt -70.4701 11.8110
vt -117.9260 11.8110
vt -98.8157 5.9055
vt -98.8157 11.8110
vt -117.9260 5.9055
vn 0.0000 1.0000 0.0000
vn 0.0000 -0.0000 1.0000
vn 1.0000 0.0000 0.0000
vn 0.0000 0.0000 -1.0000
vn 0.0000 -1.0000 -0.0000
vn -1.0000 0.0000 0.0000
vn -0.9405 -0.0000 0.3399
vn -0.9525 0.0000 -0.3047
vn 0.9525 0.0000 0.3047
vn 0.9405 0.0000 -0.3399
vn 0.8454 -0.0000 0.5342
vn 0.8731 0.0000 -0.4876
vn 0.9536 0.0000 0.3011
vn 0.4168 0.0000 0.9090
vn -0.3521 0.0000 0.9359
vn -0.8731 0.0000 0.4876
vn -0.8454 -0.0000 -0.5342
vn -0.9536 0.0000 -0.3011
usemtl Leafs.050
s 1
f 4/1/1 17/2/1 18/3/1
f 17/2/1 4/1/1 19/4/1
f 6/5/1 19/4/1 4/1/1
f 6/5/1 20/6/1 19/4/1
f 6/5/1 21/7/1 20/6/1
f 7/8/1 21/7/1 6/5/1
f 7/8/1 22/9/1 21/7/1
f 7/8/1 23/10/1 22/9/1
f 7/8/1 24/11/1 23/10/1
f 7/8/1 25/12/1 24/11/1
f 25/12/1 7/8/1 9/13/1
f 19/4/1 16/14/1 17/2/1
f 19/4/1 20/6/1 34/15/1
f 28/16/1 23/10/1 24/11/1
f 26/17/1 24/11/1 25/12/1
usemtl Water.010
f 2/18/1 11/19/1 10/20/1
f 11/19/1 2/18/1 12/21/1
f 12/21/1 2/18/1 13/22/1
f 13/22/1 2/18/1 14/23/1
f 15/24/1 14/23/1 2/18/1
f 30/25/1 12/21/1 13/22/1
f 12/21/1 30/25/1 29/26/1
f 13/22/1 32/27/1 31/28/1
f 13/22/1 14/23/1 32/27/1
f 33/29/1 32/27/1 14/23/1
f 12/21/1 27/30/1 11/19/1
usemtl Stone.044
f 1/31/2 2/32/2 3/33/2
f 2/32/2 1/31/2 4/34/2
f 5/35/3 4/36/3 1/37/3
f 4/36/3 5/35/3 6/38/3
f 5/39/4 7/40/4 6/41/4
f 7/40/4 5/39/4 8/42/4
f 5/43/5 3/33/5 8/44/5
f 3/33/5 5/43/5 1/45/5
f 3/33/6 7/46/6 8/47/6
f 7/46/6 3/33/6 9/48/6
f 3/33/2 10/49/2 9/48/2
f 10/49/2 3/33/2 2/32/2
f 15/50/7 16/51/7 14/52/7
f 16/51/7 15/50/7 17/53/7
f 2/54/8 17/55/8 15/56/8
f 17/55/8 2/54/8 18/57/8
f 2/32/2 4/34/2 18/58/2
f 9/48/2 10/49/2 25/59/2
f 11/60/9 25/61/9 10/62/9
f 25/61/9 11/60/9 26/63/9
f 27/64/10 26/65/10 11/66/10
f 26/65/10 27/64/10 24/67/10
f 12/68/11 24/69/11 27/70/11
f 24/69/11 12/68/11 28/71/11
f 29/72/12 28/73/12 12/74/12
f 28/73/12 29/72/12 23/75/12
f 30/76/13 23/77/13 29/78/13
f 23/77/13 30/76/13 22/79/13
f 30/80/14 21/81/14 22/82/14
f 21/81/14 30/80/14 13/83/14
f 13/84/15 20/85/15 21/86/15
f 20/85/15 13/84/15 31/87/15
f 33/88/16 34/89/16 32/90/16
f 34/89/16 33/88/16 19/91/16
f 14/92/17 19/93/17 33/94/17
f 19/93/17 14/92/17 16/95/17
f 20/96/18 32/97/18 34/98/18
f 32/97/18 20/96/18 31/99/18
