# Blender v2.78 (sub 0) OBJ File: ''
# www.blender.org
mtllib naturePack_152.mtl
o Mesh1_Group1_Model.068
v 0.822724 0.000000 -1.805000
v 0.082272 0.000000 -0.522500
v 0.082272 0.000000 -1.377500
v 0.822724 0.000000 -0.095000
v 1.563180 0.000000 -1.377500
v 0.822724 0.250000 -1.900000
v 1.645450 0.250000 -1.425000
v 0.822724 0.680000 -1.643500
v 1.423310 0.680000 -1.296750
v 1.423310 0.680000 -0.603250
v 0.822724 0.680000 -0.256500
v 0.222136 0.680000 -1.296750
v 0.222136 0.680000 -0.603250
v 0.000000 0.250000 -1.425000
v 0.000000 0.250000 -0.475000
v 0.822724 0.250000 0.000000
v 1.645450 0.250000 -0.475000
v 1.563180 0.000000 -0.522500
vt -32.3907 71.0630
vt -3.2391 20.5709
vt -3.2391 54.2323
vt -32.3907 3.7402
vt -61.5424 54.2323
vt 9.3504 34.6624
vt -26.1811 24.3006
vt 7.4803 24.3006
vt -28.0512 34.6624
vt 4.3012 -9.3666
vt -28.0512 -28.4212
vt 9.3504 -28.4212
vt -23.0020 -9.3666
vt 32.3907 64.7047
vt 56.0359 23.7500
vt 56.0359 51.0531
vt 32.3907 10.0984
vt 8.7455 51.0531
vt 8.7455 23.7500
vt -56.1024 8.7446
vt -23.7500 27.7992
vt -51.0531 27.7992
vt -18.7008 8.7446
vt -56.1024 9.3493
vt -20.5709 -1.0125
vt -18.7008 9.3493
vt -54.2323 -1.0125
vt -28.0512 24.5372
vt -63.5827 14.1754
vt -29.9213 14.1754
vt -65.4528 24.5372
vt -33.1004 5.4997
vt -65.4528 -13.5549
vt -28.0512 -13.5549
vt -60.4035 5.4997
vt -7.4803 -6.0752
vt 28.0512 4.2866
vt -9.3504 4.2866
vt 26.1811 -6.0752
vt 29.9213 4.0501
vt 65.4528 14.4119
vt 28.0512 14.4119
vt 63.5827 4.0501
vt -61.5424 20.5709
vt 56.1024 29.5998
vt 20.5709 19.2380
vt 54.2323 19.2380
vt 18.7008 29.5998
vt 56.1024 -20.9881
vt 23.7500 -1.9334
vt 18.7008 -20.9881
vt 51.0531 -1.9334
vt 60.4035 20.3661
vt 28.0512 1.3114
vt 65.4528 1.3114
vt 33.1004 20.3661
vt 23.0020 35.2324
vt -9.3504 16.1778
vt 28.0512 16.1778
vt -4.3012 35.2324
vn 0.0000 -1.0000 -0.0000
vn 0.4749 -0.3126 -0.8226
vn 0.4442 0.4590 -0.7694
vn 0.0000 1.0000 0.0000
vn -0.8885 0.4590 0.0000
vn -0.9499 -0.3126 -0.0000
vn -0.4749 -0.3126 -0.8226
vn -0.4442 0.4590 -0.7694
vn -0.4749 -0.3126 0.8226
vn 0.4749 -0.3126 0.8226
vn 0.9499 -0.3126 -0.0000
vn 0.8884 0.4590 0.0000
vn 0.4442 0.4590 0.7694
vn -0.4442 0.4590 0.7694
usemtl Stone.045
s 1
f 1/1/1 2/2/1 3/3/1
f 2/2/1 1/1/1 4/4/1
f 4/4/1 1/1/1 5/5/1
f 6/6/2 5/7/2 1/8/2
f 5/7/2 6/6/2 7/9/2
f 8/10/3 7/11/3 6/12/3
f 7/11/3 8/10/3 9/13/3
f 8/14/4 10/15/4 9/16/4
f 8/14/4 11/17/4 10/15/4
f 12/18/4 11/17/4 8/14/4
f 11/17/4 12/18/4 13/19/4
f 14/20/5 13/21/5 12/22/5
f 13/21/5 14/20/5 15/23/5
f 14/24/6 2/25/6 15/26/6
f 2/25/6 14/24/6 3/27/6
f 14/28/7 1/29/7 3/30/7
f 1/29/7 14/28/7 6/31/7
f 12/32/8 6/33/8 14/34/8
f 6/33/8 12/32/8 8/35/8
f 2/36/9 16/37/9 15/38/9
f 16/37/9 2/36/9 4/39/9
f 4/40/10 17/41/10 16/42/10
f 17/41/10 4/40/10 18/43/10
f 4/4/1 5/5/1 18/44/1
f 7/45/11 18/46/11 5/47/11
f 18/46/11 7/45/11 17/48/11
f 7/49/12 10/50/12 17/51/12
f 10/50/12 7/49/12 9/52/12
f 10/53/13 16/54/13 17/55/13
f 16/54/13 10/53/13 11/56/13
f 11/57/14 15/58/14 16/59/14
f 15/58/14 11/57/14 13/60/14
