# Blender v2.78 (sub 0) OBJ File: ''
# www.blender.org
mtllib naturePack_054.mtl
o Mesh1_Group1_Model.043
v 0.329808 1.450000 -0.075000
v 0.199904 0.000000 0.000000
v 0.329808 0.000000 -0.075000
v 0.199904 1.450000 0.000000
v 0.199904 1.450000 -0.300000
v 0.070000 1.450000 -0.225000
v 0.070000 1.450000 -0.075000
v 0.070000 0.000000 -0.075000
v 0.070000 0.000000 -0.225000
v 0.097936 0.635000 -0.241129
v 0.199904 0.000000 -0.300000
v 0.171968 0.635000 -0.283871
v 0.127065 0.635000 -0.361645
v 0.053034 0.635000 -0.318903
v 0.070436 0.725000 -0.288760
v 0.097936 0.725000 -0.241129
v 0.171968 0.725000 -0.283871
v 0.329808 0.000000 -0.225000
v 0.329808 1.450000 -0.225000
v 0.199904 1.510000 -0.036000
v 0.101177 1.510000 -0.093000
v 0.101177 1.510000 -0.207000
v 0.199904 1.510000 -0.264000
v 0.298631 1.510000 -0.093000
v 0.298631 1.510000 -0.207000
v 0.144468 0.725000 -0.331502
v 0.144468 0.975000 -0.331502
v 0.101968 0.975000 -0.405115
v 0.101968 0.685195 -0.405115
v 0.027936 0.685195 -0.362373
v 0.027936 0.975000 -0.362373
v 0.070436 0.975000 -0.288760
vt 12.7213 57.0866
vt 6.8158 0.0000
vt 12.7213 0.0000
vt 6.8158 57.0866
vt 7.8702 11.8110
vt 7.8702 0.0000
vt 12.9846 2.9528
vt 2.7559 8.8583
vt 2.7559 2.9528
vt -8.8583 57.0866
vt -2.9528 0.0000
vt -2.9528 57.0866
vt -8.8583 0.0000
vt -8.0858 25.0000
vt -6.8158 0.0000
vt -6.8158 57.0866
vt -12.7213 0.0000
vt -11.4513 25.0000
vt -3.8558 9.4933
vt -5.0026 14.2380
vt -6.7704 11.1760
vt -2.0879 12.5552
vt -6.2935 25.0000
vt -8.4589 28.5433
vt -9.8292 25.0000
vt -6.2935 28.5433
vt -8.0858 28.5433
vt -11.4513 28.5433
vt -12.7213 57.0866
vt -0.9103 57.0866
vt -6.8158 -0.0000
vt -0.9103 -0.0000
vt -6.8158 57.0866
vt 12.9846 8.8583
vt 2.9528 57.0866
vt 8.8583 0.0000
vt 8.8583 57.0866
vt 2.9528 0.0000
vt -7.8702 0.0000
vt -12.9846 8.8583
vt -12.9846 2.9528
vt -7.8702 11.8110
vt -2.7559 2.9528
vt -2.7559 8.8583
vt 0.9103 0.0000
vt 0.9103 57.0866
vt 6.1072 55.1327
vt 0.9103 52.4706
vt 6.8158 52.4706
vt 1.6190 55.1327
vt 7.8702 1.4173
vt 3.9833 8.1496
vt 3.9833 3.6614
vt 7.8702 10.3937
vt 11.7571 3.6614
vt 6.8158 48.8418
vt 12.0127 51.5038
vt 7.5245 51.5038
vt 12.7213 48.8418
vt 8.8583 44.6692
vt 3.6614 47.3313
vt 2.9528 44.6692
vt 8.1496 47.3313
vt -6.8158 44.1255
vt -1.6190 46.7876
vt -6.1072 46.7876
vt -0.9103 44.1255
vt -12.7213 47.7543
vt -7.5245 50.4164
vt -12.0127 50.4164
vt -6.8158 47.7543
vt -8.8583 51.9269
vt -3.6614 54.5890
vt -8.1496 54.5890
vt -2.9528 51.9269
vt 11.7571 8.1496
vt 9.8292 25.0000
vt 6.2935 28.5433
vt 6.2935 25.0000
vt 8.4589 28.5433
vt 8.4589 38.3858
vt 11.8053 38.3858
vt 11.8053 26.9762
vt -8.0858 24.6279
vt -11.4513 27.4227
vt -11.4513 24.6279
vt -8.0858 27.4227
vt -11.8053 38.3858
vt -11.8053 26.9762
vt -8.4589 38.3858
vt 8.0858 28.5433
vt 11.4513 38.3858
vt 8.0858 38.3858
vt 11.4513 28.5433
vt 3.8558 9.4933
vt 5.6877 13.0513
vt 2.7731 11.3685
vt 6.7704 11.1760
vt 4.0145 15.9494
vt 2.7731 11.3685
vt 5.6877 13.0513
vt 1.0999 14.2666
vt -11.4513 26.9762
vt -8.0858 38.3858
vt -11.4513 38.3858
vt -8.0858 26.9762
vn 0.5000 -0.0000 0.8660
vn 0.0000 1.0000 0.0000
vn -1.0000 0.0000 0.0000
vn -0.5000 0.0000 -0.8660
vn 0.0000 -1.0000 -0.0000
vn -0.8660 -0.0000 0.5000
vn 0.5000 0.0000 -0.8660
vn 1.0000 -0.0000 0.0000
vn -0.5000 -0.0000 0.8660
vn -0.4437 0.4611 0.7685
vn 0.4437 0.4611 0.7685
vn 0.8874 0.4611 0.0000
vn 0.4437 0.4611 -0.7685
vn -0.4437 0.4611 -0.7685
vn -0.8874 0.4611 0.0000
vn 0.8660 0.0000 -0.5000
vn -0.3536 -0.7071 -0.6124
usemtl Green_leafs.023
s 1
f 1/1/1 2/2/1 3/3/1
f 2/2/1 1/1/1 4/4/1
f 5/5/2 4/6/2 1/7/2
f 6/8/2 4/6/2 5/5/2
f 4/6/2 6/8/2 7/9/2
f 6/10/3 8/11/3 7/12/3
f 8/11/3 6/10/3 9/13/3
f 10/14/4 9/15/4 6/16/4
f 9/15/4 10/14/4 11/17/4
f 11/17/4 10/14/4 12/18/4
f 10/19/5 13/20/5 12/21/5
f 13/20/5 10/19/5 14/22/5
f 10/23/6 15/24/6 14/25/6
f 15/24/6 10/23/6 16/26/6
f 10/14/4 6/16/4 16/27/4
f 16/27/4 6/16/4 17/28/4
f 5/29/4 17/28/4 6/16/4
f 5/29/4 12/18/4 17/28/4
f 12/18/4 5/29/4 11/17/4
f 5/30/7 18/31/7 11/32/7
f 18/31/7 5/30/7 19/33/7
f 5/5/2 1/7/2 19/34/2
f 1/35/8 18/36/8 19/37/8
f 18/36/8 1/35/8 3/38/8
f 2/39/5 18/40/5 3/41/5
f 2/39/5 11/42/5 18/40/5
f 8/43/5 11/42/5 2/39/5
f 11/42/5 8/43/5 9/44/5
f 4/4/9 8/45/9 2/2/9
f 8/45/9 4/4/9 7/46/9
f 20/47/10 7/48/10 4/49/10
f 7/48/10 20/47/10 21/50/10
f 20/51/2 22/52/2 21/53/2
f 22/52/2 20/51/2 23/54/2
f 23/54/2 20/51/2 24/55/2
f 4/56/11 24/57/11 20/58/11
f 24/57/11 4/56/11 1/59/11
f 19/60/12 24/61/12 1/62/12
f 24/61/12 19/60/12 25/63/12
f 19/64/13 23/65/13 25/66/13
f 23/65/13 19/64/13 5/67/13
f 5/68/14 22/69/14 23/70/14
f 22/69/14 5/68/14 6/71/14
f 6/72/15 21/73/15 22/74/15
f 21/73/15 6/72/15 7/75/15
f 23/54/2 24/55/2 25/76/2
f 13/77/16 17/78/16 12/79/16
f 17/78/16 13/77/16 26/80/16
f 26/80/16 13/77/16 27/81/16
f 27/81/16 13/77/16 28/82/16
f 28/82/16 13/77/16 29/83/16
f 14/84/17 29/85/17 13/86/17
f 29/85/17 14/84/17 30/87/17
f 14/25/6 31/88/6 30/89/6
f 15/24/6 31/88/6 14/25/6
f 31/88/6 15/24/6 32/90/6
f 15/91/1 27/92/1 32/93/1
f 27/92/1 15/91/1 26/94/1
f 16/95/2 26/96/2 15/97/2
f 26/96/2 16/95/2 17/98/2
f 28/99/2 32/100/2 27/101/2
f 32/100/2 28/99/2 31/102/2
f 29/103/4 31/104/4 28/105/4
f 31/104/4 29/103/4 30/106/4
