# Blender v2.78 (sub 0) OBJ File: ''
# www.blender.org
mtllib naturePack_031.mtl
o Mesh1_Tall_Rock_3_Model
v 1.434140 0.560000 -0.552000
v 0.796743 0.000000 0.000000
v 1.593490 0.000000 -0.460000
v 0.796743 0.560000 -0.184000
v 1.332150 0.920000 -0.596160
v 0.796743 0.920000 -0.287040
v 1.171530 1.970000 -0.628896
v 0.796743 1.970000 -0.412512
v 0.967061 1.970000 -0.998049
v 0.767868 1.970000 -0.752337
v 0.741895 1.970000 -0.894036
v 1.040050 0.920000 -1.123520
v 0.718388 0.920000 -0.974932
v 1.064450 0.920000 -1.368960
v 0.681284 0.920000 -1.177360
v 1.115440 0.560000 -1.472000
v 0.659291 0.560000 -1.243900
v 0.796743 0.560000 -1.656000
v 0.159349 0.560000 -1.288000
v 0.796743 0.000000 -1.840000
v 0.000000 0.000000 -1.380000
v 0.000000 0.000000 -0.460000
v 1.593490 0.000000 -1.380000
v 1.434140 0.560000 -1.288000
v 1.332150 0.920000 -1.214400
v 1.332150 0.920000 -0.896416
v 1.171530 1.970000 -0.839075
v 0.159349 0.560000 -0.552000
v 0.261332 0.920000 -0.596160
v 0.421955 1.970000 -0.628896
v 0.421955 1.970000 -0.752337
v 0.755492 0.920000 -0.772504
v 0.261332 0.920000 -0.772504
v 0.747635 0.560000 -0.761934
v 0.159349 0.560000 -0.761934
vt 5.4331 1.4600
vt -23.5433 1.4600
vt -27.1654 -21.4624
vt 9.0551 -21.4624
vt 31.3678 16.2406
vt 30.2310 29.6196
vt 16.6124 29.6196
vt 16.6124 24.7597
vt 19.0450 80.2093
vt 2.0069 80.2093
vt -2.8252 38.6500
vt 21.5150 38.6500
vt 38.0733 39.2933
vt 46.1233 24.7597
vt 29.2085 35.1983
vt -23.4709 37.6534
vt -30.4136 37.6534
vt -29.9974 22.9224
vt -21.7323 22.9224
vt 41.9074 53.8961
vt 40.9470 44.2331
vt 52.4470 35.2920
vt 52.4470 47.8110
vt -29.4345 22.9182
vt -6.2736 22.9182
vt -10.2887 37.0975
vt -29.7438 37.0975
vt 31.3678 65.1969
vt 25.9564 48.9726
vt 43.9150 57.9528
vt 6.2736 50.7087
vt 23.5433 27.2149
vt -5.4331 27.2149
vt -9.0551 4.2925
vt 27.1654 4.2925
vt -31.3678 72.4409
vt 0.0000 18.1102
vt 0.0000 54.3307
vt -24.7597 79.1792
vt -29.6196 79.1792
vt -30.4136 37.3598
vt -23.4709 37.3598
vt 21.5150 41.2846
vt -2.8252 41.2846
vt -5.4331 26.6825
vt 23.5433 26.6825
vt -9.0551 1.4600
vt -29.7438 35.6298
vt -10.2887 35.6298
vt -16.6124 76.9760
vt -30.2310 76.9760
vt -55.7220 34.2894
vt -41.7722 34.2894
vt -41.2767 75.7579
vt -51.0416 75.7579
vt 46.1233 33.0345
vt -24.5526 36.5017
vt -23.6837 77.8416
vt -29.3554 77.8416
vt -32.6549 36.5017
vt 23.4709 20.5541
vt 50.7087 5.8231
vt 35.2920 20.5541
vt 21.7323 5.8231
vt -63.3858 -12.8774
vt -27.1654 -12.8774
vt -30.7874 10.0450
vt -59.7638 10.0450
vt -31.3678 0.0000
vt -62.7357 54.3307
vt -62.7357 18.1102
vt 47.8110 20.5541
vt 59.7638 18.6300
vt 30.7874 18.6300
vt 27.1654 -4.2925
vt 63.3858 -4.2925
vt 57.1559 33.7377
vt 32.8157 33.7377
vt 30.7874 19.1355
vt 59.7638 19.1355
vt 29.4345 29.9974
vt 6.2736 29.9974
vt -24.5526 37.1369
vt -32.6549 37.1369
vt -43.4903 22.9586
vt -24.1990 22.9586
vt 52.3238 76.9804
vt 35.2857 76.9804
vt 32.8157 35.4210
vt 57.1559 35.4210
vt 21.7323 5.7525
vt 18.1102 -17.1699
vt 54.3307 -17.1699
vt 50.7087 5.7525
vt -65.1972 15.5592
vt -45.1185 15.5592
vt -44.7212 29.9930
vt -61.5873 29.9930
vt 26.8222 46.3527
vt 28.2830 38.3831
vt -5.9393 69.4583
vt -16.1361 69.4583
vt -19.7428 27.7335
vt -5.1759 27.7335
vt -40.7573 37.1369
vt -54.3307 0.0000
vt -50.7087 22.9224
vt -18.1102 0.0000
vt -9.3449 13.9747
vt -21.5150 13.9747
vt -23.5433 -0.9009
vt -9.0551 -0.9009
vt 24.7597 69.6926
vt 23.4709 27.8732
vt 35.2920 27.8732
vt 33.0345 69.6926
vn 0.4809 0.2737 -0.8330
vn 0.4787 0.2888 -0.8291
vn 0.0000 1.0000 0.0000
vn -0.4973 0.1029 0.8614
vn -0.4925 0.1722 0.8531
vn -0.9772 0.2123 0.0000
vn -0.9772 0.2121 0.0000
vn -0.9619 0.2733 0.0000
vn -0.9620 0.2732 0.0000
vn 0.0000 -0.0293 -0.9996
vn -0.0000 -0.0051 -1.0000
vn 0.0000 -0.0048 -1.0000
vn -0.4832 0.2572 0.8369
vn -0.4809 0.2737 0.8330
vn -0.0000 -1.0000 -0.0000
vn -0.9885 0.1512 0.0000
vn 0.4767 0.3427 -0.8095
vn 0.0000 0.0192 -0.9998
vn -0.4180 0.0791 -0.9050
vn -0.9835 0.0175 0.1803
vn -0.9836 0.0081 0.1803
vn -0.9835 0.0174 0.1803
vn 0.9772 0.2123 0.0000
vn 0.9620 0.2732 0.0000
vn 0.9772 0.2122 -0.0000
vn -0.4809 0.2737 -0.8330
vn 0.9621 0.2726 0.0000
vn 0.4832 0.2572 0.8369
vn 0.4809 0.2737 0.8330
vn 0.4925 0.1722 0.8531
vn -0.9833 0.0268 0.1802
vn 0.4973 0.1029 0.8614
vn 0.9618 0.2737 0.0000
vn -0.4392 0.1892 -0.8783
vn 0.6081 0.1357 -0.7822
vn -0.9618 0.2737 0.0000
vn 0.4764 0.3037 -0.8251
vn 0.9885 0.1512 0.0000
usemtl Stone.010
s 1
f 18/1/1 24/2/2 23/3/1 20/4/1
f 8/5/3 10/6/3 31/7/3 30/8/3
f 8/9/4 30/10/4 29/11/5 6/12/5
f 9/13/3 8/5/3 7/14/3
f 9/13/3 10/6/3 8/5/3
f 10/6/3 9/13/3 11/15/3
f 29/16/6 33/17/7 35/18/8 28/19/9
f 14/20/3 12/21/3 26/22/3 25/23/3
f 34/24/10 35/25/10 33/26/11 32/27/12
f 18/28/3 17/29/3 16/30/3
f 17/29/3 18/28/3 19/31/3
f 4/32/13 28/33/13 22/34/14 2/35/14
f 20/36/15 22/37/15 21/38/15
f 30/39/16 31/40/16 33/41/7 29/42/6
f 6/43/5 29/44/5 28/45/13 4/46/13
f 24/2/2 18/1/1 16/47/17
f 32/48/12 33/49/11 31/50/18 10/51/18
f 12/52/19 13/53/19 11/54/19 9/55/19
f 9/13/3 7/14/3 27/56/3
f 32/57/20 10/58/21 11/59/21 13/60/22
f 5/61/23 24/62/24 26/63/25
f 24/62/24 5/61/23 1/64/24
f 20/65/26 21/66/26 19/67/26 18/68/26
f 2/69/15 23/70/15 3/71/15
f 26/63/25 24/62/24 25/72/27
f 1/73/28 4/74/28 2/75/29 3/76/29
f 5/77/30 6/78/30 4/79/28 1/80/28
f 34/81/3 17/29/3 19/31/3 35/82/3
f 32/83/20 13/84/22 17/85/31 34/86/31
f 7/87/32 8/88/32 6/89/30 5/90/30
f 1/91/24 3/92/33 23/93/33 24/94/24
f 16/95/34 17/96/34 15/97/34 14/98/34
f 14/20/3 15/99/3 13/100/3 12/21/3
f 9/101/35 27/102/35 26/103/35 12/104/35
f 17/85/31 13/84/22 15/105/31
f 21/106/36 35/18/8 19/107/36
f 21/106/36 28/19/9 35/18/8
f 28/19/9 21/106/36 22/108/36
f 14/109/37 25/110/37 24/111/2 16/112/17
f 7/113/38 5/114/23 26/115/25 27/116/38
f 20/36/15 23/70/15 2/69/15 22/37/15
