# Blender v2.78 (sub 0) OBJ File: ''
# www.blender.org
mtllib naturePack_080.mtl
o Mesh1_Group1_Model.057
v 0.798649 0.210000 -0.333900
v 0.458993 0.000000 0.000000
v 0.917987 0.000000 -0.265000
v 0.458993 0.210000 -0.137800
v 0.798649 0.590000 -0.333900
v 0.458993 0.590000 -0.137800
v 0.458993 0.590000 -0.250668
v 0.217085 0.590000 -0.390334
v 0.119338 0.590000 -0.333900
v 0.119338 0.590000 -0.726100
v 0.217085 0.590000 -0.669666
v 0.458993 0.590000 -0.922200
v 0.458993 0.590000 -0.809332
v 0.217085 0.510000 -0.669666
v 0.458993 0.510000 -0.809332
v 0.458993 0.510000 -0.250668
v 0.217085 0.510000 -0.390334
v 0.700902 0.510000 -0.390334
v 0.700902 0.590000 -0.390334
v 0.700902 0.590000 -0.669666
v 0.798649 0.590000 -0.726100
v 0.700902 0.510000 -0.669666
v 0.738704 0.404851 -0.760709
v 0.738704 0.264851 -0.760709
v 0.798649 0.210000 -0.726100
v 0.617460 0.264851 -0.830709
v 0.458993 0.210000 -0.922200
v 0.119338 0.210000 -0.726100
v 0.458993 0.000000 -1.060000
v 0.000000 0.000000 -0.795000
v 0.000000 0.000000 -0.265000
v 0.917987 0.000000 -0.795000
v 0.119338 0.210000 -0.333900
v 0.119338 0.499801 -0.424099
v 0.119338 0.499801 -0.635901
v 0.119338 0.300199 -0.635901
v 0.119338 0.300199 -0.424099
v 0.009338 0.322155 -0.447397
v 0.009338 0.477845 -0.447397
v 0.009338 0.477845 -0.612603
v 0.009338 0.322155 -0.612603
v -0.100662 0.322155 -0.447397
v -0.100662 0.322155 -0.612603
v -0.100662 0.477845 -0.612603
v -0.100662 0.477845 -0.447397
v 0.617460 0.404851 -0.830709
v 0.721253 0.383151 -0.967083
v 0.804911 0.383151 -0.918783
v 0.804911 0.286551 -0.918783
v 0.721253 0.286551 -0.967083
vt 33.8031 5.0454
vt 15.6496 -4.4641
vt 36.5157 -4.4641
vt 18.3622 5.0454
vt 33.8031 23.2283
vt 18.3622 8.2677
vt 33.8031 8.2677
vt 18.3622 23.2283
vt 18.0706 9.8688
vt 18.0706 5.4252
vt 31.4429 13.1457
vt 8.5467 15.3675
vt 4.6984 13.1457
vt 4.6984 28.5866
vt 8.5467 26.3648
vt 18.0706 36.3071
vt 18.0706 31.8635
vt 27.5946 15.3675
vt 27.5946 26.3648
vt 31.4429 28.5866
vt -12.9370 23.2283
vt -10.2119 15.9390
vt 2.5039 23.2283
vt -10.2119 10.4272
vt -12.9370 8.2677
vt -4.7001 10.4272
vt 2.5039 8.2677
vt -33.8031 8.2677
vt -18.3622 23.2283
vt -33.8031 23.2283
vt -18.3622 8.2677
vt -36.5157 -13.3923
vt -18.3622 -3.8828
vt -33.8031 -3.8828
vt -15.6496 -13.3923
vt -18.0706 41.7323
vt 0.0000 10.4331
vt 0.0000 31.2992
vt -18.0706 0.0000
vt -36.1412 31.2992
vt 2.5039 -12.8110
vt -15.6496 -22.3205
vt 5.2165 -22.3205
vt -12.9370 -12.8110
vt 13.1457 -8.3469
vt 31.2992 -17.8564
vt 28.5866 -8.3469
vt 10.4331 -17.8564
vt -36.1412 10.4331
vt 28.5866 8.2677
vt 13.1457 23.2283
vt 13.1457 8.2677
vt 28.5866 23.2283
vt 12.9370 13.9735
vt -5.2165 4.4641
vt 15.6496 4.4641
vt -2.5039 13.9735
vt 12.9370 23.2283
vt -2.5039 8.2677
vt 12.9370 8.2677
vt -2.5039 23.2283
vt -13.1457 23.2283
vt -16.6968 19.6772
vt -13.1457 8.2677
vt -28.5866 23.2283
vt -25.0355 19.6772
vt -25.0355 11.8189
vt -28.5866 8.2677
vt -16.6968 11.8189
vt 1.1367 19.6772
vt -3.2901 12.6833
vt 1.1367 11.8189
vt -3.2901 18.8128
vt -16.6968 8.4591
vt -24.1182 4.0430
vt -17.6141 4.0430
vt -25.0355 8.4591
vt -9.7839 19.6772
vt -5.3571 12.6833
vt -5.3571 18.8128
vt -9.7839 11.8189
vt -25.0355 -2.2940
vt -17.6141 2.1221
vt -24.1182 2.1221
vt -16.6968 -2.2940
vt 3.9631 17.6141
vt -0.3677 24.1182
vt -0.3677 17.6141
vt 3.9631 24.1182
vt -17.6141 12.6833
vt -24.1182 18.8128
vt -24.1182 12.6833
vt -17.6141 18.8128
vt -3.9631 12.6833
vt 0.3677 18.8128
vt -3.9631 18.8128
vt 0.3677 12.6833
vt 0.3677 17.6141
vt -3.9631 24.1182
vt -3.9631 17.6141
vt 0.3677 24.1182
vt -0.3677 12.6833
vt 3.9631 18.8128
vt -0.3677 18.8128
vt 3.9631 12.6833
vt -31.2992 -0.0000
vt -13.1457 9.5094
vt -28.5866 9.5094
vt -10.4331 -0.0000
vt -4.7001 15.9390
vt -10.2119 -38.1342
vt -5.5544 -44.8814
vt -4.7001 -38.1342
vt -9.3575 -44.8814
vt 38.8593 15.9390
vt 45.6066 11.2815
vt 45.6066 15.0847
vt 38.8593 10.4272
vt -10.2119 41.4727
vt -5.5544 48.2199
vt -9.3575 48.2199
vt -4.7001 41.4727
vt -40.7475 15.9390
vt -47.4947 11.2815
vt -40.7475 10.4272
vt -47.4947 15.0847
vt -5.5544 15.0847
vt -9.3575 11.2815
vt -5.5544 11.2815
vt -9.3575 15.0847
vt 20.5840 20.0787
vt 31.5813 23.2283
vt 20.5840 23.2283
vt 31.5813 20.0787
vt 8.5467 26.3648
vt 18.0706 9.8688
vt 18.0706 31.8635
vt 8.5467 15.3675
vt 26.3648 20.0787
vt 15.3675 23.2283
vt 15.3675 20.0787
vt 26.3648 23.2283
vt 0.2821 23.2283
vt -10.7152 20.0787
vt 0.2821 20.0787
vt -10.7152 23.2283
vt -20.5840 23.2283
vt -31.5813 20.0787
vt -20.5840 20.0787
vt -31.5813 23.2283
vt -0.2821 20.0787
vt 10.7152 23.2283
vt -0.2821 23.2283
vt 10.7152 20.0787
vt 27.5946 15.3675
vt 27.5946 26.3648
vt -15.3675 20.0787
vt -26.3648 23.2283
vt -26.3648 20.0787
vt -15.3675 23.2283
vn 0.4347 0.4941 0.7529
vn 0.5000 -0.0000 0.8660
vn -0.0000 1.0000 0.0000
vn 0.5000 -0.0000 -0.8660
vn -0.5000 0.0000 -0.8660
vn -0.4347 0.4941 -0.7529
vn -0.0000 -1.0000 -0.0000
vn 0.4347 0.4941 -0.7529
vn 0.8694 0.4941 0.0000
vn 1.0000 0.0000 0.0000
vn -0.4347 0.4941 0.7529
vn -0.5000 -0.0000 0.8660
vn -1.0000 0.0000 0.0000
vn -0.2072 -0.0000 0.9783
vn -0.1957 0.9807 0.0000
vn -0.2072 0.0000 -0.9783
vn -0.1957 -0.9807 0.0000
vn 0.0000 -0.0000 1.0000
vn 0.0000 0.0000 -1.0000
vn -0.8694 0.4941 0.0000
vn 0.0633 0.9920 -0.1097
vn 0.9224 0.0000 0.3863
vn 0.0633 -0.9920 -0.1097
vn -0.7957 0.0000 -0.6056
usemtl Wood.051
s 1
f 1/1/1 2/2/1 3/3/1
f 2/2/1 1/1/1 4/4/1
f 5/5/2 4/6/2 1/7/2
f 4/6/2 5/5/2 6/8/2
f 7/9/3 6/10/3 5/11/3
f 8/12/3 6/10/3 7/9/3
f 8/12/3 9/13/3 6/10/3
f 9/13/3 8/12/3 10/14/3
f 11/15/3 10/14/3 8/12/3
f 10/14/3 11/15/3 12/16/3
f 12/16/3 11/15/3 13/17/3
f 7/9/3 5/11/3 19/18/3
f 19/18/3 5/11/3 20/19/3
f 21/20/3 20/19/3 5/11/3
f 12/16/3 20/19/3 21/20/3
f 12/16/3 13/17/3 20/19/3
f 21/21/4 23/22/4 12/23/4
f 21/21/4 24/24/4 23/22/4
f 25/25/4 24/24/4 21/21/4
f 24/24/4 25/25/4 26/26/4
f 27/27/4 26/26/4 25/25/4
f 26/26/4 27/27/4 12/23/4
f 27/28/5 10/29/5 12/30/5
f 10/29/5 27/28/5 28/31/5
f 29/32/6 28/33/6 27/34/6
f 28/33/6 29/32/6 30/35/6
f 29/36/7 31/37/7 30/38/7
f 31/37/7 29/36/7 2/39/7
f 2/39/7 29/36/7 32/40/7
f 27/41/8 32/42/8 29/43/8
f 32/42/8 27/41/8 25/44/8
f 1/45/9 32/46/9 25/47/9
f 32/46/9 1/45/9 3/48/9
f 2/39/7 32/40/7 3/49/7
f 25/50/10 5/51/10 1/52/10
f 5/51/10 25/50/10 21/53/10
f 4/54/11 31/55/11 2/56/11
f 31/55/11 4/54/11 33/57/11
f 6/58/12 33/59/12 4/60/12
f 33/59/12 6/58/12 9/61/12
f 9/62/13 34/63/13 33/64/13
f 34/63/13 9/62/13 10/65/13
f 34/63/13 10/65/13 35/66/13
f 35/66/13 10/65/13 36/67/13
f 28/68/13 36/67/13 10/65/13
f 28/68/13 37/69/13 36/67/13
f 33/64/13 37/69/13 28/68/13
f 37/69/13 33/64/13 34/63/13
f 34/70/14 38/71/14 37/72/14
f 38/71/14 34/70/14 39/73/14
f 34/74/15 40/75/15 39/76/15
f 40/75/15 34/74/15 35/77/15
f 35/78/16 41/79/16 40/80/16
f 41/79/16 35/78/16 36/81/16
f 36/82/17 38/83/17 41/84/17
f 38/83/17 36/82/17 37/85/17
f 42/86/7 41/87/7 38/88/7
f 41/87/7 42/86/7 43/89/7
f 42/90/13 44/91/13 43/92/13
f 44/91/13 42/90/13 45/93/13
f 42/94/18 39/95/18 45/96/18
f 39/95/18 42/94/18 38/97/18
f 39/98/3 44/99/3 45/100/3
f 44/99/3 39/98/3 40/101/3
f 41/102/19 44/103/19 40/104/19
f 44/103/19 41/102/19 43/105/19
f 30/106/20 33/107/20 28/108/20
f 33/107/20 30/106/20 31/109/20
f 26/26/4 12/23/4 46/110/4
f 46/110/4 12/23/4 23/22/4
f 23/111/21 47/112/21 46/113/21
f 47/112/21 23/111/21 48/114/21
f 23/115/22 49/116/22 48/117/22
f 49/116/22 23/115/22 24/118/22
f 24/119/23 50/120/23 49/121/23
f 50/120/23 24/119/23 26/122/23
f 46/123/24 50/124/24 26/125/24
f 50/124/24 46/123/24 47/126/24
f 47/127/4 49/128/4 50/129/4
f 49/128/4 47/127/4 48/130/4
usemtl Light_Wood.002
f 14/131/2 13/132/2 11/133/2
f 13/132/2 14/131/2 15/134/2
f 14/135/3 16/136/3 15/137/3
f 16/136/3 14/135/3 17/138/3
f 14/139/10 8/140/10 17/141/10
f 8/140/10 14/139/10 11/142/10
f 8/143/4 16/144/4 17/145/4
f 16/144/4 8/143/4 7/146/4
f 7/147/5 18/148/5 16/149/5
f 18/148/5 7/147/5 19/150/5
f 15/151/12 20/152/12 13/153/12
f 20/152/12 15/151/12 22/154/12
f 15/137/3 18/155/3 22/156/3
f 15/137/3 16/136/3 18/155/3
f 18/157/13 20/158/13 22/159/13
f 20/158/13 18/157/13 19/160/13
