# Blender v2.78 (sub 0) OBJ File: ''
# www.blender.org
mtllib naturePack_055.mtl
o Mesh1_Group1_Model.044
v 0.638731 1.867650 -0.469808
v 0.610459 1.783050 -0.349562
v 0.565459 1.783050 -0.427504
v 0.683731 1.867650 -0.391865
v 0.638731 2.223050 -0.469808
v 0.683731 2.223050 -0.391865
v 0.592798 2.223050 -0.339365
v 0.547798 2.223050 -0.417308
v 0.547798 1.893050 -0.417308
v 0.456865 1.893050 -0.364808
v 0.456865 1.783050 -0.364808
v 0.501865 1.783050 -0.286865
v 0.501865 1.893050 -0.286865
v 0.592798 1.893050 -0.339365
v 0.436865 2.320000 -0.399449
v 0.521865 2.320000 -0.252224
v 0.436865 0.000000 -0.399449
v 0.521865 0.000000 -0.252224
v 0.436865 2.320000 -0.105000
v 0.436865 0.000000 -0.105000
v 0.266865 0.000000 -0.105000
v 0.266865 2.320000 -0.105000
v 0.266865 2.320000 -0.399449
v 0.181865 2.320000 -0.252224
v 0.285565 2.370000 -0.367059
v 0.219265 2.370000 -0.252224
v 0.285565 2.370000 -0.137389
v 0.246865 0.841572 -0.139641
v 0.246865 0.729736 -0.139641
v 0.181865 0.000000 -0.252224
v 0.201865 0.729736 -0.217583
v 0.126564 0.729736 -0.070185
v 0.081564 0.729736 -0.148127
v 0.065000 0.800824 -0.034641
v 0.020000 0.800824 -0.112583
v 0.020000 1.501570 -0.112583
v 0.065000 1.501570 -0.034641
v 0.155933 0.841572 -0.087141
v 0.201865 0.841572 -0.217583
v 0.110933 0.841572 -0.165083
v 0.201865 1.468600 -0.286865
v 0.246865 1.468600 -0.364808
v 0.246865 1.368600 -0.364808
v 0.266865 0.000000 -0.399449
v 0.201865 1.368600 -0.286865
v 0.106228 1.368600 -0.342082
v 0.054641 1.428160 -0.371865
v 0.128253 1.468600 -0.329365
v 0.173253 1.468600 -0.407308
v 0.099641 1.428160 -0.449808
v 0.151228 1.368600 -0.420024
v 0.054641 2.018600 -0.371865
v 0.099641 2.018600 -0.449808
v 0.128253 2.018600 -0.329365
v 0.173253 2.018600 -0.407308
v 0.418165 2.370000 -0.367059
v 0.418165 2.370000 -0.137389
v 0.484465 2.370000 -0.252224
v 0.110933 1.501570 -0.165083
v 0.155933 1.501570 -0.087141
vt 3.4449 73.9321
vt -0.0984 69.2213
vt 3.4449 69.2213
vt -0.0984 73.9321
vt 3.4449 87.5215
vt -0.0984 73.5297
vt 3.4449 73.5297
vt -0.0984 87.5215
vt 25.1469 18.4964
vt 23.3385 13.3608
vt 26.9185 15.4278
vt 21.5669 16.4294
vt -31.0260 87.5215
vt -26.8922 74.5294
vt -26.8922 87.5215
vt -31.0260 73.5297
vt -22.7583 74.5294
vt -27.6950 70.1987
vt -22.7583 70.1987
vt -22.2621 16.8309
vt -19.7585 11.2939
vt -17.9868 14.3625
vt -24.0338 13.7623
vt 31.0260 73.5297
vt 22.7583 70.1987
vt 27.6950 70.1987
vt 22.7583 74.5294
vt 26.8922 74.5294
vt 31.0260 87.5215
vt 26.8922 87.5215
vt -3.4449 87.5215
vt 0.0984 74.5294
vt 0.0984 87.5215
vt -3.4449 74.5294
vt 21.5669 16.4294
vt 19.7585 11.2939
vt 23.3385 13.3608
vt 17.9868 14.3625
vt 5.0197 91.3386
vt -0.0984 74.5294
vt 3.4449 74.5294
vt -1.6732 91.3386
vt -0.0984 70.1987
vt 5.0197 -0.0000
vt -1.6732 -0.0000
vt 12.1797 91.3386
vt 18.8727 0.0000
vt 18.8727 91.3386
vt 12.1797 0.0000
vt 17.1994 91.3386
vt 10.5065 0.0000
vt 17.1994 0.0000
vt 10.5065 91.3386
vt 10.5065 15.7263
vt 10.5065 4.1339
vt 17.1994 4.1339
vt 7.1600 9.9301
vt -12.1797 77.3315
vt -18.1364 79.6770
vt -18.8727 77.3315
vt -12.9160 79.6770
vt -5.0197 82.7303
vt 0.9370 85.0758
vt -4.2835 85.0758
vt 1.6732 82.7303
vt 0.0984 33.1328
vt 1.6732 91.3386
vt -5.0197 91.3386
vt 1.6732 -0.0000
vt 0.0984 28.7297
vt -5.0197 -0.0000
vt -3.4449 28.7297
vt -4.9828 2.7632
vt -7.9475 8.5663
vt -9.7191 5.4977
vt -3.2112 5.8318
vt 0.0984 20.2447
vt -3.4449 16.2867
vt 0.0984 16.2867
vt -3.4449 20.2447
vt 0.0984 31.5285
vt -3.4449 59.1170
vt -3.4449 31.5285
vt 0.0984 59.1170
vt 2.8981 31.5285
vt 7.0320 33.1328
vt 2.8981 59.1170
vt 11.1658 33.1328
vt 5.6969 28.7297
vt 11.1658 28.7297
vt 7.9475 8.5663
vt 6.1391 3.4307
vt 9.7191 5.4977
vt 4.3674 6.4993
vt -11.1658 33.1328
vt -2.8981 31.5285
vt -7.0320 33.1328
vt -11.1658 28.7297
vt -5.6969 28.7297
vt -3.4449 33.1328
vt -12.1797 91.3386
vt -13.7545 57.8187
vt -12.1797 0.0000
vt -18.8727 91.3386
vt -17.2978 57.8187
vt -17.2978 53.8817
vt -18.8727 0.0000
vt -13.7545 53.8817
vt 1.2357 57.8187
vt -3.1120 53.8817
vt 1.2357 53.8817
vt -5.4572 56.2269
vt -2.1107 57.8187
vt 7.9475 11.2939
vt 6.8210 16.0357
vt 5.0493 12.9671
vt 9.7191 14.3625
vt -1.2357 57.8187
vt 5.4572 56.2269
vt 2.1107 57.8187
vt -1.2357 53.8817
vt 3.1120 53.8817
vt -7.9475 11.2939
vt -5.9538 16.5364
vt -9.7191 14.3625
vt -4.1822 13.4678
vt -13.7545 40.3006
vt -17.2978 43.6172
vt -17.2978 40.3006
vt -13.7545 43.6172
vt -13.7545 79.4723
vt -17.2978 56.2269
vt -13.7545 56.2269
vt -17.2978 79.4723
vt 5.0493 12.9671
vt 3.9229 17.7090
vt 2.1512 14.6404
vt 6.8210 16.0357
vt 13.7545 79.4723
vt 17.2978 57.8187
vt 17.2978 79.4723
vt 13.7545 57.8187
vt -5.4572 79.4723
vt -2.1107 79.4723
vt 5.4572 79.4723
vt 2.1107 79.4723
vt -10.5065 15.7263
vt -10.5065 4.1339
vt -7.1600 9.9301
vt -17.1994 4.1339
vt -17.1994 15.7263
vt -10.5065 91.3386
vt -17.1994 0.0000
vt -10.5065 0.0000
vt -17.1994 91.3386
vt -11.2427 70.4550
vt -17.1994 68.1096
vt -10.5065 68.1096
vt -16.4632 70.4550
vt 11.2427 14.4512
vt 16.4632 5.4090
vt 16.4632 14.4512
vt 11.2427 5.4090
vt 8.6325 9.9301
vt 10.5065 78.9072
vt 16.4632 81.2526
vt 11.2427 81.2526
vt 17.1994 78.9072
vt 18.8727 69.6852
vt 12.9160 72.0306
vt 12.1797 69.6852
vt 18.1364 72.0306
vt 5.0197 64.2864
vt -0.9370 66.6318
vt -1.6732 64.2864
vt 4.2835 66.6318
vt 19.0734 9.9301
vt 17.1994 15.7263
vt 20.5459 9.9301
vt 3.4449 70.1987
vt -20.5459 9.9301
vt -2.8981 59.1170
vt -7.0320 59.1170
vt 2.5591 1.3638
vt 4.3674 6.4993
vt 0.7874 4.4324
vt 6.1391 3.4307
vt 7.0320 59.1170
vt 3.4449 33.1328
vt -0.0984 59.1170
vt -0.0984 33.1328
vt 3.4449 59.1170
vn 0.6123 -0.7071 -0.3535
vn 0.8660 0.0000 -0.5000
vn 0.0000 1.0000 0.0000
vn -0.5000 0.0000 -0.8660
vn -0.0000 -1.0000 -0.0000
vn 0.5000 -0.0000 0.8660
vn -0.8660 0.0000 0.5000
vn 0.8660 0.0000 -0.5001
vn 0.8660 -0.0000 0.5000
vn 0.0000 -0.0000 1.0000
vn -0.7268 0.5437 -0.4196
vn -0.7268 0.5437 0.4196
vn -0.6124 -0.7071 0.3536
vn -0.8660 0.0000 -0.5000
vn -0.5000 -0.0000 0.8660
vn 0.5000 0.0000 -0.8660
vn -0.6123 -0.7072 -0.3535
vn -0.6123 -0.7071 -0.3535
vn 0.0000 0.0000 -1.0000
vn 0.0000 0.5437 -0.8393
vn 0.0000 0.5437 0.8393
vn 0.7268 0.5437 0.4196
vn 0.7268 0.5437 -0.4196
usemtl Green_leafs.024
s 1
f 1/1/1 2/2/1 3/3/1
f 2/2/1 1/1/1 4/4/1
f 5/5/2 4/6/2 1/7/2
f 4/6/2 5/5/2 6/8/2
f 5/9/3 7/10/3 6/11/3
f 7/10/3 5/9/3 8/12/3
f 5/13/4 9/14/4 8/15/4
f 1/16/4 9/14/4 5/13/4
f 1/16/4 10/17/4 9/14/4
f 3/18/4 10/17/4 1/16/4
f 10/17/4 3/18/4 11/19/4
f 3/20/5 12/21/5 11/22/5
f 12/21/5 3/20/5 2/23/5
f 4/24/6 12/25/6 2/26/6
f 12/25/6 4/24/6 13/27/6
f 13/27/6 4/24/6 14/28/6
f 6/29/6 14/28/6 4/24/6
f 14/28/6 6/29/6 7/30/6
f 8/31/7 14/32/7 7/33/7
f 14/32/7 8/31/7 9/34/7
f 9/35/3 13/36/3 14/37/3
f 13/36/3 9/35/3 10/38/3
f 15/39/2 13/40/2 10/41/2
f 16/42/2 13/40/2 15/39/2
f 13/40/2 16/42/2 12/43/8
f 16/42/2 17/44/2 12/43/8
f 17/44/2 16/42/2 18/45/2
f 19/46/9 18/47/9 16/48/9
f 18/47/9 19/46/9 20/49/9
f 19/50/10 21/51/10 20/52/10
f 21/51/10 19/50/10 22/53/10
f 23/54/3 22/55/3 19/56/3
f 22/55/3 23/54/3 24/57/3
f 24/58/11 25/59/11 23/60/11
f 25/59/11 24/58/11 26/61/11
f 24/62/12 27/63/12 26/64/12
f 27/63/12 24/62/12 22/65/12
f 28/66/7 22/67/7 24/68/7
f 22/67/7 28/66/7 21/69/7
f 29/70/7 21/69/7 28/66/7
f 21/69/7 29/70/7 30/71/7
f 30/71/7 29/70/7 31/72/7
f 32/73/5 31/74/5 29/75/5
f 31/74/5 32/73/5 33/76/5
f 34/77/13 33/78/13 32/79/13
f 33/78/13 34/77/13 35/80/13
f 34/81/7 36/82/7 35/83/7
f 36/82/7 34/81/7 37/84/7
f 34/85/6 38/86/6 37/87/6
f 34/85/6 28/88/6 38/86/6
f 32/89/6 28/88/6 34/85/6
f 28/88/6 32/89/6 29/90/6
f 39/91/3 38/92/3 28/93/3
f 38/92/3 39/91/3 40/94/3
f 39/95/4 35/96/4 40/97/4
f 31/98/4 35/96/4 39/95/4
f 35/96/4 31/98/4 33/99/4
f 39/100/7 24/68/7 31/72/7
f 28/66/7 24/68/7 39/100/7
f 30/71/7 31/72/7 24/68/7
f 24/101/14 41/102/14 30/103/14
f 41/102/14 24/101/14 23/104/14
f 41/102/14 23/104/14 42/105/14
f 42/105/14 23/104/14 43/106/14
f 44/107/14 43/106/14 23/104/14
f 44/107/14 45/108/14 43/106/14
f 30/103/14 45/108/14 44/107/14
f 45/108/14 30/103/14 41/102/14
f 41/109/15 46/110/15 45/111/15
f 46/110/15 41/109/15 47/112/15
f 47/112/15 41/109/15 48/113/15
f 41/114/3 49/115/3 48/116/3
f 49/115/3 41/114/3 42/117/3
f 42/118/16 50/119/16 49/120/16
f 43/121/16 50/119/16 42/118/16
f 50/119/16 43/121/16 51/122/16
f 45/123/5 51/124/5 43/125/5
f 51/124/5 45/123/5 46/126/5
f 46/127/17 50/128/17 51/129/17
f 50/128/17 46/127/17 47/130/18
f 52/131/14 50/132/14 47/133/14
f 50/132/14 52/131/14 53/134/14
f 54/135/3 53/136/3 52/137/3
f 53/136/3 54/135/3 55/138/3
f 54/139/9 49/140/9 55/141/9
f 49/140/9 54/139/9 48/142/9
f 52/143/15 48/113/15 54/144/15
f 47/112/15 48/113/15 52/143/15
f 49/120/16 53/145/16 55/146/16
f 53/145/16 49/120/16 50/119/16
f 44/147/5 21/148/5 30/149/5
f 21/148/5 44/147/5 20/150/5
f 20/150/5 44/147/5 17/151/5
f 23/152/19 17/153/19 44/154/19
f 17/153/19 23/152/19 15/155/19
f 25/156/20 15/157/20 23/158/20
f 15/157/20 25/156/20 56/159/20
f 25/160/3 57/161/3 56/162/3
f 25/160/3 27/163/3 57/161/3
f 27/163/3 25/160/3 26/164/3
f 22/165/21 57/166/21 27/167/21
f 57/166/21 22/165/21 19/168/21
f 16/169/22 57/170/22 19/171/22
f 57/170/22 16/169/22 58/172/22
f 15/173/23 58/174/23 16/175/23
f 58/174/23 15/173/23 56/176/23
f 56/162/3 57/161/3 58/177/3
f 15/178/3 19/56/3 16/179/3
f 23/54/3 19/56/3 15/178/3
f 15/39/2 10/41/2 17/44/2
f 11/180/2 17/44/2 10/41/2
f 12/43/8 17/44/2 11/180/2
f 20/150/5 17/151/5 18/181/5
f 36/182/4 40/97/4 35/96/4
f 40/97/4 36/182/4 59/183/4
f 37/184/3 59/185/3 36/186/3
f 59/185/3 37/184/3 60/187/3
f 37/87/6 38/86/6 60/188/6
f 40/189/2 60/190/2 38/191/2
f 60/190/2 40/189/2 59/192/2
