# Blender v2.78 (sub 0) OBJ File: ''
# www.blender.org
mtllib naturePack_172.mtl
o Mesh1_Group1_Model.085
v 1.697390 0.480000 -2.322790
v 2.415960 0.260000 -2.549530
v 1.697390 0.260000 -2.322790
v 2.415960 0.480000 -2.549530
v 1.657950 0.810000 -2.092220
v 2.218430 0.810000 -2.269080
v 2.117360 0.810000 -0.563999
v 1.291060 0.810000 -0.280449
v 0.646199 0.810000 -0.852311
v 0.595113 0.810000 -1.921880
v 0.464547 0.810000 -1.525530
v 0.334784 0.480000 -2.104400
v 0.166991 0.645000 -1.108660
v 0.000000 0.480000 -1.088120
v 0.000000 0.260000 -1.088120
v 0.334784 0.260000 -2.104400
v 1.661530 0.000000 -2.113180
v 0.571446 0.000000 -1.938480
v 1.285240 0.000000 -0.254953
v 0.303619 0.000000 -1.125450
v 1.227020 0.260000 0.000000
v 1.227020 0.480000 0.000000
v 2.286390 0.480000 -0.363526
v 2.286390 0.260000 -0.363526
v 2.132730 0.000000 -0.545774
v 2.236390 0.000000 -2.294580
v 2.732570 0.000000 -1.740200
v 3.036190 0.260000 -1.856560
v 3.036190 0.480000 -1.856560
v 2.702210 0.810000 -1.728570
v 2.337870 0.810000 -1.156070
v 2.569090 0.480000 -1.122590
v 2.569090 0.260000 -1.122590
v 2.358890 0.000000 -1.153030
vt -91.2479 18.8976
vt -120.9130 10.2362
vt -91.2479 10.2362
vt -120.9130 18.8976
vt -87.0353 -4.4357
vt -120.9130 -19.7934
vt -91.2479 -19.7934
vt -110.1740 -4.4357
vt 65.2736 82.3710
vt 83.3607 22.2047
vt 87.3398 89.3340
vt 50.8291 11.0413
vt 25.4409 33.5556
vt 23.4296 75.6647
vt 18.2893 60.0604
vt -82.8147 4.8038
vt -62.7673 22.4783
vt -79.1964 22.4783
vt -43.5134 13.6410
vt -40.6887 4.8038
vt -82.8147 18.8976
vt -40.6887 10.2362
vt -40.6887 18.8976
vt -82.8147 10.2362
vt -26.1256 18.8976
vt -80.4563 10.2362
vt -26.1256 10.2362
vt -80.4563 18.8976
vt -35.1085 -13.0795
vt -80.4563 -28.7251
vt -26.1256 -28.7251
vt -77.4864 -13.0795
vt -77.7564 43.9513
vt -26.1256 56.8966
vt -80.4563 56.8966
vt -34.2918 43.9513
vt -50.5999 10.0375
vt -22.4979 76.3179
vt -65.4147 83.1963
vt -11.9535 44.3092
vt 36.1433 -13.5284
vt -20.4553 -27.1788
vt 31.1983 -27.1788
vt -28.4237 -13.5284
vt 36.1433 10.2362
vt -28.4237 18.8976
vt -28.4237 10.2362
vt 36.1433 18.8976
vt 45.6926 10.2362
vt 89.7870 18.8976
vt 45.6926 18.8976
vt 89.7870 10.2362
vt 51.1183 4.5026
vt 89.7870 17.9691
vt 45.6926 17.9691
vt 86.3939 4.5026
vt -83.9656 21.4872
vt -88.0468 90.3378
vt -91.2479 47.7456
vt -111.1500 35.0884
vt -87.4183 35.0884
vt -120.9130 47.7456
vt 11.3578 111.3670
vt -20.6978 95.6229
vt 8.5935 95.6229
vt -25.2563 111.3670
vt 11.3578 10.2362
vt -25.2563 18.8976
vt -25.2563 10.2362
vt 11.3578 18.8976
vt 11.3578 -84.7909
vt -20.2420 -66.2993
vt -25.2563 -84.7909
vt 8.3171 -66.2993
vt 92.0421 45.5145
vt 106.3860 68.0538
vt 49.9025 -13.8198
vt 76.7185 -29.6194
vt 74.7765 -13.8198
vt 44.8287 -29.6194
vt 86.0546 22.0198
vt 45.6926 5.8507
vt 89.7870 5.8507
vt 51.6609 22.0198
vt -3.2293 50.8350
vt 36.1433 34.4804
vt 30.7037 50.8350
vt -24.0411 42.6577
vt -28.4237 34.4804
vt -25.7694 43.0091
vt -53.2221 43.0091
vt -40.4281 26.1237
vt 44.8287 18.8976
vt 76.7185 10.2362
vt 76.7185 18.8976
vt 44.8287 10.2362
vt 49.4413 44.4179
vt 76.7185 57.5168
vt 44.8287 57.5168
vt 74.9531 44.4179
vt -92.8697 45.3947
vt -107.5820 68.5119
vt 125.8430 45.0082
vt 88.1591 32.2442
vt 115.5610 32.2442
vt 91.5913 45.0082
vt 125.8430 10.2362
vt 91.5913 18.8976
vt 91.5913 10.2362
vt 125.8430 18.8976
vt 125.8430 -17.5342
vt 87.8158 -2.0699
vt 91.5913 -17.5342
vt 114.5320 -2.0699
vt -82.8147 16.7775
vt -45.8245 1.8293
vt -40.6887 16.7775
vt -79.5253 1.8293
vn -0.3009 0.0000 -0.9537
vn -0.3009 0.0000 -0.9536
vn -0.2546 0.5332 -0.8067
vn -0.2546 0.5332 -0.8068
vn 0.0000 1.0000 0.0000
vn -0.6982 0.6780 -0.2300
vn -0.9498 0.0000 -0.3129
vn -0.1583 0.0000 -0.9874
vn -0.1314 0.5572 -0.8199
vn -0.1251 -0.6122 -0.7808
vn -0.0000 -1.0000 -0.0000
vn -0.4975 -0.6616 0.5611
vn -0.6635 0.0000 0.7482
vn 0.3246 -0.0000 0.9459
vn 0.2467 -0.6498 0.7190
vn -0.2434 -0.5882 -0.7712
vn 0.4845 -0.7598 -0.4336
vn 0.7451 0.0000 -0.6669
vn 0.5235 0.7116 -0.4686
vn 0.7706 0.5691 0.2870
vn 0.7706 0.5690 0.2870
vn 0.2608 0.5953 0.7600
vn -0.5271 0.6074 0.5944
vn -0.5271 0.6074 0.5943
vn -0.3714 0.9230 0.1002
vn 0.9371 -0.0000 0.3490
vn 0.7323 -0.6240 0.2727
vn 0.6766 -0.5974 0.4306
vn 0.8436 -0.0000 0.5369
vn 0.7088 0.5424 0.4511
vn -0.6504 -0.7287 -0.2143
vn -0.6504 -0.7288 -0.2143
usemtl Stone.052
s 1
f 1/1/1 2/2/1 3/3/2
f 2/2/1 1/1/1 4/4/1
f 5/5/3 4/6/4 1/7/3
f 4/6/4 5/5/3 6/8/4
f 5/9/5 7/10/5 6/11/5
f 5/9/5 8/12/5 7/10/5
f 5/9/5 9/13/5 8/12/5
f 10/14/5 9/13/5 5/9/5
f 9/13/5 10/14/5 11/15/5
f 12/16/6 11/17/6 10/18/6
f 12/16/6 13/19/6 11/17/6
f 13/19/6 12/16/6 14/20/6
f 12/21/7 15/22/7 14/23/7
f 15/22/7 12/21/7 16/24/7
f 12/25/8 3/26/8 16/27/8
f 3/26/8 12/25/8 1/28/8
f 10/29/9 1/30/9 12/31/9
f 1/30/9 10/29/9 5/32/9
f 17/33/10 16/34/10 3/35/10
f 16/34/10 17/33/10 18/36/10
f 19/37/11 18/38/11 17/39/11
f 18/38/11 19/37/11 20/40/11
f 21/41/12 20/42/12 19/43/12
f 20/42/12 21/41/12 15/44/12
f 21/45/13 14/46/13 15/47/13
f 14/46/13 21/45/13 22/48/13
f 21/49/14 23/50/14 22/51/14
f 23/50/14 21/49/14 24/52/14
f 19/53/15 24/54/15 21/55/15
f 24/54/15 19/53/15 25/56/15
f 19/37/11 17/39/11 25/57/11
f 25/57/11 17/39/11 26/58/11
f 3/59/16 26/60/16 17/61/16
f 26/60/16 3/59/16 2/62/16
f 2/63/17 27/64/17 26/65/17
f 27/64/17 2/63/17 28/66/17
f 2/67/18 29/68/18 28/69/18
f 29/68/18 2/67/18 4/70/18
f 4/71/19 30/72/19 29/73/19
f 30/72/19 4/71/19 6/74/19
f 6/11/5 31/75/5 30/76/5
f 6/11/5 7/10/5 31/75/5
f 7/77/20 32/78/20 31/79/21
f 32/78/20 7/77/20 23/80/20
f 7/81/22 22/82/22 23/83/22
f 22/82/22 7/81/22 8/84/22
f 9/85/23 22/86/23 8/87/23
f 13/88/23 22/86/23 9/85/23
f 22/86/23 13/88/23 14/89/24
f 9/90/25 11/91/25 13/92/25
f 23/93/26 33/94/26 32/95/26
f 33/94/26 23/93/26 24/96/26
f 25/97/27 33/98/27 24/99/27
f 33/98/27 25/97/27 34/100/27
f 25/57/11 26/58/11 34/101/11
f 34/101/11 26/58/11 27/102/11
f 28/103/28 34/104/28 27/105/28
f 34/104/28 28/103/28 33/106/28
f 28/107/29 32/108/29 33/109/29
f 32/108/29 28/107/29 29/110/29
f 29/111/30 31/112/30 32/113/30
f 31/112/30 29/111/30 30/114/30
f 16/115/31 20/116/31 15/117/32
f 20/116/31 16/115/31 18/118/31
