# Blender v2.78 (sub 0) OBJ File: ''
# www.blender.org
mtllib naturePack_111.mtl
o Mesh1_Mushroom_Red_Model
v 0.298431 0.315900 -0.159830
v 0.102290 0.000000 -0.121072
v 0.337190 0.000000 -0.121072
v 0.141048 0.315900 -0.159830
v 0.298431 0.315900 -0.317213
v 0.141048 0.315900 -0.317213
v 0.102290 0.000000 -0.355972
v 0.337190 0.000000 -0.355972
v 0.217459 0.315900 -0.502200
v 0.000000 0.315900 -0.125550
v 0.000000 0.315900 -0.376650
v 0.217459 0.567000 -0.251100
v 0.217459 0.315900 0.000000
v 0.434918 0.315900 -0.125550
v 0.434918 0.315900 -0.376650
vt 11.7493 13.1107
vt 4.0272 0.5805
vt 13.2752 0.5805
vt 5.5531 13.1107
vt -14.0146 0.4904
vt -6.2925 13.0207
vt -12.4887 13.0207
vt -4.7666 0.4904
vt -13.2752 14.0146
vt -4.0272 4.7666
vt -4.0272 14.0146
vt -13.2752 4.7666
vt 14.0146 -1.6166
vt 6.2925 10.9136
vt 4.7666 -1.6166
vt 12.4887 10.9136
vt -13.2752 -1.7067
vt -5.5531 10.8236
vt -11.7493 10.8236
vt -4.0272 -1.7067
vt -5.5531 6.2925
vt -11.7493 12.4887
vt -11.7493 6.2925
vt -5.5531 12.4887
vt -8.5614 19.7717
vt 0.0000 4.9429
vt 0.0000 14.8287
vt -14.8287 9.4015
vt -4.9429 9.4015
vt -9.8858 22.4792
vt 2.4715 25.2816
vt -2.4715 12.2039
vt 7.4144 12.2039
vt -8.5614 0.0000
vt -17.1228 4.9429
vt -17.1228 14.8287
vt -2.4715 8.4674
vt -7.4144 -4.6104
vt 2.4715 -4.6104
vt 14.8287 -1.8080
vt 9.8858 11.2697
vt 4.9429 -1.8080
vt 12.3573 19.6768
vt 7.4144 6.5991
vt 17.3002 6.5991
vt -12.3573 14.0721
vt -17.3002 0.9944
vt -7.4144 0.9944
vn 0.0000 0.1218 0.9926
vn -0.9926 0.1218 0.0000
vn 0.0000 -1.0000 -0.0000
vn 0.9926 0.1218 0.0000
vn 0.0000 0.1218 -0.9926
vn -0.7559 0.6547 0.0000
vn -0.3780 0.6547 0.6547
vn 0.3780 0.6547 -0.6547
vn 0.7559 0.6547 0.0000
vn 0.3780 0.6547 0.6547
vn -0.3780 0.6547 -0.6547
usemtl FrontColor.001
s 1
f 1/1/1 2/2/1 3/3/1
f 2/2/1 1/1/1 4/4/1
f 7/5/2 4/6/2 6/7/2
f 4/6/2 7/5/2 2/8/2
f 8/9/3 2/10/3 7/11/3
f 2/10/3 8/9/3 3/12/3
f 8/13/4 1/14/4 3/15/4
f 1/14/4 8/13/4 5/16/4
f 8/17/5 6/18/5 5/19/5
f 6/18/5 8/17/5 7/20/5
usemtl Mushroom_Red
f 4/21/3 5/22/3 1/23/3
f 5/22/3 4/21/3 6/24/3
f 6/24/3 9/25/3 5/22/3
f 10/26/3 9/25/3 6/24/3
f 9/25/3 10/26/3 11/27/3
f 11/28/6 10/29/6 12/30/6
f 12/31/7 10/32/7 13/33/7
f 10/26/3 4/21/3 13/34/3
f 4/21/3 10/26/3 6/24/3
f 13/34/3 4/21/3 1/23/3
f 13/34/3 1/23/3 14/35/3
f 14/35/3 1/23/3 15/36/3
f 5/22/3 15/36/3 1/23/3
f 5/22/3 9/25/3 15/36/3
f 12/37/8 15/38/8 9/39/8
f 15/40/9 12/41/9 14/42/9
f 12/43/10 13/44/10 14/45/10
f 12/46/11 9/47/11 11/48/11
