# Blender v2.78 (sub 0) OBJ File: ''
# www.blender.org
mtllib naturePack_137.mtl
o Mesh1_Rock_3_Model
v 0.376736 0.680000 -0.620532
v 0.210336 0.320000 -0.424352
v 0.263472 0.680000 -0.424352
v 0.350168 0.320000 -0.666549
v 0.629832 0.320000 -0.666549
v 0.603264 0.680000 -0.620532
v 0.603264 0.680000 -0.228173
v 0.376736 0.680000 -0.228173
v 0.350168 0.320000 -0.182156
v 0.294000 0.320000 -0.084870
v 0.098000 0.320000 -0.424352
v 0.294000 0.320000 -0.763834
v 0.686000 0.320000 -0.763834
v 0.769664 0.320000 -0.424352
v 0.716528 0.680000 -0.424352
v 0.629832 0.320000 -0.182156
v 0.686000 0.320000 -0.084870
v 0.245000 0.000000 -0.000000
v 0.735000 0.000000 0.000000
v 0.245000 0.000000 -0.848705
v 0.000000 0.000000 -0.424352
v 0.735000 0.000000 -0.848705
v 0.980000 0.000000 -0.424352
v 0.882000 0.320000 -0.424352
vt -28.5734 26.6354
vt -18.6090 12.3469
vt -19.6550 26.6354
vt -29.6194 12.3469
vt -14.8321 23.4579
vt -24.7965 9.1694
vt -13.7861 9.1694
vt -23.7506 23.4579
vt 14.8321 24.4304
vt 23.7506 8.9832
vt 23.7506 24.4304
vt 14.8321 8.9832
vt 10.3729 16.7068
vt -10.3280 14.4652
vt -0.3636 28.7538
vt -9.2821 28.7538
vt 0.6824 14.4652
vt 8.2809 16.7068
vt 11.5748 3.3414
vt 13.7861 7.1715
vt 3.8583 16.7068
vt 11.5748 30.0722
vt 13.7861 26.2421
vt 27.0079 30.0722
vt 24.7965 26.2421
vt 30.3018 16.7068
vt 9.2821 22.3988
vt -0.6824 8.1102
vt 10.3280 8.1102
vt 0.3636 22.3988
vt 28.2098 16.7068
vt 19.6550 24.5171
vt 29.6194 10.2286
vt 28.5734 24.5171
vt 18.6090 10.2286
vt 23.7506 27.6946
vt 13.7861 13.4060
vt 24.7965 13.4060
vt 14.8321 27.6946
vt 27.0079 3.3414
vt 24.7965 7.1715
vt 9.6457 0.0000
vt 27.0079 13.0340
vt 11.5748 13.0340
vt 28.9370 0.0000
vt -9.6457 0.0000
vt -9.6457 33.4136
vt -28.9370 0.0000
vt 0.0000 16.7068
vt 2.8937 15.1754
vt -14.4685 2.1414
vt 4.8228 2.1414
vt -12.5394 15.1754
vt -31.8307 10.8925
vt -14.4685 -2.1414
vt -16.3976 10.8925
vt -33.7598 -2.1414
vt -11.5748 4.4682
vt -28.9370 -8.5658
vt -9.6457 -8.5658
vt -27.0079 4.4682
vt 12.5394 2.3267
vt -4.8228 -10.7073
vt 14.4685 -10.7073
vt -2.8937 2.3267
vt 34.7244 16.7068
vt 16.3976 6.6096
vt 33.7598 -6.4244
vt 31.8307 6.6096
vt 14.4685 -6.4244
vt -28.9370 33.4136
vt -38.5827 16.7068
vn -0.8590 0.1268 -0.4960
vn 0.0000 0.1268 -0.9919
vn -0.0000 1.0000 0.0000
vn -0.8590 0.1268 0.4960
vn 0.8590 0.1268 -0.4960
vn 0.8590 0.1268 0.4960
vn 0.0000 0.1268 0.9919
vn -0.0000 0.2564 0.9666
vn 0.0000 -1.0000 -0.0000
vn -0.8371 0.2564 0.4833
vn -0.8371 0.2564 -0.4833
vn 0.0000 0.2564 -0.9666
vn 0.8371 0.2564 -0.4833
vn 0.8371 0.2564 0.4833
usemtl Stone.040
s 1
f 1/1/1 2/2/1 3/3/1
f 2/2/1 1/1/1 4/4/1
f 1/5/2 5/6/2 4/7/2
f 5/6/2 1/5/2 6/8/2
f 1/9/3 7/10/3 6/11/3
f 1/9/3 8/12/3 7/10/3
f 8/12/3 1/9/3 3/13/3
f 2/14/4 8/15/4 3/16/4
f 8/15/4 2/14/4 9/17/4
f 2/18/3 10/19/3 9/20/3
f 10/19/3 2/18/3 11/21/3
f 2/18/3 12/22/3 11/21/3
f 12/22/3 2/18/3 4/23/3
f 12/22/3 4/23/3 13/24/3
f 13/24/3 4/23/3 5/25/3
f 13/24/3 5/25/3 14/26/3
f 6/27/5 14/28/5 5/29/5
f 14/28/5 6/27/5 15/30/5
f 6/11/3 7/10/3 15/31/3
f 7/32/6 14/33/6 15/34/6
f 14/33/6 7/32/6 16/35/6
f 7/36/7 9/37/7 16/38/7
f 9/37/7 7/36/7 8/39/7
f 9/20/3 17/40/3 16/41/3
f 9/20/3 10/19/3 17/40/3
f 18/42/8 17/43/8 10/44/8
f 17/43/8 18/42/8 19/45/8
f 18/46/9 20/47/9 19/48/9
f 20/47/9 18/46/9 21/49/9
f 10/50/10 21/51/10 18/52/10
f 21/51/10 10/50/10 11/53/10
f 12/54/11 21/55/11 11/56/11
f 21/55/11 12/54/11 20/57/11
f 12/58/12 22/59/12 20/60/12
f 22/59/12 12/58/12 13/61/12
f 13/62/13 23/63/13 22/64/13
f 23/63/13 13/62/13 24/65/13
f 13/24/3 14/26/3 24/66/3
f 14/26/3 17/40/3 24/66/3
f 16/41/3 17/40/3 14/26/3
f 17/67/14 23/68/14 24/69/14
f 23/68/14 17/67/14 19/70/14
f 19/48/9 22/71/9 23/72/9
f 19/48/9 20/47/9 22/71/9
