# Blender v2.78 (sub 0) OBJ File: ''
# www.blender.org
mtllib naturePack_049.mtl
o Mesh1_Group1_Model.038
v 0.201300 0.000000 -0.201300
v 0.000000 0.000000 -0.000000
v 0.000000 0.000000 -0.201300
v 0.201300 0.000000 -0.000000
v 0.201300 0.992991 0.000000
v 0.201300 0.992991 -0.201300
v 0.000000 0.992991 -0.201300
v 0.000000 0.992991 0.000000
v 3.050000 0.992991 0.050000
v -0.050000 0.992991 0.050000
v -0.050000 0.992991 -0.251300
v 3.050000 0.992991 -0.251300
v -0.050000 1.112990 -0.251300
v 3.050000 1.112990 -0.251300
v 3.050000 1.112990 0.050000
v -0.050000 1.112990 0.050000
v 3.000000 0.992991 0.000000
v 2.798700 0.992991 0.000000
v 2.798700 0.992991 -0.201300
v 3.000000 0.992991 -0.201300
v 3.000000 0.000000 -0.201300
v 3.000000 0.000000 0.000000
v 2.798700 0.000000 0.000000
v 2.798700 0.000000 -0.201300
vt -7.9252 7.9252
vt 0.0000 0.0000
vt 0.0000 7.9252
vt -7.9252 0.0000
vt 7.9252 0.0000
vt 0.0000 39.0941
vt 0.0000 0.0000
vt 7.9252 39.0941
vt -7.9252 0.0000
vt 0.0000 39.0941
vt -7.9252 39.0941
vt 0.0000 0.0000
vt -7.9252 39.0941
vt -7.9252 0.0000
vt -0.0000 39.0941
vt 7.9252 39.0941
vt 7.9252 0.0000
vt -120.0790 -1.9685
vt -0.0000 0.0000
vt -7.9252 0.0000
vt 1.9685 -1.9685
vt -0.0000 7.9252
vt 1.9685 9.8937
vt -120.0790 9.8937
vt 1.9685 43.8186
vt -120.0790 39.0941
vt 1.9685 39.0941
vt -120.0790 43.8186
vt -1.9685 9.8937
vt 120.0790 -1.9685
vt 120.0790 9.8937
vt -1.9685 -1.9685
vt -9.8937 43.8186
vt 1.9685 39.0941
vt 1.9685 43.8186
vt -9.8937 39.0941
vt 120.0790 39.0941
vt -1.9685 43.8186
vt -1.9685 39.0941
vt 120.0790 43.8186
vt 9.8937 39.0941
vt -1.9685 43.8186
vt -1.9685 39.0941
vt 9.8937 43.8186
vt -118.1100 0.0000
vt -110.1850 0.0000
vt -110.1850 7.9252
vt -7.9252 7.9252
vt -118.1100 7.9252
vt 0.0000 39.0941
vt 7.9252 0.0000
vt 7.9252 39.0941
vt 0.0000 0.0000
vt 118.1100 39.0941
vt 110.1850 0.0000
vt 118.1100 0.0000
vt 110.1850 39.0941
vt -7.9252 39.0941
vt 0.0000 0.0000
vt 0.0000 39.0941
vt -7.9252 0.0000
vt -110.1850 39.0941
vt -118.1100 0.0000
vt -110.1850 0.0000
vt -118.1100 39.0941
vt -118.1100 7.9252
vt -110.1850 0.0000
vt -110.1850 7.9252
vt -118.1100 0.0000
vn 0.0000 -1.0000 -0.0000
vn 1.0000 -0.0000 0.0000
vn 0.0000 0.0000 -1.0000
vn -1.0000 0.0000 0.0000
vn 0.0000 -0.0000 1.0000
vn 0.0000 1.0000 0.0000
usemtl Wood.029
s 1
f 1/1/1 2/2/1 3/3/1
f 2/2/1 1/1/1 4/4/1
f 1/5/2 5/6/2 4/7/2
f 5/6/2 1/5/2 6/8/2
f 1/9/3 7/10/3 6/11/3
f 7/10/3 1/9/3 3/12/3
f 2/2/4 7/13/4 3/14/4
f 7/13/4 2/2/4 8/15/4
f 2/2/5 5/16/5 8/15/5
f 5/16/5 2/2/5 4/17/5
f 9/18/1 8/19/1 5/20/1
f 10/21/1 8/19/1 9/18/1
f 8/19/1 10/21/1 7/22/1
f 11/23/1 7/22/1 10/21/1
f 7/22/1 11/23/1 12/24/1
f 13/25/3 12/26/3 11/27/3
f 12/26/3 13/25/3 14/28/3
f 13/29/6 15/30/6 14/31/6
f 15/30/6 13/29/6 16/32/6
f 13/33/4 10/34/4 16/35/4
f 10/34/4 13/33/4 11/36/4
f 9/37/5 16/38/5 10/39/5
f 16/38/5 9/37/5 15/40/5
f 12/41/2 15/42/2 9/43/2
f 15/42/2 12/41/2 14/44/2
f 9/18/1 17/45/1 12/24/1
f 9/18/1 18/46/1 17/45/1
f 9/18/1 5/20/1 18/46/1
f 18/46/1 5/20/1 19/47/1
f 5/20/1 12/24/1 19/47/1
f 6/48/1 12/24/1 5/20/1
f 7/22/1 12/24/1 6/48/1
f 19/47/1 12/24/1 20/49/1
f 20/49/1 12/24/1 17/45/1
f 17/50/2 21/51/2 20/52/2
f 21/51/2 17/50/2 22/53/2
f 17/54/5 23/55/5 22/56/5
f 23/55/5 17/54/5 18/57/5
f 19/58/4 23/59/4 18/60/4
f 23/59/4 19/58/4 24/61/4
f 19/62/3 21/63/3 24/64/3
f 21/63/3 19/62/3 20/65/3
f 21/66/1 23/67/1 24/68/1
f 23/67/1 21/66/1 22/69/1
