# Blender v2.78 (sub 0) OBJ File: ''
# www.blender.org
mtllib naturePack_011.mtl
o Mesh1_Group1_Model.004
v 0.380600 0.000000 -1.002650
v 0.309399 0.000000 0.000000
v 0.000000 0.000000 -0.726892
v 1.049400 0.000000 0.000000
v 0.926258 0.000000 -1.190620
v 0.380600 0.180000 -1.002650
v 0.926258 0.180000 -1.190620
v 1.049400 0.180000 0.000000
v 0.309399 0.180000 0.000000
v 0.000000 0.180000 -0.726892
v 1.374140 0.000000 -0.539855
v 1.374140 0.180000 -0.539855
vt 14.9842 39.4745
vt 41.3149 0.0000
vt 36.4669 46.8750
vt 12.1811 0.0000
vt 0.0000 28.6178
vt 54.1000 21.2541
vt -14.9842 39.4745
vt -12.1811 0.0000
vt 0.0000 28.6178
vt -41.3149 0.0000
vt -36.4669 46.8750
vt -27.0241 7.0866
vt -49.7457 0.0000
vt -27.0241 0.0000
vt -49.7457 7.0866
vt -35.2947 0.0000
vt -16.7908 7.0866
vt -35.2947 7.0866
vt -16.7908 0.0000
vt 4.7706 0.0000
vt -26.3317 7.0866
vt -26.3317 0.0000
vt 4.7706 7.0866
vt 12.1811 0.0000
vt 41.3149 7.0866
vt 12.1811 7.0866
vt 41.3149 0.0000
vt 46.0994 0.0000
vt 21.2963 7.0866
vt 21.2963 0.0000
vt 46.0994 7.0866
vt 17.9392 0.0000
vt -13.1632 7.0866
vt -13.1632 0.0000
vt 17.9392 7.0866
vt -54.1000 21.2541
vn 0.0000 1.0000 0.0000
vn 0.0000 -1.0000 -0.0000
vn -0.3257 0.0000 -0.9455
vn -0.5867 0.0000 -0.8098
vn -0.9201 -0.0000 0.3916
vn 0.0000 -0.0000 1.0000
vn 0.8569 0.0000 0.5155
vn 0.8238 0.0000 -0.5669
usemtl Green_leafs.004
s 1
f 6/1/1 8/2/1 7/3/1
f 6/1/1 9/4/1 8/2/1
f 9/4/1 6/1/1 10/5/1
f 7/3/1 8/2/1 12/6/1
usemtl Wood.008
f 1/7/2 2/8/2 3/9/2
f 2/8/2 1/7/2 4/10/2
f 4/10/2 1/7/2 5/11/2
f 6/12/3 5/13/3 1/14/3
f 5/13/3 6/12/3 7/15/3
f 1/16/4 10/17/4 6/18/4
f 10/17/4 1/16/4 3/19/4
f 2/20/5 10/21/5 3/22/5
f 10/21/5 2/20/5 9/23/5
f 2/24/6 8/25/6 9/26/6
f 8/25/6 2/24/6 4/27/6
f 11/28/7 8/29/7 4/30/7
f 8/29/7 11/28/7 12/31/7
f 5/32/8 12/33/8 11/34/8
f 12/33/8 5/32/8 7/35/8
f 4/10/2 5/11/2 11/36/2
