# Blender v2.78 (sub 0) OBJ File: ''
# www.blender.org
mtllib naturePack_126.mtl
o Mesh1_Brown_Waterfall_Model
v 3.000000 0.000000 -0.780000
v 3.000000 2.200000 0.000000
v 3.000000 0.000000 -0.000000
v 3.000000 2.200000 -0.780000
v 2.387190 0.000000 -0.633829
v 2.387190 2.200000 -0.633829
v 2.241300 2.200000 -0.679899
v 2.241300 0.000000 -0.679899
v 1.924320 0.000000 -0.920000
v 1.274920 0.000000 -0.557341
v 0.371864 0.000000 -0.661050
v 0.000000 0.000000 0.000000
v 0.000000 0.000000 -0.780000
v 0.000000 2.200000 -0.780000
v 0.000000 2.200000 0.000000
v 0.371864 2.200000 -0.661050
v 0.701031 0.000000 -0.780000
v 0.701031 2.200000 -0.780000
v 0.758698 2.200000 -0.743558
v 1.274920 2.200000 -0.557341
v 1.924320 2.200000 -0.920000
v 2.241300 2.200000 -0.819899
v 2.241300 0.000000 -0.819899
v 0.758698 2.200000 -0.883558
v 0.758698 0.000000 -0.883558
v 0.758698 0.000000 -0.743558
vt 30.7087 0.0000
vt -0.0000 86.6142
vt -0.0000 0.0000
vt 30.7087 86.6142
vt -97.2090 0.0000
vt -122.0120 86.6142
vt -122.0120 0.0000
vt -97.2090 86.6142
vt -82.1071 0.0000
vt -76.0839 86.6142
vt -82.1071 86.6142
vt -76.0839 0.0000
vt -118.1100 0.0000
vt -88.2402 26.7677
vt -93.9839 24.9539
vt -75.7604 36.2205
vt -50.1936 21.9426
vt -14.6403 26.0256
vt -0.0000 -0.0000
vt -0.0000 30.7087
vt -30.7087 86.6142
vt -30.7087 0.0000
vt 0.0000 86.6142
vt 118.1100 86.6142
vt 118.1100 0.0000
vt 14.6403 26.0256
vt 0.0000 -0.0000
vt 118.1100 0.0000
vt 0.0000 30.7087
vt -6.0151 86.6142
vt 9.3559 0.0000
vt 9.3559 86.6142
vt -6.0151 0.0000
vt -22.6139 86.6142
vt -36.3934 0.0000
vt -22.6139 0.0000
vt -36.3934 86.6142
vt 29.8700 29.2739
vt 27.5996 30.7087
vt 50.1936 21.9426
vt 75.7604 36.2205
vt 88.2402 26.7677
vt 93.9839 24.9539
vt 118.1100 30.7087
vt 88.2402 32.2795
vt -88.2402 32.2795
vt -29.8700 29.2739
vt -29.8700 34.7858
vt -27.5996 30.7087
vt -6.9266 86.6142
vt -9.6123 0.0000
vt -6.9266 0.0000
vt -9.6123 86.6142
vt 29.8700 34.7858
vt -118.1100 30.7087
vt -74.4241 0.0000
vt -61.3368 86.6142
vt -74.4241 86.6142
vt -61.3368 0.0000
vt 32.2795 0.0000
vt 26.7677 86.6142
vt 26.7677 0.0000
vt 32.2795 86.6142
vt -83.8052 0.0000
vt -54.5217 86.6142
vt -83.8052 86.6142
vt -54.5217 0.0000
vt -30.7095 0.0000
vt -6.6679 86.6142
vt -30.7095 86.6142
vt -6.6679 0.0000
vt -34.7858 86.6142
vt -29.2739 0.0000
vt -29.2739 86.6142
vt -34.7858 0.0000
vn 1.0000 -0.0000 0.0000
vn -0.2320 0.0000 -0.9727
vn 0.3011 0.0000 -0.9536
vn -0.0000 -1.0000 -0.0000
vn -1.0000 -0.0000 0.0000
vn 0.0000 -0.0000 1.0000
vn 0.0000 1.0000 0.0000
vn 0.3047 0.0000 -0.9525
vn -0.3399 0.0000 -0.9405
vn 0.5342 0.0000 -0.8454
vn -0.4876 0.0000 -0.8731
usemtl Wood.077
s 1
f 1/1/1 2/2/1 3/3/1
f 2/2/1 1/1/1 4/4/1
f 5/5/2 4/6/2 1/7/2
f 4/6/2 5/5/2 6/8/2
f 5/9/3 7/10/3 6/11/3
f 7/10/3 5/9/3 8/12/3
f 3/13/4 8/14/4 5/15/4
f 3/13/4 9/16/4 8/14/4
f 3/13/4 10/17/4 9/16/4
f 3/13/4 11/18/4 10/17/4
f 12/19/4 11/18/4 3/13/4
f 11/18/4 12/19/4 13/20/4
f 12/19/5 14/21/5 13/22/5
f 14/21/5 12/19/5 15/23/5
f 12/19/6 2/24/6 15/23/6
f 2/24/6 12/19/6 3/25/6
f 16/26/7 15/27/7 2/28/7
f 15/27/7 16/26/7 14/29/7
f 16/30/8 13/31/8 14/32/8
f 13/31/8 16/30/8 11/33/8
f 16/34/9 17/35/9 11/36/9
f 17/35/9 16/34/9 18/37/9
f 16/26/7 19/38/7 18/39/7
f 16/26/7 20/40/7 19/38/7
f 16/26/7 2/28/7 20/40/7
f 20/40/7 2/28/7 21/41/7
f 21/41/7 2/28/7 7/42/7
f 7/42/7 2/28/7 6/43/7
f 6/43/7 2/28/7 4/44/7
f 22/45/7 21/41/7 7/42/7
f 8/14/4 9/16/4 23/46/4
f 10/17/4 26/47/4 25/48/4
f 10/17/4 11/18/4 26/47/4
f 26/47/4 11/18/4 17/49/4
f 18/50/10 26/51/10 17/52/10
f 26/51/10 18/50/10 19/53/10
f 19/38/7 20/40/7 24/54/7
f 3/13/4 5/15/4 1/55/4
usemtl Water.007
f 23/56/3 21/57/3 22/58/3
f 21/57/3 23/56/3 9/59/3
f 23/60/1 7/61/1 8/62/1
f 7/61/1 23/60/1 22/63/1
f 9/64/11 20/65/11 21/66/11
f 20/65/11 9/64/11 10/67/11
f 10/68/10 24/69/10 20/70/10
f 24/69/10 10/68/10 25/71/10
f 24/72/5 26/73/5 19/74/5
f 26/73/5 24/72/5 25/75/5
