# Blender v2.78 (sub 0) OBJ File: ''
# www.blender.org
mtllib naturePack_147.mtl
o Mesh1_Plate_River_Dirt_Model.006
v 3.000000 0.000000 0.000000
v 2.241300 0.150000 0.000000
v 0.000000 0.000000 0.000000
v 3.000000 0.300000 0.000000
v 3.000000 0.150000 -0.758698
v 3.000000 0.000000 -3.000000
v 0.000000 0.000000 -3.000000
v 0.000000 0.150000 -0.758698
v 0.000000 0.300000 -0.758698
v 0.000000 0.300000 0.000000
v 0.758698 0.150000 0.000000
v 0.877648 0.150000 -0.371864
v 0.936265 0.150000 -0.982021
v 2.241300 0.150000 -3.000000
v 0.889083 0.150000 -2.453370
v 0.758698 0.150000 -3.000000
v 3.000000 0.300000 -3.000000
v 2.241300 0.300000 -3.000000
v 2.374550 0.150000 -2.441370
v 2.374550 0.300000 -2.441370
v 3.000000 0.300000 -2.241300
v 3.000000 0.150000 -2.241300
v 2.399190 0.150000 -0.950882
v 2.241300 0.150000 -0.701031
v 2.360250 0.150000 -0.371864
v 2.241300 0.300000 -0.701031
v 2.360250 0.300000 -0.371864
v 2.241300 0.300000 0.000000
v 2.399190 0.300000 -0.950882
v 3.000000 0.300000 -0.758698
v 0.000000 0.300000 -3.000000
v -0.000000 0.150000 -2.241300
v 0.936265 0.300000 -0.982021
v 0.758698 0.300000 -0.701031
v 0.758698 0.300000 0.000000
v 0.877648 0.300000 -0.371864
v 0.758698 0.150000 -0.701031
v 0.889083 0.300000 -2.453370
v -0.000000 0.300000 -2.241300
v 0.758698 0.300000 -3.000000
vt 118.1100 0.0000
vt 92.9233 14.6403
vt 88.2402 0.0000
vt 94.4564 37.4363
vt 118.1100 29.8700
vt 118.1100 118.1100
vt 93.4862 96.1168
vt 118.1100 88.2402
vt 88.2402 118.1100
vt 88.2402 27.5996
vt 0.0000 29.8700
vt 29.8700 27.5996
vt 36.8608 38.6623
vt 29.8700 0.0000
vt 0.0000 0.0000
vt 34.5531 14.6403
vt 35.0033 96.5894
vt 0.0000 118.1100
vt -0.0000 88.2402
vt 29.8700 118.1100
vt 118.1100 0.0000
vt 88.2402 5.9055
vt 0.0000 0.0000
vt 118.1100 11.8110
vt 0.0000 0.0000
vt 29.8700 5.9055
vt 0.0000 11.8110
vt 118.1100 0.0000
vt -118.1100 118.1100
vt -118.1100 0.0000
vt 0.0000 118.1100
vt -29.8700 5.9055
vt -118.1100 0.0000
vt -29.8700 11.8110
vt 0.0000 11.8110
vt 29.8700 5.9055
vt -88.2402 5.9055
vt -118.1100 -0.0000
vt -29.8700 5.9055
vt -118.1100 11.8110
vt -88.2402 11.8110
vt -71.8036 5.9055
vt -94.4140 11.8110
vt -94.4140 5.9055
vt -71.8036 11.8110
vt 59.7580 5.9055
vt 85.6111 11.8110
vt 59.7580 11.8110
vt 85.6111 5.9055
vt 17.8118 5.9055
vt 4.0323 11.8110
vt 4.0323 5.9055
vt 17.8118 11.8110
vt -26.8840 5.9055
vt -42.2550 11.8110
vt -42.2550 5.9055
vt -26.8840 11.8110
vt 88.2402 11.8110
vt 29.8700 11.8110
vt -103.3950 5.9055
vt -78.5601 11.8110
vt -103.3950 11.8110
vt -78.5601 5.9055
vt 88.2402 5.9055
vt 88.2402 11.8110
vt 118.1100 11.8110
vt -70.4701 5.9055
vt -82.1062 11.8110
vt -82.1062 5.9055
vt -70.4701 11.8110
vt -0.0000 -0.0000
vt -0.0000 11.8110
vt -88.2402 5.9055
vt -118.1100 11.8110
vt -6.9303 11.8110
vt -44.8253 5.9055
vt -6.9303 5.9055
vt -44.8253 11.8110
vt 29.8700 11.8110
vt 24.4715 5.9055
vt 9.1004 11.8110
vt 9.1004 5.9055
vt 24.4715 11.8110
vt 15.8053 5.9055
vt 2.0258 11.8110
vt 2.0258 5.9055
vt 15.8053 11.8110
vt 52.3746 5.9055
vt 39.2882 11.8110
vt 39.2882 5.9055
vt 52.3746 11.8110
vt 56.4585 11.8110
vt 20.4732 5.9055
vt 56.4585 5.9055
vt 20.4732 11.8110
vt 85.8323 11.8110
vt 107.9570 5.9055
vt 107.9570 11.8110
vt 85.8323 5.9055
vt -29.8700 11.8110
vt -88.2402 11.8110
vt 88.2402 0.0000
vt 34.5531 14.6403
vt 29.8700 0.0000
vt 36.8608 38.6623
vt 88.2402 118.1100
vt 35.0033 96.5894
vt 29.8700 118.1100
vt 93.4862 96.1168
vt 94.4564 37.4363
vt 118.1100 88.2402
vt 88.2402 27.5996
vt 92.9233 14.6403
vt 118.1100 29.8700
vt 0.0000 29.8700
vt -0.0000 88.2402
vt 29.8700 27.5996
vn 0.0000 1.0000 0.0000
vn 0.0000 -0.0000 1.0000
vn 1.0000 0.0000 0.0000
vn 0.0000 -1.0000 -0.0000
vn -1.0000 0.0000 0.0000
vn -0.0000 0.0000 -1.0000
vn -0.9727 0.0000 0.2320
vn -0.3047 0.0000 0.9525
vn -0.9405 -0.0000 0.3399
vn -0.9525 0.0000 -0.3047
vn 0.3047 0.0000 -0.9525
vn -0.8454 -0.0000 -0.5342
vn -0.2320 0.0000 -0.9727
vn 0.9525 0.0000 0.3047
vn 0.9405 0.0000 -0.3399
vn 0.8454 -0.0000 0.5342
vn 0.2320 0.0000 0.9727
vn 0.9727 0.0000 -0.2320
vn -0.2107 -0.5115 -0.8330
usemtl Leafs.053
s 1
f 4/1/1 27/2/1 28/3/1
f 27/2/1 4/1/1 29/4/1
f 29/4/1 4/1/1 30/5/1
f 17/6/1 20/7/1 21/8/1
f 20/7/1 17/6/1 18/9/1
f 29/4/1 26/10/1 27/2/1
f 9/11/1 34/12/1 33/13/1
f 9/11/1 35/14/1 34/12/1
f 35/14/1 9/11/1 10/15/1
f 36/16/1 34/12/1 35/14/1
f 38/17/1 31/18/1 39/19/1
f 31/18/1 38/17/1 40/20/1
usemtl Wood.089
f 1/21/2 2/22/2 3/23/2
f 2/22/2 1/21/2 4/24/2
f 1/25/3 5/26/3 4/27/3
f 5/26/3 1/25/3 6/28/3
f 3/23/4 6/29/4 1/30/4
f 6/29/4 3/23/4 7/31/4
f 3/23/5 8/32/5 7/33/5
f 3/23/5 9/34/5 8/32/5
f 9/34/5 3/23/5 10/35/5
f 3/23/2 11/36/2 10/35/2
f 11/36/2 3/23/2 2/22/2
f 14/37/6 6/38/6 16/39/6
f 6/38/6 14/37/6 17/40/6
f 17/40/6 14/37/6 18/41/6
f 19/42/7 18/43/7 14/44/7
f 18/43/7 19/42/7 20/45/7
f 19/46/8 21/47/8 20/48/8
f 21/47/8 19/46/8 22/49/8
f 25/50/9 26/51/9 24/52/9
f 26/51/9 25/50/9 27/53/9
f 2/54/10 27/55/10 25/56/10
f 27/55/10 2/54/10 28/57/10
f 2/22/2 4/24/2 28/58/2
f 30/59/3 4/27/3 5/26/3
f 5/60/11 29/61/11 30/62/11
f 29/61/11 5/60/11 23/63/11
f 5/26/3 6/28/3 22/64/3
f 22/64/3 6/28/3 21/65/3
f 21/65/3 6/28/3 17/66/3
f 24/67/12 29/68/12 23/69/12
f 29/68/12 24/67/12 26/70/12
f 7/71/6 16/39/6 6/38/6
f 16/39/6 7/71/6 31/72/6
f 7/33/5 32/73/5 31/74/5
f 7/33/5 8/32/5 32/73/5
f 9/75/13 13/76/13 8/77/13
f 13/76/13 9/75/13 33/78/13
f 10/35/2 11/36/2 35/79/2
f 12/80/14 35/81/14 11/82/14
f 35/81/14 12/80/14 36/83/14
f 37/84/15 36/85/15 12/86/15
f 36/85/15 37/84/15 34/87/15
f 13/88/16 34/89/16 37/90/16
f 34/89/16 13/88/16 33/91/16
f 38/92/17 32/93/17 15/94/17
f 32/93/17 38/92/17 39/95/17
f 38/96/18 16/97/18 40/98/18
f 16/97/18 38/96/18 15/99/18
f 16/39/6 31/72/6 40/100/6
f 31/74/5 32/73/5 39/101/5
usemtl Water.013
f 2/102/1 12/103/1 11/104/1
f 12/103/1 2/102/1 13/105/1
f 14/106/1 13/105/1 2/102/1
f 14/106/1 15/107/1 13/105/1
f 15/107/1 14/106/1 16/108/1
f 19/109/1 23/110/1 22/111/1
f 14/106/1 23/110/1 19/109/1
f 14/106/1 24/112/19 23/110/1
f 14/106/1 2/102/1 24/112/19
f 25/113/1 24/112/19 2/102/1
f 22/111/1 23/110/1 5/114/1
f 8/115/1 15/107/1 32/116/1
f 15/107/1 8/115/1 13/105/1
f 13/105/1 37/117/1 12/103/1
