# Blender v2.78 (sub 0) OBJ File: ''
# www.blender.org
mtllib naturePack_107.mtl
o Mesh1_Tent_Model
v 0.196596 0.000000 -2.800000
v 1.500000 2.480840 -0.200000
v 0.196596 0.000000 -0.200000
v 1.500000 2.480840 -2.799999
v 0.750000 0.000000 -2.800000
v 1.500000 2.005030 -2.800000
v 0.750000 0.000000 -3.000000
v 1.500000 2.005030 -3.000000
v 1.500000 2.855031 -3.000000
v 0.000000 0.000000 -3.000000
v 0.000000 0.000000 0.000000
v 3.000000 0.000000 0.000000
v 2.803400 0.000000 -0.200000
v 2.803400 0.000000 -2.800000
v 2.250000 0.000000 -2.800000
v 2.250000 0.000000 -3.000000
v 3.000000 0.000000 -3.000000
v 1.500000 2.855030 0.000000
v 1.173820 2.234190 -0.704621
v 1.222760 2.327340 -1.295320
v 0.966335 1.839280 -1.393530
v 0.966629 1.839840 -1.786720
v 0.895448 1.704350 -2.252200
v 0.678948 1.292280 -2.099160
v 0.750130 1.427760 -1.633670
v 0.917397 1.746130 -0.802826
vt -50.9970 103.5040
vt -31.6073 77.6557
vt -27.7410 99.3613
vt -54.8633 81.7983
vt -70.3433 81.8232
vt -82.6441 57.4716
vt -64.3179 63.4969
vt -88.6695 75.7978
vt 110.2360 3.5999
vt 7.8740 113.9300
vt 7.8740 3.5999
vt 110.2360 113.9300
vt 29.5276 0.0000
vt 59.0551 97.6707
vt 7.7400 0.0000
vt 59.0551 78.9381
vt 118.1100 10.3450
vt 110.2360 94.6249
vt 110.2360 10.3450
vt 118.1100 94.6249
vt -29.5276 0.0000
vt -59.0551 112.4030
vt -59.0551 78.9381
vt -0.0000 0.0000
vt -7.7400 110.2360
vt 0.0000 118.1100
vt -29.5276 118.1100
vt 0.0000 0.0000
vt -7.7400 7.8740
vt -118.1100 0.0000
vt -110.3700 7.8740
vt -59.0551 97.6707
vt -110.3700 0.0000
vt -7.7400 0.0000
vt -110.2360 58.9969
vt -7.8740 -51.3336
vt -7.8740 58.9969
vt -110.2360 -51.3336
vt 88.5827 0.0000
vt 110.3700 0.0000
vt -110.2360 53.2448
vt -118.1100 -31.0350
vt -110.2360 -31.0350
vt -118.1100 53.2448
vt -118.1100 0.0000
vt -88.5827 0.0000
vt -0.0000 72.0384
vt 118.1100 -54.9335
vt 118.1100 72.0384
vt -0.0000 -54.9335
vt 59.0551 112.4030
vt 118.1100 0.0000
vt 0.0000 126.9720
vt -118.1100 126.9720
vt -118.1100 0.0000
vt -118.1100 118.1100
vt -110.3700 110.2360
vt -88.5827 110.2360
vt -88.5827 118.1100
vt -29.5276 110.2360
vn -0.8853 0.4651 0.0000
vn 0.8853 -0.4651 -0.0000
vn 0.0000 -0.0000 1.0000
vn 0.9366 -0.3504 0.0000
vn -0.0000 0.0000 -1.0000
vn -0.0000 -1.0000 -0.0000
vn -0.8853 -0.4651 -0.0000
vn -0.9366 -0.3504 0.0000
vn 0.8853 0.4651 0.0000
usemtl Leafs.038
s 1
f 20/1/1 26/2/1 19/3/1
f 26/2/1 20/1/1 21/4/1
f 22/5/1 24/6/1 25/7/1
f 24/6/1 22/5/1 23/8/1
usemtl Green_Roof.003
f 1/9/2 2/10/2 3/11/2
f 2/10/2 1/9/2 4/12/2
f 5/13/3 4/14/3 1/15/3
f 4/14/3 5/13/3 6/16/3
f 7/17/4 6/18/4 5/19/4
f 6/18/4 7/17/4 8/20/4
f 7/21/5 9/22/5 8/23/5
f 9/22/5 7/21/5 10/24/5
f 1/25/6 10/26/6 7/27/6
f 10/26/6 1/25/6 11/28/6
f 3/29/6 11/28/6 1/25/6
f 11/28/6 3/29/6 12/30/6
f 12/30/6 3/29/6 13/31/6
f 2/32/5 13/33/5 3/34/5
f 4/35/7 13/36/7 2/37/7
f 13/36/7 4/35/7 14/38/7
f 4/14/3 15/39/3 14/40/3
f 15/39/3 4/14/3 6/16/3
f 6/41/8 16/42/8 15/43/8
f 16/42/8 6/41/8 8/44/8
f 8/23/5 17/45/5 16/46/5
f 17/45/5 8/23/5 9/22/5
f 18/47/9 17/48/9 9/49/9
f 17/48/9 18/47/9 12/50/9
f 18/51/3 11/28/3 12/52/3
f 18/53/1 19/3/1 11/28/1
f 19/3/1 18/53/1 9/54/1
f 19/3/1 9/54/1 20/1/1
f 20/1/1 9/54/1 21/4/1
f 21/4/1 9/54/1 22/5/1
f 22/5/1 9/54/1 23/8/1
f 23/8/1 9/54/1 10/55/1
f 10/55/1 24/6/1 23/8/1
f 10/55/1 25/7/1 24/6/1
f 10/55/1 26/2/1 25/7/1
f 11/28/1 26/2/1 10/55/1
f 26/2/1 11/28/1 19/3/1
f 25/7/1 26/2/1 21/4/1
f 21/4/1 22/5/1 25/7/1
f 12/30/6 13/31/6 17/56/6
f 14/57/6 17/56/6 13/31/6
f 15/58/6 17/56/6 14/57/6
f 17/56/6 15/58/6 16/59/6
f 1/25/6 7/27/6 5/60/6
