# Blender v2.78 (sub 0) OBJ File: ''
# www.blender.org
mtllib naturePack_153.mtl
o Mesh1_Group1_Model.069
v 0.938682 0.000000 -0.938682
v 1.280000 0.360000 -0.640000
v 1.062400 0.000000 -0.640000
v 1.092550 0.360000 -1.092550
v 0.640000 0.360000 -1.280000
v 0.640000 0.000000 -1.062400
v 0.640000 0.000000 -0.217600
v 0.341318 0.000000 -0.341318
v 0.341318 0.000000 -0.938682
v 0.217600 0.000000 -0.640000
v 0.000000 0.360000 -0.640000
v 0.187452 0.360000 -0.187452
v 0.640000 0.360000 0.000000
v 1.092550 0.360000 -0.187452
v 0.938682 0.000000 -0.341318
v 1.092550 0.870000 -0.187452
v 1.280000 0.870000 -0.640000
v 1.092550 0.870000 -1.092550
v 0.640000 0.870000 -1.280000
v 0.187452 0.870000 -1.092550
v 0.187452 0.360000 -1.092550
v 0.000000 0.870000 -0.640000
v 0.187452 0.870000 -0.187452
v 0.640000 0.870000 0.000000
v 0.916054 1.240000 -0.363946
v 0.640000 1.240000 -0.249600
v 0.640000 1.240000 -1.030400
v 0.363946 1.240000 -0.916054
v 0.363946 1.240000 -0.363946
v 0.249600 1.240000 -0.640000
v 0.916054 1.240000 -0.916054
v 1.030400 1.240000 -0.640000
vt 20.0004 23.5421
vt 3.9940 39.7755
vt 7.2724 23.5421
vt 23.2789 39.7755
vt -20.0004 23.5421
vt -3.9940 39.7755
vt -23.2789 39.7755
vt -7.2724 23.5421
vt -25.1969 8.5669
vt -25.1969 41.8268
vt -36.9560 36.9560
vt -13.4377 13.4377
vt -13.4377 36.9560
vt -8.5669 25.1969
vt -7.2724 -8.5602
vt -23.2789 7.6732
vt -20.0004 -8.5602
vt -3.9940 7.6732
vt 7.2724 -8.5602
vt 23.2789 7.6732
vt 3.9940 7.6732
vt 20.0004 -8.5602
vt 26.5573 0.8423
vt 42.5637 17.0758
vt 23.2789 17.0758
vt 39.2853 0.8423
vt -36.9560 13.4377
vt -41.8268 25.1969
vt 42.5637 30.3730
vt 26.5573 14.1395
vt 39.2853 14.1395
vt 23.2789 30.3730
vt 42.5637 14.1732
vt 23.2789 34.2520
vt 23.2789 14.1732
vt 42.5637 34.2520
vt 23.2789 14.1732
vt 3.9940 34.2520
vt 3.9940 14.1732
vt 23.2789 34.2520
vt -23.2789 14.1732
vt -3.9940 34.2520
vt -23.2789 34.2520
vt -3.9940 14.1732
vt -42.5637 14.1732
vt -23.2789 34.2520
vt -42.5637 34.2520
vt -23.2789 14.1732
vt -39.2853 14.1395
vt -23.2789 30.3730
vt -42.5637 30.3730
vt -26.5573 14.1395
vt -26.5573 0.8423
vt -42.5637 17.0758
vt -39.2853 0.8423
vt -23.2789 17.0758
vt -23.2789 14.1732
vt -42.5637 34.2520
vt -42.5637 14.1732
vt -23.2789 34.2520
vt -3.9940 14.1732
vt -3.9940 34.2520
vt 3.9940 14.1732
vt 23.2789 34.2520
vt 3.9940 34.2520
vt 23.2789 14.1732
vt 42.5637 34.2520
vt 42.5637 14.1732
vt 38.8031 41.1329
vt 23.2789 23.9684
vt 42.5637 23.9684
vt 27.0394 41.1329
vt 25.1969 40.5669
vt 25.1969 9.8268
vt 36.0651 14.3286
vt 14.3286 36.0651
vt 14.3286 14.3286
vt 9.8268 25.1969
vt -42.5637 23.9684
vt -27.0394 41.1329
vt -38.8031 41.1329
vt -23.2789 23.9684
vt -23.2789 34.1687
vt -7.7546 51.3331
vt -19.5183 51.3331
vt -3.9940 34.1687
vt 3.9940 34.1687
vt 19.5183 51.3331
vt 7.7546 51.3331
vt 23.2789 34.1687
vt -27.0394 26.7075
vt -42.5637 9.5430
vt -23.2789 9.5430
vt -38.8031 26.7075
vt -7.7546 16.5072
vt -23.2789 -0.6572
vt -3.9940 -0.6572
vt -19.5183 16.5072
vt 36.0651 36.0651
vt 40.5669 25.1969
vt 27.0394 26.7075
vt 42.5637 9.5430
vt 38.8031 26.7075
vt 23.2789 9.5430
vt 23.2789 -0.6572
vt 7.7546 16.5072
vt 3.9940 -0.6572
vt 19.5183 16.5072
vn 0.8066 -0.4876 -0.3341
vn 0.3341 -0.4876 -0.8066
vn 0.0000 -1.0000 -0.0000
vn -0.8066 -0.4876 0.3341
vn -0.3341 -0.4876 0.8066
vn 0.3341 -0.4876 0.8066
vn 0.8066 -0.4876 0.3341
vn 0.9239 -0.0000 0.3827
vn 0.9239 0.0000 -0.3827
vn 0.3827 0.0000 -0.9239
vn -0.3827 0.0000 -0.9239
vn -0.3341 -0.4876 -0.8066
vn -0.8066 -0.4876 -0.3341
vn -0.9239 0.0000 -0.3827
vn -0.9239 -0.0000 0.3827
vn -0.3827 -0.0000 0.9239
vn 0.3827 -0.0000 0.9239
vn 0.3248 0.5289 0.7841
vn 0.0000 1.0000 0.0000
vn -0.7841 0.5289 -0.3248
vn -0.7841 0.5289 0.3248
vn -0.3248 0.5289 0.7841
vn -0.3248 0.5289 -0.7841
vn 0.3248 0.5289 -0.7841
vn 0.7841 0.5289 0.3248
vn 0.7841 0.5289 -0.3248
usemtl Stone.046
s 1
f 1/1/1 2/2/1 3/3/1
f 2/2/1 1/1/1 4/4/1
f 1/5/2 5/6/2 4/7/2
f 5/6/2 1/5/2 6/8/2
f 7/9/3 6/10/3 1/11/3
f 8/12/3 6/10/3 7/9/3
f 8/12/3 9/13/3 6/10/3
f 9/13/3 8/12/3 10/14/3
f 8/15/4 11/16/4 10/17/4
f 11/16/4 8/15/4 12/18/4
f 8/19/5 13/20/5 12/21/5
f 13/20/5 8/19/5 7/22/5
f 7/23/6 14/24/6 13/25/6
f 14/24/6 7/23/6 15/26/6
f 7/9/3 1/11/3 15/27/3
f 15/27/3 1/11/3 3/28/3
f 2/29/7 15/30/7 3/31/7
f 15/30/7 2/29/7 14/32/7
f 2/33/8 16/34/8 14/35/8
f 16/34/8 2/33/8 17/36/8
f 4/37/9 17/38/9 2/39/9
f 17/38/9 4/37/9 18/40/9
f 4/41/10 19/42/10 18/43/10
f 19/42/10 4/41/10 5/44/10
f 5/45/11 20/46/11 19/47/11
f 20/46/11 5/45/11 21/48/11
f 6/49/12 21/50/12 5/51/12
f 21/50/12 6/49/12 9/52/12
f 10/53/13 21/54/13 9/55/13
f 21/54/13 10/53/13 11/56/13
f 11/57/14 20/58/14 21/59/14
f 20/58/14 11/57/14 22/60/14
f 12/61/15 22/60/15 11/57/15
f 22/60/15 12/61/15 23/62/15
f 12/63/16 24/64/16 23/65/16
f 24/64/16 12/63/16 13/66/16
f 13/66/17 16/67/17 24/64/17
f 16/67/17 13/66/17 14/68/17
f 25/69/18 24/70/18 16/71/18
f 24/70/18 25/69/18 26/72/18
f 27/73/19 26/74/19 25/75/19
f 28/76/19 26/74/19 27/73/19
f 28/76/19 29/77/19 26/74/19
f 29/77/19 28/76/19 30/78/19
f 20/79/20 30/80/20 28/81/20
f 30/80/20 20/79/20 22/82/20
f 22/83/21 29/84/21 30/85/21
f 29/84/21 22/83/21 23/86/21
f 23/87/22 26/88/22 29/89/22
f 26/88/22 23/87/22 24/90/22
f 28/91/23 19/92/23 20/93/23
f 19/92/23 28/91/23 27/94/23
f 27/95/24 18/96/24 19/97/24
f 18/96/24 27/95/24 31/98/24
f 27/73/19 25/75/19 31/99/19
f 31/99/19 25/75/19 32/100/19
f 25/101/25 17/102/25 32/103/25
f 17/102/25 25/101/25 16/104/25
f 18/105/26 32/106/26 17/107/26
f 32/106/26 18/105/26 31/108/26
