# Blender v2.78 (sub 0) OBJ File: ''
# www.blender.org
mtllib naturePack_flat_001.mtl
o Mesh1_Plant_2_Model
v 0.375162 0.000000 -0.124348
v 0.375162 0.190814 -0.153913
v 0.375162 0.135586 0.000000
v 0.375162 0.000000 -0.375162
v 0.375162 0.349284 -0.268606
v 0.375162 0.635350 -0.375162
v 0.375162 0.349284 -0.481718
v 0.375162 0.000000 -0.625976
v 0.375162 0.190814 -0.596411
v 0.375162 0.135586 -0.750324
v 0.375162 0.420713 -0.633457
v 0.481718 0.349284 -0.375162
v 0.596411 0.190814 -0.375162
v 0.750324 0.135586 -0.375162
v 0.625976 0.000000 -0.375162
v 0.633457 0.420713 -0.375162
v 0.268606 0.349284 -0.375162
v 0.124348 0.000000 -0.375162
v 0.153913 0.190814 -0.375162
v 0.116868 0.420713 -0.375162
v 0.000000 0.135586 -0.375162
v 0.375162 0.420713 -0.116868
vt -0.0000 5.3380
vt 6.0596 7.5124
vt 4.8956 -0.0000
vt 14.7702 -0.0000
vt 10.5751 13.7514
vt 14.7702 25.0138
vt 18.9653 13.7514
vt 24.6447 -0.0000
vt 23.4807 7.5124
vt 29.5403 5.3380
vt 24.9392 16.5635
vt 24.6447 0.0000
vt 29.5403 5.3380
vt 23.4807 7.5124
vt 18.9653 13.7514
vt 24.9392 16.5635
vt 4.8956 0.0000
vt 10.5751 13.7514
vt 6.0596 7.5124
vt 4.6011 16.5635
vt 0.0000 5.3380
vt 4.6011 16.5635
vn -1.0000 -0.0000 0.0000
vn 1.0000 0.0000 0.0000
vn 0.0000 0.0000 -1.0000
vn 0.0000 -0.0000 1.0000
usemtl Green_leafs.048
s 1
f 3/1/1 2/2/1 1/3/1
f 4/4/1 1/3/1 2/2/1
f 5/5/1 4/4/1 2/2/1
f 6/6/1 4/4/1 5/5/1
f 7/7/2 4/4/2 8/8/2
f 6/6/1 7/7/1 4/4/1
f 7/7/2 8/8/2 9/9/2
f 9/9/2 8/8/2 10/10/2
f 11/11/2 7/7/2 9/9/2
f 15/12/3 4/4/3 14/13/3
f 13/14/3 14/13/3 4/4/3
f 12/15/3 13/14/3 4/4/3
f 16/16/4 12/15/4 13/14/4
f 6/6/3 12/15/3 4/4/3
f 18/17/3 17/18/3 4/4/3
f 18/17/4 17/18/4 19/19/4
f 20/20/4 19/19/4 17/18/4
f 21/21/3 19/19/3 18/17/3
f 6/6/3 4/4/3 17/18/3
f 5/5/2 22/22/2 2/2/2
