# Blender v2.78 (sub 0) OBJ File: ''
# www.blender.org
mtllib naturePack_171.mtl
o Mesh1_Group1_Model.084
v 0.496579 0.180000 0.000000
v 0.089547 0.000000 -0.338400
v 0.496579 0.000000 -0.103400
v 0.000000 0.180000 -0.286700
v 0.496579 0.570000 -0.072478
v 0.062768 0.570000 -0.322939
v 0.240630 0.770000 -0.425628
v 0.496579 0.770000 -0.277856
v 0.930390 0.570000 -0.322939
v 0.752528 0.770000 -0.425628
v 0.930390 0.570000 -0.823861
v 0.752528 0.770000 -0.721172
v 0.496579 0.770000 -0.868944
v 0.496579 0.570000 -1.074320
v 0.993158 0.180000 -0.860100
v 0.496579 0.180000 -1.146800
v 0.903611 0.000000 -0.808400
v 0.496579 0.000000 -1.043400
v 0.089547 0.000000 -0.808400
v 0.000000 0.180000 -0.860100
v 0.062768 0.570000 -0.823861
v 0.240630 0.770000 -0.721172
v 0.903611 0.000000 -0.338400
v 0.993158 0.180000 -0.286700
vt 16.9311 1.9909
vt -3.6083 -5.9243
vt 14.8957 -5.9243
vt -5.6437 1.9909
vt 15.5044 24.1017
vt -5.6437 8.5498
vt 16.9311 8.5498
vt -4.2170 24.1017
vt 15.5044 24.9072
vt -0.1741 35.4445
vt -4.2170 24.9072
vt 11.4615 35.4445
vt 38.0792 11.9152
vt 22.4007 22.4525
vt 18.3578 11.9152
vt 34.0363 22.4525
vt 32.4355 -7.5728
vt 16.7570 2.9645
vt 12.7141 -7.5728
vt 28.3926 2.9645
vt -15.5044 -14.0688
vt 0.1741 -3.5315
vt -11.4615 -3.5315
vt 4.2170 -14.0688
vt -16.9311 -0.7697
vt 4.2170 14.7822
vt -15.5044 14.7822
vt 5.6437 -0.7697
vt -14.8957 20.1995
vt 5.6437 28.1147
vt -16.9311 28.1147
vt 3.6083 20.1995
vt -19.5504 4.0709
vt -19.5504 41.0787
vt -35.5752 31.8268
vt -3.5255 13.3228
vt -3.5255 31.8268
vt -13.3228 -1.5703
vt -33.8622 6.3448
vt -31.8268 -1.5703
vt -11.2874 6.3448
vt -12.7141 22.5485
vt -33.8622 6.9966
vt -11.2874 6.9966
vt -32.4355 22.5485
vt -16.7570 28.9485
vt -32.4355 18.4112
vt -12.7141 18.4112
vt -28.3926 28.9485
vt 19.5504 10.9392
vt 9.4736 28.3926
vt 9.4736 16.7570
vt 19.5504 34.2104
vt 29.6271 16.7570
vt 29.6271 28.3926
vt -38.0792 -1.0768
vt -22.4007 9.4605
vt -34.0363 9.4605
vt -18.3578 -1.0768
vt -39.5059 2.3368
vt -18.3578 17.8887
vt -38.0792 17.8887
vt -16.9311 2.3368
vt -37.4705 11.4916
vt -16.9311 19.4067
vt -39.5059 19.4067
vt -18.9665 11.4916
vt -35.5752 13.3228
vt 33.8622 23.7607
vt 13.3228 15.8456
vt 31.8268 15.8456
vt 11.2874 23.7607
vt 33.8622 0.7836
vt 12.7141 16.3355
vt 11.2874 0.7836
vt 32.4355 16.3355
vt 38.0792 20.9952
vt 16.9311 5.4433
vt 39.5059 5.4433
vt 18.3578 20.9952
vt 18.9665 2.7837
vt 39.5059 10.6988
vt 16.9311 10.6988
vt 37.4705 2.7837
vn -0.4477 -0.4454 0.7754
vn -0.4936 0.1589 0.8550
vn -0.3736 0.6645 0.6471
vn 0.3736 0.6645 0.6471
vn 0.7473 0.6645 0.0000
vn 0.3736 0.6645 -0.6471
vn 0.4936 0.1589 -0.8550
vn 0.4477 -0.4454 -0.7754
vn -0.0000 -1.0000 -0.0000
vn -0.8953 -0.4454 -0.0000
vn -0.9873 0.1589 0.0000
vn -0.7473 0.6645 0.0000
vn 0.0000 1.0000 0.0000
vn -0.3736 0.6645 -0.6471
vn -0.4936 0.1589 -0.8550
vn -0.4477 -0.4454 -0.7754
vn 0.8953 -0.4454 -0.0000
vn 0.9873 0.1589 0.0000
vn 0.4936 0.1589 0.8550
vn 0.4477 -0.4454 0.7754
usemtl Stone.051
s 1
f 1/1/1 2/2/1 3/3/1
f 2/2/1 1/1/1 4/4/1
f 5/5/2 4/6/2 1/7/2
f 4/6/2 5/5/2 6/8/2
f 5/9/3 7/10/3 6/11/3
f 7/10/3 5/9/3 8/12/3
f 9/13/4 8/14/4 5/15/4
f 8/14/4 9/13/4 10/16/4
f 11/17/5 10/18/5 9/19/5
f 10/18/5 11/17/5 12/20/5
f 11/21/6 13/22/6 12/23/6
f 13/22/6 11/21/6 14/24/6
f 15/25/7 14/26/7 11/27/7
f 14/26/7 15/25/7 16/28/7
f 17/29/8 16/30/8 15/31/8
f 16/30/8 17/29/8 18/32/8
f 3/33/9 18/34/9 17/35/9
f 2/36/9 18/34/9 3/33/9
f 18/34/9 2/36/9 19/37/9
f 2/38/10 20/39/10 19/40/10
f 20/39/10 2/38/10 4/41/10
f 6/42/11 20/43/11 4/44/11
f 20/43/11 6/42/11 21/45/11
f 7/46/12 21/47/12 6/48/12
f 21/47/12 7/46/12 22/49/12
f 8/50/13 22/51/13 7/52/13
f 22/51/13 8/50/13 13/53/13
f 13/53/13 8/50/13 10/54/13
f 13/53/13 10/54/13 12/55/13
f 14/56/14 22/57/14 13/58/14
f 22/57/14 14/56/14 21/59/14
f 16/60/15 21/61/15 14/62/15
f 21/61/15 16/60/15 20/63/15
f 18/64/16 20/65/16 16/66/16
f 20/65/16 18/64/16 19/67/16
f 3/33/9 17/35/9 23/68/9
f 15/69/17 23/70/17 17/71/17
f 23/70/17 15/69/17 24/72/17
f 15/73/18 9/74/18 24/75/18
f 9/74/18 15/73/18 11/76/18
f 9/77/19 1/78/19 24/79/19
f 1/78/19 9/77/19 5/80/19
f 3/81/20 24/82/20 1/83/20
f 24/82/20 3/81/20 23/84/20
