# Blender v2.78 (sub 0) OBJ File: ''
# www.blender.org
mtllib naturePack_163.mtl
o Mesh1_Group1_Model.079
v 1.013860 0.000000 -0.961138
v 0.926394 2.514120 -0.677634
v 1.013860 0.000000 -0.590170
v 0.926394 2.514120 -0.873674
v 0.730354 2.514120 -0.873674
v 0.642890 0.000000 -0.961138
v 0.642890 0.000000 -0.590170
v 0.730354 2.514120 -0.677634
v 0.918320 2.514120 -0.677634
v 1.424860 2.514120 0.000000
v 0.294067 2.514120 0.000000
v 0.226254 2.514120 -1.567800
v 0.117292 2.514120 -0.176775
v 0.117292 2.514120 -1.414580
v 0.331462 3.216250 -0.214169
v 0.331462 3.216250 -1.213629
v 0.170441 3.216250 -1.327850
v 0.122500 3.216250 -0.099945
v 0.000000 3.216250 -0.222445
v 0.000000 3.216250 -1.189450
v 0.401424 4.085770 -0.284131
v 0.401424 4.085770 -1.143669
v 0.303191 4.085770 -0.312309
v 0.429602 4.085770 -0.185899
v 1.260960 4.085770 -0.284131
v 1.369460 3.216250 -0.099945
v 1.330920 3.216250 -0.214169
v 1.545090 2.514120 -0.120233
v 1.545090 2.514120 -1.445190
v 1.422480 2.514120 -1.567800
v 0.738427 2.514120 -0.873674
v 1.330920 3.216250 -1.213629
v 1.369460 3.216250 -1.327850
v 1.260960 4.085770 -1.143669
v 0.451025 4.085770 -1.241899
v 0.303191 4.085770 -1.130559
v 0.560906 6.118420 -0.684595
v 0.560906 6.118420 -0.744303
v 0.570130 6.118420 -0.675370
v 0.571693 6.118420 -0.752428
v 1.369460 4.085770 -1.241899
v 0.638712 6.118420 -0.752428
v 0.631977 6.118420 -0.675370
v 1.277170 4.085770 -0.185899
v 1.445150 3.216250 -1.189450
v 1.445150 3.216250 -0.175632
v 1.499190 4.085770 -0.312309
v 1.499190 4.085770 -1.112169
v 0.648179 6.118420 -0.742961
v 0.648179 6.118420 -0.684595
v 0.828374 2.514120 -0.775654
vt -56.0968 0.0000
vt -36.1543 26.6785
vt -36.4722 26.6785
vt -28.7541 26.6785
vt -11.5774 0.0000
vt -28.7541 34.3966
vt -8.9076 61.7244
vt -4.6178 6.9597
vt -4.6178 55.6923
vt -8.4319 124.9220
vt -55.6923 96.0221
vt -6.9597 96.0221
vt -47.7807 124.9220
vt -13.0497 8.4319
vt -6.7103 52.2777
vt -13.0497 47.7807
vt -4.8228 3.9349
vt 0.0000 8.7577
vt 0.0000 46.8286
vt -11.1863 152.6690
vt -46.8286 114.9640
vt -8.7577 114.9640
vt -45.0263 152.6690
vt -15.8041 11.1863
vt -11.9367 12.2957
vt -15.8041 45.0263
vt -16.9134 7.3189
vt -49.6441 11.1863
vt 4.8228 124.6910
vt 49.6441 159.6830
vt 15.8041 159.6830
vt 53.9157 124.6910
vt -53.9157 3.9349
vt -52.3985 8.4319
vt 11.5774 94.6748
vt 52.3985 123.5750
vt 13.0497 123.5750
vt 56.0968 94.6748
vt 43.0136 111.7230
vt 39.6664 82.7796
vt 46.3607 82.7796
vt -60.8304 56.8972
vt -60.8304 4.7336
vt -56.0032 61.7244
vt -36.4722 34.3966
vt -29.0719 34.3966
vt -13.0497 91.5364
vt -56.0032 60.5758
vt -8.9076 60.5758
vt -52.3985 91.5364
vt -53.9157 52.2777
vt -52.3985 47.7807
vt -15.8041 148.0350
vt -53.9157 113.0420
vt -6.7103 113.0420
vt -49.6441 148.0350
vt -17.7569 48.8937
vt -49.6441 45.0263
vt -11.9367 44.5101
vt -26.9526 241.7470
vt -44.5101 161.0810
vt -12.2957 161.0810
vt -29.3033 241.7470
vt -43.5992 150.5210
vt -35.2688 232.6020
vt -35.8005 232.6020
vt -36.3128 150.5210
vt -22.5076 227.2530
vt -53.9157 144.9400
vt -17.7569 144.9400
vt -25.1462 227.2530
vt 16.9134 158.1000
vt 24.8810 240.4140
vt 22.4461 240.4140
vt 50.2821 158.1000
vt -50.2821 7.3189
vt -53.9157 48.8937
vt 11.1863 147.0780
vt 46.8286 112.0850
vt 45.0263 147.0780
vt 6.9147 112.0850
vt 43.0136 150.1890
vt 40.9065 115.0000
vt 45.1206 115.0000
vt -56.8955 46.8286
vt -56.8955 6.9147
vt 8.4319 105.8270
vt 56.8972 76.9270
vt 47.7807 105.8270
vt 4.7336 76.9270
vt 4.0455 56.2095
vt -3.2653 86.5097
vt -2.7812 56.2095
vt 19.9994 108.9410
vt 15.6866 143.9290
vt 13.7888 108.9410
vt -59.0233 12.2957
vt -59.0233 43.7861
vt 3.1657 206.6010
vt -10.7743 119.6640
vt -3.5511 119.6640
vt 2.6386 206.6010
vt 47.3174 144.6730
vt 35.5119 229.8990
vt 34.7779 229.8990
vt 57.3761 144.6730
vt 43.7861 125.5830
vt 26.9526 212.3400
vt 12.2957 125.5830
vt 29.2505 212.3400
vt -2.9298 242.7210
vt -0.2539 160.7960
vt 6.7844 160.7960
vt -3.4434 242.7210
vt -40.6522 144.7960
vt -38.1640 108.7270
vt -29.5199 108.7270
vt -55.4638 80.5222
vt -48.0618 80.5222
vt -46.5012 110.4450
vt -32.6131 30.5376
vt 3.2653 126.4770
vt -1.6560 97.9604
vt 8.1865 97.9604
vt 3.2653 157.2620
vt -6.1926 120.6820
vt 0.6279 120.6820
vt -22.0829 29.3033
vt -22.4461 26.5894
vt -22.0829 26.9526
vt -22.5076 29.6232
vt -24.8810 26.5894
vt -25.1462 29.6232
vt -25.5189 26.9526
vt -25.5189 29.2505
vt 37.8401 -1.3878
vt 26.6785 97.6534
vt 23.2350 -1.3878
vt 34.3966 97.6534
vt -39.9157 -1.3156
vt -28.7541 97.7255
vt -36.4722 97.7255
vt -25.3106 -1.3156
vt -39.9157 37.8401
vt -25.3106 23.2350
vt -25.3106 37.8401
vt -39.9157 23.2350
vt 36.4722 99.8490
vt 25.3106 0.8078
vt 39.9157 0.8078
vt 28.7541 99.8490
vt 36.1543 99.8490
vt -29.0719 97.7255
vt -37.8401 0.8800
vt -26.6785 99.9211
vt -34.3966 99.9211
vt -23.2350 0.8800
vn 0.0000 -1.0000 0.0000
vn -0.9565 0.2918 0.0000
vn -0.9079 0.4192 0.0000
vn 0.0000 0.2072 0.9783
vn 0.0000 0.2918 0.9565
vn 0.6754 0.2964 0.6753
vn 0.0000 0.4504 -0.8928
vn 0.0000 0.2072 -0.9783
vn -0.9921 0.1258 0.0000
vn -0.5865 0.2224 -0.7788
vn -0.5866 0.2224 -0.7788
vn 0.0000 0.2341 -0.9722
vn 0.0000 0.2341 0.9722
vn 0.9783 0.2072 0.0000
vn 0.6879 0.2315 0.6879
vn 0.9565 0.2918 0.0000
vn 0.6451 0.4095 -0.6451
vn 0.8584 0.2066 -0.4695
vn 0.6509 0.3907 -0.6509
vn 0.4646 0.3440 0.8160
vn 0.9224 0.3862 0.0000
vn -0.6908 0.2141 0.6907
vn -0.6907 0.2141 0.6907
vn -0.5983 0.3150 -0.7368
vn -0.7528 0.3829 -0.5354
vn -0.6855 0.2456 0.6855
vn -0.6617 0.3524 0.6617
vn 0.9994 0.0348 0.0000
vn 0.0000 0.0348 -0.9994
vn 0.0000 0.0348 0.9994
vn -0.0000 0.0347 0.9994
vn 0.0000 0.0347 -0.9994
vn -0.9994 0.0348 0.0000
usemtl Leafs.058
s 1
f 10/1/1 9/2/1 2/3/1
f 10/1/1 8/4/1 9/2/1
f 11/5/1 8/4/1 10/1/1
f 8/4/1 11/5/1 5/6/1
f 11/5/1 12/7/1 5/6/1
f 13/8/1 12/7/1 11/5/1
f 12/7/1 13/8/1 14/9/1
f 15/10/2 14/11/2 13/12/2
f 14/11/2 15/10/2 16/13/2
f 15/14/1 17/15/1 16/16/1
f 18/17/1 17/15/1 15/14/1
f 19/18/1 17/15/1 18/17/1
f 17/15/1 19/18/1 20/19/1
f 21/20/3 20/21/3 19/22/3
f 20/21/3 21/20/3 22/23/3
f 21/24/1 23/25/1 22/26/1
f 23/25/1 21/24/1 24/27/1
f 24/27/1 21/24/1 25/28/1
f 18/29/4 25/30/4 21/31/4
f 25/30/4 18/29/4 26/32/4
f 18/17/1 15/14/1 26/33/1
f 26/33/1 15/14/1 27/34/1
f 11/35/5 27/36/5 15/37/5
f 27/36/5 11/35/5 10/38/5
f 27/39/6 10/40/6 28/41/6
f 10/1/1 29/42/1 28/43/1
f 10/1/1 30/44/1 29/42/1
f 10/1/1 2/3/1 30/44/1
f 4/45/1 30/44/1 2/3/1
f 31/46/1 30/44/1 4/45/1
f 5/6/1 30/44/1 31/46/1
f 5/6/1 12/7/1 30/44/1
f 16/47/7 30/48/7 12/49/7
f 30/48/7 16/47/7 32/50/7
f 16/16/1 33/51/1 32/52/1
f 33/51/1 16/16/1 17/15/1
f 22/53/8 33/54/8 17/55/8
f 33/54/8 22/53/8 34/56/8
f 22/26/1 35/57/1 34/58/1
f 22/26/1 36/59/1 35/57/1
f 36/59/1 22/26/1 23/25/1
f 37/60/9 36/61/9 23/62/9
f 36/61/9 37/60/9 38/63/9
f 35/64/10 38/65/11 40/66/11
f 38/65/11 35/64/10 36/67/10
f 40/68/12 41/69/12 35/70/12
f 41/69/12 40/68/12 42/71/12
f 24/72/13 43/73/13 39/74/13
f 43/73/13 24/72/13 44/75/13
f 24/27/1 25/28/1 44/76/1
f 25/28/1 41/77/1 44/76/1
f 34/58/1 41/77/1 25/28/1
f 34/58/1 35/57/1 41/77/1
f 25/78/14 45/79/14 34/80/14
f 45/79/14 25/78/14 46/81/14
f 25/82/15 26/83/15 46/84/15
f 26/33/1 45/85/1 46/86/1
f 26/33/1 33/51/1 45/85/1
f 26/33/1 27/34/1 33/51/1
f 32/52/1 33/51/1 27/34/1
f 27/87/16 29/88/16 32/89/16
f 29/88/16 27/87/16 28/90/16
f 30/91/17 32/92/17 29/93/17
f 33/94/18 34/95/18 45/96/18
f 44/76/1 41/77/1 47/97/1
f 47/97/1 41/77/1 48/98/1
f 42/99/19 48/100/19 41/101/19
f 48/100/19 42/99/19 49/102/19
f 44/103/20 50/104/20 43/105/20
f 50/104/20 44/103/20 47/106/20
f 48/107/21 50/108/21 47/109/21
f 50/108/21 48/107/21 49/110/21
f 39/111/22 23/112/23 24/113/23
f 23/112/23 39/111/22 37/114/22
f 22/115/24 17/116/24 20/117/24
f 12/118/25 14/119/25 16/120/25
f 51/121/1 8/4/1 5/6/1
f 8/4/1 51/121/1 9/2/1
f 2/3/1 9/2/1 51/121/1
f 15/122/26 13/123/26 11/124/26
f 21/125/27 19/126/27 18/127/27
usemtl FrontColor.004
f 38/128/1 39/129/1 37/130/1
f 39/129/1 38/128/1 40/131/1
f 43/132/1 40/131/1 42/133/1
f 39/129/1 40/131/1 43/132/1
f 50/134/1 42/133/1 49/135/1
f 43/132/1 42/133/1 50/134/1
usemtl Wood.099
f 1/136/28 2/137/28 3/138/28
f 2/137/28 1/136/28 4/139/28
f 1/140/29 5/141/29 4/142/29
f 5/141/29 1/140/29 6/143/29
f 1/144/1 7/145/1 6/146/1
f 7/145/1 1/144/1 3/147/1
f 2/148/30 7/149/30 3/150/30
f 7/149/30 2/148/30 8/151/30
f 8/151/31 2/148/31 9/152/31
f 51/121/1 5/6/1 31/46/1
f 51/121/1 4/45/1 2/3/1
f 4/45/1 51/121/1 31/46/1
f 4/142/32 5/141/32 31/153/32
f 6/154/33 8/155/33 5/156/33
f 8/155/33 6/154/33 7/157/33
