# Blender v2.78 (sub 0) OBJ File: ''
# www.blender.org
mtllib naturePack_038.mtl
o Mesh1_Group1_Model.027
v 0.543392 2.140000 -0.386473
v 0.366413 1.430000 -0.603796
v 0.487351 1.430000 -0.367903
v 0.458736 2.140000 -0.551599
v 0.889576 2.140000 -0.401147
v 0.728256 2.140000 -0.308008
v 0.751441 1.430000 -0.255810
v 0.403127 0.000000 -0.186820
v 0.843278 0.000000 0.000000
v 0.529866 0.000000 -1.279050
v 0.000000 0.000000 -0.973133
v 0.245475 1.430000 -0.839690
v 0.563394 1.430000 -1.023240
v 0.981899 1.430000 -0.388865
v 1.227370 0.000000 -0.221758
v 1.227370 0.000000 -0.586758
v 0.981899 1.430000 -0.607865
vt 21.3934 15.2155
vt 35.0227 15.7932
vt 18.0605 21.7165
vt 28.6715 12.1263
vt 14.4257 23.7715
vt 22.1809 40.2851
vt 9.6644 33.0587
vt 38.6574 15.3096
vt 38.6574 23.9317
vt -3.7797 86.0965
vt -14.5723 58.0495
vt -4.1357 58.0495
vt -11.0853 86.0965
vt 12.0028 57.3567
vt 21.6547 85.3515
vt 13.7481 85.3515
vt 23.2978 57.3567
vt 11.7359 1.7931
vt 23.2978 58.6381
vt 12.0028 58.6381
vt 30.5610 1.7931
vt -15.8711 7.3551
vt -20.8609 50.3564
vt -33.1999 0.0000
vt 0.0000 38.3123
vt -4.1357 58.5542
vt -34.0929 1.9143
vt 0.6956 1.9143
vt -14.5723 58.5542
vt -25.0088 58.5542
vt -9.8912 83.5204
vt -31.4488 55.5578
vt -5.7821 55.5578
vt -27.8579 83.5204
vt 38.2271 83.6779
vt 30.6564 55.6359
vt 41.1331 55.6359
vt 30.8934 83.6779
vt 28.7520 -3.0518
vt 41.1331 54.2236
vt 30.6564 54.2236
vt 46.2132 -3.0518
vt -48.3218 23.1007
vt -48.3218 8.7306
vt 12.6358 51.1046
vt -18.0233 -5.5370
vt 20.6674 -5.5370
vt -10.5786 51.1046
vt 15.3096 48.9473
vt 23.1007 -8.1754
vt 23.9317 48.9473
vt 8.7306 -8.1754
vt -43.2442 -5.4540
vt -24.8989 51.6216
vt -39.3518 51.6216
vt -19.1562 -5.4540
vn 0.0000 1.0000 0.0000
vn -0.8869 0.0819 0.4547
vn -0.3901 0.0548 0.9191
vn -0.3870 0.1382 0.9117
vn -0.0000 -1.0000 -0.0000
vn -0.8845 0.1095 0.4535
vn 0.3296 0.0265 -0.9438
vn 0.4984 0.0797 0.8633
vn 0.4915 0.1838 0.8513
vn 0.7002 0.1098 -0.7055
vn 0.9856 0.1692 0.0000
vn -0.4932 0.1644 -0.8542
usemtl Green_leafs.020
s 1
f 1/1/1 5/2/1 4/3/1
f 5/2/1 1/1/1 6/4/1
f 2/5/1 13/6/1 12/7/1
f 13/6/1 2/5/1 14/8/1
f 13/6/1 14/8/1 17/9/1
usemtl Wood.024
f 1/10/2 2/11/2 3/12/2
f 2/11/2 1/10/2 4/13/2
f 3/14/3 6/15/3 1/16/3
f 6/15/3 3/14/3 7/17/3
f 8/18/4 7/19/4 3/20/4
f 7/19/4 8/18/4 9/21/4
f 8/22/5 10/23/5 9/24/5
f 10/23/5 8/22/5 11/25/5
f 3/26/6 11/27/6 8/28/6
f 11/27/6 3/26/6 2/29/6
f 11/27/6 2/29/6 12/30/6
f 4/31/7 14/32/7 2/33/7
f 14/32/7 4/31/7 5/34/7
f 5/35/8 7/36/8 14/37/8
f 7/36/8 5/35/8 6/38/8
f 9/39/9 14/40/9 7/41/9
f 14/40/9 9/39/9 15/42/9
f 9/24/5 16/43/5 15/44/5
f 9/24/5 10/23/5 16/43/5
f 13/45/10 16/46/10 10/47/10
f 16/46/10 13/45/10 17/48/10
f 14/49/11 16/50/11 17/51/11
f 16/50/11 14/49/11 15/52/11
f 10/53/12 12/54/12 13/55/12
f 12/54/12 10/53/12 11/56/12
