# Blender v2.78 (sub 0) OBJ File: ''
# www.blender.org
mtllib naturePack_135.mtl
o Mesh1_Rock_1_Model
v 0.401200 0.640000 -0.183944
v 0.401200 0.640000 -0.837966
v 0.212400 0.640000 -0.510955
v 0.778800 0.640000 -0.183944
v 0.295000 0.000000 -0.000000
v 0.885000 0.000000 0.000000
v 0.295000 0.000000 -1.021910
v 0.000000 0.000000 -0.510955
v 0.885000 0.000000 -1.021910
v 0.778800 0.640000 -0.837966
v 0.967600 0.640000 -0.510955
v 1.180000 0.000000 -0.510955
vt 15.7953 7.2419
vt 15.7953 32.9908
vt 8.3622 20.1163
vt 30.6614 7.2419
vt 11.6142 0.0000
vt 30.6614 26.2169
vt 15.7953 26.2169
vt 34.8425 0.0000
vt -11.6142 0.0000
vt -11.6142 40.2327
vt -34.8425 0.0000
vt 0.0000 20.1163
vt 1.6260 28.9953
vt -17.4213 2.7784
vt 5.8071 2.7784
vt -13.2402 28.9953
vt -36.4685 23.4385
vt -17.4213 -2.7784
vt -21.6024 23.4385
vt -40.6496 -2.7784
vt -15.7953 15.1035
vt -34.8425 -11.1135
vt -11.6142 -11.1135
vt -30.6614 15.1035
vt 30.6614 32.9908
vt 38.0945 20.1163
vt 21.6024 17.8818
vt 40.6496 -8.3351
vt 36.4685 17.8818
vt 17.4213 -8.3351
vt -34.8425 40.2327
vt -46.4567 20.1163
vt 13.2402 12.3251
vt -5.8071 -13.8918
vt 17.4213 -13.8918
vt -1.6260 12.3251
vn -0.0000 1.0000 0.0000
vn -0.0000 0.2762 0.9611
vn -0.0000 -1.0000 -0.0000
vn -0.8323 0.2762 0.4805
vn -0.8323 0.2762 -0.4805
vn 0.0000 0.2762 -0.9611
vn 0.8323 0.2762 0.4805
vn 0.8323 0.2762 -0.4805
usemtl Stone.038
s 1
f 1/1/1 2/2/1 3/3/1
f 2/2/1 1/1/1 4/4/1
f 5/5/2 4/6/2 1/7/2
f 4/6/2 5/5/2 6/8/2
f 5/9/3 7/10/3 6/11/3
f 7/10/3 5/9/3 8/12/3
f 1/13/4 8/14/4 5/15/4
f 8/14/4 1/13/4 3/16/4
f 2/17/5 8/18/5 3/19/5
f 8/18/5 2/17/5 7/20/5
f 2/21/6 9/22/6 7/23/6
f 9/22/6 2/21/6 10/24/6
f 2/2/1 4/4/1 10/25/1
f 10/25/1 4/4/1 11/26/1
f 4/27/7 12/28/7 11/29/7
f 12/28/7 4/27/7 6/30/7
f 6/11/3 9/31/3 12/32/3
f 6/11/3 7/10/3 9/31/3
f 10/33/8 12/34/8 9/35/8
f 12/34/8 10/33/8 11/36/8
