# Blender v2.78 (sub 0) OBJ File: ''
# www.blender.org
mtllib naturePack_047.mtl
o Mesh1_Group1_Model.036
v 0.201300 0.885988 -0.100650
v 2.798700 0.885988 -2.798700
v 0.201300 0.885988 -0.201300
v 2.899350 0.885988 -2.798700
v 2.899350 0.630000 -2.798700
v 0.201300 0.630000 -0.100650
v 0.201300 0.630000 -0.201300
v 2.798700 0.630000 -2.798700
v 0.201300 0.475988 -0.201300
v 0.201300 0.475988 -0.100650
v 0.201300 0.220000 -0.100650
v 0.201300 1.112990 0.000000
v 0.201300 1.112990 -0.201300
v 0.000000 1.112990 -0.201300
v 0.201300 0.220000 -0.201300
v 0.201300 0.000000 -0.201300
v 0.000000 0.000000 -0.201300
v 0.000000 0.000000 0.000000
v 0.201300 0.000000 -0.000000
v 0.000000 1.112990 0.000000
v 2.798700 0.220000 -2.798700
v 2.899350 0.220000 -2.798700
v 2.798700 0.000000 -2.798700
v 2.798700 0.000000 -3.000000
v 2.798700 1.112990 -3.000000
v 2.798700 0.475988 -2.798700
v 2.798700 1.112990 -2.798700
v 3.000000 1.112990 -2.798700
v 2.899350 0.475988 -2.798700
v 3.000000 0.000000 -2.798700
v 3.000000 0.000000 -3.000000
v 3.000000 1.112990 -3.000000
vt 7.9252 3.9626
vt 110.1850 110.1850
vt 7.9252 7.9252
vt 114.1480 110.1850
vt 8.4059 34.8814
vt 158.6270 24.8031
vt 158.6270 34.8814
vt 8.4059 24.8031
vt 7.9252 24.8031
vt 3.9626 34.8814
vt 3.9626 24.8031
vt 7.9252 34.8814
vt -155.8250 34.8814
vt -11.2079 24.8031
vt -11.2079 34.8814
vt -155.8250 24.8031
vt 110.1850 24.8031
vt 114.1480 34.8814
vt 110.1850 34.8814
vt 114.1480 24.8031
vt -7.9252 3.9626
vt -110.1850 110.1850
vt -114.1480 110.1850
vt -7.9252 7.9252
vt 7.9252 18.7397
vt 3.9626 18.7397
vt 3.9626 8.6614
vt 0.0000 43.8186
vt 7.9252 43.8186
vt -7.9252 34.8814
vt -0.0000 43.8186
vt -7.9252 43.8186
vt -7.9252 24.8031
vt -7.9252 18.7397
vt -7.9252 8.6614
vt -7.9252 0.0000
vt -0.0000 0.0000
vt -7.9252 7.9252
vt -0.0000 0.0000
vt 0.0000 7.9252
vt -7.9252 0.0000
vt 0.0000 0.0000
vt 7.9252 0.0000
vt 7.9252 43.8186
vt 7.9252 0.0000
vt 0.0000 43.8186
vt 7.9252 7.9252
vt 0.0000 0.0000
vt 7.9252 0.0000
vt 0.0000 7.9252
vt -7.9252 43.8186
vt -7.9252 0.0000
vt 7.9252 8.6614
vt -110.1850 110.1850
vt -7.9252 3.9626
vt -7.9252 7.9252
vt -114.1480 110.1850
vt 110.1850 8.6614
vt 110.1850 -0.0000
vt 114.1480 8.6614
vt -110.1850 8.6614
vt -118.1100 -0.0000
vt -110.1850 -0.0000
vt -118.1100 43.8186
vt -110.1850 18.7397
vt -110.1850 24.8031
vt -110.1850 34.8814
vt -110.1850 43.8186
vt 118.1100 43.8186
vt 110.1850 43.8186
vt 114.1480 18.7397
vt 118.1100 -0.0000
vt -110.1850 110.1850
vt -118.1100 118.1100
vt -118.1100 110.1850
vt -110.1850 118.1100
vt -110.1850 43.8186
vt -118.1100 0.0000
vt -110.1850 0.0000
vt -118.1100 43.8186
vt 110.1850 118.1100
vt 118.1100 110.1850
vt 118.1100 118.1100
vt 110.1850 110.1850
vt 110.1850 43.8186
vt 118.1100 0.0000
vt 118.1100 43.8186
vt 110.1850 0.0000
vt 8.4059 18.7397
vt 158.6270 8.6614
vt 158.6270 18.7397
vt 8.4059 8.6614
vt -155.8250 18.7397
vt -11.2079 8.6614
vt -11.2079 18.7397
vt -155.8250 8.6614
vt 110.1850 18.7397
vt 7.9252 7.9252
vt 114.1480 110.1850
vt 110.1850 110.1850
vt 7.9252 3.9626
vn 0.0000 1.0000 0.0000
vn 0.7071 -0.0000 0.7071
vn 1.0000 0.0000 0.0000
vn -0.7071 0.0000 -0.7071
vn 0.0000 -0.0000 1.0000
vn -0.0000 -1.0000 0.0000
vn 0.1812 0.0000 0.9834
vn 0.2000 -0.4000 -0.8944
vn -0.0000 0.0000 -1.0000
vn -1.0000 -0.0000 0.0000
usemtl Wood.027
s 1
f 1/1/1 2/2/1 3/3/1
f 2/2/1 1/1/1 4/4/1
f 1/5/2 5/6/2 4/7/2
f 5/6/2 1/5/2 6/8/2
f 7/9/3 1/10/3 6/11/3
f 1/10/3 7/9/3 3/12/3
f 2/13/4 7/14/4 3/15/4
f 7/14/4 2/13/4 8/16/4
f 8/17/5 4/18/5 2/19/5
f 4/18/5 8/17/5 5/20/5
f 6/21/6 8/22/6 5/23/6
f 8/22/6 6/21/6 7/24/6
f 6/11/3 9/25/3 7/9/3
f 9/25/3 6/11/7 10/26/8
f 1/10/3 10/26/8 6/11/7
f 1/10/3 11/27/3 10/26/8
f 1/10/3 12/28/3 11/27/3
f 12/28/3 1/10/3 13/29/3
f 13/29/3 1/10/3 3/12/3
f 3/30/9 14/31/9 13/32/9
f 7/33/9 14/31/9 3/30/9
f 9/34/9 14/31/9 7/33/9
f 15/35/9 14/31/9 9/34/9
f 16/36/9 14/31/9 15/35/9
f 14/31/9 16/36/9 17/37/9
f 16/38/6 18/39/6 17/40/6
f 18/39/6 16/38/6 19/41/6
f 11/27/3 19/42/3 16/43/3
f 19/42/3 11/27/3 12/28/3
f 12/44/5 18/39/5 19/45/5
f 18/39/5 12/44/5 20/46/5
f 13/47/1 20/48/1 12/49/1
f 20/48/1 13/47/1 14/50/1
f 14/51/10 18/39/10 20/46/10
f 18/39/10 14/51/10 17/52/10
f 11/27/3 16/43/3 15/53/3
f 21/54/6 11/55/6 15/56/6
f 11/55/6 21/54/6 22/57/6
f 21/58/5 23/59/5 22/60/5
f 21/61/10 24/62/10 23/63/10
f 24/62/10 21/61/10 25/64/10
f 26/65/10 25/64/10 21/61/10
f 8/66/10 25/64/10 26/65/10
f 2/67/10 25/64/10 8/66/10
f 25/64/10 2/67/10 27/68/10
f 2/19/5 28/69/5 27/70/5
f 4/18/5 28/69/5 2/19/5
f 5/20/5 28/69/5 4/18/5
f 29/71/5 28/69/5 5/20/5
f 22/60/5 28/69/5 29/71/5
f 22/60/5 30/72/5 28/69/5
f 30/72/5 22/60/5 23/59/5
f 23/73/6 31/74/6 30/75/6
f 31/74/6 23/73/6 24/76/6
f 25/77/9 31/78/9 24/79/9
f 31/78/9 25/77/9 32/80/9
f 25/81/1 28/82/1 32/83/1
f 28/82/1 25/81/1 27/84/1
f 28/85/3 31/86/3 32/87/3
f 31/86/3 28/85/3 30/88/3
f 10/89/2 22/90/2 29/91/2
f 22/90/2 10/89/2 11/92/2
f 15/53/3 10/26/3 11/27/3
f 10/26/3 15/53/3 9/25/3
f 26/93/4 15/94/4 9/95/4
f 15/94/4 26/93/4 21/96/4
f 21/58/5 29/71/5 26/97/5
f 29/71/5 21/58/5 22/60/5
f 9/98/1 29/99/1 26/100/1
f 29/99/1 9/98/1 10/101/1
f 29/71/5 5/20/5 26/97/5
f 8/17/5 26/97/5 5/20/5
