# Blender v2.78 (sub 0) OBJ File: ''
# www.blender.org
mtllib naturePack_022.mtl
o Mesh1_Group1_Model.015
v 0.607476 0.530000 -0.277547
v 0.146715 0.000000 0.000000
v 0.816846 0.000000 0.000000
v 0.354523 0.530000 -0.277547
v 0.529638 0.530000 -0.637128
v 0.312675 0.530000 -0.420165
v 0.500000 0.000000 -1.000000
v 0.000000 0.000000 -0.500000
v 1.000000 0.000000 -0.641226
v 0.679474 0.530000 -0.529614
vt 20.8519 25.0838
vt 13.9576 10.9270
vt 23.9164 10.9270
vt 12.3100 16.5419
vt 26.7509 20.8509
vt 23.9164 23.5541
vt 5.7762 -0.0000
vt 32.1593 -0.0000
vt 13.9576 23.5541
vt -41.7583 -6.4574
vt -20.4014 17.0967
vt -32.4814 17.0967
vt -13.9194 -6.4574
vt -19.6850 39.3701
vt -5.7762 0.0000
vt 0.0000 19.6850
vt -32.1593 0.0000
vt -39.3701 25.2451
vt -2.3181 3.3909
vt -17.2696 -20.1633
vt 6.9588 -20.1633
vt -9.5786 3.3909
vt 17.0754 9.2087
vt 35.0872 -14.3454
vt 27.3962 9.2087
vt 8.8324 -14.3454
vt -6.5551 26.1253
vt -18.8887 2.5712
vt 1.6263 2.5712
vt -12.4067 26.1253
vn 0.0000 1.0000 0.0000
vn 0.0000 0.4639 0.8859
vn -0.6264 0.4639 -0.6264
vn 0.0000 -1.0000 -0.0000
vn 0.5165 0.4639 -0.7198
vn 0.8518 0.4639 0.2433
vn -0.8500 0.4639 0.2494
usemtl Green_leafs.015
s 1
f 5/1/1 4/2/1 1/3/1
f 4/2/1 5/1/1 6/4/1
f 5/1/1 1/3/1 10/5/1
usemtl Wood.019
f 1/6/2 2/7/2 3/8/2
f 2/7/2 1/6/2 4/9/2
f 7/10/3 6/11/3 5/12/3
f 6/11/3 7/10/3 8/13/3
f 7/14/4 2/15/4 8/16/4
f 2/15/4 7/14/4 3/17/4
f 3/17/4 7/14/4 9/18/4
f 5/19/5 9/20/5 7/21/5
f 9/20/5 5/19/5 10/22/5
f 1/23/6 9/24/6 10/25/6
f 9/24/6 1/23/6 3/26/6
f 4/27/7 8/28/7 2/29/7
f 8/28/7 4/27/7 6/30/7
