# Blender v2.78 (sub 0) OBJ File: ''
# www.blender.org
mtllib naturePack_075.mtl
o Mesh1_Group1_Model.053
v 2.827420 0.000001 -3.220000
v 2.520000 0.000001 -3.220000
v 2.747940 0.000001 -3.415050
v 1.680000 1.950001 -3.220000
v 3.360000 0.000001 -3.220000
v 2.520000 1.950001 -3.220000
v 1.680000 2.800000 -3.220000
v 0.840000 1.950001 -3.220000
v 0.532575 0.000001 -3.220000
v 0.000000 0.000001 -3.220000
v 0.156946 0.364339 -2.876280
v 0.156946 0.364339 -2.666280
v 0.207474 0.481637 -2.197000
v 0.207474 0.481637 -1.857000
v 0.000000 0.000000 0.000000
v 0.840000 1.950000 0.000000
v 2.520000 1.950000 0.000000
v 3.360000 0.000000 0.000000
v 2.402050 2.069350 -0.429676
v 2.402050 2.069350 -0.709676
v 2.283000 2.189820 -0.793197
v 2.283000 2.189820 -1.063200
v 2.149450 2.324960 -1.063200
v 2.149450 2.324960 -0.793197
v 1.997790 2.478420 -0.693986
v 1.997790 2.478420 -0.443986
v 1.680000 2.800000 0.000000
v 0.298468 0.692872 -1.857000
v 0.298468 0.692872 -2.197000
v 0.344627 0.800028 -2.522700
v 0.344627 0.800028 -2.722700
v 0.285284 0.662266 -2.722700
v 0.240027 0.557205 -2.876280
v 0.240027 0.557205 -2.666280
v 0.285284 0.662266 -2.522700
v 2.247410 2.225830 -0.429676
v 2.247410 2.225830 -0.709676
v 2.096200 2.378850 -0.693986
v 2.096200 2.378850 -0.443986
v 0.840000 0.000001 -3.220000
v 0.612065 0.000001 -3.415050
vt -104.9720 15.6183
vt -113.2390 23.8860
vt -113.2390 15.6183
vt -104.9720 23.8860
vt -107.1930 34.2952
vt -99.3188 28.3897
vt -99.3188 34.2952
vt -107.1930 28.3897
vt -73.1101 20.6466
vt -86.4960 29.7017
vt -86.4960 20.6466
vt -73.1101 29.7017
vt 27.9400 -8.5252
vt 16.9164 0.1362
vt 16.9164 -8.5252
vt 27.9400 0.1362
vt 27.3223 8.6055
vt 17.4798 14.1173
vt 17.4798 8.6055
vt 27.3223 14.1173
vt 41.8582 -1.8572
vt 31.2282 5.6231
vt 31.2282 -1.8572
vt 41.8582 5.6231
vt -111.3160 126.7720
vt -99.2126 126.7720
vt -108.1860 134.4510
vt -66.1417 76.7717
vt -111.3160 0.0000
vt -99.2126 0.0000
vt 83.6799 -72.2163
vt 92.4359 15.2134
vt 75.3875 -72.2163
vt -132.6770 88.3059
vt -169.6150 8.5800
vt -157.8040 8.5800
vt -132.2830 0.0000
vt -99.2126 76.7717
vt -66.1417 110.2360
vt -33.0709 76.7717
vt -20.9675 0.0000
vt -0.0000 0.0000
vt -126.7720 0.0000
vt -126.7720 83.5917
vt 0.0000 0.0000
vt -0.0000 83.5917
vt 99.2126 76.7717
vt 33.0709 76.7717
vt 132.2830 -0.0000
vt 126.7720 -52.3345
vt 0.0000 31.2572
vt 0.0000 -52.3345
vt 126.7720 31.2572
vt 126.7720 -15.1316
vt 0.0000 -15.1316
vt 126.7720 31.9169
vt 0.0000 31.9169
vt 66.1417 110.2360
vt -126.7720 124.9000
vt -0.0000 77.8519
vt -0.0000 124.9000
vt -126.7720 77.8519
vt -33.0709 0.0000
vt 32.1705 111.5020
vt 57.2972 31.7760
vt 69.1082 31.7760
vt -33.0709 126.7720
vt -20.9675 126.7720
vt -24.0970 134.4510
vt -133.6030 -13.6012
vt -125.3100 -13.6012
vt -142.3590 73.8284
vn -0.9184 0.3956 -0.0000
vn 0.7113 0.7029 0.0000
vn 0.7113 0.7029 -0.0001
vn 0.7113 0.7029 0.0001
vn 0.0000 -1.0000 -0.0000
vn 0.0000 0.0000 -1.0000
vn 0.8132 0.4785 -0.3314
vn -0.6261 -0.2697 -0.7316
vn 0.0000 -0.0000 1.0000
vn 0.9184 0.3956 0.0000
vn -0.7113 0.7029 0.0000
vn 0.6261 -0.2697 -0.7316
vn -0.8132 0.4785 -0.3314
usemtl Leafs.019
s 1
f 12/1/1 33/2/1 11/3/1
f 33/2/1 12/1/1 34/4/1
f 31/5/1 35/6/1 30/7/1
f 35/6/1 31/5/1 32/8/1
f 14/9/1 29/10/1 13/11/1
f 29/10/1 14/9/1 28/12/1
f 20/13/2 36/14/2 19/15/2
f 36/14/2 20/13/2 37/16/2
f 38/17/3 26/18/2 39/19/4
f 26/18/2 38/17/3 25/20/2
f 22/21/2 24/22/2 21/23/2
f 24/22/2 22/21/2 23/24/2
usemtl Green_Roof
f 1/25/5 2/26/5 3/27/5
f 4/28/6 1/29/6 2/30/6
f 3/31/7 4/32/7 1/33/7
f 4/34/8 3/35/8 2/36/8
f 4/28/6 5/37/6 1/29/6
f 5/37/6 4/28/6 6/38/6
f 4/28/6 7/39/6 6/38/6
f 4/28/6 8/40/6 7/39/6
f 9/41/6 8/40/6 4/28/6
f 8/40/6 9/41/6 10/42/6
f 10/43/1 11/3/1 8/44/1
f 10/43/1 12/1/1 11/3/1
f 10/43/1 13/11/1 12/1/1
f 10/43/1 14/9/1 13/11/1
f 15/45/1 14/9/1 10/43/1
f 14/9/1 15/45/1 16/46/1
f 15/45/9 17/47/9 16/48/9
f 17/47/9 15/45/9 18/49/9
f 5/50/10 17/51/10 18/52/10
f 17/51/10 5/50/10 6/53/10
f 6/54/2 19/15/2 17/55/2
f 19/15/2 6/54/2 20/13/2
f 20/13/2 6/54/2 21/23/2
f 21/23/2 6/54/2 22/21/2
f 22/21/2 6/54/2 23/24/2
f 7/56/2 23/24/2 6/54/2
f 7/56/2 24/22/2 23/24/2
f 7/56/2 25/20/2 24/22/2
f 7/56/2 26/18/2 25/20/2
f 27/57/2 26/18/2 7/56/2
f 26/18/2 27/57/2 17/55/2
f 16/48/9 17/47/9 27/58/9
f 7/59/11 16/60/11 27/61/11
f 16/60/11 7/59/11 8/62/11
f 8/44/1 28/12/1 16/46/1
f 28/12/1 8/44/1 29/10/1
f 29/10/1 8/44/1 13/11/1
f 13/11/1 8/44/1 30/7/1
f 30/7/1 8/44/1 31/5/1
f 31/5/1 8/44/1 32/8/1
f 32/8/1 8/44/1 33/2/1
f 33/2/1 8/44/1 11/3/1
f 12/1/1 35/6/1 34/4/1
f 12/1/1 13/11/1 35/6/1
f 35/6/1 13/11/1 30/7/1
f 32/8/1 34/4/1 35/6/1
f 34/4/1 32/8/1 33/2/1
f 14/9/1 16/46/1 28/12/1
f 26/18/2 17/55/2 36/14/2
f 36/14/2 17/55/2 19/15/2
f 20/13/2 21/23/2 37/16/2
f 24/22/2 37/16/2 21/23/2
f 24/22/2 25/20/2 37/16/2
f 38/17/3 37/16/2 25/20/2
f 39/19/4 37/16/2 38/17/3
f 37/16/2 39/19/4 36/14/2
f 26/18/2 36/14/2 39/19/4
f 4/28/6 40/63/6 9/41/6
f 4/64/12 40/65/12 41/66/12
f 40/67/5 9/68/5 41/69/5
f 41/70/13 9/71/13 4/72/13
