# Blender v2.78 (sub 0) OBJ File: ''
# www.blender.org
mtllib naturePack_081.mtl
o Mesh1_Group1_Model.058
v 1.028420 0.119209 -0.584129
v 0.530195 0.000000 -0.511737
v 1.100810 0.000000 -0.511737
v 0.602587 0.119209 -0.584129
v 0.984487 0.430189 -0.628065
v 0.646523 0.430189 -0.628065
v 1.424860 0.430189 0.000000
v 0.294067 0.430189 0.000000
v 0.646523 0.430189 -0.966029
v 0.226254 0.430189 -1.567800
v 0.117292 0.430189 -0.176775
v 0.117292 0.430189 -1.414580
v 0.331462 1.132320 -0.214170
v 0.331462 1.132320 -1.213630
v 0.170441 1.132320 -1.327850
v 0.122500 1.132320 -0.099946
v 0.000000 1.132320 -0.222446
v 0.000000 1.132320 -1.189450
v 0.401424 2.001830 -0.284132
v 0.401424 2.001830 -1.143670
v 0.303191 2.001830 -0.312310
v 0.429602 2.001830 -0.185900
v 1.260960 2.001830 -0.284132
v 1.369460 1.132320 -0.099946
v 1.330920 1.132320 -0.214170
v 1.545090 0.430189 -0.120233
v 1.545090 0.430189 -1.445190
v 1.422480 0.430189 -1.567800
v 0.984487 0.430189 -0.966029
v 1.330920 1.132320 -1.213630
v 1.369460 1.132320 -1.327850
v 1.260960 2.001830 -1.143670
v 0.451025 2.001830 -1.241900
v 0.303191 2.001830 -1.130560
v 0.560906 4.034490 -0.684595
v 0.560906 4.034490 -0.744303
v 0.570130 4.034490 -0.675370
v 0.571693 4.034490 -0.752428
v 1.369460 2.001830 -1.241900
v 0.638712 4.034490 -0.752428
v 0.631977 4.034490 -0.675370
v 1.277170 2.001830 -0.185900
v 1.445150 1.132320 -1.189450
v 1.445150 1.132320 -0.175633
v 1.499190 2.001830 -0.312310
v 1.499190 2.001830 -1.112170
v 0.648179 4.034490 -0.742961
v 0.648179 4.034490 -0.684595
v 1.028420 0.119209 -1.009960
v 0.602587 0.119209 -1.009960
v 1.100810 0.000000 -1.082360
v 0.530195 0.000000 -1.082360
vt -56.0968 0.0000
vt -25.4537 24.7270
vt -38.7593 24.7270
vt -11.5774 0.0000
vt -25.4537 38.0327
vt -8.9076 61.7244
vt -4.6178 6.9597
vt -4.6178 55.6923
vt -8.4319 46.4472
vt -55.6923 17.5470
vt -6.9597 17.5470
vt -47.7807 46.4472
vt -13.0497 8.4319
vt -6.7103 52.2777
vt -13.0497 47.7807
vt -4.8228 3.9349
vt 0.0000 8.7577
vt 0.0000 46.8286
vt -11.1863 78.1794
vt -46.8286 40.4744
vt -8.7577 40.4744
vt -45.0263 78.1794
vt -15.8041 11.1863
vt -11.9367 12.2957
vt -15.8041 45.0263
vt -16.9134 7.3189
vt -49.6441 11.1863
vt 4.8228 44.4272
vt 49.6441 79.4197
vt 15.8041 79.4197
vt 53.9157 44.4272
vt -53.9157 3.9349
vt -52.3985 8.4319
vt 11.5774 16.1997
vt 52.3985 45.1000
vt 13.0497 45.1000
vt 56.0968 16.1997
vt 43.0136 33.3635
vt 39.6664 4.4205
vt 46.3607 4.4205
vt -60.8304 56.8972
vt -60.8304 4.7336
vt -56.0032 61.7244
vt -38.7593 38.0327
vt -13.0497 18.2834
vt -56.0032 -12.6771
vt -8.9076 -12.6771
vt -52.3985 18.2834
vt -53.9157 52.2777
vt -52.3985 47.7807
vt -15.8041 67.7709
vt -53.9157 32.7784
vt -6.7103 32.7784
vt -49.6441 67.7709
vt -17.7569 48.8937
vt -49.6441 45.0263
vt -11.9367 44.5101
vt -26.9526 160.3540
vt -44.5101 79.6879
vt -12.2957 79.6879
vt -29.3033 160.3540
vt -43.5992 70.5305
vt -35.2688 152.6110
vt -35.8005 152.6110
vt -36.3128 70.5305
vt -22.5076 147.4890
vt -53.9157 65.1756
vt -17.7569 65.1756
vt -25.1462 147.4890
vt 16.9134 78.3356
vt 24.8810 160.6490
vt 22.4461 160.6490
vt 50.2821 78.3356
vt -50.2821 7.3189
vt -53.9157 48.8937
vt 11.1863 66.8140
vt 46.8286 31.8214
vt 45.0263 66.8140
vt 6.9147 31.8214
vt 43.0136 70.3738
vt 40.9065 35.1846
vt 45.1206 35.1846
vt -56.8955 46.8286
vt -56.8955 6.9147
vt 8.4319 27.3522
vt 56.8972 -1.5481
vt 47.7807 27.3522
vt 4.7336 -1.5481
vt 4.0455 -18.6398
vt -3.2653 11.6604
vt -2.7812 -18.6398
vt 19.9994 28.6658
vt 15.6866 63.6532
vt 13.7888 28.6658
vt -59.0233 12.2957
vt -59.0233 43.7861
vt 3.1657 131.0790
vt -10.7743 44.1415
vt -3.5511 44.1415
vt 2.6386 131.0790
vt 47.3174 67.6341
vt 35.5119 152.8600
vt 34.7779 152.8600
vt 57.3761 67.6341
vt 43.7861 49.9039
vt 26.9526 136.6600
vt 12.2957 49.9039
vt 29.2505 136.6600
vt -2.9298 162.5790
vt -0.2539 80.6534
vt 6.7844 80.6534
vt -3.4434 162.5790
vt -40.6522 66.9282
vt -38.1640 30.8590
vt -29.5199 30.8590
vt -55.4638 4.7291
vt -48.0618 4.7291
vt -46.5012 34.6521
vt 3.2653 46.9446
vt -1.6560 18.4284
vt 8.1865 18.4284
vt 3.2653 80.4817
vt -6.1926 43.9015
vt 0.6279 43.9015
vt -22.0829 29.3033
vt -22.4461 26.5894
vt -22.0829 26.9526
vt -22.5076 29.6232
vt -24.8810 26.5894
vt -25.1462 29.6232
vt -25.5189 26.9526
vt -25.5189 29.2505
vt 40.4891 15.9484
vt 20.8738 10.4575
vt 43.3392 10.4575
vt 23.7239 15.9484
vt 38.7593 20.2291
vt 23.7239 7.8642
vt 40.4891 7.8642
vt 25.4537 20.2291
vt -40.4891 -0.9153
vt -25.4537 11.4496
vt -38.7593 11.4496
vt -23.7239 -0.9153
vt -43.3392 -22.1183
vt -23.7239 -16.6274
vt -40.4891 -16.6274
vt -20.8738 -22.1183
vt -43.3392 42.6125
vt -20.8738 20.1471
vt -20.8738 42.6125
vt -43.3392 20.1471
vt 42.6125 -22.4955
vt 22.9972 -17.0046
vt 20.1471 -22.4955
vt 39.7624 -17.0046
vt 39.7624 -1.0170
vt 24.7270 11.3479
vt 22.9972 -1.0170
vt 38.0327 11.3479
vt -22.9972 16.3256
vt -42.6125 10.8347
vt -20.1471 10.8347
vt -39.7624 16.3256
vt -24.7270 20.3308
vt -39.7624 7.9659
vt -22.9972 7.9659
vt -38.0327 20.3308
vn 0.0000 -1.0000 -0.0000
vn -0.9565 0.2918 0.0000
vn -0.9079 0.4192 0.0000
vn 0.0000 0.2072 0.9783
vn 0.0000 0.2918 0.9565
vn 0.6754 0.2964 0.6753
vn 0.0000 0.4504 -0.8928
vn 0.0000 0.2072 -0.9783
vn -0.9921 0.1258 0.0000
vn -0.5865 0.2224 -0.7788
vn -0.5866 0.2224 -0.7788
vn 0.0000 0.2341 -0.9722
vn 0.0000 0.2341 0.9722
vn 0.9783 0.2072 0.0000
vn 0.6879 0.2316 0.6879
vn 0.9565 0.2918 0.0000
vn 0.6451 0.4095 -0.6451
vn 0.8584 0.2066 -0.4695
vn 0.6509 0.3907 -0.6509
vn 0.4646 0.3440 0.8160
vn 0.9224 0.3862 0.0000
vn -0.6908 0.2141 0.6907
vn -0.6907 0.2141 0.6907
vn -0.5983 0.3150 -0.7368
vn -0.7528 0.3829 -0.5354
vn -0.6855 0.2456 0.6855
vn -0.6617 0.3524 0.6617
vn -0.0000 0.3364 0.9417
vn 0.0000 0.5191 0.8547
vn 0.0000 0.1399 0.9902
vn -0.0000 0.3363 -0.9417
vn 0.0000 0.1399 -0.9902
vn 0.0000 0.5191 -0.8547
vn 0.8547 0.5190 0.0000
vn 0.9417 0.3364 -0.0000
vn 0.9902 0.1399 0.0000
vn -0.9417 0.3364 -0.0000
vn -0.8547 0.5191 0.0000
vn -0.9902 0.1399 0.0000
usemtl Leafs.021
s 1
f 7/1/1 6/2/1 5/3/1
f 8/4/1 6/2/1 7/1/1
f 6/2/1 8/4/1 9/5/1
f 8/4/1 10/6/1 9/5/1
f 11/7/1 10/6/1 8/4/1
f 10/6/1 11/7/1 12/8/1
f 13/9/2 12/10/2 11/11/2
f 12/10/2 13/9/2 14/12/2
f 13/13/1 15/14/1 14/15/1
f 16/16/1 15/14/1 13/13/1
f 17/17/1 15/14/1 16/16/1
f 15/14/1 17/17/1 18/18/1
f 19/19/3 18/20/3 17/21/3
f 18/20/3 19/19/3 20/22/3
f 19/23/1 21/24/1 20/25/1
f 21/24/1 19/23/1 22/26/1
f 22/26/1 19/23/1 23/27/1
f 16/28/4 23/29/4 19/30/4
f 23/29/4 16/28/4 24/31/4
f 16/16/1 13/13/1 24/32/1
f 24/32/1 13/13/1 25/33/1
f 8/34/5 25/35/5 13/36/5
f 25/35/5 8/34/5 7/37/5
f 25/38/6 7/39/6 26/40/6
f 7/1/1 27/41/1 26/42/1
f 7/1/1 28/43/1 27/41/1
f 7/1/1 5/3/1 28/43/1
f 29/44/1 28/43/1 5/3/1
f 9/5/1 28/43/1 29/44/1
f 9/5/1 10/6/1 28/43/1
f 14/45/7 28/46/7 10/47/7
f 28/46/7 14/45/7 30/48/7
f 14/15/1 31/49/1 30/50/1
f 31/49/1 14/15/1 15/14/1
f 20/51/8 31/52/8 15/53/8
f 31/52/8 20/51/8 32/54/8
f 20/25/1 33/55/1 32/56/1
f 20/25/1 34/57/1 33/55/1
f 34/57/1 20/25/1 21/24/1
f 35/58/9 34/59/9 21/60/9
f 34/59/9 35/58/9 36/61/9
f 33/62/10 36/63/11 38/64/11
f 36/63/11 33/62/10 34/65/10
f 38/66/12 39/67/12 33/68/12
f 39/67/12 38/66/12 40/69/12
f 22/70/13 41/71/13 37/72/13
f 41/71/13 22/70/13 42/73/13
f 22/26/1 23/27/1 42/74/1
f 23/27/1 39/75/1 42/74/1
f 32/56/1 39/75/1 23/27/1
f 32/56/1 33/55/1 39/75/1
f 23/76/14 43/77/14 32/78/14
f 43/77/14 23/76/14 44/79/14
f 23/80/15 24/81/15 44/82/15
f 24/32/1 43/83/1 44/84/1
f 24/32/1 31/49/1 43/83/1
f 24/32/1 25/33/1 31/49/1
f 30/50/1 31/49/1 25/33/1
f 25/85/16 27/86/16 30/87/16
f 27/86/16 25/85/16 26/88/16
f 28/89/17 30/90/17 27/91/17
f 31/92/18 32/93/18 43/94/18
f 42/74/1 39/75/1 45/95/1
f 45/95/1 39/75/1 46/96/1
f 40/97/19 46/98/19 39/99/19
f 46/98/19 40/97/19 47/100/19
f 42/101/20 48/102/20 41/103/20
f 48/102/20 42/101/20 45/104/20
f 46/105/21 48/106/21 45/107/21
f 48/106/21 46/105/21 47/108/21
f 37/109/22 21/110/23 22/111/23
f 21/110/23 37/109/22 35/112/22
f 20/113/24 15/114/24 18/115/24
f 10/116/25 12/117/25 14/118/25
f 13/119/26 11/120/26 8/121/26
f 19/122/27 17/123/27 16/124/27
usemtl FrontColor
f 36/125/1 37/126/1 35/127/1
f 37/126/1 36/125/1 38/128/1
f 41/129/1 38/128/1 40/130/1
f 37/126/1 38/128/1 41/129/1
f 48/131/1 40/130/1 47/132/1
f 41/129/1 40/130/1 48/131/1
usemtl Wood.052
f 1/133/28 2/134/29 3/135/29
f 2/134/29 1/133/28 4/136/28
f 5/137/30 4/138/28 1/139/28
f 4/138/28 5/137/30 6/140/30
f 49/141/31 9/142/32 29/143/32
f 9/142/32 49/141/31 50/144/31
f 51/145/33 50/146/31 49/147/31
f 50/146/31 51/145/33 52/148/33
f 51/149/1 2/150/1 52/151/1
f 2/150/1 51/149/1 3/152/1
f 51/153/34 1/154/35 3/155/34
f 1/154/35 51/153/34 49/156/35
f 49/157/35 5/158/36 1/159/35
f 5/158/36 49/157/35 29/160/36
f 4/161/37 52/162/38 2/163/38
f 52/162/38 4/161/37 50/164/37
f 6/165/39 50/166/37 4/167/37
f 50/166/37 6/165/39 9/168/39
