# Blender v2.78 (sub 0) OBJ File: ''
# www.blender.org
mtllib naturePack_046.mtl
o Mesh1_Group1_Model.035
v 0.201300 0.000000 -0.201300
v 0.000000 0.000000 -0.000000
v 0.000000 0.000000 -0.201300
v 0.201300 0.000000 -0.000000
v 0.201300 0.220000 0.000000
v 0.201300 0.220000 -0.100650
v 0.201300 0.475988 -0.100650
v 0.201300 0.630000 -0.100650
v 0.201300 0.885988 -0.100650
v 0.201300 1.112990 -0.201300
v 0.201300 0.885988 0.000000
v 0.201300 1.112990 0.000000
v 0.000000 1.112990 -0.201300
v 0.000000 1.112990 0.000000
v 0.201300 0.475988 0.000000
v 2.798700 0.475988 0.000000
v 2.798700 0.220000 0.000000
v 2.798700 0.220000 -0.100650
v 2.798700 0.475988 -0.100650
v 0.201300 0.630000 0.000000
v 2.798700 0.630000 -0.100650
v 2.798700 0.630000 0.000000
v 2.798700 1.112990 -0.201300
v 2.798700 0.885988 -0.100650
v 2.798700 0.885988 0.000000
v 2.798700 1.112990 0.000000
v 3.000000 1.112990 0.000000
v 2.798700 0.000000 0.000000
v 3.000000 0.000000 0.000000
v 3.000000 0.000000 -0.201300
v 2.798700 0.000000 -0.201300
v 3.000000 1.112990 -0.201300
vt -7.9252 7.9252
vt 0.0000 0.0000
vt 0.0000 7.9252
vt -7.9252 0.0000
vt 7.9252 0.0000
vt -0.0000 8.6614
vt -0.0000 0.0000
vt 3.9626 8.6614
vt 3.9626 18.7397
vt 3.9626 24.8031
vt 3.9626 34.8814
vt 7.9252 43.8186
vt -0.0000 34.8814
vt -0.0000 43.8186
vt 0.0000 7.9252
vt 7.9252 0.0000
vt 7.9252 7.9252
vt 0.0000 0.0000
vt -7.9252 43.8186
vt -0.0000 43.8186
vt -7.9252 0.0000
vt 0.0000 43.8186
vt -7.9252 0.0000
vt 0.0000 0.0000
vt -7.9252 43.8186
vt 7.9252 8.6614
vt 7.9252 0.0000
vt 7.9252 18.7397
vt 110.1850 18.7397
vt 110.1850 8.6614
vt -7.9252 0.0000
vt -110.1850 3.9626
vt -110.1850 0.0000
vt -7.9252 3.9626
vt -7.9252 18.7397
vt -110.1850 8.6614
vt -7.9252 8.6614
vt -110.1850 18.7397
vt 7.9252 3.9626
vt 110.1850 0.0000
vt 110.1850 3.9626
vt 7.9252 0.0000
vt -0.0000 24.8031
vt -0.0000 18.7397
vt -110.1850 3.9626
vt -7.9252 0.0000
vt -7.9252 3.9626
vt -110.1850 0.0000
vt -3.9626 24.8031
vt 0.0000 18.7397
vt 0.0000 24.8031
vt -3.9626 18.7397
vt -7.9252 43.8186
vt -3.9626 34.8814
vt 0.0000 34.8814
vt 0.0000 43.8186
vt 110.1850 34.8814
vt 118.1100 43.8186
vt 110.1850 43.8186
vt 110.1850 24.8031
vt 110.1850 -0.0000
vt 118.1100 -0.0000
vt -110.1850 0.0000
vt -118.1100 7.9252
vt -118.1100 0.0000
vt -110.1850 7.9252
vt 0.0000 8.6614
vt -7.9252 0.0000
vt 0.0000 0.0000
vt -3.9626 8.6614
vt -110.1850 43.8186
vt -118.1100 0.0000
vt -110.1850 0.0000
vt -118.1100 43.8186
vt 110.1850 7.9252
vt 118.1100 0.0000
vt 118.1100 7.9252
vt 110.1850 0.0000
vt 0.0000 43.8186
vt 7.9252 0.0000
vt 7.9252 43.8186
vt 0.0000 0.0000
vt 7.9252 24.8031
vt 7.9252 34.8814
vt 110.1850 0.0000
vt 7.9252 3.9626
vt 7.9252 0.0000
vt 110.1850 3.9626
vt -110.1850 24.8031
vt -7.9252 34.8814
vt -110.1850 34.8814
vt -7.9252 24.8031
vt 7.9252 43.8186
vn 0.0000 -1.0000 -0.0000
vn 1.0000 0.0000 0.0000
vn 0.0000 1.0000 0.0000
vn -1.0000 0.0000 0.0000
vn 0.0000 0.0000 -1.0000
vn 0.0000 -0.0000 1.0000
usemtl Wood.026
s 1
f 1/1/1 2/2/1 3/3/1
f 2/2/1 1/1/1 4/4/1
f 1/5/2 5/6/2 4/7/2
f 5/6/2 1/5/2 6/8/2
f 6/8/2 1/5/2 7/9/2
f 7/9/2 1/5/2 8/10/2
f 8/10/2 1/5/2 9/11/2
f 10/12/2 9/11/2 1/5/2
f 10/12/2 11/13/2 9/11/2
f 11/13/2 10/12/2 12/14/2
f 13/15/3 12/16/3 10/17/3
f 12/16/3 13/15/3 14/18/3
f 13/19/4 2/2/4 14/20/4
f 2/2/4 13/19/4 3/21/4
f 13/22/5 1/23/5 3/24/5
f 1/23/5 13/22/5 10/25/5
f 2/2/6 5/26/6 14/20/6
f 5/26/6 2/2/6 4/27/6
f 14/20/6 5/26/6 15/28/6
f 5/26/6 16/29/6 15/28/6
f 16/29/6 5/26/6 17/30/6
f 5/31/1 18/32/1 17/33/1
f 18/32/1 5/31/1 6/34/1
f 7/35/5 18/36/5 6/37/5
f 18/36/5 7/35/5 19/38/5
f 7/39/3 16/40/3 19/41/3
f 16/40/3 7/39/3 15/42/3
f 7/9/2 20/43/2 15/44/2
f 20/43/2 7/9/2 8/10/2
f 21/45/1 20/46/1 8/47/1
f 20/46/1 21/45/1 22/48/1
f 21/49/4 16/50/4 22/51/4
f 16/50/4 21/49/4 19/52/4
f 21/49/4 23/53/4 19/52/4
f 24/54/4 23/53/4 21/49/4
f 25/55/4 23/53/4 24/54/4
f 23/53/4 25/55/4 26/56/4
f 25/57/6 27/58/6 26/59/6
f 22/60/6 27/58/6 25/57/6
f 16/29/6 27/58/6 22/60/6
f 17/30/6 27/58/6 16/29/6
f 28/61/6 27/58/6 17/30/6
f 27/58/6 28/61/6 29/62/6
f 28/63/1 30/64/1 29/65/1
f 30/64/1 28/63/1 31/66/1
f 17/67/4 31/68/4 28/69/4
f 31/68/4 17/67/4 18/70/4
f 31/68/4 18/70/4 23/53/4
f 19/52/4 23/53/4 18/70/4
f 23/71/5 30/72/5 31/73/5
f 30/72/5 23/71/5 32/74/5
f 23/75/3 27/76/3 32/77/3
f 27/76/3 23/75/3 26/78/3
f 27/79/2 30/80/2 32/81/2
f 30/80/2 27/79/2 29/82/2
f 25/57/6 20/83/6 22/60/6
f 20/83/6 25/57/6 11/84/6
f 25/85/3 9/86/3 11/87/3
f 9/86/3 25/85/3 24/88/3
f 21/89/5 9/90/5 24/91/5
f 9/90/5 21/89/5 8/92/5
f 14/20/6 20/83/6 11/84/6
f 14/20/6 15/28/6 20/83/6
f 14/20/6 11/84/6 12/93/6
