# Blender v2.78 (sub 0) OBJ File: ''
# www.blender.org
mtllib naturePack_039.mtl
o Mesh1_Group1_Model.028
v 1.031490 3.530000 -1.031489
v 0.760000 3.900000 -0.759999
v 1.031490 3.530000 -0.488509
v 0.488510 3.530000 -1.031489
v 1.212480 0.420000 -1.212480
v 0.307516 0.420000 -1.212480
v 1.406000 0.420000 -1.406000
v 0.114000 0.420000 -1.406000
v 0.307516 0.420000 -0.307516
v 0.114000 0.420000 -0.114000
v 1.406000 0.420000 -0.114000
v 0.000000 0.000000 0.000000
v 1.520000 0.000000 0.000000
v 1.520000 0.000000 -1.520000
v 0.000000 0.000000 -1.520000
v 1.212480 0.420000 -0.307516
v 0.488510 3.530000 -0.488509
vt 40.6099 88.0244
vt 29.9213 106.0920
vt 19.2327 88.0244
vt -29.9213 106.0920
vt -40.6099 88.0244
vt -19.2327 88.0244
vt -47.7356 13.7341
vt -19.2327 136.3820
vt -40.6099 136.3820
vt -12.1069 13.7341
vt 55.3543 55.3543
vt 12.1069 47.7356
vt 47.7356 47.7356
vt 4.4882 55.3543
vt 12.1069 12.1069
vt 4.4882 4.4882
vt 55.3543 4.4882
vt 0.0000 0.0000
vt 55.3543 17.1337
vt 4.4882 17.1337
vt 59.8425 0.0000
vt -59.8425 59.8425
vt -59.8425 0.0000
vt 0.0000 59.8425
vt -4.4882 17.1337
vt -59.8425 0.0000
vt -55.3543 17.1337
vt -4.4882 1.4579
vt -59.8425 -15.6758
vt -0.0000 -15.6758
vt -55.3543 1.4579
vt 4.4882 1.4579
vt 59.8425 -15.6758
vt 55.3543 1.4579
vt 0.0000 -15.6758
vt 47.7356 12.1069
vt 40.6099 139.8590
vt 12.1069 17.2109
vt 47.7356 17.2109
vt 19.2327 139.8590
vt 29.9213 141.4940
vt 19.2327 123.4260
vt 40.6099 123.4260
vt -40.6099 123.4260
vt -19.2327 123.4260
vt -29.9213 141.4940
vt -47.7356 17.2109
vt -19.2327 139.8590
vt -40.6099 139.8590
vt -12.1069 17.2109
vt 47.7356 13.7341
vt 19.2327 136.3820
vt 12.1069 13.7341
vt 40.6099 136.3820
vn 0.8062 0.5916 0.0000
vn 0.0000 0.5916 -0.8062
vn 0.0000 0.0581 -0.9983
vn 0.0000 1.0000 0.0000
vn 0.0000 0.2620 0.9651
vn 0.0000 -1.0000 -0.0000
vn -0.9651 0.2620 0.0000
vn 0.0000 0.2620 -0.9651
vn 0.9651 0.2620 0.0000
vn 0.0000 0.0581 0.9983
vn 0.0000 0.5916 0.8062
vn -0.8062 0.5916 0.0000
vn -0.9983 0.0581 0.0000
vn 0.9983 0.0581 0.0000
usemtl Stone.013
s 1
f 1/1/1 2/2/1 3/3/1
f 2/4/2 1/5/2 4/6/2
f 5/7/3 4/8/3 1/9/3
f 4/8/3 5/7/3 6/10/3
f 7/11/4 6/12/4 5/13/4
f 8/14/4 6/12/4 7/11/4
f 6/12/4 8/14/4 9/15/4
f 10/16/4 9/15/4 8/14/4
f 9/15/4 10/16/4 11/17/4
f 12/18/5 11/19/5 10/20/5
f 11/19/5 12/18/5 13/21/5
f 12/18/6 14/22/6 13/23/6
f 14/22/6 12/18/6 15/24/6
f 10/25/7 15/26/7 12/18/7
f 15/26/7 10/25/7 8/27/7
f 8/28/8 14/29/8 15/30/8
f 14/29/8 8/28/8 7/31/8
f 11/32/9 14/33/9 7/34/9
f 14/33/9 11/32/9 13/35/9
f 7/11/4 5/13/4 11/17/4
f 16/36/4 11/17/4 5/13/4
f 9/15/4 11/17/4 16/36/4
f 3/37/10 9/38/10 16/39/10
f 9/38/10 3/37/10 17/40/10
f 2/41/11 17/42/11 3/43/11
f 4/44/12 17/45/12 2/46/12
f 6/47/13 17/48/13 4/49/13
f 17/48/13 6/47/13 9/50/13
f 5/51/14 3/52/14 16/53/14
f 3/52/14 5/51/14 1/54/14
