# Blender v2.78 (sub 0) OBJ File: ''
# www.blender.org
mtllib naturePack_flat_004.mtl
o Mesh1_Grass_Model
v 0.725000 0.000000 -0.362500
v 0.000000 0.000000 -0.362500
v 0.362500 0.000000 -0.362500
v 0.362500 0.395000 -0.362500
vt 14.2717 0.0000
vt 0.0000 0.0000
vt 28.5433 0.0000
vt 14.2717 15.5512
vn 0.0000 0.0000 1.0000
vn 0.0000 0.0000 -1.0000
usemtl Green_leafs.051
s 1
f 3/1/1 2/2/2 1/3/2
f 4/4/2 1/3/2 2/2/2
o Mesh2_Grass_Model
v 0.362500 0.000000 -0.725000
v 0.362500 0.000000 -0.362500
v 0.362500 0.197500 -0.362500
v 0.362500 0.000000 0.000000
vt -14.2717 7.7756
vt -14.2717 -0.0000
vt -28.5433 -0.0000
vt 0.0000 -0.0000
vn 1.0000 0.0000 0.0000
usemtl Green_leafs.051
s 1
f 7/5/3 6/6/3 5/7/3
f 7/5/3 8/8/3 6/6/3
