# Blender v2.78 (sub 0) OBJ File: ''
# www.blender.org
mtllib naturePack_099.mtl
o Mesh1_Grey_Cliff_Bottom_Green_Top_Model
v -0.280000 2.200001 -3.000000
v 0.500000 0.000000 -3.000000
v -0.640000 0.000000 -3.000000
v 0.500000 2.200001 -3.000000
v -0.133829 2.200001 -2.387190
v 0.082659 2.200000 -1.274920
v -0.280000 2.200000 -1.924320
v -0.640000 0.000000 -1.924320
v -0.493829 0.000000 -2.387190
v -0.277341 0.000000 -1.274920
v 0.500000 0.000000 0.000000
v -0.521050 0.000000 -0.371864
v -0.640000 -0.000000 -0.000000
v -0.280000 2.200000 0.000000
v 0.500000 2.200000 0.000000
v -0.161050 2.200000 -0.371864
v -0.280000 2.200000 -0.701031
v -0.640000 0.000000 -0.701031
vt -5.2689 93.9839
vt 19.6850 118.1100
vt -11.0236 118.1100
vt 3.2543 50.1936
vt -11.0236 75.7604
vt 19.6850 0.0000
vt -6.3405 14.6403
vt -11.0236 0.0000
vt -11.0236 27.5996
vt 11.0236 86.6142
vt -19.6850 -0.0000
vt 25.1969 -0.0000
vt -19.6850 86.6142
vt -88.0349 80.4406
vt -64.6564 -7.2217
vt -68.9243 80.4406
vt -83.7669 -7.2217
vt -117.4450 88.1595
vt -95.9302 0.4550
vt -92.6417 88.1595
vt -120.7330 0.4550
vt -19.6850 118.1100
vt 19.4421 93.9839
vt 25.1969 118.1100
vt 10.9189 50.1936
vt -19.6850 0.0000
vt 20.5138 14.6403
vt 25.1969 -0.0000
vt 19.6850 -0.0000
vt -11.0236 86.6142
vt -25.1969 -0.0000
vt 19.6850 86.6142
vt 118.1100 -0.0000
vt -0.0000 86.6142
vt -0.0000 -0.0000
vt 118.1100 86.6142
vt -12.0125 83.9641
vt 7.6767 -3.6958
vt 3.3585 83.9641
vt -7.6944 -3.6958
vt -29.7033 85.4561
vt -20.7406 -2.1777
vt -15.9238 85.4561
vt -34.5202 -2.1777
vt -44.1698 82.5000
vt -9.8711 -4.9390
vt -17.4425 82.5000
vt -36.5984 -4.9390
vt -71.5198 89.6067
vt -49.1469 2.1130
vt -42.2364 89.6067
vt -78.4303 2.1130
vt 25.1969 75.7604
vt 25.1969 27.5996
vn 0.0000 1.0000 0.0000
vn 0.0000 0.0000 -1.0000
vn -0.9422 0.1542 -0.2975
vn -0.9606 0.1572 0.2291
vn -0.0000 -1.0000 -0.0000
vn 0.0000 -0.0000 1.0000
vn 1.0000 -0.0000 0.0000
vn -0.9411 0.1540 -0.3010
vn -0.9295 0.1521 0.3359
vn -0.8374 0.1370 -0.5292
vn -0.8643 0.1414 0.4827
usemtl Leafs.035
s 1
f 5/1/1 4/2/1 1/3/1
f 4/2/1 5/1/1 6/4/1
f 6/4/1 5/1/1 7/5/1
f 4/2/1 6/4/1 15/6/1
f 16/7/1 15/6/1 6/4/1
f 15/6/1 16/7/1 14/8/1
f 6/4/1 17/9/1 16/7/1
usemtl Stone.027
f 1/10/2 2/11/2 3/12/2
f 2/11/2 1/10/2 4/13/2
f 5/14/3 8/15/3 7/16/3
f 8/15/3 5/14/3 9/17/3
f 1/18/4 9/19/4 5/20/4
f 9/19/4 1/18/4 3/21/4
f 2/22/5 9/23/5 3/24/5
f 9/23/5 2/22/5 10/25/5
f 11/26/5 10/25/5 2/22/5
f 11/26/5 12/27/5 10/25/5
f 12/27/5 11/26/5 13/28/5
f 11/29/6 14/30/6 13/31/6
f 14/30/6 11/29/6 15/32/6
f 2/33/7 15/34/7 11/35/7
f 15/34/7 2/33/7 4/36/7
f 16/37/8 13/38/8 14/39/8
f 13/38/8 16/37/8 12/40/8
f 17/41/9 12/42/9 16/43/9
f 12/42/9 17/41/9 18/44/9
f 6/45/10 18/46/10 17/47/10
f 18/46/10 6/45/10 10/48/10
f 7/49/11 10/50/11 6/51/11
f 10/50/11 7/49/11 8/52/11
f 10/25/5 8/53/5 9/23/5
f 10/25/5 12/27/5 18/54/5
