# Blender v2.78 (sub 0) OBJ File: ''
# www.blender.org
mtllib naturePack_086.mtl
o Mesh1_Trunk_Alt_Model
v 0.803690 0.000000 -0.803690
v 0.701729 0.230000 -0.101961
v 0.803690 0.000000 0.000000
v 0.701729 0.230000 -0.701729
v 0.101961 0.230000 -0.701729
v 0.000000 0.000000 -0.803690
v 0.000000 0.000000 0.000000
v 0.101961 0.230000 -0.101961
v 0.639848 0.830000 -0.163841
v 0.163841 0.830000 -0.163841
v 0.163841 0.830000 -0.639848
v 0.639848 0.830000 -0.639848
v 0.118130 0.386775 -0.527126
v 0.118130 0.386775 -0.276564
v 0.147672 0.673225 -0.306107
v 0.147672 0.673225 -0.497583
v -0.163841 0.479545 -0.472002
v -0.147297 0.639957 -0.455458
v -0.147297 0.639957 -0.348231
v -0.163841 0.479545 -0.331687
vt 31.6413 -12.8233
vt 4.0142 -2.9183
vt 0.0000 -12.8233
vt 27.6271 -2.9183
vt -31.6413 -12.8233
vt -4.0142 -2.9183
vt -27.6271 -2.9183
vt 0.0000 -12.8233
vt -31.6413 31.6413
vt 0.0000 0.0000
vt 0.0000 31.6413
vt -31.6413 0.0000
vt 27.6271 9.9050
vt 31.6413 -0.0000
vt 4.0142 9.9050
vt 25.1909 33.1665
vt 4.0142 9.4192
vt 27.6271 9.4192
vt 6.4504 33.1665
vt 6.4504 29.9204
vt 27.6271 6.1731
vt 25.1909 29.9204
vt 4.0142 6.1731
vt -27.6271 6.1731
vt -6.4504 29.9204
vt -25.1909 29.9204
vt -4.0142 6.1731
vt -27.6271 9.4192
vt -20.7530 15.6242
vt -25.1909 33.1665
vt -10.8883 15.6242
vt -4.0142 9.4192
vt -6.4504 33.1665
vt -12.0514 26.9615
vt -19.5899 26.9615
vt 3.5042 16.4852
vt -8.7686 24.1631
vt -7.7990 12.8076
vt 2.9612 22.8443
vt -20.7530 0.3411
vt -13.0586 12.0277
vt -18.5828 12.0277
vt -10.8883 0.3411
vt 3.8836 27.8211
vt -8.3892 20.1432
vt 2.9140 16.4656
vt -7.8462 26.5023
vt -12.0514 8.7477
vt -17.9314 -2.9389
vt -13.7099 -2.9389
vt -19.5899 8.7477
vt -31.6413 0.0000
vt -4.0142 9.9050
vt -27.6271 9.9050
vt 25.1909 6.4504
vt 6.4504 25.1909
vt 6.4504 6.4504
vt 25.1909 25.1909
vt -18.5828 18.1184
vt -13.7099 24.4673
vt -17.9314 24.4673
vt -13.0586 18.1184
vn 0.9142 0.4053 0.0000
vn 0.9664 0.2571 0.0000
vn 0.0000 0.4053 -0.9142
vn -0.0000 0.2571 -0.9664
vn 0.0000 -1.0000 -0.0000
vn 0.0000 0.2571 0.9664
vn 0.0000 0.4053 0.9142
vn 0.0000 0.1026 0.9947
vn 0.9947 0.1026 0.0000
vn 0.0000 0.1026 -0.9947
vn -0.9664 0.2571 0.0000
vn -0.9947 0.1026 0.0000
vn -0.1533 0.1170 -0.9812
vn -0.3125 -0.9499 0.0000
vn -0.1533 0.1170 0.9812
vn -0.1121 0.9937 0.0000
vn -0.9142 0.4053 0.0000
vn 0.0000 1.0000 0.0000
usemtl Wood.057
s 1
f 1/1/1 2/2/2 3/3/1
f 2/2/2 1/1/1 4/4/2
f 1/5/3 5/6/4 4/7/4
f 5/6/4 1/5/3 6/8/3
f 1/9/5 7/10/5 6/11/5
f 7/10/5 1/9/5 3/12/5
f 2/13/6 7/10/7 3/14/7
f 7/10/7 2/13/6 8/15/6
f 9/16/8 8/17/6 2/18/6
f 8/17/6 9/16/8 10/19/8
f 9/20/9 4/21/2 12/22/9
f 4/21/2 9/20/9 2/23/2
f 4/24/4 11/25/10 12/26/10
f 11/25/10 4/24/4 5/27/4
f 5/28/11 13/29/12 11/30/12
f 5/28/11 14/31/12 13/29/12
f 8/32/11 14/31/12 5/28/11
f 14/31/12 8/32/11 10/33/12
f 10/33/12 15/34/12 14/31/12
f 15/34/12 10/33/12 11/30/12
f 15/34/12 11/30/12 16/35/12
f 16/35/12 11/30/12 13/29/12
f 17/36/13 16/37/13 13/38/13
f 16/37/13 17/36/13 18/39/13
f 13/40/14 20/41/14 17/42/14
f 20/41/14 13/40/14 14/43/14
f 15/44/15 20/45/15 14/46/15
f 20/45/15 15/44/15 19/47/15
f 15/48/16 18/49/16 19/50/16
f 18/49/16 15/48/16 16/51/16
f 6/52/17 8/53/11 5/54/11
f 8/53/11 6/52/17 7/10/17
usemtl Light_Wood.004
f 9/55/18 11/56/18 10/57/18
f 11/56/18 9/55/18 12/58/18
f 17/59/12 19/60/12 18/61/12
f 19/60/12 17/59/12 20/62/12
