# Blender v2.78 (sub 0) OBJ File: ''
# www.blender.org
mtllib naturePack_069.mtl
o Mesh1_Large_Oak_Dark_Model.001
v 1.335190 3.201550 -1.482509
v 1.278270 1.387870 -1.163520
v 1.335190 3.201550 -1.132890
v 1.278270 1.387870 -1.403520
v 1.270740 1.147990 -1.403520
v 1.234710 0.000000 -1.582990
v 1.270740 1.147990 -1.163520
v 1.234710 0.000000 -1.032400
v 1.397680 2.144940 -1.099720
v 1.627680 2.144940 -1.099720
v 1.785290 0.000000 -1.032400
v 1.684810 3.201550 -1.132890
v 1.699560 2.731500 -1.198850
v 1.785290 0.000000 -1.582990
v 1.421960 0.770207 -1.558820
v 1.421960 0.990099 -1.551920
v 1.641960 0.990099 -1.551920
v 1.684810 3.201550 -1.482509
v 1.641960 0.770207 -1.558820
v 1.458260 0.815587 -1.847540
v 1.605660 0.815587 -1.847540
v 1.458260 0.962914 -1.842910
v 1.605660 0.962914 -1.842910
v 1.693600 2.921410 -1.388849
v 1.699560 2.731500 -1.388849
v 1.998730 2.762750 -1.367000
v 1.998730 2.762750 -1.220700
v 1.994140 2.908980 -1.220700
v 1.994140 2.908980 -1.367000
v 1.693600 2.921410 -1.198850
v 2.098900 3.201550 -2.327699
v 0.921100 3.201550 -2.327699
v 0.921100 3.201550 -0.287693
v 0.332200 3.201550 -1.307700
v 0.000000 3.821550 -1.307699
v 0.755000 3.821550 0.000001
v 2.265000 3.821550 0.000001
v 2.098900 3.201550 -0.287693
v 1.397680 2.374830 -1.106940
v 1.428730 2.354460 -0.766133
v 1.428730 2.186640 -0.760866
v 1.596630 2.186640 -0.760866
v 1.596630 2.354460 -0.766133
v 1.627680 2.374830 -1.106940
v 2.687800 3.201550 -1.307700
v 3.020000 3.821550 -1.307699
v 2.265000 3.821550 -2.615399
v 0.755000 3.821550 -2.615399
v 0.928650 6.001551 -2.314629
v 0.347300 6.001550 -1.307699
v 0.928650 6.001550 -0.300770
v 2.091350 6.001550 -0.300770
v 2.672700 6.001550 -1.307699
v 2.091350 6.001551 -2.314629
v 1.510000 6.831550 -1.307699
v 0.932146 1.198240 -1.203120
v 0.937190 1.358960 -1.203120
v 0.937190 1.358960 -1.363920
v 0.932146 1.198240 -1.363920
vt -58.3665 127.6320
vt -45.8080 56.1925
vt -44.6018 127.6320
vt -55.2568 56.1925
vt -55.2568 46.7437
vt -62.3225 1.5249
vt -45.8080 46.7437
vt -40.6459 1.5249
vt 48.6105 1.2751
vt 55.0267 85.7632
vt 52.5665 127.3820
vt 64.0818 85.7632
vt 70.2872 1.2751
vt 66.3312 127.3820
vt 40.6459 -2.2049
vt 47.1987 105.3870
vt 44.6018 123.9020
vt 62.3225 -2.2049
vt -48.6105 40.6459
vt -70.2872 62.3225
vt -70.2872 40.6459
vt -48.6105 62.3225
vt -48.6105 -1.9551
vt -55.9825 28.3830
vt -70.2872 -1.9551
vt -52.5665 124.1520
vt -55.9825 37.0444
vt -64.6439 37.0444
vt -66.3312 124.1520
vt -64.6439 28.3830
vt -57.4117 76.8412
vt -64.6439 65.3348
vt -55.9825 65.3348
vt -63.2148 76.8412
vt -57.4117 35.6153
vt -63.2148 29.8121
vt -57.4117 29.8121
vt -63.2148 35.6153
vt -57.4117 -68.7149
vt -64.6439 -57.2085
vt -63.2148 -68.7149
vt -55.9825 -57.2085
vt -79.1216 38.0966
vt -67.8459 30.5096
vt -67.5763 39.1669
vt -79.3023 32.2963
vt 52.8710 30.0433
vt 64.1467 37.6302
vt 52.6014 38.7005
vt 64.3273 31.8299
vt 54.6790 112.8680
vt 58.3665 123.9020
vt 54.6790 105.3870
vt 53.8188 89.5647
vt 47.1987 77.7224
vt 54.6790 77.7224
vt 48.0590 89.5647
vt 53.8188 106.2480
vt 48.0590 112.0080
vt 48.0590 106.2480
vt 53.8188 112.0080
vt -74.5750 108.6340
vt -62.5313 114.8800
vt -74.3948 114.3910
vt -62.7654 107.4040
vt 54.6790 -61.8681
vt 48.0590 -73.7105
vt 53.8188 -73.7105
vt 47.1987 -61.8681
vt 47.1987 112.8680
vt 81.9719 108.8660
vt 69.9282 115.1120
vt 70.1623 107.6350
vt 81.7916 114.6230
vt 55.0267 94.8183
vt -38.1150 84.6138
vt -24.9248 92.8625
vt -38.3979 93.6645
vt -24.7183 86.2555
vt 64.0818 -32.6578
vt 56.2491 -19.2162
vt 55.0267 -32.6578
vt 62.8593 -19.2162
vt 48.9421 84.2754
vt 35.7518 92.5241
vt 35.5453 85.9171
vt 49.2250 93.3261
vt 64.0818 94.8183
vt 56.2491 35.6392
vt 64.0818 49.0808
vt 55.0267 49.0808
vt 62.8593 35.6392
vt 56.2491 86.9856
vt 62.8593 93.5959
vt 56.2491 93.5959
vt 62.8593 86.9856
vt 44.6909 54.8266
vt 30.9753 47.3605
vt 44.3965 45.3823
vt 31.1726 53.6882
vt -45.8080 54.7612
vt -53.6977 41.2848
vt -47.3670 41.2848
vt -55.2568 54.7612
vt -56.3773 54.4622
vt -42.6617 46.9962
vt -42.8590 53.3239
vt -56.0829 45.0180
vt -55.2568 -42.8526
vt -47.3670 -29.3763
vt -53.6977 -29.3763
vt -45.8080 -42.8526
vt -47.3670 48.3027
vt -53.6977 54.6334
vt -53.6977 48.3027
vt -47.3670 54.6334
vt -66.3312 58.3665
vt -82.6339 91.6419
vt -66.3312 44.6018
vt -52.5665 58.3665
vt -36.2638 91.6419
vt -36.2638 11.3265
vt -13.0787 51.4842
vt 8.3228 98.7330
vt -44.5866 125.6420
vt -38.0472 98.7330
vt 14.8622 125.6420
vt 36.2638 109.5680
vt 89.1732 136.4780
vt 29.7244 136.4780
vt 82.6339 109.5680
vt -52.5665 44.6018
vt -82.6339 11.3265
vt -105.8190 51.4842
vt 38.0472 163.7440
vt -14.8622 190.6540
vt -8.3228 163.7440
vt 44.5866 190.6540
vt -82.6339 152.9090
vt -29.7244 179.8180
vt -89.1732 179.8180
vt -36.2638 152.9090
vt -51.1260 120.4030
vt -104.0350 147.3130
vt -97.4961 120.4030
vt -44.5866 147.3130
vt -44.5866 145.5250
vt -97.1988 232.1640
vt -104.0350 145.5250
vt -51.4232 232.1640
vt -44.5866 152.5610
vt 8.0256 239.2010
vt -37.7500 239.2010
vt 14.8622 152.5610
vt 29.7244 149.0430
vt 82.3366 235.6830
vt 36.5610 235.6830
vt 89.1732 149.0430
vt 104.0350 138.4880
vt 51.4232 225.1280
vt 44.5866 138.4880
vt 97.1988 225.1280
vt -14.8622 131.4520
vt 37.7500 218.0910
vt -8.0256 218.0910
vt 44.5866 131.4520
vt -89.1732 134.9700
vt -36.5610 221.6100
vt -82.3366 221.6100
vt -29.7244 134.9700
vt -82.3366 79.9710
vt -36.5610 79.9710
vt -59.4488 131.3460
vt -74.3110 190.9370
vt -97.1988 139.5620
vt -51.4232 139.5620
vt -14.8622 230.6640
vt -37.7500 179.2890
vt 8.0256 179.2890
vt 82.3366 159.4260
vt 59.4488 210.8000
vt 36.5610 159.4260
vt 97.1988 99.8347
vt 74.3110 151.2090
vt 51.4232 99.8347
vt -8.0256 60.1073
vt 37.7500 60.1073
vt 14.8622 111.4820
vt 51.1260 142.0740
vt 104.0350 168.9830
vt 44.5866 168.9830
vt 97.4961 142.0740
vn -0.9995 0.0314 0.0000
vn -0.9995 0.0314 -0.0003
vn -0.9995 0.0314 0.0001
vn -0.0000 0.0314 0.9995
vn 0.9995 0.0314 -0.0000
vn 0.0000 -1.0000 -0.0000
vn -0.0000 0.0314 -0.9995
vn -0.0001 0.0314 -0.9995
vn 0.0003 0.0314 -0.9995
vn 0.0000 -0.9879 -0.1553
vn 0.0000 0.9957 -0.0930
vn -0.9923 0.0039 -0.1241
vn 0.9923 0.0039 -0.1241
vn 0.1039 -0.9946 0.0000
vn 0.0726 0.0023 -0.9974
vn 0.0413 0.9991 0.0000
vn 0.0726 0.0023 0.9974
vn 0.0001 0.0314 0.9995
vn -0.9959 0.0029 0.0909
vn 0.0000 -0.9925 0.1221
vn 0.9959 0.0029 0.0909
vn -0.0002 0.0314 0.9995
vn 0.0000 0.9982 0.0597
vn -0.1156 0.0036 0.9933
vn -0.0845 0.9964 0.0000
vn -0.1156 0.0036 -0.9933
vn -0.1468 -0.9892 0.0000
vn -0.7856 -0.4209 0.4535
vn 0.0000 -0.4209 0.9071
vn 0.7856 -0.4209 -0.4535
vn 0.7856 -0.4209 -0.4536
vn 0.0000 -0.4209 -0.9071
vn -0.7856 -0.4209 -0.4536
vn -0.8579 0.1367 -0.4953
vn -0.8579 0.1367 0.4953
vn 0.0000 0.1367 0.9906
vn 0.8579 0.1367 0.4953
vn 0.8579 0.1367 -0.4953
vn 0.0000 0.1367 -0.9906
vn 0.0000 0.7716 -0.6361
vn -0.5508 0.7716 -0.3180
vn -0.5508 0.7716 0.3180
vn 0.0000 0.7716 0.6361
vn 0.5508 0.7716 0.3180
vn 0.5508 0.7716 -0.3180
vn 0.7856 -0.4209 0.4535
usemtl Wood.042
s 1
f 1/1/1 2/2/2 3/3/1
f 2/2/2 1/1/1 4/4/3
f 4/4/3 1/1/1 5/5/1
f 6/6/1 5/5/1 1/1/1
f 6/6/1 7/7/1 5/5/1
f 8/8/1 7/7/1 6/6/1
f 7/7/1 8/8/1 3/3/1
f 8/9/4 9/10/4 3/11/4
f 9/10/4 8/9/4 10/12/4
f 11/13/4 10/12/4 8/9/4
f 10/12/4 11/13/4 12/14/4
f 11/15/5 13/16/5 12/17/5
f 13/16/5 11/15/5 14/18/5
f 8/19/6 14/20/6 11/21/6
f 14/20/6 8/19/6 6/22/6
f 6/23/7 15/24/7 14/25/7
f 15/24/7 6/23/7 1/26/7
f 15/24/7 1/26/7 16/27/8
f 16/27/8 1/26/7 17/28/9
f 18/29/7 17/28/9 1/26/7
f 18/29/7 19/30/7 17/28/9
f 14/25/7 19/30/7 18/29/7
f 19/30/7 14/25/7 15/24/7
f 20/31/10 19/32/10 15/33/10
f 19/32/10 20/31/10 21/34/10
f 22/35/7 21/36/7 20/37/7
f 21/36/7 22/35/7 23/38/7
f 22/39/11 17/40/11 23/41/11
f 17/40/11 22/39/11 16/42/11
f 22/43/12 15/44/12 16/45/12
f 15/44/12 22/43/12 20/46/12
f 19/47/13 23/48/13 17/49/13
f 23/48/13 19/47/13 21/50/13
f 24/51/5 14/18/5 18/52/5
f 25/53/5 14/18/5 24/51/5
f 13/16/5 14/18/5 25/53/5
f 26/54/14 13/55/14 25/56/14
f 13/55/14 26/54/14 27/57/14
f 26/58/5 28/59/5 27/60/5
f 28/59/5 26/58/5 29/61/5
f 26/62/15 24/63/15 29/64/15
f 24/63/15 26/62/15 25/65/15
f 24/66/16 28/67/16 29/68/16
f 28/67/16 24/66/16 30/69/16
f 18/52/5 30/70/5 24/51/5
f 12/17/5 30/70/5 18/52/5
f 30/70/5 12/17/5 13/16/5
f 27/71/17 30/72/17 13/73/17
f 30/72/17 27/71/17 28/74/17
f 3/11/4 39/75/18 12/14/4
f 3/11/4 9/10/4 39/75/18
f 9/76/19 40/77/19 39/78/19
f 40/77/19 9/76/19 41/79/19
f 10/80/20 41/81/20 9/82/20
f 41/81/20 10/80/20 42/83/20
f 10/84/21 43/85/21 42/86/21
f 43/85/21 10/84/21 44/87/21
f 10/12/4 12/14/4 44/88/22
f 44/88/22 12/14/4 39/75/18
f 40/89/23 44/90/23 39/91/23
f 44/90/23 40/89/23 43/92/23
f 41/93/4 43/94/4 40/95/4
f 43/94/4 41/93/4 42/96/4
f 7/7/1 3/3/1 2/2/2
f 2/97/24 56/98/24 7/99/24
f 56/98/24 2/97/24 57/100/24
f 2/101/25 58/102/25 57/103/25
f 58/102/25 2/101/25 4/104/25
f 4/105/26 59/106/26 58/107/26
f 59/106/26 4/105/26 5/108/26
f 5/109/27 56/110/27 59/111/27
f 56/110/27 5/109/27 7/112/27
f 56/113/1 58/114/1 59/115/1
f 58/114/1 56/113/1 57/116/1
usemtl Fall_Leafs.003
f 18/117/6 31/118/6 12/119/6
f 1/120/6 31/118/6 18/117/6
f 1/120/6 32/121/6 31/118/6
f 33/122/6 32/121/6 1/120/6
f 32/121/6 33/122/6 34/123/6
f 33/124/28 35/125/28 34/126/28
f 35/125/28 33/124/28 36/127/28
f 33/128/29 37/129/29 36/130/29
f 37/129/29 33/128/29 38/131/29
f 33/122/6 3/132/6 38/133/6
f 3/132/6 33/122/6 1/120/6
f 38/133/6 3/132/6 12/119/6
f 38/133/6 12/119/6 31/118/6
f 38/133/6 31/118/6 45/134/6
f 31/135/30 46/136/31 45/137/31
f 46/136/31 31/135/30 47/138/30
f 31/139/32 48/140/32 47/141/32
f 48/140/32 31/139/32 32/142/32
f 34/143/33 48/144/33 32/145/33
f 48/144/33 34/143/33 35/146/33
f 35/147/34 49/148/34 48/149/34
f 49/148/34 35/147/34 50/150/34
f 35/151/35 51/152/35 50/153/35
f 51/152/35 35/151/35 36/154/35
f 36/155/36 52/156/36 51/157/36
f 52/156/36 36/155/36 37/158/36
f 46/159/37 52/160/37 37/161/37
f 52/160/37 46/159/37 53/162/37
f 46/163/38 54/164/38 53/165/38
f 54/164/38 46/163/38 47/166/38
f 47/167/39 49/168/39 54/169/39
f 49/168/39 47/167/39 48/170/39
f 54/171/40 49/172/40 55/173/40
f 55/174/41 49/175/41 50/176/41
f 55/177/42 50/178/42 51/179/42
f 52/180/43 55/181/43 51/182/43
f 53/183/44 55/184/44 52/185/44
f 53/186/45 54/187/45 55/188/45
f 38/189/46 46/190/46 37/191/46
f 46/190/46 38/189/46 45/192/46
