# Blender v2.78 (sub 0) OBJ File: ''
# www.blender.org
mtllib naturePack_034.mtl
o Mesh1_Tall_Rock_2_Model.001
v 0.588897 0.000000 -1.360000
v 0.000000 0.000000 -0.340000
v 0.000000 0.000000 -1.020000
v 0.588897 0.000000 0.000000
v 1.177790 0.000000 -1.020000
v 0.588897 1.060000 -1.264800
v 1.095350 1.060000 -0.972400
v 1.095350 1.060000 -0.680000
v 0.540045 1.060000 -0.847446
v 0.082446 1.060000 -0.972400
v 0.082446 1.060000 -0.680000
v 0.082446 1.060000 -0.387600
v 0.588897 1.060000 -0.095200
v 1.095350 1.060000 -0.387600
v 1.177790 0.000000 -0.340000
v 1.024450 1.480000 -0.399321
v 1.024450 1.480000 -0.650785
v 0.546885 1.480000 -0.794789
v 0.153349 1.480000 -0.650785
v 0.153349 1.480000 -0.399321
v 0.588897 1.480000 -0.147857
v 0.970774 2.170000 -0.411561
v 0.609269 2.170000 -0.202846
v 0.970774 2.170000 -0.620277
v 0.574398 2.170000 -0.739799
v 0.446683 2.170000 -0.296715
v 0.393011 1.480000 -0.260952
vt 23.1849 49.7953
vt 43.1240 26.7717
vt 43.1240 38.2835
vt 21.2616 33.3640
vt 3.2459 38.2835
vt 3.2459 26.7717
vt 38.2194 24.4203
vt 23.9869 7.9861
vt 38.2194 16.2032
vt 22.6141 29.1260
vt 17.5859 11.6817
vt 6.0374 25.6215
vt 15.4729 10.2737
vt 21.5309 31.2909
vt 6.0374 15.7213
vt -23.1849 53.5433
vt 0.0000 13.3858
vt 0.0000 40.1575
vt -23.1849 0.0000
vt -46.3699 40.1575
vt 4.8189 37.3637
vt -20.0787 -4.4947
vt 6.6929 -4.4947
vt -18.2047 37.3637
vt -40.1575 -0.0000
vt -26.7717 41.8583
vt -38.2835 41.8583
vt -15.2598 41.8583
vt -13.3858 -0.0000
vt -6.6929 0.8989
vt 18.2047 42.7573
vt -4.8189 42.7573
vt 20.0787 0.8989
vt 20.0787 -0.8989
vt 44.9764 40.9594
vt 21.9528 40.9594
vt 46.8504 -0.8989
vt -46.3699 13.3858
vt 40.1575 -3.5957
vt 15.2598 38.2626
vt 13.3858 -3.5957
vt 26.7717 38.2626
vt 38.2835 38.2626
vt 26.7717 33.9715
vt 15.7213 50.7409
vt 15.2598 33.9715
vt 25.6215 50.7409
vt -33.5588 37.0943
vt -11.5804 53.7393
vt -31.2182 53.7393
vt -10.7241 37.0943
vt -31.4320 38.4775
vt -14.4742 55.1382
vt -30.9725 55.1382
vt -12.2480 38.4775
vt -26.7717 41.6903
vt -15.7213 58.4597
vt -25.6215 58.4597
vt -15.2598 41.6903
vt -4.8189 43.0901
vt 17.1682 59.7228
vt -2.6321 59.7228
vt 18.2047 43.0901
vt 21.9528 40.5875
vt 42.7896 57.2201
vt 22.9893 57.2201
vt 44.9764 40.5875
vt 41.2006 85.0325
vt 22.9893 57.8272
vt 42.7896 57.8272
vt 24.7663 85.0325
vt -36.0301 58.8864
vt -16.0954 86.1013
vt -34.2499 86.1013
vt -14.1573 58.8864
vt 8.2630 59.7228
vt 16.7803 86.7135
vt 8.2630 59.4530
vt 17.1682 59.4530
vt 9.3890 86.7135
vt -13.2425 83.0293
vt -31.2182 55.8070
vt -11.5804 55.8070
vt -29.5419 83.0293
vt 16.2032 82.2118
vt 25.6215 54.9644
vt 24.4203 82.2118
vt 15.7213 54.9644
vt -21.9528 39.1615
vt -46.8504 -2.6968
vt -20.0787 -2.6968
vt -44.9764 39.1615
vn -0.0000 1.0000 0.0000
vn -0.0000 -1.0000 -0.0000
vn 0.4985 0.0775 -0.8634
vn -0.9970 0.0775 0.0000
vn -0.9925 0.1221 0.0000
vn -0.9925 0.1220 0.0000
vn -0.4985 0.0775 0.8634
vn -0.4979 0.0926 0.8623
vn -0.4978 0.0927 0.8623
vn 0.4985 0.0775 0.8634
vn 0.4978 0.0927 0.8623
vn 0.9970 0.0775 0.0000
vn 0.9925 0.1219 0.0000
vn 0.9925 0.1221 0.0000
vn 0.9925 0.1222 0.0000
vn 0.2868 0.1146 -0.9511
vn 0.2875 0.0897 -0.9536
vn 0.2875 0.0896 -0.9536
vn -0.3411 0.1224 -0.9320
vn -0.9860 0.1665 0.0000
vn -0.4977 0.0956 0.8621
vn -0.4971 0.1079 0.8610
vn 0.4984 0.0811 0.8632
vn 0.4993 0.0542 0.8648
vn -0.9591 0.0603 -0.2765
vn -0.7196 0.1922 0.6672
vn -0.4983 0.0835 0.8630
vn 0.2881 0.0647 -0.9554
vn 0.9970 0.0776 0.0000
vn -0.4985 0.0775 -0.8634
usemtl Green_leafs.016
s 1
f 6/1/1 8/2/1 7/3/1
f 6/1/1 9/4/1 8/2/1
f 10/5/1 9/4/1 6/1/1
f 9/4/1 10/5/1 11/6/1
f 24/7/1 23/8/1 22/9/1
f 25/10/1 23/8/1 24/7/1
f 23/8/1 25/10/1 26/11/1
f 19/12/1 27/13/1 18/14/1
f 27/13/1 19/12/1 20/15/1
usemtl Wood.020
f 1/16/2 2/17/2 3/18/2
f 2/17/2 1/16/2 4/19/2
f 4/19/2 1/16/2 5/20/2
f 6/21/3 5/22/3 1/23/3
f 5/22/3 6/21/3 7/24/3
f 3/25/4 11/26/5 10/27/4
f 3/25/4 12/28/6 11/26/5
f 12/28/6 3/25/4 2/29/4
f 2/30/7 13/31/8 12/32/9
f 13/31/8 2/30/7 4/33/7
f 4/34/10 14/35/11 13/36/11
f 14/35/11 4/34/10 15/37/10
f 4/19/2 5/20/2 15/38/2
f 5/39/12 14/40/13 15/41/12
f 14/40/13 5/39/12 8/42/14
f 8/42/14 5/39/12 7/43/12
f 8/44/14 16/45/15 14/46/13
f 16/45/15 8/44/14 17/47/15
f 8/48/16 18/49/17 17/50/18
f 18/49/17 8/48/16 9/51/16
f 9/52/19 19/53/19 18/54/19
f 19/53/19 9/52/19 11/55/19
f 11/56/5 20/57/20 19/58/20
f 20/57/20 11/56/5 12/59/6
f 12/60/9 21/61/21 20/62/22
f 21/61/21 12/60/9 13/63/8
f 13/64/11 16/65/23 21/66/23
f 16/65/23 13/64/11 14/67/11
f 22/68/24 21/69/23 16/70/23
f 21/69/23 22/68/24 23/71/24
f 18/72/25 26/73/25 25/74/25
f 26/73/25 18/72/25 27/75/25
f 20/62/22 21/61/21 27/76/26
f 23/77/27 27/78/26 21/79/21
f 27/78/26 23/77/27 26/80/27
f 25/81/28 17/82/18 18/83/17
f 17/82/18 25/81/28 24/84/28
f 22/85/29 17/86/15 24/87/29
f 17/86/15 22/85/29 16/88/15
f 10/89/30 1/90/30 3/91/30
f 1/90/30 10/89/30 6/92/30
