# Blender v2.78 (sub 0) OBJ File: ''
# www.blender.org
mtllib naturePack_036.mtl
o Mesh1_Group1_Model.025
v 0.702520 1.790000 -0.241967
v 0.000000 0.000000 -0.743800
v 0.749402 0.000000 0.000000
v 0.252879 1.790000 -0.688247
v 0.477700 1.790000 -0.465107
v 0.715989 2.170000 -0.349351
v 0.563111 2.170000 -0.501086
v 0.732654 2.170000 -0.805732
v 0.926107 2.170000 -0.470662
v 1.011520 1.790000 -0.420366
v 1.264400 0.000000 -0.297333
v 1.264400 0.000000 -1.027330
v 0.316099 0.000000 -1.209830
v 0.000000 0.000000 -1.027330
v 0.252879 1.790000 -0.858366
v 0.442539 1.790000 -0.967866
v 0.727028 1.790000 -0.913116
v 1.011520 1.790000 -0.858366
v 0.926107 2.170000 -0.768502
vt 28.1885 13.7540
vt 28.8446 31.7217
vt 22.1697 19.7278
vt 36.4609 18.5300
vt 18.8071 18.3113
vt 9.9559 33.7939
vt 9.9559 27.0963
vt 17.4228 38.1050
vt 28.6232 35.9495
vt 36.4609 30.2560
vt 12.9198 72.2895
vt -20.6287 1.6058
vt 20.9406 1.6058
vt -12.0218 72.2895
vt 0.4490 72.2895
vt 10.3180 89.8563
vt 0.4490 74.5199
vt 12.9198 74.5199
vt 1.8378 89.8563
vt 28.7159 67.4888
vt 40.8411 82.8301
vt 31.2890 82.8301
vt 42.7631 67.4888
vt 25.5512 -1.9041
vt 42.7631 69.1628
vt 28.7159 69.1628
vt 48.9632 -1.9041
vt -29.5040 0.0000
vt -49.7794 40.4462
vt -49.7794 11.7060
vt -12.4449 47.6312
vt 0.0000 29.2835
vt 0.0000 40.4462
vt -29.2835 -0.0000
vt -33.7939 71.1722
vt -40.4462 -0.0000
vt -27.0963 71.1722
vt -28.0190 85.9374
vt -45.3317 70.8086
vt -25.1460 70.8086
vt -41.7452 85.9374
vt -22.3300 72.6862
vt -32.7195 57.1713
vt -21.3136 57.1713
vt -30.0860 72.6862
vt 18.5300 75.3579
vt 33.7939 60.0240
vt 30.2560 75.3579
vt 16.5499 60.0240
vt 16.5499 64.2089
vt 40.4462 -6.9634
vt 33.7939 64.2089
vt 11.7060 -6.9634
vt -41.2388 -5.8237
vt -9.9077 65.1492
vt -32.7195 65.1492
vt -3.2192 -5.8237
vt -34.5932 -5.2767
vt -25.5190 66.0092
vt -34.1411 66.0092
vt -20.2231 -5.2767
vt -21.3136 65.1492
vn -0.0000 1.0000 0.0000
vn -0.7023 0.0773 0.7076
vn -0.7001 -0.1753 0.6922
vn -0.6872 0.2200 0.6924
vn 0.4876 0.2214 0.8445
vn 0.4958 0.1291 0.8588
vn 0.0000 -1.0000 -0.0000
vn -0.9902 0.1399 0.0000
vn -0.8641 0.1487 -0.4809
vn 0.1822 0.2649 -0.9469
vn 0.9757 0.2193 0.0000
vn 0.9902 0.1399 0.0000
vn 0.1876 0.1185 -0.9751
vn 0.1877 0.1187 -0.9750
vn 0.1877 0.1183 -0.9751
vn -0.4943 0.1506 -0.8561
vn 0.1570 0.6425 -0.7500
usemtl Green_leafs.018
s 1
f 6/1/1 8/2/1 7/3/1
f 8/2/1 6/1/1 9/4/1
f 5/5/1 15/6/1 4/7/1
f 15/6/1 5/5/1 16/8/1
f 16/8/1 5/5/1 17/9/1
f 8/2/1 9/4/1 19/10/1
usemtl Wood.022
f 1/11/2 2/12/2 3/13/2
f 2/12/2 1/11/2 4/14/2
f 4/14/2 1/11/2 5/15/3
f 6/16/4 5/17/4 1/18/4
f 5/17/4 6/16/4 7/19/4
f 1/20/5 9/21/5 6/22/5
f 9/21/5 1/20/5 10/23/5
f 3/24/6 10/25/6 1/26/6
f 10/25/6 3/24/6 11/27/6
f 3/28/7 12/29/7 11/30/7
f 3/28/7 13/31/7 12/29/7
f 2/32/7 13/31/7 3/28/7
f 13/31/7 2/32/7 14/33/7
f 2/34/8 15/35/8 14/36/8
f 15/35/8 2/34/8 4/37/8
f 7/38/9 17/39/9 5/40/9
f 17/39/9 7/38/9 8/41/9
f 8/42/10 18/43/10 17/44/10
f 18/43/10 8/42/10 19/45/10
f 9/46/11 18/47/11 19/48/11
f 18/47/11 9/46/11 10/49/11
f 10/50/12 12/51/12 18/52/12
f 12/51/12 10/50/12 11/53/12
f 12/54/13 16/55/14 18/56/15
f 16/55/14 12/54/13 13/57/13
f 13/58/16 15/59/16 16/60/16
f 15/59/16 13/58/16 14/61/16
f 18/56/15 16/55/14 17/62/17
