# Blender v2.78 (sub 0) OBJ File: ''
# www.blender.org
mtllib naturePack_051.mtl
o Mesh1_Group1_Model.040
v 0.960769 3.379730 -1.788039
v 1.477850 3.543640 -1.407939
v 1.578880 3.309230 -1.466269
v 0.960769 3.543640 -1.706479
v 0.383145 3.403170 -1.442889
v 0.443683 3.543640 -1.407939
v 0.443683 3.543640 -0.810859
v 0.364586 3.360100 -0.765193
v 0.180154 3.370650 -0.701640
v 0.180154 3.427440 -1.565539
v 0.927728 3.396340 -2.000499
v 0.978354 4.200211 -1.653179
v 0.469123 4.154530 -1.388159
v 0.503867 4.205800 -0.816913
v 0.988057 4.288600 -0.587260
v 0.927728 3.282760 -0.272701
v 0.960769 3.287500 -0.384856
v 0.000000 2.514120 -0.554700
v 0.960769 2.514120 0.000000
v 0.862749 2.514120 -1.011380
v 0.862749 2.514120 -1.207420
v 0.960769 2.514121 -2.218800
v 0.000000 2.514120 -1.664100
v 1.675300 3.308450 -1.571559
v 1.425260 4.284670 -1.342909
v 1.018940 4.198340 -1.741769
v 0.442525 4.149810 -1.402839
v 0.442525 4.204420 -0.734529
v 1.018940 4.307570 -0.405141
v 0.591465 4.431800 -0.848106
v 0.993809 4.384500 -0.617251
v 1.407360 4.322940 -0.845575
v 1.396150 4.367760 -0.851345
v 1.396150 4.398320 -1.316299
v 0.993809 4.445621 -1.547149
v 0.591465 4.462360 -1.313059
v 1.675300 3.251660 -0.707659
v 1.595350 4.356100 -0.744066
v 1.595350 4.301480 -1.412379
v 0.906981 5.322890 -1.513949
v 1.258400 5.288890 -1.337839
v 0.924714 5.327731 -1.618559
v 0.591424 5.333270 -1.323129
v 0.510558 5.341930 -1.378089
v 0.510558 5.314300 -0.899630
v 0.584924 5.312250 -0.951584
v 0.592371 5.370190 -0.962936
v 0.592371 5.340800 -1.322619
v 0.902597 5.366920 -1.505029
v 1.212820 5.422430 -1.327759
v 1.212820 5.451820 -0.968069
v 1.278410 5.263960 -0.929663
v 0.918053 5.277160 -0.735109
v 0.902597 5.425700 -0.785660
v 0.924714 5.272470 -0.661647
v 0.996823 6.678130 -1.011749
v 0.938870 6.683980 -1.045049
v 0.938870 6.687850 -1.111999
v 0.996823 6.685860 -1.145649
v 1.054780 6.676140 -1.045399
v 1.338870 5.258270 -0.902120
v 1.338870 5.285900 -1.380579
v 1.054780 6.680010 -1.112349
v 1.600180 3.259800 -0.740236
v 1.921540 2.514120 -0.554700
v 1.058790 2.514120 -1.011380
v 0.775285 0.000000 -0.923916
v 1.146250 0.000000 -0.923916
v 1.146250 0.000000 -1.294880
v 0.775285 0.000000 -1.294880
v 1.058790 2.514120 -1.207420
v 1.921540 2.514120 -1.664100
v 1.477850 3.543640 -0.810859
v 0.960769 3.543640 -0.512320
vt 2.4399 90.5824
vt -22.6728 97.6092
vt -24.9691 87.5598
vt 0.8342 97.6092
vt -41.4669 106.5570
vt -66.3500 112.5800
vt -67.9556 105.5530
vt -42.8429 112.5800
vt -56.8067 129.0130
vt -31.9236 135.0350
vt -55.4307 135.0350
vt -30.1257 127.1670
vt -25.8348 25.6683
vt -53.4449 38.1117
vt -32.3813 21.6311
vt -52.0936 47.3999
vt -84.0203 35.4972
vt -36.3945 106.0040
vt -65.4767 138.8570
vt -70.4421 104.6820
vt -42.8875 136.9140
vt -61.4327 128.8310
vt -31.6415 161.7350
vt -54.1590 159.5680
vt -27.4322 126.4310
vt -6.7393 135.0240
vt 23.4457 172.7980
vt 2.3709 169.3910
vt 27.1771 131.4070
vt -31.5026 -7.9662
vt -35.7383 -6.1546
vt -10.9193 98.3844
vt 25.1820 131.5390
vt -2.6321 134.6520
vt 32.7579 98.3844
vt 0.0000 21.8386
vt -33.9665 39.8181
vt -37.8255 0.0000
vt -33.9665 47.5362
vt -37.8255 87.3543
vt 0.0000 65.5157
vt -65.5157 90.8992
vt -21.8386 90.8992
vt -76.4350 68.4437
vt -32.7579 68.4437
vt -78.3894 29.1432
vt -89.6881 1.8627
vt 10.4578 99.5215
vt -19.8319 136.3950
vt -23.4552 95.8734
vt 1.5587 132.8890
vt 75.6154 23.9711
vt 79.4223 23.4913
vt 74.4732 45.6168
vt 56.2005 12.2620
vt 56.1419 11.0529
vt 33.7590 25.0501
vt 37.7877 25.4038
vt 34.6565 51.4859
vt 40.1169 46.6248
vt 4.8362 178.6910
vt 23.0900 176.7450
vt 64.6387 165.6390
vt 46.0494 168.1310
vt 45.2522 164.2500
vt 64.3751 167.4530
vt 53.7936 150.0590
vt 34.4242 153.4330
vt 34.2044 151.6130
vt 52.7268 154.6740
vt -1.1580 143.0760
vt -19.4100 141.1120
vt -45.6365 150.0010
vt -63.9609 149.2900
vt -32.7805 171.2890
vt -51.0795 172.5810
vt 62.9573 110.4220
vt 28.9502 108.1160
vt 36.8900 123.5400
vt 70.9400 122.2820
vt 57.4461 55.4265
vt 57.9370 63.9243
vt 80.3198 49.9270
vt -3.8647 189.1530
vt -29.7132 147.9300
vt -3.5918 143.7670
vt -19.3372 187.7810
vt -68.5306 30.0056
vt -72.1188 32.1527
vt -72.2217 14.9173
vt -54.7562 34.6116
vt -54.3393 38.4534
vt -39.9980 26.1923
vt -43.4535 25.2858
vt -38.1500 212.6310
vt -52.3296 211.1660
vt -37.7000 210.3320
vt -52.3101 211.4640
vt -60.9571 205.7740
vt -46.7675 204.4390
vt -46.7892 204.7380
vt -61.2858 204.0280
vt -17.9339 193.1710
vt -3.8754 190.9300
vt 36.7587 187.1700
vt 51.2604 180.3880
vt 50.9140 185.9470
vt 35.1749 179.3500
vt 60.2410 206.0550
vt 45.6441 198.7740
vt 61.7660 198.2240
vt 46.0771 204.9660
vt 13.8772 218.2490
vt -0.1940 213.6610
vt 15.4438 212.2420
vt -0.1806 216.0040
vt -43.4361 7.6305
vt -45.4680 9.7135
vt 15.3303 268.1800
vt 0.6491 212.9210
vt 19.4504 211.2270
vt 12.6994 268.4170
vt 55.7706 19.2886
vt 57.2964 23.6018
vt 55.2895 21.8860
vt 59.7843 22.7201
vt 58.2586 18.4070
vt 44.5868 204.7200
vt 56.6598 260.9570
vt 54.0215 261.0370
vt 63.4411 204.1510
vt -60.4979 3.8551
vt -61.2156 1.3298
vt 69.1356 160.3780
vt 42.8183 158.3550
vt 25.6700 173.0360
vt -0.4501 168.8650
vt -55.4071 164.2010
vt -29.0971 166.3690
vt -69.6801 159.4230
vt -43.3554 157.4980
vt 53.8219 139.2880
vt 27.5207 141.5610
vt -75.5569 13.5909
vt 1.9189 183.3560
vt -12.7948 238.5050
vt -16.8814 181.6500
vt -10.1641 238.7430
vt -44.2647 188.1310
vt -56.3960 243.8320
vt -63.1184 187.5420
vt -53.7577 243.9140
vt -53.8812 206.9460
vt -40.4653 262.3360
vt -43.1007 262.4950
vt -35.0475 205.8060
vt 60.2654 20.1227
vt 41.6378 249.5510
vt 54.9632 193.7170
vt 44.2735 249.7070
vt 36.1276 192.6070
vt -63.4292 -19.8690
vt -62.5397 -16.7538
vt 32.7579 83.4141
vt 69.1304 115.3820
vt 40.3338 116.5690
vt 76.4350 83.4141
vt -41.6846 39.8181
vt -75.6511 21.8386
vt -41.6846 47.5362
vt -75.6511 65.5157
vt -32.7579 53.4733
vt 10.9193 53.4733
vt -84.0749 2.1606
vt 57.7270 95.0450
vt 31.9236 105.0940
vt 29.1432 92.9261
vt 55.4307 105.0940
vt 66.3500 127.5500
vt 42.8429 127.5500
vt 22.6728 142.5200
vt -0.8342 142.5200
vt 65.5157 60.9585
vt 21.8386 60.9585
vt 30.5230 1.2647
vt 41.6846 100.3060
vt 33.9665 100.3060
vt 45.1281 1.2647
vt -30.5230 36.3746
vt -45.1281 50.9797
vt -45.1281 36.3746
vt -30.5230 50.9797
vt -39.8181 100.1020
vt -50.9797 1.0612
vt -36.3746 1.0612
vt -47.5362 100.1020
vt 39.8181 97.4721
vt 50.9797 -1.5690
vt 47.5362 97.4721
vt 36.3746 -1.5690
vt -45.1281 -1.7725
vt -33.9665 97.2687
vt -41.6846 97.2687
vt -30.5230 -1.7725
vn 0.4592 0.3958 -0.7953
vn 0.4592 0.3957 -0.7953
vn -0.4592 0.3957 -0.7953
vn -0.4592 0.3958 -0.7953
vn -0.9183 0.3958 0.0000
vn -0.9184 0.3958 0.0000
vn -0.0794 -0.9947 -0.0654
vn -0.4539 0.3773 -0.8072
vn -0.9310 0.3642 0.0239
vn -0.4502 0.2910 0.8442
vn -0.4592 0.3958 0.7953
vn 0.0000 -1.0000 -0.0000
vn 0.4998 0.3168 -0.8061
vn 0.1307 -0.9881 0.0807
vn 0.1307 -0.9881 0.0808
vn 0.1308 -0.9881 0.0808
vn 0.4964 0.2318 0.8366
vn 0.9695 0.2446 0.0161
vn 0.4964 0.2319 0.8366
vn 0.1306 -0.9881 0.0808
vn 0.4540 0.2201 -0.8634
vn -0.0675 -0.9961 -0.0575
vn -0.0676 -0.9961 -0.0575
vn -0.9920 0.1255 -0.0103
vn -0.5107 0.1219 -0.8511
vn -0.5107 0.1216 -0.8511
vn 0.9454 0.3247 -0.0265
vn 0.9455 0.3247 -0.0265
vn 0.4580 0.3287 0.8259
vn 0.4580 0.3288 0.8259
vn -0.5135 0.2281 0.8272
vn -0.4661 0.2363 0.8526
vn 0.0676 0.9961 0.0575
vn 0.0675 0.9961 0.0576
vn 0.4982 0.1854 0.8470
vn 0.4580 0.3287 0.8260
vn 0.9455 0.3246 -0.0265
vn 0.5006 0.2608 -0.8254
vn -0.4689 0.3125 -0.8261
vn -0.9538 0.3001 0.0173
vn 0.9802 0.1976 0.0114
vn 0.4592 0.3958 0.7953
vn 0.9183 0.3958 0.0000
vn 0.0000 0.0348 0.9994
vn -0.9994 0.0348 0.0000
vn 0.9994 0.0348 0.0000
vn 0.0000 0.0348 -0.9994
usemtl Leafs.006
s 1
f 1/1/1 2/2/1 3/3/1
f 2/2/2 1/1/2 4/4/2
f 5/5/3 4/6/3 1/7/3
f 4/6/4 5/5/4 6/8/4
f 5/9/5 7/10/6 6/11/5
f 7/10/6 5/9/5 8/12/6
f 9/13/7 5/14/7 8/15/7
f 10/16/7 5/14/7 9/13/7
f 5/14/7 10/16/7 11/17/7
f 10/18/8 12/19/8 11/20/8
f 12/19/8 10/18/8 13/21/8
f 10/22/9 14/23/9 13/24/9
f 14/23/9 10/22/9 9/25/9
f 9/26/10 15/27/10 14/28/10
f 15/27/10 9/26/10 16/29/10
f 8/15/7 16/30/7 9/13/7
f 16/30/7 8/15/7 17/31/7
f 18/32/11 17/33/11 8/34/11
f 17/33/11 18/32/11 19/35/11
f 18/36/12 20/37/12 19/38/12
f 20/37/12 18/36/12 21/39/12
f 18/36/12 22/40/12 21/39/12
f 22/40/12 18/36/12 23/41/12
f 8/12/5 23/42/5 18/43/5
f 23/42/5 8/12/5 5/9/5
f 5/5/4 22/44/4 23/45/4
f 22/44/4 5/5/4 1/7/4
f 5/14/7 11/17/7 1/46/7
f 1/46/7 11/17/7 24/47/7
f 11/48/13 25/49/13 24/50/13
f 25/49/13 11/48/13 12/51/13
f 12/52/14 26/53/14 25/54/15
f 13/55/16 26/53/14 12/52/14
f 13/55/16 27/56/16 26/53/14
f 27/56/16 13/55/16 28/57/14
f 14/58/14 28/57/14 13/55/16
f 28/57/14 14/58/14 29/59/15
f 29/59/15 14/58/14 15/60/15
f 15/27/10 30/61/10 14/28/10
f 30/61/10 15/27/10 31/62/10
f 32/63/17 31/64/17 15/65/17
f 31/64/17 32/63/17 33/66/17
f 25/67/18 33/68/18 32/69/18
f 33/68/18 25/67/18 34/70/18
f 25/49/13 35/71/13 34/72/13
f 35/71/13 25/49/13 12/51/13
f 12/19/8 36/73/8 35/74/8
f 36/73/8 12/19/8 13/21/8
f 13/24/9 30/75/9 36/76/9
f 30/75/9 13/24/9 14/23/9
f 32/69/18 24/77/18 25/67/18
f 24/77/18 32/69/18 37/78/18
f 32/63/19 16/79/19 37/80/19
f 16/79/19 32/63/19 15/65/17
f 29/59/15 15/60/15 32/81/15
f 29/59/15 32/81/15 38/82/15
f 38/82/15 32/81/15 25/54/15
f 38/82/15 25/54/15 39/83/20
f 25/54/15 26/53/14 39/83/20
f 40/84/21 39/85/21 26/86/21
f 39/85/21 40/84/21 41/87/21
f 40/88/22 42/89/22 41/90/23
f 43/91/23 42/89/22 40/88/22
f 43/91/23 44/92/23 42/89/22
f 44/92/23 43/91/23 45/93/23
f 45/93/23 43/91/23 46/94/23
f 47/95/24 43/96/24 46/97/24
f 43/96/24 47/95/24 48/98/24
f 49/99/25 43/100/25 48/101/25
f 43/100/26 49/99/26 40/102/26
f 50/103/21 40/84/21 49/104/21
f 40/84/21 50/103/21 41/87/21
f 51/105/27 41/106/27 50/107/27
f 41/106/28 51/105/28 52/108/28
f 51/109/29 53/110/29 52/111/30
f 53/110/29 51/109/29 54/112/29
f 54/113/31 46/114/31 53/115/31
f 46/114/31 54/113/31 47/116/31
f 55/117/22 46/94/23 53/118/22
f 46/94/23 55/117/22 45/93/23
f 56/119/32 45/120/32 55/121/32
f 45/120/32 56/119/32 57/122/32
f 56/123/33 58/124/33 57/125/34
f 58/124/33 56/123/33 59/126/33
f 59/126/33 56/123/33 60/127/33
f 55/128/35 60/129/35 56/130/35
f 60/129/35 55/128/35 61/131/35
f 55/117/22 52/132/22 61/133/22
f 55/117/22 53/118/22 52/132/22
f 53/110/36 38/134/36 52/111/36
f 38/134/29 53/110/29 29/135/29
f 46/114/31 29/136/31 53/115/31
f 29/136/31 46/114/31 28/137/31
f 46/97/24 27/138/24 28/139/24
f 27/138/24 46/97/24 43/96/24
f 43/100/26 26/140/26 27/141/26
f 26/140/26 43/100/26 40/102/26
f 39/142/37 52/108/37 38/143/37
f 52/108/37 39/142/37 41/106/37
f 41/90/23 62/144/23 52/132/22
f 41/90/23 42/89/22 62/144/23
f 42/145/38 63/146/38 62/147/38
f 63/146/38 42/145/38 59/148/38
f 44/149/39 59/150/39 42/151/39
f 59/150/39 44/149/39 58/152/39
f 44/153/40 57/154/40 58/155/40
f 57/154/40 44/153/40 45/156/40
f 59/126/33 60/127/33 63/157/34
f 60/158/41 62/159/41 63/160/41
f 62/159/41 60/158/41 61/161/41
f 61/133/22 52/132/22 62/144/23
f 16/30/7 17/31/7 37/162/7
f 37/162/7 17/31/7 64/163/7
f 19/164/42 64/165/42 17/166/42
f 64/165/42 19/164/42 65/167/42
f 19/38/12 66/168/12 65/169/12
f 19/38/12 20/37/12 66/168/12
f 66/168/12 20/37/12 21/39/12
f 21/39/12 22/40/12 71/170/12
f 71/170/12 22/40/12 72/171/12
f 1/1/1 72/172/1 22/173/1
f 72/172/1 1/1/1 3/3/1
f 1/46/7 24/47/7 3/174/7
f 3/174/7 24/47/7 64/163/7
f 37/162/7 64/163/7 24/47/7
f 3/175/43 73/176/43 64/177/43
f 73/176/43 3/175/43 2/178/43
f 73/179/42 17/166/42 64/165/42
f 17/166/42 73/179/42 74/180/42
f 74/181/11 8/34/11 17/33/11
f 8/34/11 74/181/11 7/182/11
f 64/177/43 72/183/43 3/175/43
f 72/183/43 64/177/43 65/184/43
f 65/169/12 66/168/12 72/171/12
f 71/170/12 72/171/12 66/168/12
usemtl Wood.031
f 67/185/44 66/186/44 20/187/44
f 66/186/44 67/185/44 68/188/44
f 67/189/12 69/190/12 68/191/12
f 69/190/12 67/189/12 70/192/12
f 20/193/45 70/194/45 67/195/45
f 70/194/45 20/193/45 21/196/45
f 66/168/12 21/39/12 71/170/12
f 66/197/46 69/198/46 71/199/46
f 69/198/46 66/197/46 68/200/46
f 69/201/47 21/202/47 71/203/47
f 21/202/47 69/201/47 70/204/47
