# Blender v2.78 (sub 0) OBJ File: ''
# www.blender.org
mtllib naturePack_149.mtl
o Mesh1_Group1_Model.065
v 0.986828 1.417320 -0.864746
v 0.658516 0.000000 -0.791454
v 1.060120 0.000000 -0.791454
v 0.731809 1.417320 -0.864746
v 0.859319 1.417320 -0.631296
v 0.546718 1.417320 -0.811776
v 0.731809 1.417320 -1.119770
v 0.859319 1.417320 -1.353220
v 0.546718 1.417320 -1.172740
v 0.338318 1.649170 -1.293060
v 0.338318 1.649170 -0.691456
v 0.859319 1.649170 -0.390656
v 1.171920 1.417320 -0.811776
v 1.380320 1.649170 -0.691456
v 1.380320 1.649170 -1.293060
v 1.171920 1.417320 -1.172740
v 0.986828 1.417320 -1.119770
v 1.060120 0.000000 -1.193060
v 0.658516 0.000000 -1.193060
v 0.859319 1.649170 -1.593860
v 0.859319 3.244920 -1.984509
v 1.718640 3.244920 -1.488379
v 0.859319 7.868910 -1.533299
v 1.327870 7.868910 -1.262779
v 0.859319 8.248870 -1.282149
v 1.110370 8.248870 -1.137199
v 1.110370 8.248870 -0.847310
v 0.859319 8.248870 -0.702365
v 0.608267 8.248870 -1.137199
v 0.608267 8.248870 -0.847310
v 0.390764 7.868910 -1.262779
v 0.390764 7.868910 -0.721735
v 0.000000 3.244920 -1.488379
v 0.000000 3.244920 -0.496127
v 0.859319 3.244920 0.000001
v 1.718640 3.244920 -0.496127
v 1.327870 7.868910 -0.721735
v 0.859319 7.868910 -0.451214
vt 38.8515 57.4837
vt 25.9258 1.6092
vt 41.7371 1.6092
vt 28.8114 57.4837
vt -41.7371 -2.4257
vt -28.8114 53.4488
vt -38.8515 53.4488
vt -25.9258 -2.4257
vt -41.7371 46.9708
vt -25.9258 31.1596
vt -25.9258 46.9708
vt -41.7371 31.1596
vt 46.9708 -2.1554
vt 34.0451 53.7191
vt 31.1596 -2.1554
vt 44.0853 53.7191
vt -34.0451 57.2135
vt -46.9708 1.3389
vt -31.1596 1.3389
vt -44.0853 57.2135
vt -33.8315 24.8542
vt -28.8114 34.0451
vt -38.8515 34.0451
vt -21.5243 31.9597
vt -28.8114 44.0853
vt -33.8315 53.2762
vt -21.5243 46.1707
vt -31.9597 27.1107
vt -50.9077 39.3843
vt -46.1707 27.1107
vt -27.2227 39.3843
vt 2.6608 15.8027
vt 21.6088 28.0762
vt -2.0762 28.0762
vt 16.8718 15.8027
vt 55.9370 38.4188
vt 36.9890 50.6923
vt 41.7260 38.4188
vt 60.6740 50.6923
vt 31.9597 72.3428
vt 50.9077 84.6163
vt 27.2227 84.6163
vt 46.1707 72.3428
vt -46.1386 31.9597
vt -46.1386 46.1707
vt -38.8515 44.0853
vt 2.0762 95.9243
vt -16.8718 83.6508
vt -2.6608 83.6508
vt -21.6088 95.9243
vt 9.7663 142.5170
vt -21.6088 78.2955
vt 2.0762 78.2955
vt -29.2989 142.5170
vt 0.8841 302.8730
vt -29.2989 120.1770
vt 9.7663 120.1770
vt -20.4167 302.8730
vt -4.0598 251.7250
vt -20.4167 234.4880
vt 0.8841 234.4880
vt -15.4728 251.7250
vt 33.8315 50.4782
vt 43.7154 33.3587
vt 43.7154 44.7717
vt 33.8315 27.6522
vt 23.9475 44.7717
vt 23.9475 33.3587
vt -49.7156 276.5070
vt -33.3587 293.7430
vt -44.7717 293.7430
vt -28.4148 276.5070
vt -58.5978 127.2990
vt -28.4148 309.9950
vt -49.7156 309.9950
vt -19.5326 127.2990
vt -58.5978 124.9750
vt -27.2227 60.7537
vt -19.5326 124.9750
vt -50.9077 60.7537
vt -29.2989 135.5000
vt -60.6740 71.2788
vt -36.9890 71.2788
vt -68.3641 135.5000
vt -38.1811 305.7220
vt -68.3641 123.0260
vt -29.2989 123.0260
vt -59.4819 305.7220
vt -43.1250 268.5320
vt -59.4819 251.2960
vt -38.1811 251.2960
vt -54.5380 268.5320
vt -60.6740 73.3083
vt -41.7260 61.0348
vt -36.9890 73.3083
vt -55.9370 61.0348
vt -2.0762 57.2454
vt 29.2989 121.4670
vt -9.7663 121.4670
vt 21.6088 57.2454
vt 36.9890 64.2621
vt 68.3641 128.4830
vt 29.2989 128.4830
vt 60.6740 64.2621
vt 27.2227 74.7871
vt 58.5978 139.0080
vt 19.5326 139.0080
vt 50.9077 74.7871
vt 58.5978 121.6010
vt 28.4148 304.2970
vt 19.5326 121.6010
vt 49.7156 304.2970
vt 49.7156 242.8920
vt 33.3587 260.1280
vt 28.4148 242.8920
vt 44.7717 260.1280
vt 54.5380 285.3400
vt 38.1811 268.1030
vt 59.4819 268.1030
vt 43.1250 285.3400
vt 15.4728 302.1470
vt -0.8841 284.9110
vt 20.4167 284.9110
vt 4.0598 302.1470
vt -9.7663 128.7240
vt 20.4167 311.4190
vt -0.8841 311.4190
vt 29.2989 128.7240
vt 29.2989 125.8750
vt 59.4819 308.5700
vt 38.1811 308.5700
vt 68.3641 125.8750
vn 0.0000 0.0516 0.9987
vn 0.0000 0.0516 -0.9987
vn 0.0000 -1.0000 -0.0000
vn 0.9987 0.0516 0.0000
vn -0.9987 0.0516 0.0000
vn -0.7437 -0.6685 -0.0000
vn -0.3719 -0.6685 0.6441
vn 0.3719 -0.6685 0.6441
vn 0.7437 -0.6685 -0.0000
vn 0.3719 -0.6685 -0.6441
vn 0.4891 -0.2074 -0.8472
vn 0.4982 0.0842 -0.8629
vn 0.4339 0.4968 -0.7516
vn 0.0000 1.0000 0.0000
vn -0.8679 0.4968 0.0000
vn -0.9964 0.0842 0.0000
vn -0.9783 -0.2074 -0.0000
vn -0.4891 -0.2074 -0.8472
vn -0.4982 0.0842 -0.8629
vn -0.4339 0.4968 -0.7516
vn -0.3719 -0.6685 -0.6441
vn -0.4891 -0.2074 0.8472
vn 0.4891 -0.2074 0.8472
vn 0.9783 -0.2074 -0.0000
vn 0.9964 0.0842 0.0000
vn 0.8679 0.4968 0.0000
vn 0.4339 0.4968 0.7516
vn -0.4339 0.4968 0.7516
vn -0.4982 0.0842 0.8629
vn 0.4982 0.0842 0.8629
usemtl Wood.091
s 1
f 1/1/1 2/2/1 3/3/1
f 2/2/1 1/1/1 4/4/1
f 18/5/2 7/6/2 17/7/2
f 7/6/2 18/5/2 19/8/2
f 18/9/3 2/10/3 19/11/3
f 2/10/3 18/9/3 3/12/3
f 18/13/4 1/14/4 3/15/4
f 1/14/4 18/13/4 17/16/4
f 4/17/5 19/18/5 2/19/5
f 19/18/5 4/17/5 7/20/5
usemtl Fall_Leafs.006
f 5/21/3 4/22/3 1/23/3
f 6/24/3 4/22/3 5/21/3
f 4/22/3 6/24/3 7/25/3
f 6/24/3 8/26/3 7/25/3
f 8/26/3 6/24/3 9/27/3
f 6/28/6 10/29/6 9/30/6
f 10/29/6 6/28/6 11/31/6
f 6/32/7 12/33/7 11/34/7
f 12/33/7 6/32/7 5/35/7
f 13/36/8 12/37/8 5/38/8
f 12/37/8 13/36/8 14/39/8
f 13/40/9 15/41/9 14/42/9
f 15/41/9 13/40/9 16/43/9
f 13/44/3 1/23/3 16/45/3
f 5/21/3 1/23/3 13/44/3
f 17/46/3 16/45/3 1/23/3
f 17/46/3 8/26/3 16/45/3
f 7/25/3 8/26/3 17/46/3
f 20/47/10 16/48/10 8/49/10
f 16/48/10 20/47/10 15/50/10
f 21/51/11 15/52/11 20/53/11
f 15/52/11 21/51/11 22/54/11
f 23/55/12 22/56/12 21/57/12
f 22/56/12 23/55/12 24/58/12
f 25/59/13 24/60/13 23/61/13
f 24/60/13 25/59/13 26/62/13
f 25/63/14 27/64/14 26/65/14
f 25/63/14 28/66/14 27/64/14
f 29/67/14 28/66/14 25/63/14
f 28/66/14 29/67/14 30/68/14
f 31/69/15 30/70/15 29/71/15
f 30/70/15 31/69/15 32/72/15
f 33/73/16 32/74/16 31/75/16
f 32/74/16 33/73/16 34/76/16
f 33/77/17 11/78/17 34/79/17
f 11/78/17 33/77/17 10/80/17
f 33/81/18 20/82/18 10/83/18
f 20/82/18 33/81/18 21/84/18
f 31/85/19 21/86/19 33/87/19
f 21/86/19 31/85/19 23/88/19
f 29/89/20 23/90/20 31/91/20
f 23/90/20 29/89/20 25/92/20
f 20/93/21 9/94/21 10/95/21
f 9/94/21 20/93/21 8/96/21
f 11/97/22 35/98/22 34/99/22
f 35/98/22 11/97/22 12/100/22
f 12/101/23 36/102/23 35/103/23
f 36/102/23 12/101/23 14/104/23
f 14/105/24 22/106/24 36/107/24
f 22/106/24 14/105/24 15/108/24
f 22/109/25 37/110/25 36/111/25
f 37/110/25 22/109/25 24/112/25
f 24/113/26 27/114/26 37/115/26
f 27/114/26 24/113/26 26/116/26
f 27/117/27 38/118/27 37/119/27
f 38/118/27 27/117/27 28/120/27
f 28/121/28 32/122/28 38/123/28
f 32/122/28 28/121/28 30/124/28
f 34/125/29 38/126/29 32/127/29
f 38/126/29 34/125/29 35/128/29
f 35/129/30 37/130/30 38/131/30
f 37/130/30 35/129/30 36/132/30
