# Blender v2.78 (sub 0) OBJ File: ''
# www.blender.org
mtllib naturePack_020.mtl
o Mesh1_Group1_Model.013
v 0.516773 0.340000 -0.365546
v 0.000000 0.000000 -0.601275
v 0.500000 0.000000 0.000000
v 0.311522 0.340000 -0.612370
v 0.378312 0.340000 -0.705433
v 0.661429 0.340000 -0.604677
v 0.694871 0.340000 -0.543644
v 1.000000 0.000000 -0.500000
v 0.832586 0.000000 -0.805538
v 0.286158 0.000000 -1.000000
vt 20.3454 14.3916
vt 14.8942 27.7729
vt 12.2647 24.1091
vt 26.0405 23.8062
vt 27.3571 21.4033
vt 1.9429 25.4234
vt -18.2013 8.8869
vt 12.5863 8.8869
vt -10.6954 25.4234
vt 24.5627 8.3636
vt 41.7583 -8.1729
vt 34.4788 8.3636
vt 13.9194 -8.1729
vt -19.6850 0.0000
vt -32.7790 31.7141
vt -39.3701 19.6850
vt -11.2660 39.3701
vt 0.0000 23.6723
vt -26.7379 8.4323
vt -38.5541 -8.1042
vt -19.2320 -8.1042
vt -31.2477 8.4323
vt -4.7203 -7.4597
vt -20.2486 -23.9962
vt 2.5861 -23.9962
vt -16.5515 -7.4597
vt 5.6245 -9.2901
vt 12.0615 -25.8266
vt 8.3644 -9.2901
vt -1.6549 -25.8266
vn -0.0000 1.0000 -0.0000
vn -0.6224 0.5872 0.5176
vn 0.5724 0.5872 0.5724
vn 0.0000 -1.0000 -0.0000
vn -0.6576 0.5872 -0.4720
vn 0.2714 0.5872 -0.7626
vn 0.7099 0.5872 -0.3890
usemtl Green_leafs.013
s 1
f 1/1/1 5/2/1 4/3/1
f 5/2/1 1/1/1 6/4/1
f 6/4/1 1/1/1 7/5/1
usemtl Wood.017
f 1/6/2 2/7/2 3/8/2
f 2/7/2 1/6/2 4/9/2
f 1/10/3 8/11/3 7/12/3
f 8/11/3 1/10/3 3/13/3
f 3/14/4 9/15/4 8/16/4
f 3/14/4 10/17/4 9/15/4
f 10/17/4 3/14/4 2/18/4
f 4/19/5 10/20/5 2/21/5
f 10/20/5 4/19/5 5/22/5
f 5/23/6 9/24/6 10/25/6
f 9/24/6 5/23/6 6/26/6
f 7/27/7 9/28/7 6/29/7
f 9/28/7 7/27/7 8/30/7
