# Blender v2.78 (sub 0) OBJ File: ''
# www.blender.org
mtllib naturePack_114.mtl
o Mesh1_Tree_Model.001
v 0.177000 0.600000 -1.003000
v 1.180000 0.000000 -1.180000
v 0.000000 0.000000 -1.180000
v 1.003000 0.600000 -1.003000
v 1.097400 0.600000 -1.097400
v 0.082600 0.600000 -1.097400
v 0.082600 0.600000 -0.082600
v 0.177000 0.600000 -0.177000
v 1.097400 0.600000 -0.082600
v 1.003000 0.600000 -0.177000
v 0.000000 0.000000 0.000000
v 1.180000 0.000000 0.000000
v 0.393303 0.000000 -0.393303
v 0.393303 0.000000 -0.786697
v 0.786697 0.000000 -0.786697
v 0.786697 0.000000 -0.393303
v 0.342162 -0.495868 -0.837838
v 0.342162 -0.495868 -0.342162
v 0.837838 -0.495868 -0.837838
v 0.837838 -0.495868 -0.342162
v 0.945180 1.343040 -0.234820
v 0.945180 1.343040 -0.945180
v 0.234820 1.343040 -0.945180
v 0.234820 1.343040 -0.234820
v 1.026360 1.343040 -0.153636
v 0.153636 1.343040 -0.153636
v 0.153636 1.343040 -1.026360
v 1.026360 1.343040 -1.026360
v 0.590000 2.663040 -0.590000
vt -6.9685 11.4838
vt -46.4567 -13.1447
vt 0.0000 -13.1447
vt -39.4882 11.4838
vt -6.9685 39.4882
vt -43.2047 43.2047
vt -39.4882 39.4882
vt -3.2520 43.2047
vt -3.2520 3.2520
vt -6.9685 6.9685
vt -43.2047 3.2520
vt -39.4882 6.9685
vt 0.0000 0.0000
vt 39.4882 24.6285
vt 6.9685 24.6285
vt 46.4567 -0.0000
vt -15.4844 15.4844
vt -46.4567 0.0000
vt -15.4844 30.9723
vt 0.0000 46.4567
vt -46.4567 46.4567
vt -30.9723 30.9723
vt -30.9723 15.4844
vt 46.4567 -13.1447
vt 6.9685 11.4838
vt 0.0000 -13.1447
vt 39.4882 11.4838
vt 43.2047 14.4705
vt 9.2449 44.3316
vt 3.2520 14.4705
vt 37.2118 44.3316
vt -43.2047 14.4705
vt -9.2449 44.3316
vt -37.2118 44.3316
vt -3.2520 14.4705
vt -43.2047 23.7941
vt -9.2449 53.6552
vt -37.2118 53.6552
vt -3.2520 23.7941
vt 3.2520 23.7941
vt 37.2118 53.6552
vt 9.2449 53.6552
vt 43.2047 23.7941
vt -40.4080 6.0487
vt -9.2449 9.2449
vt -37.2118 9.2449
vt -6.0487 6.0487
vt -9.2449 37.2118
vt -6.0487 40.4080
vt -40.4080 40.4080
vt -23.2283 92.2550
vt -40.4080 37.5205
vt -6.0487 37.5205
vt 40.4080 37.5205
vt 23.2283 92.2550
vt 6.0487 37.5205
vt 23.2283 106.8370
vt 6.0487 52.1020
vt 40.4080 52.1020
vt -40.4080 52.1020
vt -6.0487 52.1020
vt -23.2283 106.8370
vt -37.2118 37.2118
vt -6.9685 24.6285
vt -46.4567 0.0000
vt -39.4882 24.6285
vt -32.9858 -18.0374
vt -15.4844 1.5885
vt -30.9723 1.5885
vt -13.4709 -18.0374
vt -32.9858 32.9858
vt -13.4709 13.4709
vt -13.4709 32.9858
vt -32.9858 13.4709
vt 32.9858 -22.8034
vt 15.4844 -3.1775
vt 13.4709 -22.8034
vt 30.9723 -3.1775
vt -32.9858 -22.8034
vt -15.4844 -3.1775
vt -30.9723 -3.1775
vt -13.4709 -22.8034
vt 30.9723 1.5885
vt 13.4709 -18.0374
vt 32.9858 -18.0374
vt 15.4844 1.5885
vn 0.0000 0.2829 -0.9591
vn 0.0000 -1.0000 0.0000
vn 0.0000 0.2829 0.9591
vn 0.9591 0.2829 0.0000
vn 0.9797 0.2007 0.0000
vn 0.0000 0.2007 -0.9797
vn -0.9797 0.2007 0.0000
vn 0.0000 0.2007 0.9797
vn 0.0000 0.3139 -0.9495
vn 0.9495 0.3139 0.0000
vn 0.0000 0.3139 0.9495
vn -0.9495 0.3139 0.0000
vn -0.9591 0.2829 0.0000
vn -0.9947 0.1026 0.0000
vn 0.9947 0.1026 0.0000
vn 0.0000 0.1026 -0.9947
vn 0.0000 0.1026 0.9947
usemtl Leafs.039
s 1
f 1/1/1 2/2/1 3/3/1
f 2/2/1 1/1/1 4/4/1
f 1/5/2 5/6/2 4/7/2
f 1/5/2 6/8/2 5/6/2
f 6/8/2 1/5/2 7/9/2
f 8/10/2 7/9/2 1/5/2
f 7/9/2 8/10/2 9/11/2
f 9/11/2 8/10/2 10/12/2
f 11/13/3 10/14/3 8/15/3
f 10/14/3 11/13/3 12/16/3
f 11/13/2 13/17/2 12/18/2
f 13/17/2 11/13/2 14/19/2
f 3/20/2 14/19/2 11/13/2
f 14/19/2 3/20/2 2/21/2
f 14/19/2 2/21/2 15/22/2
f 15/22/2 2/21/2 16/23/2
f 12/18/2 16/23/2 2/21/2
f 12/18/2 13/17/2 16/23/2
f 13/17/2 15/22/2 16/23/2
f 15/22/2 13/17/2 14/19/2
f 2/24/4 10/25/4 12/26/4
f 10/25/4 2/24/4 4/27/4
f 4/7/2 5/6/2 10/12/2
f 9/11/2 10/12/2 5/6/2
f 5/28/5 21/29/5 9/30/5
f 21/29/5 5/28/5 22/31/5
f 5/32/6 23/33/6 22/34/6
f 23/33/6 5/32/6 6/35/6
f 6/36/7 24/37/7 23/38/7
f 24/37/7 6/36/7 7/39/7
f 7/40/8 21/41/8 24/42/8
f 21/41/8 7/40/8 9/43/8
f 25/44/2 24/45/2 21/46/2
f 26/47/2 24/45/2 25/44/2
f 24/45/2 26/47/2 23/48/2
f 27/49/2 23/48/2 26/47/2
f 23/48/2 27/49/2 28/50/2
f 29/51/9 28/52/9 27/53/9
f 28/54/10 29/55/10 25/56/10
f 29/57/11 26/58/11 25/59/11
f 27/60/12 26/61/12 29/62/12
f 25/44/2 21/46/2 28/50/2
f 22/63/2 28/50/2 21/46/2
f 23/48/2 28/50/2 22/63/2
f 8/64/13 3/65/13 11/13/13
f 3/65/13 8/64/13 1/66/13
usemtl Wood.065
f 17/67/14 13/68/14 14/69/14
f 13/68/14 17/67/14 18/70/14
f 19/71/2 18/72/2 17/73/2
f 18/72/2 19/71/2 20/74/2
f 19/75/15 16/76/15 20/77/15
f 16/76/15 19/75/15 15/78/15
f 19/79/16 14/80/16 15/81/16
f 14/80/16 19/79/16 17/82/16
f 16/83/17 18/84/17 20/85/17
f 18/84/17 16/83/17 13/86/17
