# Blender v2.78 (sub 0) OBJ File: ''
# www.blender.org
mtllib naturePack_flat_011.mtl
o Mesh2_Flower_Tall_Red_Model
v 0.268370 0.107776 -0.242963
v 0.447925 0.000000 -0.242963
v 0.268370 0.000000 -0.242963
v 0.485926 0.210877 -0.242963
vt -10.5657 0.0000
vt -17.6348 0.0000
vt -10.5657 4.2432
vt -19.1309 8.3022
vn 0.0000 -0.0000 1.0000
usemtl Green_leafs.058
s 1
f 3/1/1 2/2/1 1/3/1
f 4/4/1 1/3/1 2/2/1
o Mesh5_Flower_Tall_Red_Model
v 0.000000 0.210877 -0.242963
v 0.217556 0.000000 -0.242963
v 0.038001 0.000000 -0.242963
v 0.217556 0.107776 -0.242963
vt -1.4961 0.0000
vt -8.5652 0.0000
vt 0.0000 8.3022
vt -8.5652 4.2432
vn 0.0000 -0.0000 1.0000
usemtl Green_leafs.058
s 1
f 7/5/2 6/6/2 5/7/2
f 8/8/2 5/7/2 6/6/2
o Mesh3_Flower_Tall_Red_Model
v 0.242963 0.000000 -0.447925
v 0.242963 0.107776 -0.268370
v 0.242963 0.000000 -0.268370
v 0.242963 0.210877 -0.485926
vt 10.5657 -0.0000
vt 10.5657 4.2432
vt 17.6348 -0.0000
vt 19.1309 8.3022
vn -1.0000 0.0000 0.0000
usemtl Green_leafs.058
s 1
f 11/9/3 10/10/3 9/11/3
f 12/12/3 9/11/3 10/10/3
o Mesh4_Flower_Tall_Red_Model
v 0.242963 0.000000 -0.038001
v 0.242963 0.107776 -0.217556
v 0.242963 0.210877 0.000000
v 0.242963 0.000000 -0.217556
vt 0.0000 8.3022
vt 8.5652 4.2432
vt 1.4961 0.0000
vt 8.5652 0.0000
vn -1.0000 -0.0000 0.0000
usemtl Green_leafs.058
s 1
f 15/13/4 14/14/4 13/15/4
f 16/16/4 13/15/4 14/14/4
o Mesh1_Flower_Tall_Red_Model
v 0.268370 0.000000 -0.242963
v 0.268370 0.360000 -0.217556
v 0.268370 0.000000 -0.217556
v 0.268370 0.360000 -0.268370
v 0.242963 0.000000 -0.217556
v 0.217556 0.000000 -0.217556
v 0.242963 0.000000 -0.268370
v 0.217556 0.000000 -0.242963
v 0.217556 0.000000 -0.268370
v 0.217556 0.360000 -0.268370
v 0.217556 0.360000 -0.217556
v 0.321713 0.360000 -0.164213
v 0.164213 0.360000 -0.164213
v 0.321713 0.360000 -0.321713
v 0.164213 0.360000 -0.321713
v 0.131925 0.540000 -0.354000
v 0.354000 0.540000 -0.354000
v 0.354000 0.540000 -0.131925
v 0.131925 0.540000 -0.131925
v 0.268370 0.000000 -0.268370
vt 8.5652 0.0000
vt 8.5652 14.1732
vt 9.5655 0.0000
vt 10.5657 14.1732
vt 9.5655 0.0000
vt 10.5657 0.0000
vt -9.5655 8.5652
vt -9.5655 10.5657
vt -10.5657 8.5652
vt -8.5652 8.5652
vt -8.5652 9.5655
vt -8.5652 10.5657
vt -8.5652 0.0000
vt -10.5657 14.1732
vt -9.5655 0.0000
vt -8.5652 14.1732
vt 8.5652 0.0000
vt 8.5652 14.1732
vt -12.6659 12.6659
vt -10.5657 8.5652
vt -12.6659 6.4651
vt -6.4651 12.6659
vt -8.5652 10.5657
vt 5.1939 5.1939
vt 5.1939 13.9370
vt 13.9370 5.1939
vt 5.1939 20.0088
vt 13.9370 20.0088
vt 6.4651 12.8091
vt 5.1939 23.3865
vt 13.9370 23.3865
vt 6.4651 16.1868
vt 13.9370 13.9370
vt 12.6659 16.1868
vt -10.5657 10.5657
vt 10.5657 14.1732
vt 10.5657 0.0000
vt -10.5657 10.5657
vt -10.5657 9.5655
vt -8.5652 0.0000
vt -9.5655 0.0000
vt -8.5652 14.1732
vt -10.5657 0.0000
vt -10.5657 14.1732
vt -10.5657 0.0000
vt -8.5652 8.5652
vt -6.4651 6.4651
vt -5.1939 23.3865
vt -12.6659 16.1868
vt -6.4651 16.1868
vt -13.9370 23.3865
vt -13.9370 20.0088
vt -6.4651 12.8091
vt -5.1939 20.0088
vt -12.6659 12.8091
vt 12.6659 12.8091
vn -1.0000 0.0000 0.0000
vn 0.0000 -0.0000 1.0000
vn 0.0000 -1.0000 -0.0000
vn 0.0000 1.0000 0.0000
vn 1.0000 0.0000 0.0000
vn 0.0000 0.0000 -1.0000
vn 0.0000 0.1766 -0.9843
vn -0.9843 0.1766 0.0000
vn 0.9239 0.0000 -0.3827
vn 0.9239 -0.0000 0.3827
vn 0.9239 -0.2706 -0.2706
vn 0.0000 -0.1766 -0.9843
vn -0.9843 -0.1766 0.0000
vn 0.0000 -0.1766 0.9843
usemtl Green_leafs.058
s 1
f 19/17/5 18/18/5 17/19/5
f 18/20/6 21/21/6 19/22/6
f 21/23/7 23/24/7 19/25/7
f 22/26/7 23/24/7 21/23/7
f 24/27/7 23/24/7 22/26/7
f 25/28/8 24/27/8 23/24/8
f 22/29/5 26/30/5 24/31/5
f 27/32/9 22/29/9 26/30/9
f 22/33/10 18/20/10 21/21/10
f 27/34/10 18/20/10 22/33/10
f 30/35/8 18/36/8 28/37/8
f 30/35/8 31/38/8 26/39/8
f 35/40/7 32/41/7 34/42/7
f 35/43/11 34/44/11 29/45/11
f 34/46/12 33/47/12 28/48/12
f 33/49/7 34/42/7 32/41/7
f 30/50/12 28/48/12 33/47/12
f 18/36/8 30/35/8 20/51/8
f 20/52/5 17/19/5 18/18/5
f 20/52/9 17/19/9 36/53/9
f 19/25/13 36/54/14 17/55/15
f 19/25/7 23/24/7 36/54/7
f 25/56/6 23/57/6 26/58/6
f 36/59/6 26/58/6 23/57/6
f 20/60/6 26/58/6 36/59/6
f 25/61/9 26/30/9 24/31/9
usemtl Mushroom_Red.002
f 28/37/7 27/62/7 18/36/7
f 29/63/7 27/62/7 28/37/7
f 27/62/7 29/63/7 26/39/7
f 26/39/7 30/35/7 20/51/7
f 31/38/7 26/39/7 29/63/7
f 32/64/16 30/65/16 31/66/16
f 30/65/16 32/64/16 33/67/16
f 32/68/17 29/69/17 35/70/17
f 29/69/17 32/68/17 31/71/17
f 34/44/18 29/45/18 28/72/18
