# Blender v2.78 (sub 0) OBJ File: ''
# www.blender.org
mtllib naturePack_048.mtl
o Mesh1_Group1_Model.037
v 2.798700 0.885988 -2.798700
v 0.201300 0.630000 -2.798700
v 2.798700 0.630000 -2.798700
v 0.201300 0.885988 -2.798700
v 0.201300 0.885988 -2.899350
v 2.798700 0.885988 -2.899350
v 2.798700 1.112990 -3.000000
v 2.798700 1.112990 -2.798700
v 3.000000 1.112990 -2.798700
v 2.798700 0.475988 -2.798700
v 2.798700 0.220000 -2.798700
v 2.798700 0.000000 -2.798700
v 3.000000 0.000000 -2.798700
v 3.000000 0.000000 -3.000000
v 2.798700 0.000000 -3.000000
v 2.798700 0.220000 -2.899350
v 0.201300 0.220000 -2.798700
v 0.201300 0.220000 -2.899350
v 0.201300 0.475988 -2.798700
v 0.201300 0.475988 -2.899350
v 2.798700 0.475988 -2.899350
v 0.201300 0.630000 -2.899350
v 0.201300 0.000000 -3.000000
v 0.201300 0.000000 -2.798700
v 0.000000 0.000000 -2.798700
v 0.100650 0.220000 -2.798700
v 0.100650 0.475988 -2.798700
v 0.100650 0.475988 -0.201300
v 0.201300 0.475988 -0.201300
v 0.100650 0.630000 -0.201300
v 0.000000 1.112990 -0.201300
v 0.100650 0.220000 -0.201300
v 0.000000 0.000000 -0.201300
v 0.201300 0.000000 -0.201300
v 0.201300 0.220000 -0.201300
v 0.201300 1.112990 -0.201300
v 0.201300 1.112990 0.000000
v 0.201300 0.000000 -0.000000
v 0.000000 0.000000 0.000000
v 0.000000 1.112990 0.000000
v 0.201300 0.885988 -0.201300
v 0.100650 0.885988 -0.201300
v 0.100650 0.885988 -2.798700
v 0.100650 0.630000 -2.798700
v 0.201300 0.630000 -0.201300
v 2.798700 0.630000 -2.899350
v 3.000000 1.112990 -3.000000
v 0.201300 1.112990 -3.000000
v 0.201300 1.112990 -2.798700
v 0.000000 1.112990 -3.000000
v 0.000000 1.112990 -2.798700
v 0.000000 0.000000 -3.000000
vt 110.1850 34.8814
vt 7.9252 24.8031
vt 110.1850 24.8031
vt 7.9252 34.8814
vt 110.1850 110.1850
vt 7.9252 114.1480
vt 7.9252 110.1850
vt 110.1850 114.1480
vt -110.1850 34.8814
vt -118.1100 43.8186
vt -114.1480 34.8814
vt -110.1850 43.8186
vt 118.1100 43.8186
vt 110.1850 43.8186
vt 110.1850 18.7397
vt 110.1850 8.6614
vt 110.1850 -0.0000
vt 118.1100 -0.0000
vt -110.1850 110.1850
vt -118.1100 118.1100
vt -118.1100 110.1850
vt -110.1850 118.1100
vt -110.1850 8.6614
vt -118.1100 0.0000
vt -110.1850 0.0000
vt -114.1480 8.6614
vt -7.9252 110.1850
vt -110.1850 114.1480
vt -110.1850 110.1850
vt -7.9252 114.1480
vt 114.1480 8.6614
vt 110.1850 18.7397
vt 110.1850 8.6614
vt 114.1480 18.7397
vt -7.9252 18.7397
vt -110.1850 8.6614
vt -7.9252 8.6614
vt -110.1850 18.7397
vt 7.9252 114.1480
vt 110.1850 110.1850
vt 110.1850 114.1480
vt 7.9252 110.1850
vt 110.1850 24.8031
vt 114.1480 24.8031
vt 118.1100 0.0000
vt 110.1850 0.0000
vt 7.9252 8.6614
vt -0.0000 -0.0000
vt 7.9252 -0.0000
vt 3.9626 8.6614
vt 7.9252 18.7397
vt 3.9626 18.7397
vt 3.9626 7.9252
vt 3.9626 110.1850
vt 7.9252 7.9252
vt -3.9626 18.7397
vt -3.9626 24.8031
vt -7.9252 18.7397
vt -0.0000 43.8186
vt -3.9626 8.6614
vt -0.0000 0.0000
vt -7.9252 0.0000
vt -7.9252 8.6614
vt 7.9252 43.8186
vt 7.9252 0.0000
vt 7.9252 8.6614
vt -0.0000 43.8186
vt -0.0000 0.0000
vt 7.9252 43.8186
vt 0.0000 0.0000
vt 7.9252 0.0000
vt 0.0000 43.8186
vt 7.9252 7.9252
vt 0.0000 0.0000
vt 7.9252 0.0000
vt 0.0000 7.9252
vt -7.9252 34.8814
vt -7.9252 43.8186
vt -3.9626 34.8814
vt -110.1850 34.8814
vt -7.9252 24.8031
vt -7.9252 34.8814
vt -110.1850 24.8031
vt 3.9626 24.8031
vt 3.9626 34.8814
vt -7.9252 110.1850
vt -3.9626 7.9252
vt -3.9626 110.1850
vt -7.9252 7.9252
vt 7.9252 34.8814
vt 7.9252 24.8031
vt 110.1850 34.8814
vt 114.1480 34.8814
vt -7.9252 34.8814
vt -110.1850 24.8031
vt -7.9252 24.8031
vt -110.1850 34.8814
vt -114.1480 24.8031
vt -114.1480 18.7397
vt -110.1850 43.8186
vt -118.1100 0.0000
vt -110.1850 0.0000
vt -118.1100 43.8186
vt 110.1850 118.1100
vt 118.1100 110.1850
vt 118.1100 118.1100
vt 110.1850 110.1850
vt 110.1850 43.8186
vt 118.1100 0.0000
vt 118.1100 43.8186
vt 110.1850 0.0000
vt -110.1850 18.7397
vt -110.1850 24.8031
vt -110.1850 114.1480
vt -110.1850 110.1850
vt -7.9252 114.1480
vt 118.1100 43.8186
vt 110.1850 43.8186
vt 0.0000 118.1100
vt 7.9252 110.1850
vt 7.9252 118.1100
vt 0.0000 110.1850
vt -118.1100 43.8186
vt -110.1850 0.0000
vt -110.1850 43.8186
vt -118.1100 0.0000
vt 0.0000 43.8186
vt -7.9252 0.0000
vt 0.0000 0.0000
vt -7.9252 43.8186
vt -7.9252 118.1100
vt 0.0000 110.1850
vt 0.0000 118.1100
vt -7.9252 110.1850
vt -0.0000 43.8186
vt -7.9252 8.6614
vt -110.1850 18.7397
vt -110.1850 8.6614
vt -7.9252 18.7397
vt -3.9626 7.9252
vt -3.9626 110.1850
vt -7.9252 7.9252
vt 7.9252 18.7397
vt -7.9252 24.8031
vt 7.9252 43.8186
vt 3.9626 7.9252
vt 3.9626 110.1850
vt 7.9252 7.9252
vt -7.9252 43.8186
vt -7.9252 0.0000
vt -7.9252 7.9252
vt -0.0000 7.9252
vt -7.9252 0.0000
vn 0.0000 -0.0000 1.0000
vn 0.0000 1.0000 0.0000
vn -1.0000 -0.0000 0.0000
vn 0.0000 -1.0000 -0.0000
vn 1.0000 0.0000 0.0000
vn 0.0000 0.0000 -1.0000
vn 0.4472 0.0000 0.8944
vn -0.6490 0.0000 -0.7608
usemtl Wood.028
s 1
f 1/1/1 2/2/1 3/3/1
f 2/2/1 1/1/1 4/4/1
f 1/5/2 5/6/2 4/7/2
f 5/6/2 1/5/2 6/8/2
f 1/9/3 7/10/3 6/11/3
f 7/10/3 1/9/3 8/12/3
f 1/1/1 9/13/1 8/14/1
f 3/3/1 9/13/1 1/1/1
f 10/15/1 9/13/1 3/3/1
f 11/16/1 9/13/1 10/15/1
f 12/17/1 9/13/1 11/16/1
f 9/13/1 12/17/1 13/18/1
f 12/19/4 14/20/4 13/21/4
f 14/20/4 12/19/4 15/22/4
f 11/23/3 15/24/3 12/25/3
f 15/24/3 11/23/3 16/26/3
f 17/27/4 16/28/4 11/29/4
f 16/28/4 17/27/4 18/30/4
f 18/31/5 19/32/5 17/33/5
f 19/32/5 18/31/5 20/34/5
f 20/35/6 16/36/6 18/37/6
f 16/36/6 20/35/6 21/38/6
f 20/39/2 10/40/2 21/41/2
f 10/40/2 20/39/2 19/42/2
f 20/34/5 2/43/5 19/32/5
f 2/43/5 20/34/5 22/44/5
f 20/34/5 23/45/5 22/44/5
f 18/31/5 23/45/5 20/34/5
f 17/33/5 23/45/5 18/31/5
f 23/45/5 17/33/5 24/46/5
f 17/47/1 25/48/1 24/49/1
f 25/48/1 17/47/1 26/50/1
f 19/51/1 26/50/1 17/47/1
f 26/50/1 19/51/1 27/52/1
f 28/53/2 19/42/2 27/54/2
f 19/42/2 28/53/2 29/55/2
f 28/56/6 30/57/6 29/58/6
f 28/56/6 31/59/6 30/57/6
f 32/60/6 31/59/6 28/56/6
f 32/60/6 33/61/6 31/59/6
f 33/61/6 32/60/6 34/62/6
f 35/63/6 34/62/6 32/60/6
f 36/64/5 34/65/5 35/66/5
f 37/67/5 34/65/5 36/64/5
f 34/65/5 37/67/5 38/68/5
f 37/69/1 39/70/1 38/71/1
f 39/70/1 37/69/1 40/72/1
f 36/73/2 40/74/2 37/75/2
f 40/74/2 36/73/2 31/76/2
f 41/77/6 31/59/6 36/78/6
f 42/79/6 31/59/6 41/77/6
f 30/57/6 31/59/6 42/79/6
f 43/80/3 30/81/3 42/82/3
f 30/81/3 43/80/3 44/83/3
f 44/84/1 4/4/1 43/85/1
f 4/4/1 44/84/1 2/2/1
f 2/86/4 30/87/4 44/88/4
f 30/87/4 2/86/4 45/89/4
f 2/43/5 41/90/7 45/91/5
f 41/90/7 2/43/5 4/92/5
f 22/44/5 4/92/5 2/43/5
f 4/92/5 22/44/5 5/93/5
f 5/94/6 46/95/6 22/96/6
f 46/95/6 5/94/6 6/97/6
f 6/11/3 7/10/3 46/98/3
f 46/98/3 7/10/3 21/99/3
f 21/99/3 7/10/3 16/26/3
f 15/24/3 16/26/3 7/10/3
f 7/100/6 14/101/6 15/102/6
f 14/101/6 7/100/6 47/103/6
f 7/104/2 9/105/2 47/106/2
f 9/105/2 7/104/2 8/107/2
f 9/108/5 14/109/5 47/110/5
f 14/109/5 9/108/5 13/111/5
f 10/112/3 46/98/3 21/99/3
f 46/98/3 10/112/3 3/113/3
f 2/86/4 46/114/4 3/115/4
f 46/114/4 2/86/4 22/116/4
f 22/44/5 23/45/5 5/93/5
f 48/117/5 5/93/5 23/45/5
f 48/117/5 4/92/5 5/93/5
f 4/92/5 48/117/5 49/118/5
f 50/119/2 49/120/2 48/121/2
f 49/120/2 50/119/2 51/122/2
f 50/123/3 25/124/3 51/125/3
f 25/124/3 50/123/3 52/126/3
f 50/127/6 23/128/6 52/129/6
f 23/128/6 50/127/6 48/130/6
f 23/131/4 25/132/4 52/133/4
f 25/132/4 23/131/4 24/134/4
f 25/48/1 26/50/1 51/135/1
f 51/135/1 26/50/1 27/52/1
f 32/136/3 27/137/3 26/138/3
f 27/137/3 32/136/3 28/139/3
f 17/27/4 32/140/4 26/141/4
f 32/140/4 17/27/4 35/142/4
f 17/33/5 29/143/8 35/66/5
f 29/143/8 17/33/5 19/32/5
f 17/47/1 10/15/1 19/51/1
f 10/15/1 17/47/1 11/16/1
f 41/90/7 35/66/5 29/143/8
f 36/64/5 35/66/5 41/90/7
f 41/90/7 29/143/8 45/91/5
f 45/144/6 29/58/6 30/57/6
f 51/135/1 27/52/1 44/84/1
f 44/84/1 27/52/1 2/2/1
f 2/2/1 27/52/1 19/51/1
f 51/135/1 44/84/1 43/85/1
f 51/135/1 43/85/1 49/145/1
f 49/145/1 43/85/1 4/4/1
f 42/146/2 4/7/2 43/147/2
f 4/7/2 42/146/2 41/148/2
f 31/149/3 39/70/3 40/72/3
f 39/70/3 31/149/3 33/150/3
f 34/151/4 39/70/4 33/152/4
f 39/70/4 34/151/4 38/153/4
