# Blender v2.78 (sub 0) OBJ File: ''
# www.blender.org
mtllib naturePack_057.mtl
o Mesh1_Plate_River_Dirt_Model.001
v 3.000000 0.000000 0.000000
v 2.241300 0.150000 0.000000
v 0.000000 0.000000 0.000000
v 3.000000 0.300000 0.000000
v 3.000000 0.000000 -3.000000
v 3.000000 0.300000 -3.000000
v 2.241300 0.150000 -3.000000
v 0.758698 0.150000 -3.000000
v 0.000000 0.000000 -3.000000
v 0.000000 0.300000 -3.000000
v -0.000000 0.150000 -2.241300
v 0.000000 0.150000 -0.758698
v 0.000000 0.300000 -0.758698
v 0.000000 0.300000 0.000000
v 0.758698 0.150000 0.000000
v 0.877648 0.150000 -0.371864
v 0.936265 0.150000 -0.982021
v 0.889083 0.150000 -2.453370
v 0.889083 0.300000 -2.453370
v 0.758698 0.300000 -3.000000
v -0.000000 0.300000 -2.241300
v 0.936265 0.300000 -0.982021
v 0.758698 0.300000 -0.701031
v 0.758698 0.300000 0.000000
v 0.877648 0.300000 -0.371864
v 0.758698 0.150000 -0.701031
v 2.241300 0.150000 -0.701031
v 2.360250 0.150000 -0.371864
v 2.241300 0.300000 -0.701031
v 2.360250 0.300000 -0.371864
v 2.241300 0.300000 0.000000
v 2.603960 0.300000 -1.274920
v 2.387470 0.300000 -2.387190
v 2.241300 0.300000 -3.000000
v 2.387470 0.150000 -2.387190
v 2.241300 0.150000 -1.924320
v 2.241300 0.300000 -1.924320
v 2.603960 0.150000 -1.274920
vt 0.0000 118.1100
vt 35.0033 96.5894
vt 29.8700 118.1100
vt -0.0000 88.2402
vt 0.0000 29.8700
vt 29.8700 27.5996
vt 36.8608 38.6623
vt 29.8700 0.0000
vt 0.0000 0.0000
vt 34.5531 14.6403
vt 118.1100 0.0000
vt 92.9233 14.6403
vt 88.2402 0.0000
vt 102.5180 50.1936
vt 118.1100 118.1100
vt 93.9950 93.9839
vt 88.2402 118.1100
vt 88.2402 27.5996
vt 88.2402 75.7604
vt 88.2402 0.0000
vt 34.5531 14.6403
vt 29.8700 0.0000
vt 36.8608 38.6623
vt 88.2402 118.1100
vt 35.0033 96.5894
vt 29.8700 118.1100
vt 0.0000 29.8700
vt -0.0000 88.2402
vt 29.8700 27.5996
vt 88.2402 27.5996
vt 92.9233 14.6403
vt 102.5180 50.1936
vt 88.2402 75.7604
vt 93.9950 93.9839
vt 118.1100 0.0000
vt 88.2402 5.9055
vt 0.0000 0.0000
vt 118.1100 11.8110
vt 118.1100 0.0000
vt 0.0000 11.8110
vt 0.0000 0.0000
vt 118.1100 11.8110
vt -118.1100 -0.0000
vt -88.2402 5.9055
vt -118.1100 11.8110
vt -29.8700 5.9055
vt -0.0000 -0.0000
vt -0.0000 11.8110
vt -118.1100 0.0000
vt -88.2402 5.9055
vt -118.1100 11.8110
vt -29.8700 5.9055
vt -29.8700 11.8110
vt 0.0000 11.8110
vt 29.8700 5.9055
vt 107.9570 5.9055
vt 85.8323 11.8110
vt 85.8323 5.9055
vt 107.9570 11.8110
vt -29.8700 11.8110
vt -88.2402 11.8110
vt 20.4732 5.9055
vt 56.4585 11.8110
vt 20.4732 11.8110
vt 56.4585 5.9055
vt -6.9303 11.8110
vt -44.8253 5.9055
vt -6.9303 5.9055
vt -44.8253 11.8110
vt 29.8700 11.8110
vt 24.4715 5.9055
vt 9.1004 11.8110
vt 9.1004 5.9055
vt 24.4715 11.8110
vt 15.8053 5.9055
vt 2.0258 11.8110
vt 2.0258 5.9055
vt 15.8053 11.8110
vt 52.3746 5.9055
vt 39.2882 11.8110
vt 39.2882 5.9055
vt 52.3746 11.8110
vt 17.8118 5.9055
vt 4.0323 11.8110
vt 4.0323 5.9055
vt 17.8118 11.8110
vt -26.8840 5.9055
vt -42.2550 11.8110
vt -42.2550 5.9055
vt -26.8840 11.8110
vt 88.2402 11.8110
vt -88.2402 11.8110
vt -69.6108 5.9055
vt -94.4140 11.8110
vt -94.4140 5.9055
vt -69.6108 11.8110
vt -98.8157 5.9055
vt -117.9260 11.8110
vt -117.9260 5.9055
vt -98.8157 11.8110
vt 6.1623 5.9055
vt -23.1211 11.8110
vt -23.1211 5.9055
vt 6.1623 11.8110
vt -70.4701 5.9055
vt -97.1973 11.8110
vt -97.1973 5.9055
vt -70.4701 11.8110
vt -118.1100 118.1100
vt 0.0000 118.1100
vt -118.1100 0.0000
vn 0.0000 1.0000 0.0000
vn -0.4444 -0.4164 -0.7932
vn 0.0173 0.9999 0.0000
vn 0.0000 -0.0000 1.0000
vn 1.0000 0.0000 0.0000
vn -0.0000 0.0000 -1.0000
vn -1.0000 -0.0000 -0.0000
vn 0.9727 0.0000 -0.2320
vn 0.2320 0.0000 0.9727
vn -0.2320 0.0000 -0.9727
vn 0.9525 0.0000 0.3047
vn 0.9405 0.0000 -0.3399
vn 0.8454 -0.0000 0.5342
vn -0.9405 -0.0000 0.3399
vn -0.9525 0.0000 -0.3047
vn -0.9727 0.0000 0.2320
vn -0.9536 0.0000 -0.3011
vn -0.8731 0.0000 0.4876
vn -0.8454 -0.0000 -0.5342
vn 0.0000 -1.0000 -0.0000
usemtl Leafs.009
s 1
f 10/1/1 19/2/1 20/3/1
f 19/2/1 10/1/1 21/4/1
f 13/5/1 23/6/1 22/7/1
f 13/5/1 24/8/1 23/6/1
f 24/8/1 13/5/1 14/9/1
f 25/10/1 23/6/1 24/8/1
f 4/11/1 30/12/1 31/13/1
f 30/12/1 4/11/1 32/14/1
f 6/15/1 32/14/1 4/11/1
f 6/15/1 33/16/1 32/14/1
f 33/16/1 6/15/1 34/17/1
f 32/14/1 29/18/1 30/12/1
f 32/14/1 33/16/1 37/19/1
usemtl Water.001
f 2/20/1 16/21/1 15/22/1
f 16/21/1 2/20/1 17/23/1
f 7/24/1 17/23/1 2/20/1
f 7/24/1 18/25/1 17/23/1
f 18/25/1 7/24/1 8/26/1
f 12/27/1 18/25/1 11/28/1
f 18/25/1 12/27/1 17/23/1
f 17/23/1 26/29/1 16/21/1
f 7/24/1 2/20/1 27/30/2
f 28/31/1 27/30/2 2/20/1
f 38/32/1 36/33/3 27/30/2
f 7/24/1 27/30/2 36/33/3
f 7/24/1 36/33/3 35/34/1
usemtl Stone.017
f 1/35/4 2/36/4 3/37/4
f 2/36/4 1/35/4 4/38/4
f 5/39/5 4/40/5 1/41/5
f 4/40/5 5/39/5 6/42/5
f 5/43/6 7/44/6 6/45/6
f 7/44/6 5/43/6 8/46/6
f 9/47/6 8/46/6 5/43/6
f 8/46/6 9/47/6 10/48/6
f 9/49/7 11/50/7 10/51/7
f 9/49/7 12/52/7 11/50/7
f 3/37/7 12/52/7 9/49/7
f 3/37/7 13/53/7 12/52/7
f 13/53/7 3/37/7 14/54/7
f 3/37/4 15/55/4 14/54/4
f 15/55/4 3/37/4 2/36/4
f 8/56/8 19/57/8 18/58/8
f 19/57/8 8/56/8 20/59/8
f 8/46/6 10/48/6 20/60/6
f 10/51/7 11/50/7 21/61/7
f 11/62/9 19/63/9 21/64/9
f 19/63/9 11/62/9 18/65/9
f 13/66/10 17/67/10 12/68/10
f 17/67/10 13/66/10 22/69/10
f 14/54/4 15/55/4 24/70/4
f 16/71/11 24/72/11 15/73/11
f 24/72/11 16/71/11 25/74/11
f 26/75/12 25/76/12 16/77/12
f 25/76/12 26/75/12 23/78/12
f 17/79/13 23/80/13 26/81/13
f 23/80/13 17/79/13 22/82/13
f 28/83/14 29/84/14 27/85/14
f 29/84/14 28/83/14 30/86/14
f 2/87/15 30/88/15 28/89/15
f 30/88/15 2/87/15 31/90/15
f 2/36/4 4/38/4 31/91/4
f 6/45/6 7/44/6 34/92/6
f 35/93/16 34/94/16 7/95/16
f 34/94/16 35/93/16 33/96/16
f 36/97/17 33/98/17 35/99/17
f 33/98/17 36/97/17 37/100/17
f 38/101/18 37/102/18 36/103/18
f 37/102/18 38/101/18 32/104/18
f 27/105/19 32/106/19 38/107/19
f 32/106/19 27/105/19 29/108/19
f 5/109/20 3/37/20 9/110/20
f 3/37/20 5/109/20 1/111/20
