# Blender v2.78 (sub 0) OBJ File: ''
# www.blender.org
mtllib naturePack_118.mtl
o Mesh1_Brown_Cliff_Bottom_Corner_Green_Top_Model
v 1.140000 0.000000 0.000000
v 0.000000 0.000000 0.000000
v 1.140000 0.000000 -1.140000
v 1.140000 2.200000 0.000000
v 0.360000 2.200000 0.000000
v 1.140000 2.200000 -0.780000
vt 44.8819 0.0000
vt 44.8819 30.7087
vt 14.1732 0.0000
vt -44.8819 -0.0000
vt 0.0000 -0.0000
vt -44.8819 44.8819
vt 44.8819 86.6142
vt 44.8819 0.0000
vt 14.1732 86.6142
vt -0.0000 86.6142
vt 44.8819 -0.0000
vt 30.7087 86.6142
vt -0.0000 -0.0000
vt -53.4506 87.1921
vt -63.4726 -0.0000
vt -10.0220 87.1921
vn 0.0000 1.0000 0.0000
vn 0.0000 -1.0000 -0.0000
vn -0.0000 -0.0000 1.0000
vn 1.0000 -0.0000 0.0000
vn -0.7024 0.1149 -0.7024
usemtl Leafs.043
s 1
f 4/1/1 6/2/1 5/3/1
usemtl Wood.069
f 1/4/2 2/5/2 3/6/2
f 4/7/3 2/5/3 1/8/3
f 2/5/3 4/7/3 5/9/3
f 4/10/4 3/11/4 6/12/4
f 3/11/4 4/10/4 1/13/4
f 2/5/5 6/14/5 3/15/5
f 6/14/5 2/5/5 5/16/5
