# Blender v2.78 (sub 0) OBJ File: ''
# www.blender.org
mtllib naturePack_133.mtl
o Mesh1_Tall_Rock_1_Model.001
v 0.614878 1.590000 -0.259859
v 0.259786 1.590000 -0.669884
v 0.259786 1.590000 -0.464872
v 0.538243 1.590000 -0.811308
v 0.969970 1.590000 -0.669884
v 0.969970 1.590000 -0.464872
v 0.614878 0.740000 -0.177500
v 1.076040 0.740000 -0.443750
v 0.614878 0.000000 0.000000
v 1.229760 0.000000 -0.355000
v 1.229760 0.000000 -1.065000
v 0.614878 0.000000 -1.420000
v 0.000000 0.000000 -0.355000
v 0.000000 0.000000 -1.065000
v 0.153720 0.740000 -0.443750
v 0.153720 0.740000 -0.710000
v 0.515353 0.740000 -0.893667
v 1.076040 0.740000 -0.710000
v 1.076040 0.740000 -0.976250
v 0.614878 0.740000 -1.242500
v 0.153720 0.740000 -0.976250
vt 24.2078 10.2307
vt 10.2278 26.3734
vt 10.2278 18.3020
vt 21.1907 31.9412
vt 38.1878 26.3734
vt 38.1878 18.3020
vt 20.2895 35.1837
vt 6.0519 38.4350
vt 6.0519 27.9528
vt 24.2078 48.9173
vt 42.3636 27.9528
vt 42.3636 38.4350
vt 24.4587 28.5258
vt 42.2226 62.1080
vt 26.0799 62.1080
vt 45.4232 28.5258
vt 20.9646 -2.4618
vt 45.4232 27.2940
vt 24.4587 27.2940
vt 48.9173 -2.4618
vt -24.2078 0.0000
vt -48.4156 41.9291
vt -48.4156 13.9764
vt -24.2078 55.9055
vt 0.0000 13.9764
vt 0.0000 41.9291
vt -17.4705 29.7558
vt -41.9291 -0.0000
vt -13.9764 -0.0000
vt -27.9528 29.7558
vt -18.3020 63.3831
vt -27.9528 29.6590
vt -17.4705 29.6590
vt -26.3734 63.3831
vt -21.0617 60.4438
vt -34.0222 26.8170
vt -18.0537 26.8170
vt -33.3574 60.4438
vt -28.0803 59.2985
vt -8.3286 25.7169
vt -10.1945 59.2985
vt -31.5570 25.7169
vt 18.3020 57.3881
vt 27.9528 23.6640
vt 26.3734 57.3881
vt 17.4705 23.6640
vt 17.4705 19.9087
vt 41.9291 -9.8471
vt 27.9528 19.9087
vt 13.9764 -9.8471
vt 38.4350 19.9087
vt -20.9646 -12.3089
vt 3.4941 17.4469
vt -17.4705 17.4469
vt 6.9882 -12.3089
vt -48.9173 -7.3853
vt -24.4587 22.3705
vt -45.4232 22.3705
vt -20.9646 -7.3853
vt -38.4350 29.7558
vt -3.4941 30.5500
vt 15.8492 64.1322
vt -0.2935 64.1322
vt 17.4705 30.5500
vt -6.9882 2.4618
vt 17.4705 32.2176
vt -3.4941 32.2176
vt 20.9646 2.4618
vn -0.0000 1.0000 0.0000
vn 0.4948 0.1438 0.8570
vn 0.4982 0.0836 0.8630
vn 0.4895 0.2034 0.8479
vn -0.0000 -1.0000 -0.0000
vn -0.9865 0.1638 0.0000
vn -0.9791 0.2034 0.0000
vn -0.9865 0.1637 -0.0000
vn -0.9923 0.1238 0.0000
vn -0.4506 0.0981 -0.8873
vn 0.3102 0.0834 -0.9470
vn 0.9923 0.1238 0.0000
vn 0.9865 0.1637 -0.0000
vn 0.9865 0.1638 0.0000
vn 0.9791 0.2034 0.0000
vn 0.4895 0.2034 -0.8479
vn -0.4895 0.2034 -0.8479
vn -0.4948 0.1437 0.8570
vn -0.4982 0.0836 0.8630
vn -0.4948 0.1438 0.8570
vn -0.4895 0.2034 0.8479
usemtl Green_leafs.038
s 1
f 1/1/1 2/2/1 3/3/1
f 2/2/1 1/1/1 4/4/1
f 4/4/1 1/1/1 5/5/1
f 5/5/1 1/1/1 6/6/1
f 17/7/1 21/8/1 16/9/1
f 21/8/1 17/7/1 20/10/1
f 20/10/1 17/7/1 18/11/1
f 20/10/1 18/11/1 19/12/1
usemtl Wood.083
f 7/13/2 6/14/3 1/15/3
f 6/14/3 7/13/2 8/16/2
f 9/17/4 8/18/2 7/19/2
f 8/18/2 9/17/4 10/20/4
f 9/21/5 11/22/5 10/23/5
f 9/21/5 12/24/5 11/22/5
f 13/25/5 12/24/5 9/21/5
f 12/24/5 13/25/5 14/26/5
f 15/27/6 14/28/7 13/29/7
f 14/28/7 15/27/6 16/30/8
f 3/31/9 16/32/8 15/33/6
f 16/32/8 3/31/9 2/34/9
f 2/35/10 17/36/10 16/37/10
f 17/36/10 2/35/10 4/38/10
f 5/39/11 17/40/11 4/41/11
f 17/40/11 5/39/11 18/42/11
f 6/43/12 18/44/13 5/45/12
f 18/44/13 6/43/12 8/46/14
f 8/47/14 11/48/15 18/49/13
f 11/48/15 8/47/14 10/50/15
f 18/49/13 11/48/15 19/51/15
f 11/52/16 20/53/16 19/54/16
f 20/53/16 11/52/16 12/55/16
f 12/56/17 21/57/17 20/58/17
f 21/57/17 12/56/17 14/59/17
f 14/28/7 16/30/8 21/60/7
f 15/61/18 1/62/19 3/63/19
f 1/62/19 15/61/18 7/64/20
f 13/65/21 7/66/20 15/67/18
f 7/66/20 13/65/21 9/68/21
