# Blender v2.78 (sub 0) OBJ File: ''
# www.blender.org
mtllib naturePack_083.mtl
o Mesh1_Group1_Model.059
v 2.254330 0.832100 -1.286090
v 1.930850 0.000000 -1.355120
v 2.145850 0.832100 -1.177610
v 2.224690 0.000000 -1.648960
v 2.724690 0.000000 -1.290190
v 2.404170 0.832100 -1.178570
v 2.332170 0.832100 -0.926507
v 2.147060 0.832100 -1.176910
v 2.147060 0.832100 -0.926507
v 2.096000 1.751120 -1.147430
v 2.096000 1.751120 -0.802400
v 2.193280 0.000000 -0.648961
v 2.096000 1.751120 -0.457368
v 2.193280 0.000000 -0.401200
v 1.498390 0.000000 0.000000
v 1.498390 1.751120 -0.112336
v 2.012330 2.444960 -0.471199
v 1.498390 2.444960 -0.174472
v 1.949000 3.584840 -0.485642
v 1.522420 3.584840 -0.239358
v 1.949000 3.584840 -0.731925
v 1.481280 3.584840 -0.872962
v 1.330570 3.584840 -0.350123
v 1.448810 2.444960 -0.937851
v 1.267240 2.444960 -0.307924
v 0.984438 2.444960 -0.767927
v 0.984438 2.444960 -0.471199
v 0.900773 1.751120 -0.802400
v 0.900773 1.751120 -0.457368
v 0.868060 1.162300 -0.507287
v 0.849186 0.822583 -0.427585
v 0.796743 1.162300 -0.466112
v 0.796743 0.542800 -0.340640
v 0.882718 0.542800 -0.390277
v 0.960153 0.330400 -0.331944
v 0.796743 0.330400 -0.237600
v 0.159349 0.330400 -0.605600
v 0.261332 0.542800 -0.649760
v 0.421955 1.162300 -0.682496
v 0.421955 1.162300 -0.805937
v 0.767868 1.162300 -0.805937
v 0.868060 1.162300 -1.005920
v 0.741895 1.162300 -0.947636
v 0.718388 0.542800 -1.028530
v 0.833643 0.542800 -1.081770
v 0.900773 1.751120 -1.147430
v 1.440740 1.751120 -0.999986
v 1.498390 1.751120 -1.492460
v 2.012330 2.444960 -0.767927
v 1.498390 0.000000 -1.604800
v 1.397670 0.000000 -1.546650
v 1.101150 0.000000 -0.229347
v 0.796743 0.000000 -0.053600
v 0.796743 0.000000 -1.893600
v 0.000000 0.000000 -0.513600
v 0.000000 0.000000 -1.433600
v 0.159349 0.330400 -0.815534
v 0.261332 0.542800 -0.826104
v 0.755492 0.542800 -0.826104
v 0.659291 0.330400 -1.297500
v 0.747635 0.330400 -0.815534
v 0.159349 0.330400 -1.341600
v 0.796743 0.330400 -1.709600
v 1.115440 0.330400 -1.525600
v 0.681284 0.542800 -1.230960
v 1.064450 0.542800 -1.422560
v 0.833643 0.542800 -1.186190
v 1.153750 0.542800 -1.371000
v 1.256680 0.330400 -1.444060
v 2.541540 0.000000 -0.648961
vt 88.7532 50.6334
vt 91.8176 36.4767
vt 94.6522 46.4006
vt 84.5298 46.3350
vt 84.5298 36.4767
vt 76.7323 28.8160
vt 59.9379 9.4236
vt 76.7323 19.1198
vt 58.3180 34.3686
vt 52.3847 13.7844
vt 38.7574 30.2333
vt 49.8913 12.1230
vt 57.0398 36.9233
vt 38.7574 18.5511
vt 31.3678 18.3509
vt 16.6124 31.7298
vt 16.6124 26.8699
vt 30.2310 31.7298
vt 34.1756 39.6030
vt 29.2085 37.3085
vt 34.1756 19.9719
vt 56.7221 39.3695
vt 35.4635 45.1745
vt 35.4635 31.5906
vt 58.9916 58.7584
vt 82.5196 31.5906
vt 82.5196 45.1745
vt 6.2736 52.8189
vt 29.4345 32.1076
vt 25.9564 51.0828
vt 6.2736 32.1076
vt 31.3678 67.3071
vt 43.9150 60.0630
vt 26.8222 48.4630
vt 32.8206 46.7004
vt 41.9074 56.0063
vt 28.2830 40.4934
vt 32.8206 42.5895
vt 45.4232 53.9765
vt 84.4822 46.3625
vt -98.5612 39.6055
vt -91.4775 5.0714
vt -92.5212 39.6055
vt -107.8380 5.0714
vt -42.5911 1.6880
vt -57.5427 -32.8461
vt -33.3143 -32.8461
vt -49.8517 1.6880
vt 45.1745 64.2582
vt 36.4767 28.0205
vt 46.3350 28.0205
vt 31.5906 64.2582
vt 25.5496 -4.7899
vt 18.0066 64.2582
vt 15.7953 -4.7899
vt 80.4674 67.4119
vt 51.0882 -1.6362
vt 82.6787 -1.6362
vt 53.2995 67.4119
vt 77.8870 94.1493
vt 53.2995 66.7508
vt 80.4674 66.7508
vt 54.5227 94.1493
vt 76.0120 140.1850
vt 54.5227 95.2742
vt 77.8870 95.2742
vt 56.6196 140.1850
vt -51.2769 98.0900
vt -27.7540 143.0090
vt -49.1762 143.0090
vt -25.4669 98.0900
vt -31.5906 72.6915
vt -18.5511 100.2060
vt -30.2333 100.2060
vt -18.0066 72.6915
vt -19.9719 47.5851
vt -18.0066 70.8028
vt -31.5906 70.8028
vt -16.8340 34.1898
vt 36.3408 45.1078
vt 37.3704 31.5289
vt 39.5829 45.1078
vt 33.8709 20.3456
vt 37.7793 20.3456
vt 33.8709 18.1256
vt 39.2712 9.0554
vt 37.7793 18.1256
vt 31.8425 9.0554
vt 20.4598 30.2754
vt -6.4882 21.2052
vt 22.4882 21.2052
vt -3.8803 30.2754
vt 17.9899 50.5270
vt -3.8803 25.7649
vt 20.4598 25.7649
vt 0.9518 50.5270
vt -47.6332 42.4706
vt -42.6571 17.8614
vt -42.1617 42.4706
vt -47.6554 17.8614
vt -39.6030 47.5851
vt -45.1745 70.8028
vt -42.5895 23.1578
vt -43.9513 91.6788
vt -69.8857 64.2697
vt -42.9409 64.2697
vt -67.1239 91.6788
vt -45.9126 138.6850
vt -67.1239 93.7599
vt -43.9513 93.7599
vt -65.1458 138.6850
vt 19.1198 136.6610
vt 30.2333 91.7149
vt 28.8160 136.6610
vt 18.5511 91.7149
vt 18.5511 86.0814
vt 31.5906 58.5670
vt 30.2333 86.0814
vt 18.0066 58.5670
vt -66.7967 67.1418
vt -46.7865 94.5641
vt -66.2544 94.5641
vt -44.1596 67.1418
vt -50.0374 28.1390
vt -21.7090 64.3767
vt -48.8768 64.3767
vt -49.9825 28.1390
vt -39.1577 -4.6713
vt -19.4976 -4.6713
vt -58.9916 -0.0000
vt -58.9916 63.1811
vt -76.0177 53.3511
vt -55.0265 60.8919
vt -43.3522 9.0294
vt -31.3678 2.1102
vt -31.3678 74.5512
vt 0.0000 20.2205
vt 0.0000 56.4409
vt -23.8425 14.4417
vt -56.4409 0.0000
vt -20.2205 0.0000
vt -32.1076 14.4417
vt -25.5811 23.7178
vt -32.5238 23.7178
vt -26.8699 48.4646
vt -32.5238 23.2683
vt -25.5811 23.2683
vt -31.7298 48.4646
vt -16.6124 44.7032
vt -29.7438 20.3006
vt -10.2887 20.3006
vt -30.2310 44.7032
vt -31.4311 46.2440
vt -26.6282 21.8519
vt -25.7594 46.2440
vt -34.7306 21.8519
vt -45.5660 14.5687
vt -26.6282 22.9395
vt -34.7306 22.9395
vt -26.2746 14.5687
vt -52.8189 14.4417
vt -31.8425 -6.7918
vt -64.4409 -21.2335
vt -28.2205 -21.2335
vt -60.8189 -6.7918
vt -45.6650 10.5837
vt -66.1410 1.7870
vt -46.0623 1.7870
vt -62.5311 10.5837
vt -42.8329 22.9395
vt -46.7004 23.1578
vt -53.2995 67.6490
vt -66.3259 20.0040
vt -51.7736 20.0040
vt -80.4674 67.6490
vt -71.2734 11.6289
vt -82.6787 -1.3990
vt -78.1003 -1.3990
vt -17.2084 -34.8599
vt -8.0000 -20.4182
vt -14.4208 -20.4182
vt 6.4882 -20.4182
vt 10.1102 -34.8599
vt -8.2898 -14.2077
vt -14.4208 -23.7119
vt -8.0000 -23.7119
vt -12.3494 -14.2077
vt -10.2887 22.9603
vt -29.4345 14.5877
vt -6.2736 14.5877
vt -29.7438 22.9603
vt -10.1102 7.6071
vt 22.4882 22.0488
vt -6.4882 22.0488
vt 26.1102 7.6071
vt 28.2205 -6.0193
vt 39.2712 8.4224
vt 31.8425 8.4224
vt 42.0588 -6.0193
vt 33.0294 1.6362
vt 48.8768 70.6842
vt 26.2025 14.6641
vt 51.0882 1.6362
vt 22.4141 23.0392
vt 20.5364 34.0713
vt 21.7090 70.6842
vt 47.6537 98.7108
vt 21.7090 71.3122
vt 48.8768 71.3122
vt 24.2893 98.7108
vt 37.1456 98.7108
vt 47.1960 143.1610
vt 37.1456 98.2037
vt 47.6537 98.2037
vt 38.4743 143.1610
vt -86.3498 15.7953
vt -86.3498 25.5496
vt -87.5863 64.9197
vt -100.0610 25.5496
vt -107.2710 50.7948
vt 78.3032 -28.2226
vt 60.2914 6.3115
vt 52.0484 -28.2226
vt 70.6122 6.3115
vt 84.5298 42.6184
vt 100.0610 8.0842
vt 91.8176 42.6184
vt 86.3498 8.0842
vn -0.0000 1.0000 0.0000
vn -0.6708 0.3164 -0.6708
vn 0.5530 0.3164 -0.7707
vn 0.9985 0.0555 0.0000
vn 0.9962 0.0877 0.0000
vn 0.9962 0.0876 -0.0000
vn 0.4989 0.0664 0.8641
vn 0.4992 0.0555 0.8647
vn 0.4989 0.0661 0.8641
vn 0.4992 0.0581 0.8646
vn 0.4996 0.0387 0.8654
vn -0.9600 0.0431 -0.2767
vn -0.9962 0.0876 -0.0000
vn -0.9928 0.1197 0.0000
vn -0.9985 0.0555 -0.0000
vn 0.4925 0.1728 0.8530
vn 0.4797 0.2818 0.8309
vn 0.4558 0.4110 0.7895
vn -0.4797 0.2818 0.8309
vn -0.4558 0.4110 0.7895
vn -0.4925 0.1728 0.8530
vn -0.4156 0.1333 -0.8997
vn 0.2881 0.0643 -0.9554
vn 0.2877 0.0821 -0.9542
vn 0.2884 0.0462 -0.9564
vn 0.9961 0.0880 0.0000
vn -0.3423 0.0878 -0.9355
vn 0.4992 0.0555 -0.8647
vn 0.4993 0.0556 -0.8647
vn -0.0000 -1.0000 -0.0000
vn -0.9012 0.4334 0.0000
vn -0.9007 0.4344 0.0000
vn -0.9010 0.4339 0.0000
vn -0.9391 0.3435 0.0000
vn -0.9393 0.3431 0.0000
vn -0.9680 0.2510 0.0000
vn 0.0000 0.0325 -0.9995
vn -0.0000 -0.0083 -1.0000
vn -0.0000 -0.0086 -1.0000
vn -0.9835 0.0138 0.1803
vn -0.9832 0.0296 0.1802
vn -0.9826 0.0453 0.1801
vn -0.4504 0.4344 -0.7800
vn -0.4252 0.3104 -0.8502
vn -0.4992 0.0555 -0.8647
vn 0.4504 0.4344 -0.7800
vn 0.4453 0.4550 -0.7712
vn 0.4452 0.4550 -0.7712
vn 0.4399 0.4753 -0.7620
vn 0.4399 0.4753 -0.7619
vn 0.0000 -0.0497 -0.9988
vn -0.4504 0.4344 0.7800
vn 0.4504 0.4344 0.7800
vn -0.4992 0.0555 0.8647
vn -0.4989 0.0661 0.8641
vn -0.4989 0.0660 0.8641
vn -0.4988 0.0686 0.8640
vn -0.4985 0.0773 0.8634
vn -0.4988 0.0685 0.8640
vn -0.4991 0.0597 0.8645
vn 0.9121 0.3164 0.2605
vn 0.0000 0.3164 0.9486
usemtl Green_leafs.033
s 1
f 1/1/1 7/2/1 6/3/1
f 8/4/1 7/2/1 1/1/1
f 7/2/1 8/4/1 9/5/1
f 21/6/1 20/7/1 19/8/1
f 22/9/1 20/7/1 21/6/1
f 20/7/1 22/9/1 23/10/1
f 26/11/1 25/12/1 24/13/1
f 25/12/1 26/11/1 27/14/1
f 32/15/1 40/16/1 39/17/1
f 40/16/1 32/15/1 41/18/1
f 42/19/1 41/18/1 32/15/1
f 41/18/1 42/19/1 43/20/1
f 42/19/1 32/15/1 30/21/1
f 47/22/1 46/23/1 28/24/1
f 46/23/1 47/22/1 48/25/1
f 48/25/1 47/22/1 11/26/1
f 48/25/1 11/26/1 10/27/1
f 62/28/1 61/29/1 60/30/1
f 61/29/1 62/28/1 57/31/1
f 60/30/1 63/32/1 62/28/1
f 63/32/1 60/30/1 64/33/1
f 65/34/1 67/35/1 66/36/1
f 67/35/1 65/34/1 44/37/1
f 67/35/1 44/37/1 45/38/1
f 66/36/1 67/35/1 68/39/1
f 1/1/1 3/40/1 8/4/1
usemtl Wood.054
f 1/41/2 2/42/2 3/43/2
f 2/42/2 1/41/2 4/44/2
f 1/45/3 5/46/3 4/47/3
f 5/46/3 1/45/3 6/48/3
f 10/49/4 9/50/4 8/51/4
f 11/52/5 9/50/4 10/49/4
f 11/52/5 12/53/4 9/50/4
f 13/54/6 12/53/4 11/52/5
f 12/53/4 13/54/6 14/55/4
f 13/56/7 15/57/8 14/58/8
f 15/57/8 13/56/7 16/59/9
f 17/60/10 16/61/9 13/62/7
f 16/61/9 17/60/10 18/63/10
f 19/64/11 18/65/10 17/66/10
f 18/65/10 19/64/11 20/67/11
f 24/68/12 23/69/12 22/70/12
f 23/69/12 24/68/12 25/71/12
f 28/72/13 27/73/14 26/74/14
f 27/73/14 28/72/13 29/75/13
f 30/76/15 29/77/13 28/78/13
f 29/77/13 30/76/15 31/79/15
f 32/80/16 31/81/16 30/82/16
f 33/83/17 31/81/16 32/80/16
f 31/81/16 33/83/17 34/84/17
f 33/85/17 35/86/18 34/87/17
f 35/86/18 33/85/17 36/88/18
f 33/89/19 37/90/20 36/91/20
f 37/90/20 33/89/19 38/92/19
f 32/93/21 38/94/19 33/95/19
f 38/94/19 32/93/21 39/96/21
f 42/97/22 44/98/22 43/99/22
f 44/98/22 42/97/22 45/100/22
f 42/101/15 46/102/15 45/103/15
f 42/101/15 28/78/13 46/102/15
f 30/76/15 28/78/13 42/101/15
f 24/104/23 11/105/24 47/106/24
f 11/105/24 24/104/23 49/107/23
f 22/108/25 49/109/23 24/110/23
f 49/109/23 22/108/25 21/111/25
f 19/112/4 49/113/6 21/114/4
f 49/113/6 19/112/4 17/115/26
f 17/116/26 11/117/5 49/118/6
f 11/117/5 17/116/26 13/119/6
f 47/120/27 26/121/27 24/122/27
f 26/121/27 47/120/27 28/123/27
f 8/124/28 48/125/28 10/126/28
f 3/127/29 48/125/28 8/124/28
f 2/128/28 48/125/28 3/127/29
f 48/125/28 2/128/28 50/129/28
f 15/130/30 50/131/30 2/132/30
f 15/130/30 51/133/30 50/131/30
f 52/134/30 51/133/30 15/130/30
f 53/135/30 51/133/30 52/134/30
f 53/135/30 54/136/30 51/133/30
f 55/137/30 54/136/30 53/135/30
f 54/136/30 55/137/30 56/138/30
f 37/139/31 56/140/32 55/141/32
f 56/140/32 37/139/31 57/142/33
f 38/143/34 57/142/33 37/139/31
f 57/142/33 38/143/34 58/144/35
f 39/145/36 58/146/35 38/147/34
f 58/146/35 39/145/36 40/148/36
f 40/149/37 59/150/38 58/151/39
f 59/150/38 40/149/37 41/152/37
f 43/153/40 59/154/41 41/155/40
f 59/154/41 43/153/40 44/156/41
f 60/157/42 59/158/41 44/159/41
f 59/158/41 60/157/42 61/160/42
f 56/140/32 57/142/33 62/161/32
f 62/162/43 54/163/43 56/164/43
f 54/163/43 62/162/43 63/165/43
f 65/166/44 64/167/44 60/168/44
f 64/167/44 65/166/44 66/169/44
f 60/157/42 44/159/41 65/170/42
f 45/103/15 46/102/15 67/171/15
f 46/172/45 68/173/45 67/174/45
f 48/175/45 68/173/45 46/172/45
f 48/175/45 69/176/45 68/173/45
f 50/177/45 69/176/45 48/175/45
f 69/176/45 50/177/45 51/178/45
f 51/179/46 64/180/47 69/181/48
f 51/179/46 63/182/46 64/180/47
f 63/182/46 51/179/46 54/183/46
f 66/184/49 69/185/48 64/186/47
f 69/185/48 66/184/49 68/187/50
f 58/188/39 61/189/51 57/190/51
f 61/189/51 58/188/39 59/191/38
f 55/192/52 36/193/20 37/194/20
f 36/193/20 55/192/52 53/195/52
f 53/196/53 35/197/18 36/198/18
f 35/197/18 53/196/53 52/199/53
f 52/200/54 16/201/55 35/202/54
f 16/201/55 52/200/54 15/203/54
f 35/202/54 16/201/55 34/204/54
f 34/204/54 16/201/55 31/205/54
f 31/205/54 16/201/55 29/206/56
f 18/207/57 29/208/56 16/209/55
f 29/208/56 18/207/57 27/210/58
f 27/210/58 18/207/57 25/211/59
f 20/212/60 25/213/59 18/214/57
f 25/213/59 20/212/60 23/215/60
f 15/130/30 2/132/30 14/216/30
f 14/216/30 2/132/30 12/217/30
f 4/218/30 12/217/30 2/132/30
f 12/217/30 4/218/30 70/219/30
f 70/219/30 4/218/30 5/220/30
f 5/221/61 7/222/61 70/223/61
f 7/222/61 5/221/61 6/224/61
f 9/225/62 70/226/62 7/227/62
f 70/226/62 9/225/62 12/228/62
