# Blender v2.78 (sub 0) OBJ File: ''
# www.blender.org
mtllib naturePack_040.mtl
o Mesh1_Group1_Model.029
v 0.000000 0.610000 -0.085400
v 0.000000 0.000000 0.000000
v 0.000000 0.610000 0.000000
v 0.000000 0.000000 -0.085400
v 0.085400 0.000000 -0.085400
v 0.085400 0.610000 -0.085400
v 0.085400 0.610000 0.000000
v 0.085400 0.000000 0.000000
vt -3.3622 24.0157
vt 0.0000 0.0000
vt 0.0000 24.0157
vt -3.3622 0.0000
vt 0.0000 24.0157
vt -3.3622 0.0000
vt 0.0000 0.0000
vt -3.3622 24.0157
vt 0.0000 3.3622
vt 3.3622 0.0000
vt 3.3622 3.3622
vt 0.0000 0.0000
vt 3.3622 24.0157
vt 3.3622 0.0000
vt -3.3622 3.3622
vt -3.3622 0.0000
vt 0.0000 3.3622
vt 3.3622 0.0000
vt 0.0000 24.0157
vt 0.0000 0.0000
vt 3.3622 24.0157
vn -1.0000 0.0000 0.0000
vn 0.0000 0.0000 -1.0000
vn 0.0000 1.0000 0.0000
vn 0.0000 -0.0000 1.0000
vn 0.0000 -1.0000 -0.0000
vn 1.0000 0.0000 0.0000
usemtl Green_leafs.021
s 1
f 1/1/1 2/2/1 3/3/1
f 2/2/1 1/1/1 4/4/1
f 1/5/2 5/6/2 4/7/2
f 5/6/2 1/5/2 6/8/2
f 1/9/3 7/10/3 6/11/3
f 7/10/3 1/9/3 3/12/3
f 2/2/4 7/13/4 3/3/4
f 7/13/4 2/2/4 8/14/4
f 2/2/5 5/15/5 8/16/5
f 5/15/5 2/2/5 4/17/5
f 5/18/6 7/19/6 8/20/6
f 7/19/6 5/18/6 6/21/6
o Mesh5_Group1_Model
v 0.210150 -0.000000 0.082759
v 0.210150 0.250000 0.168159
v 0.210150 -0.000000 0.168159
v 0.210150 0.250000 0.082759
v 0.124750 0.250000 0.082759
v 0.124750 -0.000000 0.082759
v 0.124750 -0.000000 0.168159
v 0.124750 0.250000 0.168159
vt -8.2736 -3.2582
vt -8.2736 -6.6204
vt -4.9114 -6.6204
vt -4.9114 -3.2582
vt -8.2736 0.0000
vt -4.9114 0.0000
vt -4.9114 9.8425
vt -8.2736 9.8425
vt -3.2582 0.0000
vt -3.2582 9.8425
vt -6.6204 9.8425
vt -6.6204 0.0000
vt 8.2736 9.8425
vt 4.9114 9.8425
vt 4.9114 0.0000
vt 8.2736 0.0000
vt 8.2736 -6.6204
vt 8.2736 -3.2582
vt 4.9114 -3.2582
vt 4.9114 -6.6204
vt 3.2582 9.8425
vt 3.2582 0.0000
vt 6.6204 0.0000
vt 6.6204 9.8425
vn 0.0000 -1.0000 -0.0000
vn 0.0000 0.0000 -1.0000
vn 1.0000 0.0000 0.0000
vn 0.0000 -0.0000 1.0000
vn 0.0000 1.0000 0.0000
vn -1.0000 0.0000 0.0000
usemtl Green_leafs.021
s 1
f 9/22/7 11/23/7 15/24/7 14/25/7
f 9/26/8 14/27/8 13/28/8 12/29/8
f 9/30/9 12/31/9 10/32/9 11/33/9
f 10/34/10 16/35/10 15/36/10 11/37/10
f 10/38/11 12/39/11 13/40/11 16/41/11
f 13/42/12 14/43/12 15/44/12 16/45/12
o Mesh2_Group1_Model
v -0.220000 0.410000 -0.085400
v -0.220000 0.000000 0.000000
v -0.220000 0.410000 0.000000
v -0.220000 0.000000 -0.085400
v -0.134600 0.000000 -0.085400
v -0.134600 0.410000 -0.085400
v -0.134600 0.410000 0.000000
v -0.134600 0.000000 0.000000
vt -3.3622 16.1417
vt 0.0000 0.0000
vt 0.0000 16.1417
vt -3.3622 0.0000
vt 8.6614 16.1417
vt 5.2992 0.0000
vt 8.6614 0.0000
vt 5.2992 16.1417
vt -8.6614 3.3622
vt -5.2992 0.0000
vt -5.2992 3.3622
vt -8.6614 0.0000
vt -8.6614 0.0000
vt -5.2992 16.1417
vt -8.6614 16.1417
vt -5.2992 0.0000
vt 8.6614 0.0000
vt 5.2992 3.3622
vt 5.2992 0.0000
vt 8.6614 3.3622
vt 3.3622 0.0000
vt 0.0000 16.1417
vt 0.0000 0.0000
vt 3.3622 16.1417
vn -1.0000 -0.0000 0.0000
vn 0.0000 0.0000 -1.0000
vn 0.0000 1.0000 0.0000
vn 0.0000 -0.0000 1.0000
vn 0.0000 -1.0000 -0.0000
vn 1.0000 0.0000 0.0000
usemtl Green_leafs.021
s 1
f 17/46/13 18/47/13 19/48/13
f 18/47/13 17/46/13 20/49/13
f 17/50/14 21/51/14 20/52/14
f 21/51/14 17/50/14 22/53/14
f 17/54/15 23/55/15 22/56/15
f 23/55/15 17/54/15 19/57/15
f 18/58/16 23/59/16 19/60/16
f 23/59/16 18/58/16 24/61/16
f 18/62/17 21/63/17 24/64/17
f 21/63/17 18/62/17 20/65/17
f 21/66/18 23/67/18 24/68/18
f 23/67/18 21/66/18 22/69/18
o Mesh3_Group1_Model
v -0.029098 0.000000 -0.289775
v -0.029098 0.240000 -0.204375
v -0.029098 0.000000 -0.204375
v -0.029098 0.240000 -0.289775
v -0.114498 0.240000 -0.289775
v -0.114498 0.000000 -0.289775
v -0.114498 0.000000 -0.204375
v -0.114498 0.240000 -0.204375
vt 11.4085 0.0000
vt 8.0463 9.4488
vt 8.0463 0.0000
vt 11.4085 9.4488
vt 1.1456 0.0000
vt 4.5078 9.4488
vt 1.1456 9.4488
vt 4.5078 0.0000
vt 1.1456 11.4085
vt 4.5078 8.0463
vt 4.5078 11.4085
vt 1.1456 8.0463
vt -1.1456 9.4488
vt -4.5078 0.0000
vt -1.1456 0.0000
vt -4.5078 9.4488
vt -1.1456 8.0463
vt -4.5078 11.4085
vt -4.5078 8.0463
vt -1.1456 11.4085
vt -11.4085 9.4488
vt -8.0463 0.0000
vt -8.0463 9.4488
vt -11.4085 0.0000
vn 1.0000 0.0000 0.0000
vn 0.0000 0.0000 -1.0000
vn 0.0000 -1.0000 -0.0000
vn 0.0000 -0.0000 1.0000
vn 0.0000 1.0000 0.0000
vn -1.0000 -0.0000 0.0000
usemtl Green_leafs.021
s 1
f 25/70/19 26/71/19 27/72/19
f 26/71/19 25/70/19 28/73/19
f 25/74/20 29/75/20 28/76/20
f 29/75/20 25/74/20 30/77/20
f 25/78/21 31/79/21 30/80/21
f 31/79/21 25/78/21 27/81/21
f 26/82/22 31/83/22 27/84/22
f 31/83/22 26/82/22 32/85/22
f 26/86/23 29/87/23 32/88/23
f 29/87/23 26/86/23 28/89/23
f 29/90/24 31/91/24 32/92/24
f 31/91/24 29/90/24 30/93/24
o Mesh4_Group1_Model
v 0.324807 0.000000 -0.181833
v 0.324807 0.460000 -0.096433
v 0.324807 0.000000 -0.096433
v 0.324807 0.460000 -0.181833
v 0.239407 0.460000 -0.181833
v 0.239407 0.000000 -0.181833
v 0.239407 0.000000 -0.096433
v 0.239407 0.460000 -0.096433
vt 7.1588 0.0000
vt 3.7966 18.1102
vt 3.7966 0.0000
vt 7.1588 18.1102
vt -12.7877 0.0000
vt -9.4255 18.1102
vt -12.7877 18.1102
vt -9.4255 0.0000
vt -12.7877 7.1588
vt -9.4255 3.7966
vt -9.4255 7.1588
vt -12.7877 3.7966
vt 12.7877 18.1102
vt 9.4255 0.0000
vt 12.7877 0.0000
vt 9.4255 18.1102
vt 12.7877 3.7966
vt 9.4255 7.1588
vt 9.4255 3.7966
vt 12.7877 7.1588
vt -7.1588 18.1102
vt -3.7966 0.0000
vt -3.7966 18.1102
vt -7.1588 0.0000
vn 1.0000 -0.0000 0.0000
vn 0.0000 0.0000 -1.0000
vn 0.0000 -1.0000 -0.0000
vn 0.0000 -0.0000 1.0000
vn 0.0000 1.0000 0.0000
vn -1.0000 0.0000 0.0000
usemtl Green_leafs.021
s 1
f 33/94/25 34/95/25 35/96/25
f 34/95/25 33/94/25 36/97/25
f 33/98/26 37/99/26 36/100/26
f 37/99/26 33/98/26 38/101/26
f 33/102/27 39/103/27 38/104/27
f 39/103/27 33/102/27 35/105/27
f 34/106/28 39/107/28 35/108/28
f 39/107/28 34/106/28 40/109/28
f 34/110/29 37/111/29 40/112/29
f 37/111/29 34/110/29 36/113/29
f 37/114/30 39/115/30 40/116/30
f 39/115/30 37/114/30 38/117/30
