# Blender v2.78 (sub 0) OBJ File: ''
# www.blender.org
mtllib naturePack_094.mtl
o Mesh1_Oak_Fall_Model
v 0.788083 2.817000 -1.820000
v 1.576170 1.533500 -1.365000
v 0.788083 1.533500 -1.820000
v 1.576170 2.817000 -1.365000
v 0.788083 4.508500 -1.437799
v 1.245170 4.508500 -1.173899
v 0.788083 4.933500 -0.909999
v 0.330995 4.508500 -1.173899
v 0.000000 2.817000 -1.365000
v 0.000000 1.533500 -1.365000
v 0.346757 1.270000 -1.164800
v 0.788083 1.270000 -1.419600
v 1.229410 1.270000 -1.164800
v 1.229410 1.270000 -0.655200
v 1.576170 1.533500 -0.455000
v 1.576170 2.817000 -0.455000
v 1.245170 4.508500 -0.646099
v 0.788083 4.508500 -0.382199
v 0.330995 4.508500 -0.646099
v 0.000000 2.817000 -0.455000
v 0.000000 1.533500 -0.455000
v 0.346757 1.270000 -0.655200
v 0.673827 1.270000 -1.024260
v 0.902339 1.270000 -1.024260
v 0.902339 1.270000 -0.795744
v 0.788083 1.270000 -0.400400
v 0.673827 1.270000 -0.795744
v 0.608153 0.000000 -1.089930
v 0.608153 0.000000 -0.730070
v 0.968014 0.000000 -1.089930
v 0.968014 0.000000 -0.730070
v 0.788083 1.533500 0.000000
v 0.788083 2.817000 0.000000
vt -42.9106 1.2365
vt -31.3285 51.3033
vt -40.3250 51.3033
vt -28.7429 1.2365
vt -38.1108 42.9106
vt -23.9430 28.7429
vt -23.9430 42.9106
vt -38.1108 28.7429
vt 42.9106 -1.9682
vt 31.3285 48.0986
vt 28.7429 -1.9682
vt 40.3250 48.0986
vt -38.1108 -2.2160
vt -26.5286 47.8508
vt -35.5252 47.8508
vt -23.9430 -2.2160
vt 35.5252 51.5512
vt 23.9430 1.4844
vt 38.1108 1.4844
vt 26.5286 51.5512
vt 8.9567 110.9060
vt -26.8701 60.3740
vt 8.9567 60.3740
vt -26.8701 110.9060
vt 1.4331 161.8030
vt -26.8701 93.9453
vt 8.9567 93.9453
vt -19.3465 161.8030
vt -19.3465 73.6031
vt 1.4331 73.6031
vt -8.9567 98.1757
vt -55.1732 96.3255
vt -34.3937 96.3255
vt -44.7835 120.8980
vt -62.6969 99.9037
vt -34.3937 167.7610
vt -55.1732 167.7610
vt -26.8701 99.9037
vt -62.6969 60.3740
vt -26.8701 110.9060
vt -62.6969 110.9060
vt -26.8701 60.3740
vt -62.6969 73.5837
vt -34.7520 56.4375
vt -26.8701 73.5837
vt -54.8150 56.4375
vt 8.9567 98.2873
vt -18.9882 81.1411
vt 1.0748 81.1411
vt -26.8701 98.2873
vt 53.7402 85.9355
vt 25.7953 68.7893
vt 45.8583 68.7893
vt 17.9134 85.9355
vt 53.7402 60.3740
vt 17.9134 110.9060
vt 17.9134 60.3740
vt 53.7402 110.9060
vt 53.7402 96.9245
vt 25.4370 164.7820
vt 17.9134 96.9245
vt 46.2165 164.7820
vt 46.2165 84.9643
vt 35.8268 109.5370
vt 25.4370 84.9643
vt 55.1732 119.0480
vt 44.7835 143.6200
vt 34.3937 119.0480
vt 19.3465 141.7700
vt 8.9567 166.3430
vt -1.4331 141.7700
vt -35.8268 154.9820
vt -46.2165 130.4090
vt -25.4370 130.4090
vt -53.7402 108.8410
vt -25.4370 176.6990
vt -46.2165 176.6990
vt -17.9134 108.8410
vt -53.7402 110.9060
vt -17.9134 60.3740
vt -17.9134 110.9060
vt -53.7402 60.3740
vt -53.7402 36.5282
vt -25.7953 19.3820
vt -17.9134 36.5282
vt -45.8583 19.3820
vt -31.0269 55.8898
vt -13.6518 25.7953
vt -13.6518 45.8583
vt -26.5286 40.3250
vt -35.5252 40.3250
vt -48.4020 45.8583
vt -35.5252 31.3285
vt -48.4020 25.7953
vt -31.0269 15.7638
vt -26.5286 31.3285
vt 26.8701 24.1764
vt -1.0748 7.0302
vt 18.9882 7.0302
vt -8.9567 24.1764
vt 26.8701 110.9060
vt -8.9567 60.3740
vt 26.8701 60.3740
vt -8.9567 110.9060
vt 19.3465 179.6780
vt -8.9567 111.8200
vt 26.8701 111.8200
vt -1.4331 179.6780
vt 26.8701 105.8620
vt 55.1732 173.7200
vt 34.3937 173.7200
vt 62.6969 105.8620
vt 62.6969 110.9060
vt 62.6969 60.3740
vt 26.8701 48.8801
vt 54.8150 31.7338
vt 62.6969 48.8801
vt 34.7520 31.7338
vn -0.9987 0.0516 0.0000
vn 0.0000 -1.0000 -0.0000
vn 0.9987 0.0516 0.0000
vn 0.0000 0.0516 -0.9987
vn 0.0000 0.0516 0.9987
vn 0.4977 0.0964 -0.8620
vn 0.5000 0.0000 -0.8660
vn 0.4907 0.1920 -0.8499
vn 0.3405 0.7323 -0.5897
vn -0.3405 0.7323 -0.5897
vn -0.4977 0.0964 -0.8620
vn -0.4907 0.1920 -0.8499
vn -0.5000 0.0000 -0.8660
vn -0.3025 -0.7962 -0.5240
vn 0.3025 -0.7962 -0.5240
vn 0.6050 -0.7962 -0.0000
vn 1.0000 -0.0000 0.0000
vn 0.9953 0.0964 0.0000
vn 0.9814 0.1920 0.0000
vn 0.6809 0.7323 0.0000
vn 0.3405 0.7323 0.5897
vn -0.3405 0.7323 0.5897
vn -0.6809 0.7323 0.0000
vn -0.9953 0.0964 0.0000
vn -0.9814 0.1920 0.0000
vn -0.9953 0.0965 0.0000
vn -1.0000 0.0000 -0.0000
vn -0.6050 -0.7962 -0.0000
vn -0.3025 -0.7962 0.5240
vn -0.4977 0.0964 0.8620
vn -0.5000 -0.0000 0.8660
vn -0.4907 0.1920 0.8499
vn 0.4977 0.0964 0.8620
vn 0.4907 0.1920 0.8499
vn 0.4977 0.0965 0.8620
vn 0.5000 -0.0000 0.8660
vn 0.3025 -0.7962 0.5240
usemtl Wood.059
s 1
f 28/1/1 27/2/1 23/3/1
f 27/2/1 28/1/1 29/4/1
f 30/5/2 29/6/2 28/7/2
f 29/6/2 30/5/2 31/8/2
f 30/9/3 25/10/3 31/11/3
f 25/10/3 30/9/3 24/12/3
f 30/13/4 23/14/4 24/15/4
f 23/14/4 30/13/4 28/16/4
f 25/17/5 29/18/5 31/19/5
f 29/18/5 25/17/5 27/20/5
usemtl Fall_Leafs.004
f 1/21/6 2/22/7 3/23/7
f 2/22/7 1/21/6 4/24/6
f 5/25/8 4/26/6 1/27/6
f 4/26/6 5/25/8 6/28/8
f 6/29/9 5/30/9 7/31/9
f 5/32/10 8/33/10 7/34/10
f 1/35/11 8/36/12 5/37/12
f 8/36/12 1/35/11 9/38/11
f 3/39/13 9/40/11 1/41/11
f 9/40/11 3/39/13 10/42/13
f 3/43/14 11/44/14 10/45/14
f 11/44/14 3/43/14 12/46/14
f 3/47/15 13/48/15 12/49/15
f 13/48/15 3/47/15 2/50/15
f 2/51/16 14/52/16 13/53/16
f 14/52/16 2/51/16 15/54/16
f 2/55/17 16/56/18 15/57/17
f 16/56/18 2/55/17 4/58/18
f 4/59/18 17/60/19 16/61/18
f 17/60/19 4/59/18 6/62/19
f 6/63/20 7/64/20 17/65/20
f 17/66/21 7/67/21 18/68/21
f 18/69/22 7/70/22 19/71/22
f 7/72/23 8/73/23 19/74/23
f 9/75/24 19/76/25 8/77/25
f 19/76/25 9/75/24 20/78/26
f 9/79/24 21/80/27 20/81/26
f 21/80/27 9/79/24 10/82/27
f 10/83/28 22/84/28 21/85/28
f 22/84/28 10/83/28 11/86/28
f 12/87/2 22/88/2 11/89/2
f 22/88/2 12/87/2 23/90/2
f 23/90/2 12/87/2 24/91/2
f 24/91/2 12/87/2 13/92/2
f 24/91/2 13/92/2 25/93/2
f 14/94/2 25/93/2 13/92/2
f 26/95/2 25/93/2 14/94/2
f 26/95/2 27/96/2 25/93/2
f 22/88/2 27/96/2 26/95/2
f 27/96/2 22/88/2 23/90/2
f 32/97/29 22/98/29 26/99/29
f 22/98/29 32/97/29 21/100/29
f 33/101/30 21/102/31 32/103/31
f 21/102/31 33/101/30 20/104/30
f 18/105/32 20/106/30 33/107/30
f 20/106/30 18/105/32 19/108/32
f 33/109/33 17/110/34 18/111/34
f 17/110/34 33/109/33 16/112/35
f 32/103/36 16/113/35 33/101/33
f 16/113/35 32/103/36 15/114/36
f 32/115/37 14/116/37 15/117/37
f 14/116/37 32/115/37 26/118/37
