# Blender v2.78 (sub 0) OBJ File: ''
# www.blender.org
mtllib naturePack_024.mtl
o Mesh1_Group1_Model.017
v 1.936160 0.000000 -0.783416
v 2.014160 0.472500 -1.216470
v 2.175460 0.472500 -0.607467
v 1.873250 0.000000 -1.020930
v 1.554530 0.000000 -0.309592
v 1.540240 0.000000 -1.575930
v 0.920803 0.000000 -2.304040
v 0.634979 0.000000 -0.435998
v 0.607664 0.000000 -2.504880
v 0.438396 0.000000 -1.474540
v 0.437140 0.000000 -0.730639
v 0.338848 0.000000 -1.249910
v 0.119650 0.236250 -0.971415
v 0.000000 0.472500 -0.917550
v 0.507280 0.472500 -0.162059
v 1.686190 0.472500 0.000000
v 1.500670 1.192500 -0.436243
v 1.838270 1.192500 -0.855395
v 1.782620 1.192500 -1.065500
v 1.870560 0.832500 -1.246040
v 0.873721 0.472500 -2.556990
v 1.586130 1.192500 -1.441150
v 0.940064 1.192500 -2.200570
v 0.663056 1.192500 -2.378230
v 0.472260 0.472500 -2.814470
v 0.072187 0.472500 -2.686640
v 0.295607 0.000000 -2.405170
v 0.438396 0.000000 -2.136560
v 0.255250 0.472500 -1.493530
v 0.255250 0.472500 -2.342270
v 0.513319 1.192500 -2.052410
v 0.513319 1.192500 -1.466780
v 0.337197 1.192500 -1.069350
v 0.512208 1.192500 -0.808708
v 0.597250 0.832500 -0.355061
v 1.093950 1.192500 -0.492153
v 0.387006 1.192500 -2.290020
v 1.912250 0.236250 -1.237450
vt 10.2981 29.9214
vt 25.9929 49.9171
vt 1.1897 49.9171
vt 19.9714 29.9214
vt -61.2020 12.1887
vt -73.7501 40.1939
vt -76.2268 30.8432
vt -60.6393 62.0445
vt -36.2521 90.7104
vt -24.9992 17.1653
vt -23.9238 98.6173
vt -17.2597 58.0528
vt -17.2102 28.7653
vt -13.3405 49.2091
vt -25.0626 -16.6754
vt -36.7013 -2.6344
vt -45.8694 -16.6754
vt -14.2874 -14.5637
vt -29.9905 6.6449
vt -29.1252 -3.9594
vt -0.3150 -14.5637
vt 5.8362 6.6449
vt 22.4286 -10.6434
vt 65.7671 11.1581
vt 18.9167 11.1581
vt 58.9720 -10.6434
vt 47.8826 21.2833
vt 72.3502 43.2498
vt 41.6415 43.2498
vt 71.8354 21.2833
vt 72.3502 -9.8775
vt 50.4358 22.9022
vt 41.6415 -9.8775
vt 71.6248 22.9022
vt 25.9929 -12.9770
vt 14.0243 17.1943
vt 1.1897 -12.9770
vt 22.5814 17.1943
vt 28.5657 2.1087
vt 54.3862 -4.1799
vt -10.3552 10.4316
vt -14.9051 -4.1799
vt 2.7518 25.0430
vt 42.0058 25.0430
vt 25.3928 -18.1250
vt 28.5747 12.0697
vt 15.6185 12.0697
vt 44.1698 -18.1250
vt 18.4562 35.3821
vt 44.1698 55.3956
vt 25.3928 55.3956
vt 33.1023 35.3821
vt -52.8044 50.2312
vt -34.9009 73.0601
vt -51.4363 73.0601
vt -39.9068 50.2312
vt -17.2597 84.1167
vt -11.6381 94.6917
vt -58.8002 13.7131
vt -84.1167 -6.2378
vt -58.0528 -6.2378
vt -92.2154 13.7131
vt -58.8002 20.9022
vt -80.8036 51.0145
vt -92.2154 20.9022
vt -57.7471 51.0145
vt -57.8294 12.8520
vt -43.8689 42.8172
vt -60.9831 42.8172
vt -33.0262 12.8520
vt -57.8294 22.5294
vt -36.8736 12.6099
vt -33.0262 22.5294
vt -50.3943 2.6904
vt -60.0675 2.6904
vt -29.9905 25.6929
vt -15.1916 57.4660
vt -27.5518 57.4660
vt 1.5024 41.5794
vt 5.8362 25.6929
vt 18.9167 20.6431
vt 56.1921 53.2033
vt 21.3910 36.9232
vt 65.7671 20.6431
vt 40.0287 53.2033
vt 62.4460 56.7383
vt 43.0687 19.3761
vt 59.0815 17.1749
vt 37.0104 86.6365
vt 26.1046 93.6310
vt 20.2094 80.8036
vt 20.2094 57.7471
vt 20.1657 31.8389
vt 13.2755 42.1005
vt 28.5692 59.8084
vt 2.4949 59.8084
vt 13.9724 39.8249
vt 15.2364 90.1584
vt -51.4363 -39.3543
vt -41.9547 -5.4248
vt -53.3641 -5.4248
vt -34.9009 -39.3543
vt -76.7082 25.0507
vt -72.4570 53.6267
vt -92.0626 25.0507
vt -61.8626 53.6267
vt -78.1490 -7.4757
vt -76.7082 11.3027
vt -92.0626 11.3027
vt -66.1726 -7.4757
vt 72.3727 33.6770
vt 70.1817 41.9488
vt 21.3334 9.4006
vt 4.6430 9.4006
vt 9.3364 -6.1352
vt 54.3862 41.8690
vt 7.9640 22.5958
vt 45.6001 22.5958
vt -11.6762 32.2324
vt -14.9051 41.8690
vt 27.8187 39.9193
vt 22.0028 43.8635
vt 3.0405 54.7737
vt -3.4793 43.8635
vn 0.8993 -0.3668 -0.2382
vn -0.0000 -1.0000 -0.0000
vn -0.6509 -0.7491 0.1232
vn -0.7282 -0.4803 0.4889
vn -0.7282 -0.4803 0.4890
vn -0.1162 -0.5215 0.8453
vn 0.6595 -0.5318 0.5312
vn 0.6735 0.5022 0.5424
vn 0.9082 0.3425 -0.2406
vn 0.9082 0.3425 -0.2405
vn 0.7388 0.2431 -0.6285
vn 0.5068 0.3445 -0.7902
vn 0.5018 -0.3688 -0.7824
vn 0.5018 -0.3689 -0.7824
vn -0.2480 -0.5797 -0.7762
vn -0.9324 -0.3614 -0.0000
vn -0.9414 0.3374 0.0000
vn -0.8649 0.3242 -0.3833
vn -0.8573 -0.3475 -0.3799
vn -0.7407 0.4517 0.4973
vn -0.1186 0.4920 0.8625
vn 0.0000 1.0000 0.0000
vn -0.3390 0.7050 0.6230
vn -0.2543 0.5496 -0.7958
vn -0.8759 0.1265 0.4656
vn -0.8747 -0.1366 0.4650
vn 0.8084 0.4095 -0.4228
vn 0.7351 -0.2616 -0.6254
vn 0.7310 -0.5227 -0.4386
usemtl Stone.003
s 1
f 1/1/1 2/2/1 3/3/1
f 2/2/1 1/1/1 4/4/1
f 5/5/2 4/6/2 1/7/2
f 5/5/2 6/8/2 4/6/2
f 5/5/2 7/9/2 6/8/2
f 8/10/2 7/9/2 5/5/2
f 8/10/2 9/11/2 7/9/2
f 8/10/2 10/12/2 9/11/2
f 11/13/2 10/12/2 8/10/2
f 10/12/2 11/13/2 12/14/2
f 11/15/3 13/16/3 12/17/3
f 11/18/4 14/19/4 13/20/5
f 8/21/4 14/19/4 11/18/4
f 14/19/4 8/21/4 15/22/4
f 8/23/6 16/24/6 15/25/6
f 16/24/6 8/23/6 5/26/6
f 5/27/7 3/28/7 16/29/7
f 3/28/7 5/27/7 1/30/7
f 3/31/8 17/32/8 16/33/8
f 17/32/8 3/31/8 18/34/8
f 2/35/9 18/36/9 3/37/10
f 18/36/9 2/35/9 19/38/9
f 19/38/9 2/35/9 20/39/9
f 21/40/11 20/41/11 2/42/11
f 20/41/11 21/40/11 22/43/11
f 22/43/11 21/40/11 23/44/11
f 21/45/12 24/46/12 23/47/12
f 24/46/12 21/45/12 25/48/12
f 7/49/13 25/50/13 21/51/14
f 25/50/13 7/49/13 9/52/13
f 9/53/15 26/54/15 25/55/15
f 26/54/15 9/53/15 27/56/15
f 9/11/2 28/57/2 27/58/2
f 28/57/2 9/11/2 10/12/2
f 29/59/16 28/60/16 10/61/16
f 28/60/16 29/59/16 30/62/16
f 29/63/17 31/64/17 30/65/17
f 31/64/17 29/63/17 32/66/17
f 29/67/18 33/68/18 32/69/18
f 33/68/18 29/67/18 14/70/18
f 29/71/19 13/72/19 14/73/19
f 13/72/19 29/71/19 12/74/19
f 12/74/19 29/71/19 10/75/19
f 14/76/20 34/77/20 33/78/20
f 14/76/20 35/79/20 34/77/20
f 35/79/20 14/76/20 15/80/20
f 15/81/21 17/82/21 35/83/21
f 17/82/21 15/81/21 16/84/21
f 35/83/21 17/82/21 36/85/21
f 22/86/22 36/87/22 17/88/22
f 23/89/22 36/87/22 22/86/22
f 24/90/22 36/87/22 23/89/22
f 31/91/22 36/87/22 24/90/22
f 32/92/22 36/87/22 31/91/22
f 32/92/22 34/93/22 36/87/22
f 34/93/22 32/92/22 33/94/22
f 36/95/23 34/96/23 35/97/23
f 24/90/22 37/98/22 31/91/22
f 25/99/24 37/100/24 24/101/24
f 37/100/24 25/99/24 26/102/24
f 30/103/25 37/104/25 26/105/25
f 37/104/25 30/103/25 31/106/25
f 27/107/26 30/108/26 26/109/26
f 30/108/26 27/107/26 28/110/26
f 22/86/22 17/88/22 18/111/22
f 22/86/22 18/111/22 19/112/22
f 22/113/27 19/114/27 20/115/27
f 21/116/28 6/117/28 7/118/28
f 21/116/28 38/119/28 6/117/28
f 38/119/28 21/116/28 2/120/28
f 2/2/1 4/4/1 38/121/1
f 6/122/29 38/123/29 4/124/29
