# Blender v2.78 (sub 0) OBJ File: ''
# www.blender.org
mtllib naturePack_flat_002.mtl
o Mesh2_Plant_1_Model
v 0.284575 0.000000 -0.146470
v 0.284575 0.213767 -0.120795
v 0.284575 0.261814 0.000000
v 0.284575 0.517629 -0.284575
v 0.284575 0.651190 -0.073242
v 0.284575 0.000000 -0.284575
v 0.284575 0.000000 -0.422680
v 0.284575 0.651190 -0.495908
v 0.284575 0.213767 -0.448355
v 0.284575 0.261814 -0.569151
vt 2.8836 25.6374
vt 11.2038 20.3791
vt 4.7557 8.4160
vt 5.7666 -0.0000
vt -0.0000 10.3076
vt 11.2038 -0.0000
vt 16.6410 -0.0000
vt 19.5239 25.6374
vt 17.6518 8.4160
vt 22.4075 10.3076
vn -1.0000 -0.0000 0.0000
vn 1.0000 -0.0000 0.0000
usemtl Green_leafs.049
s 1
f 5/1/1 4/2/1 2/3/1
f 1/4/1 2/3/1 4/2/1
f 3/5/1 2/3/1 1/4/1
f 4/2/2 1/4/2 6/6/2
f 4/2/2 6/6/2 7/7/2
f 8/8/1 7/7/1 4/2/1
f 9/9/1 7/7/1 8/8/1
f 7/7/1 9/9/1 10/10/1
o Mesh1_Plant_1_Model
v 0.000000 0.208115 -0.284575
v 0.284575 0.000000 -0.284575
v 0.146470 0.000000 -0.284575
v 0.120795 0.169923 -0.284575
v 0.284575 0.411462 -0.284575
v 0.073243 0.517629 -0.284575
v 0.448355 0.169923 -0.284575
v 0.495908 0.517629 -0.284575
v 0.569151 0.208115 -0.284575
v 0.422680 0.000000 -0.284575
vt -5.7666 0.0000
vt -11.2038 0.0000
vt 0.0000 8.1935
vt -4.7557 6.6899
vt -11.2038 16.1993
vt -2.8836 20.3791
vt -17.6518 6.6899
vt -19.5239 20.3791
vt -22.4075 8.1935
vt -16.6410 0.0000
vn 0.0000 -0.0000 1.0000
vn 0.0000 0.0000 -1.0000
usemtl Green_leafs.049
s 1
f 13/11/3 12/12/3 11/13/3
f 14/14/3 11/13/3 12/12/3
f 15/15/4 14/14/4 16/16/4
f 12/12/3 15/15/3 14/14/3
f 17/17/4 15/15/4 18/18/4
f 12/12/3 17/17/3 15/15/3
f 19/19/4 12/12/4 17/17/4
f 12/12/4 19/19/4 20/20/4
