# Blender v2.78 (sub 0) OBJ File: ''
# www.blender.org
mtllib naturePack_071.mtl
o Mesh1_Large_Oak_Dark_Model.003
v 1.335190 0.971550 -1.132890
v 1.234710 0.000000 -1.582990
v 1.234710 0.000000 -1.032400
v 1.335190 0.971550 -1.482510
v 0.921100 0.971550 -0.287694
v 2.098900 0.971550 -0.287694
v 1.684810 0.971550 -1.132890
v 1.785290 0.000000 -1.032400
v 1.785290 0.000000 -1.582990
v 1.684810 0.971550 -1.482510
v 2.098900 0.971550 -2.327700
v 0.921100 0.971550 -2.327700
v 0.332200 0.971550 -1.307700
v 0.000000 1.591550 -1.307700
v 0.755000 1.591550 0.000000
v 2.265000 1.591550 0.000000
v 3.020000 1.591550 -1.307700
v 2.687800 0.971550 -1.307700
v 2.265000 1.591550 -2.615400
v 2.091350 3.771550 -2.314629
v 2.672700 3.771550 -1.307699
v 1.510000 4.601550 -1.307699
v 0.928650 3.771550 -2.314629
v 0.755000 1.591550 -2.615400
v 0.347300 3.771550 -1.307699
v 0.928650 3.771550 -0.300770
v 2.091350 3.771550 -0.300770
vt -52.5665 44.6018
vt -36.2638 11.3265
vt -52.5665 58.3665
vt -82.6339 11.3265
vt -66.3312 44.6018
vt -82.6339 91.6419
vt -66.3312 58.3665
vt -36.2638 91.6419
vt -13.0787 51.4842
vt 8.3228 19.0939
vt -44.5866 46.0032
vt -38.0472 19.0939
vt 14.8622 46.0032
vt 36.2638 29.9291
vt 89.1732 56.8384
vt 29.7244 56.8384
vt 82.6339 29.9291
vt 51.1260 62.4348
vt 104.0350 89.3441
vt 44.5866 89.3441
vt 97.4961 62.4348
vt -105.8190 51.4842
vt 44.5866 111.0150
vt -8.3228 84.1052
vt 38.0472 84.1052
vt -14.8622 111.0150
vt 37.7500 131.1200
vt -14.8622 44.4802
vt 44.5866 44.4802
vt -8.0256 131.1200
vt -8.0256 4.2645
vt 37.7500 4.2645
vt 14.8622 55.6391
vt -82.3366 24.1282
vt -36.5610 24.1282
vt -59.4488 75.5028
vt -89.1732 47.9984
vt -36.5610 134.6380
vt -82.3366 134.6380
vt -29.7244 47.9984
vt -82.6339 73.2700
vt -29.7244 100.1790
vt -89.1732 100.1790
vt -36.2638 73.2700
vt -51.1260 40.7643
vt -104.0350 67.6736
vt -97.4961 40.7643
vt -44.5866 67.6736
vt -44.5866 58.5532
vt -97.1988 145.1930
vt -104.0350 58.5532
vt -51.4232 145.1930
vt -44.5866 65.5897
vt 8.0256 152.2300
vt -37.7500 152.2300
vt 14.8622 65.5897
vt 29.7244 62.0715
vt 82.3366 148.7110
vt 36.5610 148.7110
vt 89.1732 62.0715
vt 104.0350 51.5167
vt 51.4232 138.1560
vt 44.5866 51.5167
vt 97.1988 138.1560
vt 97.1988 43.9919
vt 74.3110 95.3665
vt 51.4232 43.9919
vt 82.3366 103.5830
vt 59.4488 154.9580
vt 36.5610 103.5830
vt -14.8622 174.8210
vt -37.7500 123.4470
vt 8.0256 123.4470
vt -74.3110 135.0940
vt -97.1988 83.7193
vt -51.4232 83.7193
vt -44.6018 43.4549
vt -62.3225 5.0009
vt -40.6459 5.0009
vt -58.3665 43.4549
vt 48.6105 4.1815
vt 66.3312 42.6355
vt 52.5665 42.6355
vt 70.2872 4.1815
vt -48.6105 40.6459
vt -70.2872 62.3225
vt -70.2872 40.6459
vt -48.6105 62.3225
vt -52.5665 32.0425
vt -70.2872 -6.4115
vt -48.6105 -6.4115
vt -66.3312 32.0425
vt 44.6018 31.2232
vt 62.3225 -7.2309
vt 58.3665 31.2232
vt 40.6459 -7.2309
vn -0.0000 -1.0000 0.0000
vn -0.7856 -0.4209 0.4535
vn 0.0000 -0.4209 0.9071
vn 0.7856 -0.4209 0.4535
vn 0.7856 -0.4209 -0.4536
vn 0.7856 -0.4209 -0.4535
vn 0.8579 0.1367 -0.4953
vn 0.5508 0.7716 -0.3180
vn 0.0000 0.7716 -0.6361
vn 0.0000 0.1367 -0.9906
vn 0.0000 -0.4209 -0.9071
vn -0.7856 -0.4209 -0.4536
vn -0.7856 -0.4209 -0.4535
vn -0.8579 0.1367 -0.4953
vn -0.8579 0.1367 0.4953
vn 0.0000 0.1367 0.9906
vn 0.8579 0.1367 0.4953
vn 0.5508 0.7716 0.3180
vn 0.0000 0.7716 0.6361
vn -0.5508 0.7716 0.3180
vn -0.5508 0.7716 -0.3180
vn -0.9947 0.1029 0.0000
vn 0.0000 0.1029 0.9947
vn 0.0000 0.1029 -0.9947
vn 0.9947 0.1029 0.0000
usemtl Leafs.016
s 1
f 1/1/1 5/2/1 4/3/1
f 5/2/1 1/1/1 6/4/1
f 6/4/1 1/1/1 7/5/1
f 4/3/1 11/6/1 10/7/1
f 4/3/1 12/8/1 11/6/1
f 5/2/1 12/8/1 4/3/1
f 12/8/1 5/2/1 13/9/1
f 5/10/2 14/11/2 13/12/2
f 14/11/2 5/10/2 15/13/2
f 5/14/3 16/15/3 15/16/3
f 16/15/3 5/14/3 6/17/3
f 6/18/4 17/19/4 16/20/4
f 17/19/4 6/18/4 18/21/4
f 6/4/1 11/6/1 18/22/1
f 6/4/1 7/5/1 11/6/1
f 10/7/1 11/6/1 7/5/1
f 19/23/5 18/24/5 11/25/5
f 18/24/5 19/23/5 17/26/6
f 20/27/7 17/28/7 19/29/7
f 17/28/7 20/27/7 21/30/7
f 21/31/8 20/32/8 22/33/8
f 20/34/9 23/35/9 22/36/9
f 19/37/10 23/38/10 20/39/10
f 23/38/10 19/37/10 24/40/10
f 11/41/11 24/42/11 19/43/11
f 24/42/11 11/41/11 12/44/11
f 13/45/12 24/46/12 12/47/12
f 24/46/12 13/45/12 14/48/13
f 14/49/14 23/50/14 24/51/14
f 23/50/14 14/49/14 25/52/14
f 14/53/15 26/54/15 25/55/15
f 26/54/15 14/53/15 15/56/15
f 15/57/16 27/58/16 26/59/16
f 27/58/16 15/57/16 16/60/16
f 17/61/17 27/62/17 16/63/17
f 27/62/17 17/61/17 21/64/17
f 21/65/18 22/66/18 27/67/18
f 27/68/19 22/69/19 26/70/19
f 22/71/20 25/72/20 26/73/20
f 22/74/21 23/75/21 25/76/21
usemtl Wood.044
f 1/77/22 2/78/22 3/79/22
f 2/78/22 1/77/22 4/80/22
f 3/81/23 7/82/23 1/83/23
f 7/82/23 3/81/23 8/84/23
f 3/85/1 9/86/1 8/87/1
f 9/86/1 3/85/1 2/88/1
f 4/89/24 9/90/24 2/91/24
f 9/90/24 4/89/24 10/92/24
f 7/93/25 9/94/25 10/95/25
f 9/94/25 7/93/25 8/96/25
