# Blender v2.78 (sub 0) OBJ File: ''
# www.blender.org
mtllib naturePack_096.mtl
o Mesh1_Grey_Cliff_Top_Model
v -0.420000 0.290000 -3.000000
v 0.500000 0.000000 -3.000000
v -0.280000 0.000000 -3.000000
v 0.500000 0.290000 -3.000000
v -0.215291 0.290000 -3.000000
v -0.273829 0.290000 -2.387190
v -0.133829 0.000000 -2.387190
v 0.082659 0.000000 -1.274920
v 0.500000 0.000000 0.000000
v -0.161050 0.000000 -0.371864
v -0.280000 0.000000 0.000000
v 0.500000 0.290000 0.000000
v -0.420000 0.290000 0.000000
v -0.210938 0.290000 0.000000
v -0.090737 0.290000 -0.375774
v 0.174238 0.290000 -1.268630
v -0.067353 0.290000 -2.379780
v -0.204229 0.290000 -1.946340
v -0.420000 0.290000 -1.924320
v -0.057341 0.290000 -1.274920
v -0.280000 0.000000 -1.924320
v -0.280000 0.000000 -0.701031
v -0.420000 0.290000 -0.701031
v -0.301050 0.290000 -0.371864
v -0.199607 0.290000 -0.677046
vt 19.6850 0.0000
vt -3.5723 14.7942
vt -8.3046 -0.0000
vt 6.8598 49.9462
vt 19.6850 118.1100
vt -2.6517 93.6923
vt -8.4760 118.1100
vt -7.8585 26.6553
vt -8.0405 76.6275
vt 16.5354 11.4173
vt -19.6850 -0.0000
vt 11.0236 -0.0000
vt -19.6850 11.4173
vt 8.4760 11.4173
vt -16.5354 118.1100
vt -10.7807 93.9839
vt -117.4450 -7.0902
vt -93.9206 5.5233
vt -118.7240 5.5233
vt -92.6417 -7.0902
vt -19.6850 118.1100
vt 5.2689 93.9839
vt 11.0236 118.1100
vt -3.2543 50.1936
vt -19.6850 0.0000
vt 6.3405 14.6403
vt 11.0236 -0.0000
vt 19.6850 11.4173
vt -11.0236 -0.0000
vt 19.6850 0.0000
vt -16.5354 11.4173
vt -8.3046 11.4173
vt -16.5354 75.7604
vt -2.2575 50.1936
vt -74.2072 1.7812
vt -42.2364 -10.6089
vt -44.9238 1.7812
vt -71.5198 -10.6089
vt -86.3751 26.5048
vt -68.9243 13.9357
vt -67.2646 26.5048
vt -88.0349 13.9357
vt 11.0236 75.7604
vt -17.4425 9.0921
vt -41.2254 21.4236
vt -44.1698 9.0921
vt -14.4981 21.4236
vt -15.9238 0.4083
vt -31.5765 12.9472
vt -29.7033 0.4083
vt -17.7970 12.9472
vt 3.3585 4.3863
vt -10.3333 16.9527
vt -12.0125 4.3863
vt 5.0378 16.9527
vt -11.8524 14.6403
vt -16.5354 -0.0000
vt -16.5354 27.5996
vt 11.0236 27.5996
vt -0.0000 11.4173
vt 118.1100 -0.0000
vt 118.1100 11.4173
vt -0.0000 -0.0000
vn 0.0000 1.0000 0.0000
vn 0.0000 0.0000 -1.0000
vn 0.0000 0.0000 1.0000
vn -0.8805 -0.4251 0.2100
vn -0.0000 -1.0000 -0.0000
vn -0.8045 -0.3884 0.4493
vn -0.8662 -0.4182 -0.2735
vn -0.7827 -0.3778 -0.4946
vn -0.8563 -0.4134 0.3095
vn -0.8654 -0.4178 -0.2768
vn 1.0000 0.0000 0.0000
usemtl Leafs.032
s 1
f 12/1/1 15/2/1 14/3/1
f 15/2/1 12/1/1 16/4/1
f 4/5/1 16/4/1 12/1/1
f 4/5/1 17/6/1 16/4/1
f 17/6/1 4/5/1 5/7/1
f 16/4/1 25/8/1 15/2/1
f 16/4/1 17/6/1 18/9/1
usemtl Stone.024
f 1/10/2 2/11/2 3/12/2
f 2/11/2 1/10/2 4/13/2
f 4/13/2 1/10/2 5/14/3
f 5/7/1 1/15/1 6/16/1
f 3/17/4 6/18/4 1/19/4
f 6/18/4 3/17/4 7/20/4
f 2/21/5 7/22/5 3/23/5
f 7/22/5 2/21/5 8/24/5
f 9/25/5 8/24/5 2/21/5
f 9/25/5 10/26/5 8/24/5
f 10/26/5 9/25/5 11/27/5
f 12/28/3 11/29/3 9/30/3
f 11/29/3 12/28/3 13/31/3
f 13/31/3 12/28/3 14/32/3
f 17/6/1 5/7/1 18/9/1
f 6/16/1 18/9/1 5/7/1
f 19/33/1 18/9/1 6/16/1
f 18/9/1 19/33/1 20/34/1
f 19/35/6 8/36/6 20/37/6
f 8/36/6 19/35/6 21/38/6
f 6/39/7 21/40/7 19/41/7
f 21/40/7 6/39/7 7/42/7
f 8/24/5 21/43/5 7/22/5
f 22/44/8 20/45/8 8/46/8
f 20/45/8 22/44/8 23/47/8
f 10/48/9 23/49/9 22/50/9
f 23/49/9 10/48/9 24/51/9
f 11/52/10 24/53/10 10/54/10
f 24/53/10 11/52/10 13/55/10
f 14/3/1 24/56/1 13/57/1
f 25/8/1 24/56/1 14/3/1
f 20/34/1 24/56/1 25/8/1
f 24/56/1 20/34/1 23/58/1
f 20/34/1 25/8/1 16/4/1
f 15/2/1 25/8/1 14/3/1
f 18/9/1 20/34/1 16/4/1
f 8/24/5 10/26/5 22/59/5
f 12/60/11 2/61/11 4/62/11
f 2/61/11 12/60/11 9/63/11
