# Blender v2.78 (sub 0) OBJ File: ''
# www.blender.org
mtllib naturePack_158.mtl
o Mesh1_Group1_Model.074
v 0.751427 0.099080 -0.751427
v 0.248573 0.000000 -0.751427
v 0.751427 0.000000 -0.751427
v 0.248573 0.099080 -0.751427
v 0.248573 0.099080 -0.248573
v 0.751427 0.099080 -0.248573
v 0.751427 0.000000 -0.248573
v 0.900920 0.000000 -0.900920
v 0.099080 0.000000 -0.900920
v 0.099080 0.000000 -0.099080
v 0.248573 0.000000 -0.248573
v 0.900920 0.000000 -0.099080
v 0.900920 0.099080 0.000000
v 0.099080 0.099080 0.000000
v 0.099080 0.099080 -1.000000
v 0.000000 0.099080 -0.099080
v 0.000000 0.099080 -0.900920
v 0.900920 0.099080 -1.000000
v 0.248573 0.248573 -1.000000
v 0.099080 0.900920 -1.000000
v 0.000000 0.900920 -0.900920
v 0.000000 0.248573 -0.751427
v 0.000000 0.248573 -0.248573
v 0.000000 0.751427 -0.248573
v 0.000000 0.900920 -0.099080
v 0.099080 0.900920 0.000000
v 0.248573 0.900920 -0.751427
v 0.900920 0.900920 -1.000000
v 0.099269 1.000000 -0.900731
v 0.900731 1.000000 -0.900731
v 0.248573 1.000000 -0.751427
v 0.248573 1.000000 -0.248573
v 0.099269 1.000000 -0.099268
v 0.900731 1.000000 -0.099268
v 0.900920 0.900920 0.000000
v 1.000000 0.099080 -0.099080
v 1.000000 0.900920 -0.099080
v 1.000000 0.248573 -0.248573
v 1.000000 0.099080 -0.900920
v 1.000000 0.900920 -0.900920
v 0.751427 0.248573 -1.000000
v 0.751427 0.248573 -0.900731
v 0.248573 0.248573 -0.900731
v 0.248573 0.751427 -0.900731
v 0.248573 0.751427 -1.000000
v 0.751427 0.751427 -1.000000
v 0.751427 0.751427 -0.900731
v 0.751427 0.900920 -0.248573
v 0.248573 0.900920 -0.248573
v 0.751427 0.900920 -0.751427
v 0.751427 1.000000 -0.751427
v 0.751427 1.000000 -0.248573
v 1.000000 0.751427 -0.248573
v 0.900731 0.751427 -0.248573
v 0.900731 0.248573 -0.248573
v 0.900731 0.248573 -0.751427
v 1.000000 0.248573 -0.751427
v 1.000000 0.751427 -0.751427
v 0.900731 0.751427 -0.751427
v 0.248573 0.751427 0.000000
v 0.248573 0.248573 0.000000
v 0.751427 0.248573 0.000000
v 0.751427 0.751427 0.000000
v 0.751427 0.751427 -0.099268
v 0.248573 0.751427 -0.099268
v 0.248573 0.248573 -0.099269
v 0.751427 0.248573 -0.099269
v 0.000000 0.751427 -0.751427
v 0.099269 0.751427 -0.751427
v 0.099269 0.248573 -0.751427
v 0.099269 0.248573 -0.248573
v 0.099269 0.751427 -0.248573
vt 29.5837 3.9008
vt 9.7864 0.0000
vt 29.5837 0.0000
vt 9.7864 3.9008
vt -29.5837 29.5837
vt -9.7864 9.7864
vt -9.7864 29.5837
vt -29.5837 9.7864
vt -29.5837 3.9008
vt -9.7864 0.0000
vt -9.7864 3.9008
vt -29.5837 0.0000
vt -29.5837 29.5837
vt -35.4693 35.4693
vt -29.5837 9.7864
vt -9.7864 29.5837
vt -3.9008 35.4693
vt -3.9008 3.9008
vt -9.7864 9.7864
vt -35.4693 3.9008
vt -9.7864 3.9008
vt -29.5837 0.0000
vt -9.7864 0.0000
vt -29.5837 3.9008
vt -35.4693 0.0000
vt -3.9008 0.0000
vt -3.9008 39.3701
vt 0.0000 3.9008
vt 0.0000 35.4693
vt -35.4693 2.7583
vt -3.9008 -2.7583
vt -3.9008 2.7583
vt -35.4693 -2.7583
vt -30.5971 17.6653
vt -27.8388 12.8878
vt -25.0806 17.6653
vt -3.9008 30.5971
vt -35.4693 25.0806
vt -3.9008 25.0806
vt -35.4693 30.5971
vt -3.9008 3.9008
vt -9.7864 9.7864
vt -35.4693 3.9008
vt -3.9008 35.4693
vt -25.0806 3.9008
vt -30.5971 35.4693
vt -30.5971 3.9008
vt -25.0806 35.4693
vt -35.4693 3.9008
vt -29.5837 9.7864
vt -35.4693 35.4693
vt -9.7864 9.7864
vt -3.9008 3.9008
vt -9.7864 29.5837
vt -3.9008 35.4693
vt -3.9008 39.3701
vt 0.0000 3.9008
vt 0.0000 35.4693
vt -3.9008 0.0000
vt -9.7864 29.5837
vt -35.4693 39.3701
vt -3.9082 2.7132
vt -35.4693 -2.8086
vt -3.9008 -2.8086
vt -35.4619 2.7132
vt 3.9082 35.4619
vt 9.7864 29.5837
vt 35.4619 35.4619
vt 9.7864 9.7864
vt 3.9082 3.9082
vt 35.4619 3.9082
vt 3.9082 30.5785
vt 35.4693 25.0567
vt 35.4619 30.5785
vt 3.9008 25.0567
vt 0.0000 35.3039
vt -2.7583 30.5203
vt 2.7583 30.5203
vt -3.9082 30.5785
vt -35.4693 25.0567
vt -3.9008 25.0567
vt -35.4619 30.5785
vt -27.8388 19.1904
vt -30.5971 14.4068
vt -25.0806 14.4068
vt -2.7583 35.4693
vt 2.7583 3.9008
vt 2.7583 35.4693
vt -2.7583 3.9008
vt -0.0000 -3.1850
vt 2.7583 1.5925
vt -2.7583 1.5925
vt 3.9008 -2.7583
vt 35.4693 2.7583
vt 3.9008 2.7583
vt 35.4693 -2.7583
vt 30.5971 17.6653
vt 25.0806 17.6653
vt 27.8388 12.8878
vt 30.5971 3.9008
vt 25.0806 35.4693
vt 25.0806 3.9008
vt 30.5971 35.4693
vt 3.9008 3.9008
vt 9.7864 9.7864
vt 3.9008 35.4693
vt 35.4693 3.9008
vt 3.9008 30.5971
vt 35.4693 25.0806
vt 35.4693 30.5971
vt 3.9008 25.0806
vt 2.7583 33.7380
vt -2.7583 33.7380
vt 0.0000 28.9606
vt 2.7583 3.9008
vt -2.7583 35.4693
vt -2.7583 3.9008
vt 2.7583 35.4693
vt -29.5837 9.7864
vt -35.4693 35.4693
vt 9.7864 39.3701
vt 29.5837 35.4619
vt 29.5837 39.3701
vt 9.7864 35.4619
vt 39.3701 9.7864
vt 35.4619 29.5837
vt 35.4619 9.7864
vt 39.3701 29.5837
vt -9.7864 29.5837
vt -29.5837 29.5837
vt -35.4619 9.7864
vt -39.3701 29.5837
vt -39.3701 9.7864
vt -35.4619 29.5837
vt -29.5837 9.7864
vt -9.7864 29.5837
vt -29.5837 29.5837
vt -9.7864 9.7864
vt -9.7864 35.4619
vt -29.5837 39.3701
vt -29.5837 35.4619
vt -9.7864 39.3701
vt -35.4693 0.0000
vt -39.3701 35.4693
vt -29.5837 9.7864
vt -9.7864 9.7864
vt 29.5837 9.7864
vt 9.7864 29.5837
vt 9.7864 9.7864
vt 29.5837 29.5837
vt -29.5837 29.5837
vt 29.5837 39.3701
vt 9.7864 35.4693
vt 29.5837 35.4693
vt 9.7864 39.3701
vt 29.5837 29.5837
vt 29.5837 9.7864
vt -29.5837 35.4693
vt -9.7864 39.3701
vt -29.5837 39.3701
vt -9.7864 35.4693
vt 29.5837 35.4693
vt 9.7864 39.3701
vt 9.7864 35.4693
vt 29.5837 39.3701
vt -29.5837 39.3701
vt -9.7864 35.4693
vt -9.7864 39.3701
vt -29.5837 35.4693
vt 3.9008 -2.8086
vt 35.4619 2.7132
vt 3.9082 2.7132
vt 35.4693 -2.8086
vt -39.3701 3.9008
vt 9.7864 29.5837
vt 35.4693 35.4693
vt -39.3701 9.7864
vt -35.4619 29.5837
vt -39.3701 29.5837
vt -35.4619 9.7864
vt 39.3701 9.7864
vt 35.4619 29.5837
vt 35.4619 9.7864
vt 39.3701 29.5837
vt 29.5837 9.7864
vt 29.5837 29.5837
vt -35.4619 9.7864
vt -39.3701 29.5837
vt -39.3701 9.7864
vt -35.4619 29.5837
vt 9.7864 29.5837
vt 29.5837 9.7864
vt 29.5837 29.5837
vt 9.7864 9.7864
vt 35.4619 9.7864
vt 39.3701 29.5837
vt 35.4619 29.5837
vt 39.3701 9.7864
vt 30.5971 14.4068
vt 27.8388 19.1904
vt 25.0806 14.4068
vt -2.7583 -1.7067
vt 2.7583 -1.7067
vt 0.0000 3.0768
vt 3.9008 35.4693
vt 9.7864 29.5837
vt 35.4693 35.4693
vt 9.7864 9.7864
vt 3.9008 3.9008
vt 29.5837 9.7864
vt 35.4693 3.9008
vt 29.5837 29.5837
vt -9.7864 0.0000
vt -29.5837 3.9082
vt -29.5837 0.0000
vt -9.7864 3.9082
vt 0.0000 29.5837
vt 3.9082 9.7864
vt 3.9082 29.5837
vt 0.0000 9.7864
vt 29.5837 0.0000
vt 9.7864 3.9082
vt 9.7864 0.0000
vt 29.5837 3.9082
vt 0.0000 9.7864
vt -3.9082 29.5837
vt -3.9082 9.7864
vt 0.0000 29.5837
vt 29.5837 29.5837
vt 9.7864 9.7864
vt 29.5837 9.7864
vt 9.7864 29.5837
vt -35.4693 39.3701
vt -39.3701 35.4693
vt -39.3701 3.9008
vt -29.5837 29.5837
vt 0.0000 9.7864
vt 3.9082 29.5837
vt 0.0000 29.5837
vt 3.9082 9.7864
vt 0.0000 29.5837
vt 3.9082 9.7864
vt 3.9082 29.5837
vt 0.0000 9.7864
vt 0.0000 29.5837
vt -3.9082 9.7864
vt -3.9082 29.5837
vt 0.0000 9.7864
vt -3.9082 29.5837
vt -3.9082 9.7864
vt -29.5837 29.5837
vt -9.7864 9.7864
vt -9.7864 29.5837
vt -29.5837 9.7864
vt 9.7864 3.9008
vt 29.5837 0.0000
vt 29.5837 3.9008
vt 9.7864 0.0000
vn 0.0000 0.0000 1.0000
vn 0.0000 -1.0000 -0.0000
vn -1.0000 -0.0000 0.0000
vn 0.0000 0.0000 -1.0000
vn -0.7071 -0.7071 -0.0000
vn -0.5774 -0.5774 -0.5774
vn 0.0000 -0.7071 -0.7071
vn -0.7071 0.0000 -0.7071
vn 0.0000 0.7078 -0.7064
vn -0.0000 1.0000 0.0000
vn 0.0000 0.7078 0.7064
vn -0.5766 0.5788 0.5766
vn -0.7064 0.7078 0.0000
vn -0.5766 0.5788 -0.5766
vn -0.7071 -0.0000 0.7071
vn -0.5774 -0.5774 0.5774
vn 0.0000 -0.7071 0.7071
vn 0.5774 -0.5774 0.5774
vn 0.7071 -0.0000 0.7071
vn 1.0000 0.0000 0.0000
vn 0.7071 -0.7071 -0.0000
vn 0.5773 -0.5774 -0.5774
vn 0.7071 0.0000 -0.7071
vn 0.7064 0.7078 0.0000
vn 0.5766 0.5788 0.5766
vn 0.5766 0.5788 -0.5766
usemtl Stone.050
s 1
f 1/1/1 2/2/1 3/3/1
f 2/2/1 1/1/1 4/4/1
f 1/5/2 5/6/2 4/7/2
f 5/6/2 1/5/2 6/8/2
f 1/9/3 7/10/3 6/11/3
f 7/10/3 1/9/3 3/12/3
f 3/13/2 8/14/2 7/15/2
f 2/16/2 8/14/2 3/13/2
f 2/16/2 9/17/2 8/14/2
f 9/17/2 2/16/2 10/18/2
f 11/19/2 10/18/2 2/16/2
f 10/18/2 11/19/2 12/20/2
f 12/20/2 11/19/2 7/15/2
f 5/21/4 7/22/4 11/23/4
f 7/22/4 5/21/4 6/24/4
f 13/25/2 5/6/2 6/8/2
f 14/26/2 5/6/2 13/25/2
f 5/6/2 14/26/2 4/7/2
f 14/26/2 15/27/2 4/7/2
f 16/28/2 15/27/2 14/26/2
f 15/27/2 16/28/2 17/29/2
f 17/30/5 10/31/5 16/32/5
f 10/31/5 17/30/5 9/33/5
f 15/34/6 9/35/6 17/36/6
f 15/37/7 8/38/7 9/39/7
f 8/38/7 15/37/7 18/40/7
f 15/41/4 19/42/4 18/43/4
f 19/42/4 15/41/4 20/44/4
f 17/45/8 20/46/8 15/47/8
f 20/46/8 17/45/8 21/48/8
f 17/49/3 22/50/3 21/51/3
f 17/49/3 23/52/3 22/50/3
f 16/53/3 23/52/3 17/49/3
f 23/52/3 16/53/3 24/54/3
f 25/55/3 24/54/3 16/53/3
f 24/54/3 25/55/3 21/51/3
f 20/56/2 25/57/2 21/58/2
f 25/57/2 20/56/2 26/59/2
f 26/59/2 20/56/2 27/60/2
f 27/60/2 20/56/2 28/61/2
f 29/62/9 28/63/9 20/64/9
f 28/63/9 29/62/9 30/65/9
f 29/66/10 31/67/10 30/68/10
f 31/67/10 29/66/10 32/69/10
f 33/70/10 32/69/10 29/66/10
f 32/69/10 33/70/10 34/71/10
f 33/72/11 35/73/11 34/74/11
f 35/73/11 33/72/11 26/75/11
f 33/76/12 25/77/12 26/78/12
f 33/79/13 21/80/13 25/81/13
f 21/80/13 33/79/13 29/82/13
f 29/83/14 20/84/14 21/85/14
f 25/86/15 14/87/15 26/88/15
f 14/87/15 25/86/15 16/89/15
f 10/90/16 14/91/16 16/92/16
f 10/93/17 13/94/17 14/95/17
f 13/94/17 10/93/17 12/96/17
f 36/97/18 13/98/18 12/99/18
f 36/100/19 35/101/19 13/102/19
f 35/101/19 36/100/19 37/103/19
f 36/104/20 38/105/20 37/106/20
f 38/105/20 36/104/20 39/107/20
f 36/108/21 8/109/21 39/110/21
f 8/109/21 36/108/21 12/111/21
f 12/20/2 7/15/2 8/14/2
f 18/112/22 39/113/22 8/114/22
f 18/115/23 40/116/23 39/117/23
f 40/116/23 18/115/23 28/118/23
f 18/43/4 41/119/4 28/120/4
f 41/119/4 18/43/4 19/42/4
f 19/121/10 42/122/10 41/123/10
f 42/122/10 19/121/10 43/124/10
f 19/125/20 44/126/20 43/127/20
f 44/126/20 19/125/20 45/128/20
f 19/42/4 20/44/4 45/129/4
f 45/129/4 20/44/4 46/130/4
f 28/120/4 46/130/4 20/44/4
f 28/120/4 41/119/4 46/130/4
f 42/131/3 46/132/3 41/133/3
f 46/132/3 42/131/3 47/134/3
f 42/135/4 44/136/4 47/137/4
f 44/136/4 42/135/4 43/138/4
f 44/139/2 46/140/2 47/141/2
f 46/140/2 44/139/2 45/142/2
f 35/143/2 28/61/2 40/144/2
f 35/143/2 48/145/2 28/61/2
f 35/143/2 49/146/2 48/145/2
f 26/59/2 49/146/2 35/143/2
f 49/146/2 26/59/2 27/60/2
f 48/147/10 27/148/10 49/149/10
f 27/148/10 48/147/10 50/150/10
f 50/151/2 28/61/2 48/145/2
f 27/60/2 28/61/2 50/151/2
f 51/152/1 27/153/1 50/154/1
f 27/153/1 51/152/1 31/155/1
f 30/68/10 31/67/10 51/156/10
f 30/68/10 51/156/10 34/71/10
f 52/157/10 34/71/10 51/156/10
f 32/69/10 34/71/10 52/157/10
f 48/158/4 32/159/4 52/160/4
f 32/159/4 48/158/4 49/161/4
f 27/162/20 32/163/20 49/164/20
f 32/163/20 27/162/20 31/165/20
f 51/166/3 48/167/3 52/168/3
f 48/167/3 51/166/3 50/169/3
f 37/170/24 30/171/24 34/172/24
f 30/171/24 37/170/24 40/173/24
f 35/143/2 40/144/2 37/174/2
f 37/106/20 53/175/20 40/176/20
f 53/175/20 37/106/20 38/105/20
f 38/177/4 54/178/4 53/179/4
f 54/178/4 38/177/4 55/180/4
f 38/181/10 56/182/10 55/183/10
f 56/182/10 38/181/10 57/184/10
f 38/105/20 39/107/20 57/185/20
f 57/185/20 39/107/20 58/186/20
f 40/176/20 58/186/20 39/107/20
f 40/176/20 53/175/20 58/186/20
f 54/187/2 58/188/2 53/189/2
f 58/188/2 54/187/2 59/190/2
f 54/191/20 56/192/20 59/193/20
f 56/192/20 54/191/20 55/194/20
f 56/195/1 58/196/1 59/197/1
f 58/196/1 56/195/1 57/198/1
f 37/199/25 34/200/25 35/201/25
f 40/202/26 28/203/26 30/204/26
f 26/205/1 60/206/1 35/207/1
f 26/205/1 61/208/1 60/206/1
f 14/209/1 61/208/1 26/205/1
f 61/208/1 14/209/1 62/210/1
f 13/211/1 62/210/1 14/209/1
f 62/210/1 13/211/1 35/207/1
f 62/210/1 35/207/1 63/212/1
f 63/212/1 35/207/1 60/206/1
f 60/213/2 64/214/2 63/215/2
f 64/214/2 60/213/2 65/216/2
f 60/217/20 66/218/20 65/219/20
f 66/218/20 60/217/20 61/220/20
f 62/221/10 66/222/10 61/223/10
f 66/222/10 62/221/10 67/224/10
f 62/225/3 64/226/3 67/227/3
f 64/226/3 62/225/3 63/228/3
f 64/229/1 66/230/1 67/231/1
f 66/230/1 64/229/1 65/232/1
f 13/25/2 18/233/2 39/234/2
f 13/25/2 6/8/2 18/233/2
f 1/5/2 18/233/2 6/8/2
f 4/7/2 18/233/2 1/5/2
f 4/7/2 15/27/2 18/233/2
f 13/25/2 39/234/2 36/235/2
f 24/54/3 21/51/3 68/236/3
f 68/236/3 21/51/3 22/50/3
f 22/237/1 69/238/1 68/239/1
f 69/238/1 22/237/1 70/240/1
f 22/241/10 71/242/10 70/243/10
f 71/242/10 22/241/10 23/244/10
f 24/245/4 71/246/4 23/244/4
f 71/246/4 24/245/4 72/247/4
f 24/248/2 69/249/2 72/250/2
f 69/249/2 24/248/2 68/239/2
f 69/251/3 71/252/3 72/253/3
f 71/252/3 69/251/3 70/254/3
f 5/255/20 2/256/20 4/257/20
f 2/256/20 5/255/20 11/258/20
