# Blender v2.78 (sub 0) OBJ File: ''
# www.blender.org
mtllib naturePack_017.mtl
o Mesh1_Group1_Model.010
v 1.180000 0.000000 -0.510955
v 0.778800 0.640000 -0.183944
v 0.885000 0.000000 0.000000
v 0.967600 0.640000 -0.510955
v 0.778800 0.640000 -0.837966
v 0.885000 0.000000 -1.021910
v 0.295000 0.000000 -1.021910
v 0.295000 0.000000 0.000000
v 0.000000 0.000000 -0.510955
v 0.401200 0.640000 -0.183944
v 0.212400 0.640000 -0.510955
v 0.401200 0.640000 -0.837966
vt 15.7953 7.2419
vt 15.7953 32.9908
vt 8.3622 20.1163
vt 30.6614 7.2419
vt 30.6614 32.9908
vt 38.0945 20.1163
vt 40.6496 -8.3351
vt 21.6024 17.8818
vt 17.4213 -8.3351
vt 36.4685 17.8818
vt -5.8071 -13.8918
vt 13.2402 12.3251
vt -1.6260 12.3251
vt 17.4213 -13.8918
vt -34.8425 0.0000
vt -34.8425 40.2327
vt -46.4567 20.1163
vt -11.6142 40.2327
vt -11.6142 0.0000
vt 0.0000 20.1163
vt 1.6260 28.9953
vt -17.4213 2.7784
vt 5.8071 2.7784
vt -13.2402 28.9953
vt 11.6142 0.0000
vt 30.6614 26.2169
vt 15.7953 26.2169
vt 34.8425 0.0000
vt -34.8425 -11.1135
vt -15.7953 15.1035
vt -30.6614 15.1035
vt -11.6142 -11.1135
vt -17.4213 -2.7784
vt -36.4685 23.4385
vt -40.6496 -2.7784
vt -21.6024 23.4385
vn -0.0000 1.0000 0.0000
vn 0.8323 0.2762 0.4805
vn 0.8323 0.2762 -0.4805
vn 0.0000 -1.0000 -0.0000
vn -0.8323 0.2762 0.4805
vn 0.0000 0.2762 0.9611
vn 0.0000 0.2762 -0.9611
vn -0.8323 0.2762 -0.4805
usemtl Green_leafs.010
s 1
f 10/1/1 12/2/1 11/3/1
f 12/2/1 10/1/1 2/4/1
f 12/2/1 2/4/1 5/5/1
f 5/5/1 2/4/1 4/6/1
usemtl Wood.014
f 1/7/2 2/8/2 3/9/2
f 2/8/2 1/7/2 4/10/2
f 1/11/3 5/12/3 4/13/3
f 5/12/3 1/11/3 6/14/3
f 3/15/4 6/16/4 1/17/4
f 3/15/4 7/18/4 6/16/4
f 8/19/4 7/18/4 3/15/4
f 7/18/4 8/19/4 9/20/4
f 10/21/5 9/22/5 8/23/5
f 9/22/5 10/21/5 11/24/5
f 8/25/6 2/26/6 10/27/6
f 2/26/6 8/25/6 3/28/6
f 6/29/7 12/30/7 5/31/7
f 12/30/7 6/29/7 7/32/7
f 9/33/8 12/34/8 7/35/8
f 12/34/8 9/33/8 11/36/8
