# Blender v2.78 (sub 0) OBJ File: ''
# www.blender.org
mtllib naturePack_035.mtl
o Mesh1_Group1_Model.024
v 1.264400 0.000000 -0.730000
v 0.831341 1.060000 -1.074920
v 1.030480 1.060000 -0.730000
v 0.948298 0.000000 -1.277500
v 1.264400 0.000000 -0.365000
v 0.632199 0.000000 0.000000
v 0.632199 0.000000 -1.460000
v 0.000000 0.000000 -1.095000
v 0.000000 0.000000 -0.365000
v 0.632199 1.060000 -0.270100
v 0.233913 1.060000 -0.500050
v 0.614923 1.230000 -0.367176
v 0.308244 1.230000 -0.544238
v 0.308244 1.230000 -0.898361
v 0.514017 1.230000 -1.017160
v 0.805934 1.230000 -0.477456
v 0.880264 1.060000 -0.413321
v 1.030480 1.060000 -0.500050
v 0.632199 1.060000 -1.189900
v 0.501152 1.060000 -1.114240
v 0.233913 1.060000 -0.959950
vt 24.2096 14.4558
vt 12.1356 35.3685
vt 12.1356 21.4267
vt 20.2369 40.0458
vt 31.7297 18.7975
vt 40.5702 28.7402
vt 34.6561 16.2725
vt 40.5702 19.6870
vt 32.7300 42.3199
vt 24.8897 46.8465
vt 19.7304 43.8677
vt -0.0000 -10.7897
vt 20.2851 31.6978
vt 4.6046 31.6978
vt 24.8897 -10.7897
vt -49.7794 14.3701
vt -37.3346 50.2953
vt -49.7794 28.7402
vt -24.8897 0.0000
vt -24.8897 57.4803
vt -0.0000 43.1102
vt 0.0000 14.3701
vt 16.2382 45.4180
vt -7.1850 2.6817
vt 21.5551 2.6817
vt -1.8681 45.4180
vt 13.7382 54.2505
vt -1.8681 46.9283
vt 16.2382 46.9283
vt -0.2036 54.2505
vt 26.8720 35.0892
vt 36.8775 42.7126
vt 28.1940 42.7126
vt 38.1493 35.0892
vt 26.8720 40.0546
vt 44.9783 40.0546
vt 38.1493 40.0546
vt 21.5551 -2.6817
vt 50.2953 -2.6817
vt 28.7402 -10.7269
vt 19.6870 32.0094
vt 14.3701 -10.7269
vt 28.7402 32.0094
vt -44.9783 34.6911
vt -26.8720 34.6911
vt -39.0209 34.6911
vt -50.2953 -8.0452
vt -21.5551 -8.0452
vt -43.1102 0.0000
vt -19.6870 42.7363
vt -37.7933 42.7363
vt -14.3701 -0.0000
vt -21.4267 49.2311
vt -37.7933 41.9264
vt -19.6870 41.9264
vt -35.3685 49.2311
vt -28.1940 31.2027
vt -39.0209 23.6204
vt -26.8720 23.6204
vt -37.5486 31.2027
vt 1.4386 40.0335
vt 29.1986 33.2012
vt 25.5959 40.0335
vt -2.1746 33.2012
vt 1.8681 29.3277
vt -7.1850 -13.4086
vt 7.1850 -13.4086
vt -7.1850 29.3277
vn 0.0000 1.0000 0.0000
vn 0.8506 0.1877 -0.4911
vn -0.0000 -1.0000 -0.0000
vn -0.4883 0.2155 0.8457
vn -0.4570 0.4056 0.7916
vn 0.4390 0.4788 0.7603
vn 0.4883 0.2155 0.8457
vn 0.4813 0.2990 0.8240
vn 0.9765 0.2155 0.0000
vn -0.4883 0.2155 -0.8457
vn -0.4882 0.2155 -0.8457
vn -0.2579 -0.7670 -0.5876
vn -0.9765 0.2155 0.0000
vn -0.9162 0.4006 0.0000
vn -0.4413 0.4699 -0.7644
vn -0.4414 0.4699 -0.7644
vn 0.8616 0.2009 -0.4660
vn 0.4883 0.2155 -0.8457
usemtl Green_leafs.017
s 1
f 12/1/1 14/2/1 13/3/1
f 14/2/1 12/1/1 15/4/1
f 15/4/1 12/1/1 16/5/1
f 3/6/1 17/7/1 18/8/1
f 2/9/1 17/7/1 3/6/1
f 19/10/1 17/7/1 2/9/1
f 17/7/1 19/10/1 20/11/1
usemtl Wood.021
f 1/12/2 2/13/2 3/14/2
f 2/13/2 1/12/2 4/15/2
f 5/16/3 4/17/3 1/18/3
f 6/19/3 4/17/3 5/16/3
f 6/19/3 7/20/3 4/17/3
f 6/19/3 8/21/3 7/20/3
f 8/21/3 6/19/3 9/22/3
f 10/23/4 9/24/4 6/25/4
f 9/24/4 10/23/4 11/26/4
f 12/27/5 11/28/5 10/29/5
f 11/28/5 12/27/5 13/30/5
f 10/31/6 16/32/6 12/33/6
f 16/32/6 10/31/6 17/34/6
f 10/35/7 18/36/7 17/37/8
f 6/38/7 18/36/7 10/35/7
f 18/36/7 6/38/7 5/39/7
f 1/40/9 18/41/9 5/42/9
f 18/41/9 1/40/9 3/43/9
f 19/44/10 21/45/11 20/46/12
f 7/47/10 21/45/11 19/44/10
f 21/45/11 7/47/10 8/48/10
f 8/49/13 11/50/13 21/51/13
f 11/50/13 8/49/13 9/52/13
f 13/53/14 21/54/14 11/55/14
f 21/54/14 13/53/14 14/56/14
f 14/57/15 20/58/15 21/59/16
f 20/58/15 14/57/15 15/60/15
f 16/61/17 20/62/17 15/63/17
f 20/62/17 16/61/17 17/64/17
f 19/65/18 4/66/18 7/67/18
f 4/66/18 19/65/18 2/68/18
